<?xml version="1.0" encoding="utf-8"?>
<!-- Generator: Adobe Illustrator 16.0.2, SVG Export Plug-In . SVG Version: 6.00 Build 0)  -->
<!DOCTYPE svg PUBLIC "-//W3C//DTD SVG 1.1//EN" "http://www.w3.org/Graphics/SVG/1.1/DTD/svg11.dtd">
<svg version="1.1"
	 id="svg8" xmlns:svg="http://www.w3.org/2000/svg" xmlns:inkscape="http://www.inkscape.org/namespaces/inkscape" xmlns:sodipodi="http://sodipodi.sourceforge.net/DTD/sodipodi-0.dtd" xmlns:cc="http://creativecommons.org/ns#" xmlns:rdf="http://www.w3.org/1999/02/22-rdf-syntax-ns#" xmlns:dc="http://purl.org/dc/elements/1.1/" inkscape:version="0.92.3 (2405546, 2018-03-11)" sodipodi:docname="icon-72x72.svg"
	 xmlns="http://www.w3.org/2000/svg" xmlns:xlink="http://www.w3.org/1999/xlink" x="0px" y="0px" width="72px" height="72px"
	 viewBox="0 0 72 72" enable-background="new 0 0 72 72" xml:space="preserve">
<sodipodi:namedview  id="base" units="px" pagecolor="#ffffff" showgrid="false" bordercolor="#666666" inkscape:cy="33.138037" inkscape:cx="126.5899" inkscape:zoom="3.3092597" borderopacity="1.0" inkscape:window-maximized="1" inkscape:window-width="1920" inkscape:current-layer="svg8" inkscape:document-units="mm" inkscape:pageshadow="2" inkscape:pageopacity="0.0" inkscape:window-height="1057" inkscape:window-y="-8" inkscape:window-x="-8">
	</sodipodi:namedview>
<g id="layer1" transform="translate(0,-277.94999)" inkscape:label="Capa 1" inkscape:groupmode="layer">
	
		<linearGradient id="path13047_1_" gradientUnits="userSpaceOnUse" x1="-1954.6309" y1="2271.6921" x2="-1880.8623" y2="2271.6921" gradientTransform="matrix(1 0.0074 -0.0074 1 1970.0537 -1943.6833)">
		<stop  offset="0" style="stop-color:#5477FF"/>
		<stop  offset="1" style="stop-color:#000F55"/>
	</linearGradient>
	<path id="path13047" inkscape:connector-curvature="0" fill="url(#path13047_1_)" stroke="#F9F7F7" stroke-width="1.8177" d="
		M72.461,314.091c-0.151,20.553-16.788,37.091-37.159,36.94c-20.371-0.148-36.761-16.934-36.61-37.486
		c0.151-20.552,16.788-37.092,37.159-36.941C56.223,276.754,72.612,293.536,72.461,314.091z"/>
</g>
<g id="g1235">
	<g id="g1233">
		<g id="g1231">
			<g>
				<g>
					<g>
						<defs>
							<circle id="SVGID_1_" cx="35.122" cy="36.652" r="37.67"/>
						</defs>
						<clipPath id="SVGID_2_">
							<use xlink:href="#SVGID_1_"  overflow="visible"/>
						</clipPath>
						<g id="g1229" transform="matrix(1 0 0 1 2.384186e-007 -3.576279e-007)" clip-path="url(#SVGID_2_)">
						</g>
					</g>
				</g>
			</g>
		</g>
	</g>
</g>
<g>
	<g>
		<g>
			<g>
				<g>
					
						<linearGradient id="SVGID_3_" gradientUnits="userSpaceOnUse" x1="43.3984" y1="-740.4883" x2="77.7393" y2="-740.4883" gradientTransform="matrix(1 0 0 -1 -0.0601 -699.7158)">
						<stop  offset="0" style="stop-color:#FFFFFF"/>
						<stop  offset="0.7208" style="stop-color:#474747"/>
						<stop  offset="1" style="stop-color:#000000"/>
					</linearGradient>
					<path fill="url(#SVGID_3_)" d="M60.81,33.41c0-6.042-4.872-12.482-12.183-12.482c-6.574,0-12.187,5.775-12.168,12.329v19.589
						c0,0.266,0.229,0.499,0.488,0.499h4.26c0.26,0,0.491-0.235,0.491-0.499V40.491c3.55,2.183,4.492,4.562,4.492,7.271
						c0,4.401-3.343,7.864-7.799,7.864c-2.726,0-6.073-1.512-7.67-5.43c-0.104-0.254-0.406-0.377-0.653-0.26
						c-1.081,0.508-2.307,1.014-3.351,1.581c-0.183,0.102-0.299,0.407-0.229,0.606c2.034,5.893,7.825,8.492,11.905,8.492
						c7.239,0,13.419-6.004,12.513-14.91C56.654,44.078,60.81,38.814,60.81,33.41z M49.201,40.855
						c-1.637-2.79-5.205-5.267-7.639-5.682c-0.076-0.814-0.248-1.865-0.248-2.386c0-3.649,3.768-7.114,7.432-7.114
						c4.275,0,7.435,3.897,7.435,7.612C56.181,36.429,53.919,40.322,49.201,40.855z"/>
				</g>
			</g>
			<g>
				<g>
					<path fill="none" stroke="#FBFBFB" stroke-width="0.625" stroke-miterlimit="10" d="M60.81,33.41
						c0-6.042-4.872-12.482-12.183-12.482c-6.574,0-12.187,5.775-12.168,12.329v19.589c0,0.266,0.229,0.499,0.488,0.499h4.26
						c0.26,0,0.491-0.235,0.491-0.499V40.491c3.55,2.183,4.492,4.562,4.492,7.271c0,4.401-3.343,7.864-7.799,7.864
						c-2.726,0-6.073-1.512-7.67-5.43c-0.104-0.254-0.406-0.377-0.653-0.26c-1.081,0.508-2.307,1.014-3.351,1.581
						c-0.183,0.102-0.299,0.407-0.229,0.606c2.034,5.893,7.825,8.492,11.905,8.492c7.239,0,13.419-6.004,12.513-14.91
						C56.654,44.078,60.81,38.814,60.81,33.41z M49.201,40.855c-1.637-2.79-5.205-5.267-7.639-5.682
						c-0.076-0.814-0.248-1.865-0.248-2.386c0-3.649,3.768-7.114,7.432-7.114c4.275,0,7.435,3.897,7.435,7.612
						C56.181,36.429,53.919,40.322,49.201,40.855z"/>
				</g>
			</g>
		</g>
		
			<linearGradient id="SVGID_4_" gradientUnits="userSpaceOnUse" x1="30.0015" y1="-730.8037" x2="75.8977" y2="-730.8037" gradientTransform="matrix(1 0 0 -1 -0.0601 -699.7158)">
			<stop  offset="0" style="stop-color:#FFFFFF"/>
			<stop  offset="0.7208" style="stop-color:#474747"/>
			<stop  offset="1" style="stop-color:#000000"/>
		</linearGradient>
		<path fill="url(#SVGID_4_)" stroke="#F7F2F2" stroke-width="0.625" stroke-miterlimit="10" d="M44.576,18.867
			c0.159,0.354-0.014,0.65-0.396,0.668c-1.26,0.055-2.663,0.054-3.878-0.05c-0.062-0.006-0.303-0.149-0.339-0.204
			c-1.405-2.11-4.017-3.681-5.978-3.681c-4.25,0-6.987,3.901-6.987,7.276c0,3.971,3.382,7.272,6.758,7.272
			c0.315,0,2.199-0.503,2.199-0.503l0.426-0.208c-0.861,2.134-0.565,4.664-0.565,4.664c-0.336,0.046-0.59,0.096-0.961,0.146
			c-0.208,0.029-0.422,0.052-0.643,0.067c0.421,1.684,0.804,3.693,0.804,4.283c0,6.992-5.717,12.202-11.91,12.202
			c-6.824,0-11.913-5.885-11.913-12.084c0-4.166,2.248-9.601,8.073-11.57c0.336-0.115,0.602,0.081,0.602,0.445v3.904
			c0,0.072-0.125,0.332-0.183,0.374c-3.051,2.38-3.911,4.36-3.911,6.732c0,4.855,3.725,7.509,7.331,7.509
			c4.189,0,7.33-3.253,7.33-7.392c0-1.846-0.459-3.104-1.136-4.114c-0.343-0.512-0.745-0.97-1.188-1.411
			c-0.454-0.453-0.936-0.878-1.416-1.317c-1.997-1.827-4.048-3.968-4.048-8.998c0-6.652,4.701-11.499,11.225-11.499
			C37.919,11.377,41.806,12.762,44.576,18.867z"/>
	</g>
	<path fill="none" d="M-9,60.621"/>
</g>
</svg>
