<?xml version="1.0" encoding="utf-8"?>
<!-- Generator: Adobe Illustrator 16.0.2, SVG Export Plug-In . SVG Version: 6.00 Build 0)  -->
<!DOCTYPE svg PUBLIC "-//W3C//DTD SVG 1.1//EN" "http://www.w3.org/Graphics/SVG/1.1/DTD/svg11.dtd">
<svg version="1.1"
	 id="svg815" xmlns:rdf="http://www.w3.org/1999/02/22-rdf-syntax-ns#" xmlns:cc="http://creativecommons.org/ns#" xmlns:sodipodi="http://sodipodi.sourceforge.net/DTD/sodipodi-0.dtd" xmlns:inkscape="http://www.inkscape.org/namespaces/inkscape" xmlns:dc="http://purl.org/dc/elements/1.1/" xmlns:svg="http://www.w3.org/2000/svg" inkscape:version="0.92.3 (2405546, 2018-03-11)" sodipodi:docname="body_nivel.svg"
	 xmlns="http://www.w3.org/2000/svg" xmlns:xlink="http://www.w3.org/1999/xlink" x="0px" y="0px" width="254.184px"
	 height="29.192px" viewBox="73.317 12.33 254.184 29.192" enable-background="new 73.317 12.33 254.184 29.192"
	 xml:space="preserve">
<path id="path13761_1_" inkscape:connector-curvature="0" fill="#FF3300" d="M76.691,33.653V20.917c0-0.784,0.145-1.52,0.432-2.224
	c0.288-0.672,0.705-1.28,1.232-1.808c1.104-1.104,2.432-1.648,4.016-1.648h66.641c0.768,0,1.488,0.145,2.208,0.448
	c0.671,0.272,1.279,0.688,1.807,1.2c1.105,1.12,1.648,2.448,1.648,4.032v12.736c0,0.784-0.144,1.521-0.448,2.224
	c-0.288,0.672-0.688,1.281-1.2,1.792c-0.528,0.528-1.136,0.945-1.807,1.216c-0.721,0.305-1.441,0.449-2.208,0.449H82.372
	c-0.784,0-1.504-0.145-2.224-0.449c-0.672-0.271-1.28-0.688-1.792-1.216c-0.527-0.511-0.944-1.12-1.232-1.792
	C76.835,35.174,76.691,34.438,76.691,33.653z"/>
<g id="g13759" transform="translate(-56.003036,-233.66784)">
	<g id="g13753">
		<path id="path13751" inkscape:connector-curvature="0" fill="#FF3300" d="M233.487,267.321v-12.736
			c0-0.784,0.145-1.52,0.432-2.224c0.288-0.672,0.705-1.28,1.232-1.808c1.104-1.104,2.432-1.648,4.016-1.648h66.64
			c0.768,0,1.489,0.145,2.208,0.448c0.672,0.272,1.279,0.688,1.808,1.2c1.104,1.12,1.648,2.448,1.648,4.032v12.736
			c0,0.784-0.145,1.521-0.448,2.224c-0.287,0.672-0.688,1.281-1.2,1.792c-0.528,0.528-1.136,0.945-1.808,1.216
			c-0.719,0.305-1.44,0.449-2.208,0.449h-66.639c-0.785,0-1.505-0.145-2.225-0.449c-0.672-0.271-1.28-0.688-1.792-1.216
			c-0.528-0.511-0.944-1.12-1.233-1.792C233.632,268.842,233.487,268.105,233.487,267.321L233.487,267.321z"/>
	</g>
	<g id="g13757">
		
			<path id="path13755" inkscape:connector-curvature="0" fill="none" stroke="#999999" stroke-width="0.5" stroke-linecap="round" stroke-linejoin="round" stroke-miterlimit="10" d="
			M233.487,267.321c0,0.784,0.145,1.521,0.432,2.224c0.288,0.672,0.705,1.281,1.232,1.792c0.512,0.528,1.121,0.945,1.792,1.216
			c0.72,0.305,1.441,0.449,2.226,0.449h66.639c0.769,0,1.489-0.145,2.209-0.449c0.671-0.271,1.28-0.688,1.808-1.216
			c0.512-0.511,0.912-1.12,1.199-1.792c0.306-0.704,0.448-1.439,0.448-2.224v-12.736c0-1.584-0.545-2.911-1.647-4.032
			c-0.527-0.512-1.137-0.928-1.808-1.2c-0.72-0.304-1.44-0.448-2.208-0.448h-66.64c-1.585,0-2.913,0.544-4.016,1.648
			c-0.527,0.528-0.944,1.136-1.232,1.808c-0.288,0.704-0.432,1.44-0.432,2.224L233.487,267.321"/>
	</g>
</g>
<path id="path13761" inkscape:connector-curvature="0" fill="#FF3300" d="M108.691,33.653V20.917c0-0.784,0.145-1.52,0.432-2.224
	c0.288-0.672,0.705-1.28,1.232-1.808c1.104-1.104,2.432-1.648,4.016-1.648h66.641c0.768,0,1.488,0.145,2.208,0.448
	c0.671,0.272,1.279,0.688,1.807,1.2c1.105,1.12,1.648,2.448,1.648,4.032v12.736c0,0.784-0.144,1.521-0.448,2.224
	c-0.288,0.672-0.688,1.281-1.2,1.792c-0.528,0.528-1.136,0.945-1.807,1.216c-0.721,0.305-1.441,0.449-2.208,0.449h-66.641
	c-0.784,0-1.504-0.145-2.224-0.449c-0.672-0.271-1.28-0.688-1.792-1.216c-0.527-0.511-0.944-1.12-1.232-1.792
	C108.835,35.174,108.691,34.438,108.691,33.653z"/>
<sodipodi:namedview  id="namedview817" inkscape:cx="194.07949" borderopacity="1" inkscape:zoom="2.3752225" inkscape:cy="115.7077" pagecolor="#ffffff" showgrid="false" bordercolor="#666666" inkscape:window-maximized="1" inkscape:pagecheckerboard="0" inkscape:window-width="1920" inkscape:showpageshadow="2" inkscape:pageopacity="0" inkscape:deskcolor="#d1d1d1" inkscape:window-x="-8" inkscape:window-y="-8" inkscape:window-height="1057" inkscape:current-layer="svg815" fit-margin-left="0" objecttolerance="10" showguides="true" fit-margin-top="0" guidetolerance="10" gridtolerance="10" fit-margin-bottom="0" inkscape:snap-page="false" inkscape:pageshadow="2" fit-margin-right="0">
	</sodipodi:namedview>
<g id="g13838" transform="translate(-56.003036,-233.66784)">
	<g id="g13832">
		<path id="path13830" inkscape:connector-curvature="0" fill="#FF3300" d="M303.008,267.321v-12.736
			c0-0.784,0.145-1.52,0.432-2.224c0.287-0.672,0.705-1.28,1.233-1.808c1.104-1.104,2.433-1.648,4.015-1.648h66.641
			c0.768,0,1.487,0.145,2.207,0.448c0.673,0.272,1.28,0.688,1.808,1.2c1.106,1.12,1.649,2.448,1.649,4.032v12.736
			c0,0.784-0.145,1.521-0.449,2.224c-0.287,0.672-0.688,1.281-1.2,1.792c-0.527,0.528-1.135,0.945-1.808,1.216
			c-0.72,0.305-1.439,0.449-2.207,0.449h-66.641c-0.783,0-1.505-0.145-2.224-0.449c-0.672-0.271-1.281-0.688-1.791-1.216
			c-0.528-0.511-0.946-1.12-1.234-1.792C303.152,268.842,303.008,268.105,303.008,267.321z"/>
	</g>
	<g id="g13836">
		<path id="path13834" inkscape:connector-curvature="0" fill="none" d="M303.008,267.321c0,0.784,0.145,1.521,0.432,2.224
			c0.287,0.672,0.705,1.281,1.233,1.792c0.511,0.528,1.12,0.945,1.791,1.216c0.72,0.305,1.441,0.449,2.225,0.449h66.641
			c0.767,0,1.487-0.145,2.207-0.449c0.673-0.271,1.28-0.688,1.808-1.216c0.513-0.511,0.913-1.12,1.2-1.792
			c0.306-0.704,0.448-1.439,0.448-2.224v-12.736c0-1.584-0.545-2.911-1.648-4.032c-0.527-0.512-1.135-0.928-1.808-1.2
			c-0.72-0.304-1.44-0.448-2.207-0.448h-66.642c-1.583,0-2.912,0.544-4.015,1.648c-0.528,0.528-0.944,1.136-1.232,1.808
			c-0.288,0.704-0.433,1.44-0.433,2.224V267.321"/>
	</g>
</g>
<g id="g13854" transform="translate(-56.003036,-233.66784)">
	<g id="g13848">
		
			<path id="path13846" inkscape:connector-curvature="0" fill="none" stroke="#999999" stroke-width="0.4" stroke-linecap="round" stroke-linejoin="round" stroke-miterlimit="10" d="
			M359.296,266.057c0,1.265,0.448,2.32,1.328,3.2c0.88,0.895,1.952,1.345,3.216,1.345h10.208c1.247,0,2.319-0.448,3.215-1.345
			c0.879-0.88,1.312-1.936,1.312-3.2v-10.208c0-1.265-0.433-2.32-1.312-3.216c-0.896-0.88-1.968-1.329-3.215-1.329H363.84
			c-1.266,0-2.336,0.448-3.216,1.329c-0.881,0.896-1.328,1.951-1.328,3.216V266.057"/>
	</g>
	<g id="g13852">
		<path id="path13850" inkscape:connector-curvature="0" fill="#F2F2F2" d="M359.296,266.057v-10.208
			c0-1.265,0.448-2.32,1.328-3.216c0.88-0.88,1.952-1.329,3.216-1.329h10.208c1.247,0,2.319,0.448,3.215,1.329
			c0.879,0.896,1.312,1.951,1.312,3.216v10.208c0,1.265-0.433,2.32-1.312,3.2c-0.896,0.895-1.968,1.345-3.215,1.345H363.84
			c-1.266,0-2.336-0.448-3.216-1.345C359.744,268.377,359.296,267.321,359.296,266.057L359.296,266.057z"/>
	</g>
</g>
<path id="path13894" inkscape:connector-curvature="0" fill="#FF0000" d="M305.918,27.031c0,0.16,0.032,0.32,0.095,0.464
	c0.048,0.144,0.146,0.288,0.273,0.416l5.774,5.791c0.128,0.097,0.272,0.209,0.417,0.257c0.144,0.063,0.303,0.097,0.464,0.097
	c0.16,0,0.304-0.033,0.464-0.097c0.16-0.048,0.288-0.16,0.4-0.257l0.447-0.446c0.112-0.113,0.192-0.257,0.256-0.4
	c0.064-0.145,0.096-0.306,0.096-0.465c0-0.16-0.032-0.319-0.096-0.464c-0.064-0.145-0.145-0.288-0.256-0.416l-3.145-3.136h0.377
	h4.513h3.681c0.176,0,0.335-0.032,0.479-0.096c0.144-0.049,0.287-0.145,0.384-0.257c0.113-0.111,0.208-0.24,0.271-0.383
	c0.066-0.16,0.097-0.32,0.097-0.48v-0.625c0-0.175-0.032-0.336-0.097-0.479c-0.063-0.145-0.159-0.272-0.271-0.385
	c-0.096-0.111-0.24-0.208-0.384-0.273c-0.146-0.047-0.306-0.08-0.479-0.08h-3.681h-4.513h-0.271l3.151-3.152
	c0.128-0.127,0.208-0.255,0.272-0.416c0.064-0.144,0.096-0.304,0.096-0.464c0-0.16-0.032-0.304-0.096-0.464
	c-0.064-0.16-0.145-0.288-0.272-0.4l-0.431-0.433c-0.113-0.127-0.241-0.208-0.4-0.272c-0.161-0.064-0.305-0.095-0.464-0.095
	c-0.16,0-0.307,0.031-0.466,0.095c-0.159,0.064-0.287,0.145-0.4,0.272l-5.791,5.792c-0.128,0.112-0.209,0.255-0.272,0.4
	c-0.038,0.092-0.063,0.18-0.077,0.267c-0.021,0.039-0.038,0.079-0.051,0.118C305.95,26.711,305.918,26.871,305.918,27.031z"/>
<g>
	<path fill="#F9F7F7" d="M239.603,20.108h2.434l2.662,12.252l2.672-12.252h2.044l-3.693,15.39l-2.507-0.033L239.603,20.108z"/>
	<path fill="#F9F7F7" d="M260.095,27.781c0,2.625-0.427,4.608-1.28,5.951c-0.853,1.343-2.093,2.014-3.717,2.014
		c-1.632,0-2.882-0.67-3.749-2.008c-0.867-1.339-1.301-3.325-1.301-5.957c0-2.61,0.431-4.588,1.291-5.935s2.109-2.02,3.748-2.02
		c1.618,0,2.857,0.669,3.718,2.008S260.095,25.156,260.095,27.781z M257.668,27.787c0-1.824-0.193-3.26-0.579-4.307
		s-1.06-1.571-2.022-1.571s-1.636,0.525-2.018,1.576c-0.382,1.051-0.573,2.485-0.573,4.302c0,1.787,0.188,3.213,0.563,4.279
		c0.375,1.066,1.062,1.6,2.059,1.6c0.935,0,1.598-0.517,1.986-1.549C257.474,31.084,257.668,29.642,257.668,27.787z"/>
	<path fill="#F9F7F7" d="M262.307,20.108h2.315v13.208h4.945v2.148h-7.261V20.108z"/>
	<path fill="#F9F7F7" d="M268.83,20.108h2.433l2.663,12.252l2.672-12.252h2.044l-3.693,15.39l-2.507-0.033L268.83,20.108z"/>
	<path fill="#F9F7F7" d="M279.9,20.108h8.009v2.037h-5.693v4.387h4.465v2.048h-4.465v4.804h5.785v2.081H279.9V20.108z"/>
	<path fill="#F9F7F7" d="M289.548,20.108h4.209c1.521,0,2.646,0.379,3.369,1.136c0.724,0.758,1.086,1.845,1.086,3.263
		c0,1.89-0.714,3.229-2.141,4.016l2.652,6.941h-2.511l-2.173-6.412h-2.178v6.412h-2.314V20.108z M291.862,22.077v5.006h1.771
		c0.792,0,1.374-0.24,1.746-0.72c0.372-0.48,0.559-1.106,0.559-1.879c0-1.605-0.762-2.408-2.284-2.408H291.862z"/>
</g>
<line fill="#FF3300" x1="73.317" y1="41.521" x2="327.501" y2="12.33"/>
<text transform="matrix(1 0 0 1 295.1602 107.5137)" font-family="'Myriad-Roman'" font-size="12">omni</text>
<text transform="matrix(0.9103 0 0 1 247.8105 130.0537)" fill="#F9F7F7" font-family="'FranklinGothic-MediumCond'" font-size="28.8">VOLVER</text>
</svg>
