<?xml version="1.0" encoding="utf-8"?>
<!-- Generator: Adobe Illustrator 16.0.2, SVG Export Plug-In . SVG Version: 6.00 Build 0)  -->
<!DOCTYPE svg PUBLIC "-//W3C//DTD SVG 1.1//EN" "http://www.w3.org/Graphics/SVG/1.1/DTD/svg11.dtd">
<svg version="1.1"
	 id="svg815" xmlns:rdf="http://www.w3.org/1999/02/22-rdf-syntax-ns#" xmlns:cc="http://creativecommons.org/ns#" xmlns:sodipodi="http://sodipodi.sourceforge.net/DTD/sodipodi-0.dtd" xmlns:inkscape="http://www.inkscape.org/namespaces/inkscape" xmlns:dc="http://purl.org/dc/elements/1.1/" xmlns:svg="http://www.w3.org/2000/svg" inkscape:version="0.92.3 (2405546, 2018-03-11)" sodipodi:docname="menu_principal.svg"
	 xmlns="http://www.w3.org/2000/svg" xmlns:xlink="http://www.w3.org/1999/xlink" x="0px" y="0px" width="256px" height="87.36px"
	 viewBox="72 24.57 256 87.36" enable-background="new 72 24.57 256 87.36" xml:space="preserve">
<text id="text2248" transform="matrix(0.7268 0 0 1 94.7598 77.936)" fill="#FE9929" font-family="'Bahnschrift'" font-size="19.2">&gt;&gt; SIGUIENTE</text>
<g id="g2252" transform="translate(436.43745,-71.452149)" enable-background="new    ">
	
		<text id="text2250" transform="matrix(0.7268 0 0 1 -251.5175 149.3882)" fill="#FE9929" font-family="'Bahnschrift'" font-size="19.2">&gt;&gt; PASILLOS &gt;&gt;</text>
</g>
<line id="line2039" fill="none" x1="72" y1="111.93" x2="328" y2="24.57"/>
<sodipodi:namedview  id="namedview817" inkscape:cx="190.21721" borderopacity="1" inkscape:zoom="3.1069744" inkscape:cy="27.035948" pagecolor="#ffffff" showgrid="false" bordercolor="#666666" inkscape:window-maximized="1" inkscape:pagecheckerboard="0" inkscape:window-width="1920" inkscape:showpageshadow="2" inkscape:pageopacity="0" inkscape:deskcolor="#d1d1d1" inkscape:window-x="-8" inkscape:window-y="-8" inkscape:window-height="1057" inkscape:current-layer="svg815" fit-margin-left="0" objecttolerance="10" showguides="true" fit-margin-top="0" guidetolerance="10" gridtolerance="10" fit-margin-bottom="0" inkscape:snap-page="false" inkscape:pageshadow="2" fit-margin-right="0">
	</sodipodi:namedview>
<g id="g2050">
	<g id="g2044">
		<path id="path2042" fill="#FF3300" d="M75.226,88.621V47.866c0-2.509,0.461-4.864,1.382-7.117c0.921-2.15,2.253-4.096,3.942-5.785
			c3.533-3.533,7.783-5.274,12.851-5.274H306.65c2.458,0,4.76,0.461,7.064,1.435c2.15,0.87,4.096,2.201,5.786,3.84
			c3.534,3.583,5.273,7.833,5.273,12.902v40.754c0,2.51-0.461,4.864-1.433,7.116c-0.92,2.151-2.2,4.096-3.841,5.734
			c-1.69,1.69-3.636,3.02-5.785,3.892c-2.306,0.972-4.607,1.434-7.065,1.434H93.401c-2.508,0-4.813-0.464-7.117-1.434
			c-2.15-0.872-4.096-2.201-5.733-3.892c-1.689-1.639-3.021-3.583-3.942-5.734C75.687,93.485,75.226,91.13,75.226,88.621z"/>
	</g>
	<g id="g2048">
		
			<path id="path2046" fill="none" stroke="#999999" stroke-width="0.5" stroke-linecap="round" stroke-linejoin="round" stroke-miterlimit="10" d="
			M75.226,88.621c0,2.51,0.461,4.864,1.382,7.116c0.921,2.151,2.253,4.096,3.942,5.734c1.638,1.69,3.584,3.02,5.734,3.892
			c2.304,0.972,4.608,1.434,7.117,1.434h213.247c2.458,0,4.763-0.464,7.065-1.434c2.152-0.872,4.098-2.201,5.788-3.892
			c1.639-1.639,2.919-3.583,3.839-5.734c0.974-2.252,1.433-4.608,1.433-7.116V47.866c0-5.069-1.74-9.318-5.271-12.902
			c-1.69-1.639-3.636-2.97-5.788-3.84c-2.303-0.974-4.607-1.435-7.063-1.435H93.401c-5.068,0-9.318,1.741-12.851,5.274
			c-1.689,1.689-3.021,3.635-3.942,5.785c-0.921,2.252-1.382,4.607-1.382,7.117V88.621"/>
	</g>
</g>
<g id="g2060">
	<g id="g2054">
		
			<path id="path2052" fill="none" stroke="#999999" stroke-width="0.4" stroke-linecap="round" stroke-linejoin="round" stroke-miterlimit="10" d="
			M255.347,84.577c0,4.044,1.435,7.423,4.251,10.239c2.814,2.869,6.248,4.302,10.291,4.302h32.667c3.988,0,7.423-1.432,10.29-4.302
			c2.814-2.816,4.198-6.195,4.198-10.239V51.911c0-4.045-1.383-7.424-4.198-10.292c-2.867-2.816-6.302-4.25-10.29-4.25h-32.668
			c-4.046,0-7.476,1.435-10.291,4.25c-2.815,2.866-4.25,6.246-4.25,10.292V84.577"/>
	</g>
	<g id="g2058">
		<path id="path2056" fill="#F2F2F2" d="M255.347,84.577V51.911c0-4.045,1.435-7.424,4.251-10.292
			c2.814-2.816,6.248-4.25,10.291-4.25h32.667c3.988,0,7.423,1.435,10.29,4.25c2.814,2.866,4.198,6.246,4.198,10.292v32.666
			c0,4.046-1.383,7.424-4.198,10.241c-2.867,2.867-6.302,4.3-10.29,4.3h-32.668c-4.046,0-7.476-1.43-10.291-4.3
			C256.781,92,255.347,88.621,255.347,84.577z"/>
	</g>
</g>
<path id="path2108" inkscape:connector-curvature="0" fill="#FF0000" d="M263.74,67.172c-0.007,0.513,0.089,1.025,0.29,1.486
	c0.149,0.462,0.451,0.926,0.855,1.34l18.291,18.727c0.406,0.312,0.862,0.674,1.321,0.833c0.46,0.21,0.971,0.317,1.481,0.322
	c0.515,0.005,0.975-0.093,1.486-0.291c0.514-0.149,0.928-0.503,1.289-0.806l1.448-1.419c0.362-0.354,0.623-0.813,0.831-1.271
	c0.21-0.458,0.317-0.97,0.323-1.481c0.005-0.512-0.092-1.023-0.292-1.488c-0.2-0.462-0.453-0.925-0.803-1.339l-9.961-10.141
	l1.206,0.015l14.44,0.149l11.777,0.122c0.563,0.006,1.077-0.091,1.536-0.291c0.466-0.149,0.927-0.451,1.237-0.806
	c0.364-0.354,0.674-0.761,0.884-1.221c0.211-0.509,0.318-1.02,0.322-1.531l0.022-1.998c0.005-0.563-0.093-1.077-0.292-1.539
	c-0.2-0.463-0.504-0.875-0.858-1.237c-0.302-0.361-0.757-0.674-1.22-0.883c-0.459-0.16-0.97-0.266-1.529-0.271l-11.776-0.124
	l-14.438-0.149l-0.87-0.01l10.19-9.98c0.417-0.406,0.675-0.813,0.885-1.323c0.209-0.458,0.316-0.969,0.32-1.479
	c0.007-0.515-0.088-0.975-0.289-1.488c-0.2-0.515-0.452-0.925-0.858-1.29l-1.365-1.397c-0.356-0.414-0.761-0.672-1.272-0.882
	s-0.97-0.317-1.481-0.322c-0.511-0.005-0.974,0.091-1.485,0.292c-0.515,0.2-0.925,0.452-1.291,0.855L265.37,63.2
	c-0.414,0.353-0.674,0.811-0.883,1.271c-0.121,0.293-0.206,0.571-0.258,0.85c-0.064,0.122-0.12,0.25-0.165,0.375
	C263.852,66.149,263.745,66.66,263.74,67.172L263.74,67.172z"/>
<g id="g2246">
	<g id="g2114">
		<g id="g2112">
			<path id="path2110" fill="#FE9929" d="M100.109,92l1.792-1.33l-1.792-1.332V87.24l4.403,3.431l-4.403,3.43V92z"/>
		</g>
	</g>
	<g id="g2120">
		<g id="g2118">
			<path id="path2116" fill="#FE9929" d="M104.768,92l1.843-1.33l-1.843-1.332v-2.1l4.403,3.431l-4.403,3.431V92z"/>
		</g>
	</g>
	<g id="g2128">
		<g id="g2126">
			<path id="path2122" fill="#FE9929" d="M116.698,91.54h-1.587v-1.533h1.639c0.205,0,0.41-0.051,0.563-0.154
				c0.205-0.102,0.307-0.252,0.41-0.459c0.051-0.152,0.102-0.413,0.102-0.716V86.78c0-0.309-0.051-0.513-0.102-0.717
				c-0.103-0.205-0.205-0.358-0.41-0.461c-0.153-0.102-0.358-0.151-0.563-0.151h-1.639v-1.587h1.586
				c0.563,0,1.024,0.152,1.536,0.358c0.358,0.255,0.717,0.564,0.973,1.025c0.154,0.358,0.308,0.868,0.308,1.534v1.948
				c0,0.614-0.153,1.124-0.358,1.534c-0.205,0.411-0.513,0.716-0.922,0.919C117.824,91.437,117.312,91.54,116.698,91.54z"/>
			<path id="path2124" fill="#FE9929" d="M113.472,96.405V83.861h0.922v1.587h0.717v4.556h-0.717v1.535h0.717v4.865L113.472,96.405
				L113.472,96.405z"/>
		</g>
	</g>
	<g id="g2136">
		<g id="g2134">
			<path id="path2130" fill="#FE9929" d="M124.173,86.42l-1.075,5.734h-0.666v1.535h0.409l-0.512,2.715h-1.792l2.918-12.544h1.484
				l2.919,12.544h-1.792l-0.513-2.715h0.563v-1.535h-0.871L124.173,86.42z"/>
			<path id="path2132" fill="#FE9929" d="M125.555,93.69h-2.714l0.256-1.535h2.15L125.555,93.69z"/>
		</g>
	</g>
	<g id="g2142">
		<g id="g2140">
			<path id="path2138" fill="#FE9929" d="M132.519,89.389l1.331,0.666c0.307,0.205,0.563,0.563,0.768,0.87
				c0.205,0.359,0.256,0.869,0.256,1.533v1.128c0,0.664-0.051,1.179-0.306,1.641c-0.205,0.409-0.563,0.768-1.024,0.919
				c-0.461,0.255-1.024,0.412-1.639,0.412c-0.615,0-1.177-0.153-1.638-0.412c-0.461-0.151-0.819-0.513-1.024-0.919
				c-0.256-0.513-0.359-1.026-0.359-1.641V92.97h1.639v0.515c0,0.514,0.103,0.817,0.358,1.076c0.256,0.254,0.614,0.41,1.024,0.41
				s0.768-0.152,1.024-0.41c0.256-0.255,0.358-0.563,0.358-1.076v-1.026c0-0.307-0.103-0.563-0.205-0.768
				c-0.153-0.203-0.359-0.409-0.563-0.563l-0.973-0.462l0,0h-0.051l-0.102-0.05l-1.28-0.717c-0.41-0.253-0.666-0.563-0.87-0.974
				c-0.256-0.461-0.359-0.974-0.359-1.534v-0.769c0-0.563,0.103-1.077,0.359-1.534c0.205-0.461,0.563-0.768,1.024-1.025
				c0.461-0.202,1.023-0.307,1.638-0.307c0.614,0,1.126,0.102,1.587,0.307c0.46,0.253,0.768,0.564,1.024,1.025
				c0.205,0.462,0.358,1.024,0.358,1.585v0.665h-1.638v-0.56c0-0.461-0.153-0.769-0.358-1.077c-0.205-0.204-0.563-0.359-0.973-0.359
				c-0.46,0-0.819,0.152-1.024,0.359c-0.256,0.203-0.358,0.563-0.358,0.974v0.769c0,0.307,0.051,0.614,0.205,0.816
				c0.205,0.204,0.357,0.359,0.562,0.513l0.922,0.463c0.051,0,0.102,0,0.102,0.051c0.051,0.05,0.103,0.05,0.103,0.05L132.519,89.389
				z"/>
		</g>
	</g>
	<g id="g2148">
		<g id="g2146">
			<path id="path2144" fill="#FE9929" d="M138.15,83.861v12.548h-1.638V83.861H138.15z"/>
		</g>
	</g>
	<g id="g2156">
		<g id="g2154">
			<path id="path2150" fill="#FE9929" d="M140.71,94.816v1.589h-0.871V83.861h1.639v10.955H140.71L140.71,94.816z"/>
			<path id="path2152" fill="#FE9929" d="M141.479,94.816h3.584v1.589h-3.584V94.816z"/>
		</g>
	</g>
	<g id="g2164">
		<g id="g2162">
			<path id="path2158" fill="#FE9929" d="M147.162,94.816v1.589h-0.819V83.861h1.586v10.955H147.162L147.162,94.816z"/>
			<path id="path2160" fill="#FE9929" d="M147.93,94.816h3.584v1.589h-3.584V94.816z"/>
		</g>
	</g>
	<g id="g2170">
		<g id="g2168">
			<path id="path2166" fill="#FE9929" d="M157.555,96.149c-0.46,0.256-1.024,0.409-1.689,0.409c-0.615,0-1.178-0.149-1.638-0.409
				c-0.512-0.256-0.871-0.616-1.076-1.076s-0.358-1.025-0.358-1.689V86.88c0-0.666,0.153-1.229,0.358-1.69
				c0.205-0.461,0.563-0.816,1.076-1.075c0.512-0.253,1.075-0.361,1.638-0.361c0.666,0,1.229,0.102,1.689,0.361
				c0.41,0.201,0.818,0.614,1.075,1.075c0.256,0.514,0.358,1.078,0.358,1.69v6.503c0,0.615-0.103,1.178-0.358,1.689
				C158.374,95.534,158.016,95.893,157.555,96.149z M155.098,94.765c0.256,0.104,0.512,0.206,0.768,0.206s0.512-0.103,0.819-0.206
				c0.205-0.101,0.41-0.252,0.512-0.512c0.103-0.255,0.154-0.513,0.154-0.817v-6.605c0-0.309-0.051-0.563-0.154-0.77
				c-0.102-0.256-0.307-0.461-0.512-0.512c-0.307-0.152-0.563-0.205-0.819-0.205s-0.512,0.051-0.768,0.205
				c-0.205,0.05-0.358,0.254-0.512,0.512c-0.102,0.206-0.153,0.461-0.153,0.77v6.604c0,0.307,0.051,0.564,0.153,0.818
				C154.739,94.51,154.893,94.665,155.098,94.765z"/>
		</g>
	</g>
	<g id="g2176">
		<g id="g2174">
			<path id="path2172" fill="#FE9929" d="M163.802,92l1.792-1.33l-1.792-1.332V87.24l4.402,3.431l-4.402,3.43V92z"/>
		</g>
	</g>
	<g id="g2182">
		<g id="g2180">
			<path id="path2178" fill="#FE9929" d="M168.513,92l1.844-1.33l-1.844-1.332V87.24l4.403,3.431l-4.403,3.43V92z"/>
		</g>
	</g>
	<g id="g2190">
		<g id="g2188">
			<path id="path2184" fill="#FE9929" d="M180.441,91.54h-1.587v-1.533h1.587c0.256,0,0.461-0.051,0.615-0.154
				c0.152-0.102,0.308-0.252,0.357-0.459c0.051-0.152,0.104-0.413,0.104-0.716V86.78c0-0.309-0.052-0.513-0.104-0.717
				c-0.051-0.205-0.205-0.358-0.357-0.461c-0.153-0.102-0.358-0.151-0.615-0.151h-1.587v-1.587h1.587
				c0.563,0,1.076,0.152,1.537,0.358c0.356,0.255,0.716,0.564,0.921,1.025c0.255,0.413,0.356,0.922,0.356,1.536v1.946
				c0,0.563-0.102,1.023-0.356,1.534c-0.256,0.411-0.615,0.768-0.974,0.919C181.518,91.437,181.004,91.54,180.441,91.54z"/>
			<path id="path2186" fill="#FE9929" d="M177.216,96.405V83.861h0.921v1.587h0.717v4.556h-0.717v1.535h0.717v4.865L177.216,96.405
				L177.216,96.405z"/>
		</g>
	</g>
	<g id="g2198">
		<g id="g2196">
			<path id="path2192" fill="#FE9929" d="M187.917,86.42l-1.075,5.734h-0.717v1.535h0.461l-0.564,2.715h-1.74l2.867-12.544h1.485
				l2.918,12.544h-1.741l-0.512-2.715h0.563v-1.535h-0.871L187.917,86.42z"/>
			<path id="path2194" fill="#FE9929" d="M189.3,93.69h-2.714l0.256-1.535h2.15L189.3,93.69z"/>
		</g>
	</g>
	<g id="g2204">
		<g id="g2202">
			<path id="path2200" fill="#FE9929" d="M196.058,89.288l0.205,0.102c0.052,0,0.052,0,0.052,0l1.228,0.666
				c0.307,0.205,0.563,0.461,0.768,0.87c0.255,0.41,0.306,0.921,0.306,1.533v1.128c0,0.614-0.102,1.128-0.306,1.641
				c-0.257,0.409-0.615,0.768-1.023,0.919c-0.461,0.255-1.023,0.412-1.689,0.412c-0.615,0-1.126-0.153-1.639-0.412
				c-0.461-0.151-0.769-0.513-1.023-0.919c-0.205-0.513-0.359-1.026-0.359-1.641V92.97h1.639v0.515c0,0.514,0.104,0.817,0.358,1.076
				c0.256,0.254,0.615,0.41,1.024,0.41c0.46,0,0.819-0.152,1.023-0.41c0.257-0.255,0.409-0.563,0.409-1.076v-1.026
				c0-0.307-0.102-0.563-0.256-0.768c-0.153-0.203-0.307-0.409-0.563-0.563l-0.922-0.462c0,0,0,0-0.051,0l0,0l-0.152-0.05
				l-1.28-0.717c-0.308-0.253-0.615-0.563-0.87-0.974c-0.205-0.359-0.309-0.868-0.309-1.534v-0.769c0-0.563,0.104-1.077,0.309-1.534
				c0.255-0.461,0.563-0.768,1.023-1.025c0.512-0.202,1.074-0.307,1.639-0.307c0.615,0,1.177,0.102,1.638,0.307
				c0.41,0.253,0.769,0.564,1.024,1.025c0.205,0.462,0.307,1.024,0.307,1.585v0.665h-1.638v-0.56c0-0.461-0.103-0.87-0.359-1.077
				c-0.204-0.204-0.513-0.359-0.974-0.359c-0.41,0-0.767,0.152-1.023,0.359c-0.255,0.203-0.308,0.563-0.308,0.974v0.769
				c0,0.356,0.051,0.614,0.205,0.816c0.153,0.204,0.307,0.359,0.563,0.513l0.921,0.463
				C196.006,89.236,196.006,89.236,196.058,89.288z"/>
		</g>
	</g>
	<g id="g2210">
		<g id="g2208">
			<path id="path2206" fill="#FE9929" d="M201.896,83.861v12.548h-1.69V83.861H201.896z"/>
		</g>
	</g>
	<g id="g2218">
		<g id="g2216">
			<path id="path2212" fill="#FE9929" d="M204.455,94.816v1.589h-0.921V83.861h1.69v10.955H204.455L204.455,94.816z"/>
			<path id="path2214" fill="#FE9929" d="M205.222,94.816h3.533v1.589h-3.533V94.816z"/>
		</g>
	</g>
	<g id="g2226">
		<g id="g2224">
			<path id="path2220" fill="#FE9929" d="M210.905,94.816v1.589h-0.87V83.861h1.642v10.955H210.905L210.905,94.816z"/>
			<path id="path2222" fill="#FE9929" d="M211.673,94.816h3.583v1.589h-3.583V94.816z"/>
		</g>
	</g>
	<g id="g2232">
		<g id="g2230">
			<path id="path2228" fill="#FE9929" d="M221.299,96.149c-0.46,0.256-1.023,0.409-1.689,0.409c-0.614,0-1.227-0.149-1.641-0.409
				c-0.516-0.256-0.867-0.616-1.128-1.076c-0.203-0.513-0.307-1.075-0.307-1.689V86.88c0-0.614,0.102-1.179,0.307-1.69
				c0.256-0.461,0.614-0.816,1.128-1.075c0.461-0.253,1.026-0.361,1.641-0.361c0.666,0,1.178,0.102,1.689,0.361
				c0.514,0.252,0.82,0.614,1.024,1.075c0.255,0.462,0.411,1.078,0.411,1.69v6.503c0,0.664-0.154,1.229-0.411,1.689
				C222.119,95.534,221.811,95.893,221.299,96.149z M218.842,94.765c0.253,0.104,0.513,0.206,0.768,0.206
				c0.307,0,0.563-0.103,0.816-0.206c0.203-0.101,0.358-0.252,0.516-0.512c0.099-0.255,0.15-0.513,0.15-0.817v-6.605
				c0-0.257-0.051-0.513-0.15-0.77c-0.155-0.256-0.308-0.461-0.516-0.512c-0.253-0.152-0.514-0.205-0.816-0.205
				c-0.255,0-0.515,0.051-0.768,0.205c-0.256,0.103-0.413,0.254-0.513,0.512c-0.104,0.206-0.206,0.461-0.206,0.77v6.604
				c0,0.307,0.103,0.564,0.206,0.818C218.433,94.458,218.586,94.613,218.842,94.765z"/>
		</g>
	</g>
	<g id="g2238">
		<g id="g2236">
			<path id="path2234" fill="#FE9929" d="M227.545,92l1.844-1.33l-1.844-1.332V87.24l4.403,3.431l-4.403,3.43V92z"/>
		</g>
	</g>
	<g id="g2244">
		<g id="g2242">
			<path id="path2240" fill="#FE9929" d="M232.256,92l1.793-1.33l-1.793-1.332V87.24l4.403,3.431l-4.403,3.43V92z"/>
		</g>
	</g>
</g>
<text id="text2268" transform="matrix(0.7268 0 0 1 91.3779 77.936)" fill="#FAFCFA" font-family="'Bahnschrift'" font-size="40.021">PRINCIPAL</text>
</svg>
