<?xml version="1.0" encoding="UTF-8" standalone="no"?>
<!-- Generator: Adobe Illustrator 16.0.2, SVG Export Plug-In . SVG Version: 6.00 Build 0)  -->

<svg
   xmlns:dc="http://purl.org/dc/elements/1.1/"
   xmlns:cc="http://creativecommons.org/ns#"
   xmlns:rdf="http://www.w3.org/1999/02/22-rdf-syntax-ns#"
   xmlns:svg="http://www.w3.org/2000/svg"
   xmlns="http://www.w3.org/2000/svg"
   xmlns:sodipodi="http://sodipodi.sourceforge.net/DTD/sodipodi-0.dtd"
   xmlns:inkscape="http://www.inkscape.org/namespaces/inkscape"
   version="1.1"
   id="Capa_1"
   x="0px"
   y="0px"
   width="552.30383"
   height="506.50946"
   viewBox="0 0 552.30384 506.50945"
   enable-background="new 0 0 425.197 451.764"
   xml:space="preserve"
   sodipodi:docname="coffee612.svg"
   inkscape:version="0.92.3 (2405546, 2018-03-11)"><metadata
   id="metadata11055"><rdf:RDF><cc:Work
       rdf:about=""><dc:format>image/svg+xml</dc:format><dc:type
         rdf:resource="http://purl.org/dc/dcmitype/StillImage" /></cc:Work></rdf:RDF></metadata><defs
   id="defs11053" /><sodipodi:namedview
   pagecolor="#ffffff"
   bordercolor="#666666"
   borderopacity="1"
   objecttolerance="10"
   gridtolerance="10"
   guidetolerance="10"
   inkscape:pageopacity="0"
   inkscape:pageshadow="2"
   inkscape:window-width="1920"
   inkscape:window-height="1057"
   id="namedview11051"
   showgrid="false"
   inkscape:zoom="0.52239664"
   inkscape:cx="36.029289"
   inkscape:cy="247.51197"
   inkscape:window-x="-8"
   inkscape:window-y="-8"
   inkscape:window-maximized="1"
   inkscape:current-layer="Capa_1" />
<path
   d="M 0,0 H 552.30385 V 506.50946 H 0 Z"
   style="display:inline;fill:#f0f0fa;fill-opacity:1;fill-rule:evenodd;stroke:none;stroke-width:0.48054135"
   id="path21"
   inkscape:label="bg13"
   inkscape:connector-curvature="0" /><g
   id="g11048"
   transform="translate(61.75545,33.115486)">
	<rect
   width="425.19699"
   height="451.76401"
   id="rect10920"
   x="0"
   y="0"
   style="fill:#e0e0e0" />
	<g
   id="g10926">
		<path
   d="m 102.404,314.589 v -15.751 h -8.08 c -0.862,-3.396 -2.246,-6.581 -4.054,-9.474 l 5.805,-5.806 -11.137,-11.138 -5.903,5.902 c -2.873,-1.725 -6.028,-3.027 -9.377,-3.832 v -8.4 H 53.906 v 8.4 c -3.349,0.805 -6.504,2.107 -9.377,3.832 l -5.903,-5.902 -11.138,11.138 5.806,5.806 c -1.808,2.894 -3.192,6.079 -4.055,9.475 h -8.081 v 15.751 h 7.889 c 0.795,3.505 2.132,6.801 3.929,9.793 l -5.488,5.487 11.139,11.139 5.391,-5.391 c 3.011,1.881 6.339,3.297 9.889,4.15 v 7.57 h 15.751 v -7.57 c 3.55,-0.854 6.879,-2.27 9.89,-4.15 l 5.391,5.39 11.138,-11.138 -5.488,-5.487 c 1.796,-2.992 3.134,-6.288 3.929,-9.793 h 7.886 z m -40.623,11.608 c -10.531,0 -19.068,-8.538 -19.068,-19.069 0,-10.53 8.537,-19.067 19.068,-19.067 10.531,0 19.068,8.537 19.068,19.067 10e-4,10.531 -8.536,19.069 -19.068,19.069 z"
   id="path10922"
   inkscape:connector-curvature="0"
   style="fill:#999999" />
		<path
   d="m 61.781,288.061 c -10.531,0 -19.068,8.537 -19.068,19.067 0,10.531 8.537,19.069 19.068,19.069 10.531,0 19.068,-8.538 19.068,-19.069 10e-4,-10.53 -8.536,-19.067 -19.068,-19.067 z m 0,29.431 c -5.724,0 -10.363,-4.641 -10.363,-10.364 0,-5.723 4.64,-10.363 10.363,-10.363 5.723,0 10.363,4.64 10.363,10.363 0,5.723 -4.639,10.364 -10.363,10.364 z"
   id="path10924"
   inkscape:connector-curvature="0"
   style="fill:#666666" />
	</g>
	<g
   id="g10940">
		<path
   d="m 310.369,119.221 c 0,2.965 -2.257,5.37 -5.041,5.37 h -60.74 c -2.784,0 -5.041,-2.404 -5.041,-5.37 V 53.719 c 0,-2.966 2.257,-5.37 5.041,-5.37 h 60.74 c 2.784,0 5.041,2.404 5.041,5.37 z"
   id="path10928"
   inkscape:connector-curvature="0"
   style="fill:#030c1c" />
		<path
   d="m 303.718,119.725 c 0,2.687 -2.044,4.866 -4.567,4.866 h -55.037 c -2.521,0 -4.566,-2.179 -4.566,-4.866 V 60.374 c 0,-2.687 2.045,-4.866 4.566,-4.866 h 55.037 c 2.523,0 4.567,2.179 4.567,4.866 z"
   id="path10930"
   inkscape:connector-curvature="0"
   style="fill:#061a3d" />
		<path
   d="M 259.749,50.517 V 39.144 c 0,-7.042 5.356,-15.317 15.552,-15.317 10.369,0 15.553,8.276 15.553,15.317 v 11.373 h 6.807 V 33.055 c 0,-9.657 -10.01,-17.485 -22.357,-17.485 -12.35,0 -22.36,7.829 -22.36,17.485 v 17.462 z"
   id="path10932"
   inkscape:connector-curvature="0"
   style="fill:#b5b5b5" />
		<g
   id="g10938">
			<circle
   cx="271.633"
   cy="79.799004"
   r="8.0550003"
   id="circle10934"
   style="fill:#ffffff" />
			<polygon
   points="270.275,79.799 273.386,79.799 276.697,101.195 266.568,101.195 "
   id="polygon10936"
   style="fill:#ffffff" />
		</g>
	</g>
	<g
   id="g10960">
		<polygon
   points="312.034,289.927 312.034,170.278 400.012,170.278 400.012,254.149 360.127,289.927 "
   id="polygon10942"
   style="fill:#bde6f0" />
		<polygon
   points="400.012,254.149 367.165,254.149 360.127,289.927 "
   id="polygon10944"
   style="fill:#6eb7ac" />
		<rect
   x="325.52301"
   y="189.633"
   width="62.757"
   height="7.625"
   id="rect10946"
   style="fill:#666666" />
		<rect
   x="325.52301"
   y="204.52499"
   width="62.757"
   height="4.526"
   id="rect10948"
   style="fill:#b3b3b3" />
		<rect
   x="325.52301"
   y="214.43201"
   width="62.757"
   height="4.527"
   id="rect10950"
   style="fill:#b3b3b3" />
		<rect
   x="325.52301"
   y="224.339"
   width="62.757"
   height="4.526"
   id="rect10952"
   style="fill:#b3b3b3" />
		<rect
   x="325.52301"
   y="234.246"
   width="62.757"
   height="4.526"
   id="rect10954"
   style="fill:#b3b3b3" />
		<rect
   x="325.52301"
   y="244.15199"
   width="62.757"
   height="4.527"
   id="rect10956"
   style="fill:#b3b3b3" />
		<rect
   x="325.52301"
   y="254.06"
   width="31.378"
   height="4.526"
   id="rect10958"
   style="fill:#b3b3b3" />
	</g>
	<g
   id="g10970">
		<rect
   x="34.422001"
   y="125.508"
   width="16.580999"
   height="68.314003"
   id="rect10962"
   style="fill:#fea621" />
		<polygon
   points="51.003,193.823 34.422,193.823 42.713,215.047 "
   id="polygon10964"
   style="fill:#d6a673" />
		<polygon
   points="42.713,215.047 44.958,209.299 40.468,209.299 "
   id="polygon10966"
   style="fill:#170709" />
		<rect
   x="38.733002"
   y="125.508"
   width="7.9590001"
   height="68.314003"
   id="rect10968"
   style="fill:#ffc723" />
	</g>
	<g
   id="g10978">
		<rect
   x="89.042"
   y="60.022999"
   width="101.482"
   height="57.042"
   id="rect10972"
   style="fill:#c95300" />
		<polygon
   points="190.524,117.066 139.783,80.365 89.042,117.066 "
   id="polygon10974"
   style="fill:#ff8000" />
		<polygon
   points="190.524,60.023 139.783,96.726 89.042,60.023 "
   id="polygon10976"
   style="fill:#ffb000" />
	</g>
	<g
   id="g11008">
		<path
   d="m 190.081,249.081 c 4.263,-5.285 36.817,-45.647 45.25,-56.104 8.434,-10.457 14.528,0.103 7.813,9.642 -6.717,9.538 -38.251,54.327 -38.251,54.327 0,0 2.132,-0.229 12.302,-13.182 5.911,-7.53 16.285,3.135 12.485,8.677 -9.463,13.803 -9.065,16.072 -9.065,16.072 0,0 6.47,-8.702 12.274,-15.897 5.804,-7.195 13.972,3.86 10.915,6.962 -10.113,12.997 -12.602,18.588 -12.602,18.588 0,0 6.141,-6.923 11.854,-14.007 5.713,-7.083 13.76,5.717 6.143,15.161 -7.617,9.444 -23.215,28.782 -35.367,43.849 -12.151,15.066 -30.407,16.302 -30.407,16.302 l -5.845,19.491 -44.98,-12.099 15.38,-34.896 c 0,0 -2.184,-15.575 1.516,-28.443 3.7,-12.867 10.572,-43.473 12.443,-54.212 1.872,-10.739 16.17,-6.113 14.698,2.615 -1.473,8.729 -2.945,16.819 -3.369,19.964 -0.424,3.145 12.551,2.473 16.813,-2.81 z"
   id="path10980"
   inkscape:connector-curvature="0"
   style="fill:#fca678" />
		<g
   id="g11000">
			<g
   id="g10996">
				<path
   d="m 262.109,197.322 c 0,1.828 -2.005,3.31 -4.478,3.31 h -0.84 c -2.474,0 -4.479,-1.482 -4.479,-3.31 V 184.91 c 0,-1.828 2.005,-3.31 4.479,-3.31 h 0.84 c 2.473,0 4.478,1.482 4.478,3.31 z"
   id="path10982"
   inkscape:connector-curvature="0"
   style="fill:#030c1c" />
				<path
   d="m 262.109,219.995 c 0,1.828 -2.005,3.31 -4.478,3.31 h -0.84 c -2.474,0 -4.479,-1.482 -4.479,-3.31 v -12.413 c 0,-1.828 2.005,-3.311 4.479,-3.311 h 0.84 c 2.473,0 4.478,1.482 4.478,3.311 z"
   id="path10984"
   inkscape:connector-curvature="0"
   style="fill:#030c1c" />
				<path
   d="m 259.031,319.169 c 0,2.474 -1.883,4.479 -4.204,4.479 h -73.042 c -2.322,0 -4.204,-2.005 -4.204,-4.479 V 168.585 c 0,-2.474 1.882,-4.479 4.204,-4.479 h 73.042 c 2.321,0 4.204,2.005 4.204,4.479 z"
   id="path10986"
   inkscape:connector-curvature="0"
   style="fill:#061a3d" />
				<rect
   x="180.24001"
   y="175.722"
   width="76.132004"
   height="130.992"
   id="rect10988"
   style="fill:#ffffff" />
				<polygon
   points="180.24,175.722 256.372,306.714 180.24,306.714 "
   id="polygon10990"
   style="fill:#a9dfec" />
				<rect
   x="206.13"
   y="164.106"
   width="24.351"
   height="5.7379999"
   id="rect10992"
   style="fill:#030c1c" />
				<rect
   x="207.25"
   y="309.23199"
   width="18.753"
   height="10.356"
   id="rect10994"
   style="fill:#030c1c" />
			</g>
			<path
   d="m 248.58,282.588 c 0,1.914 -1.553,3.467 -3.467,3.467 h -49.112 c -1.915,0 -3.467,-1.553 -3.467,-3.467 v -12.711 c 0,-1.915 1.552,-3.467 3.467,-3.467 h 49.112 c 1.914,0 3.467,1.552 3.467,3.467 z"
   id="path10998"
   inkscape:connector-curvature="0"
   style="fill:#ff3900" />
		</g>
		<path
   d="m 255.504,349.279 c -1.777,-6.553 -15.344,-56.603 -18.858,-69.568 -3.515,-12.965 8.611,-11.701 12.392,-0.665 3.779,11.036 21.528,62.858 21.528,62.858 0,0 1.067,-1.861 -3.451,-17.698 -2.625,-9.205 12.099,-11.343 14.355,-5.013 5.62,15.762 7.69,16.772 7.69,16.772 0,0 -3.248,-10.347 -5.666,-19.269 -2.418,-8.923 11.328,-9.046 12.043,-4.75 4.587,15.817 7.651,21.113 7.651,21.113 0,0 -2.001,-9.035 -4.382,-17.818 -2.381,-8.783 12.707,-7.785 15.881,3.927 3.175,11.71 9.674,35.688 14.738,54.371 5.064,18.682 -4.65,34.186 -4.65,34.186 l 11.234,25.988 -51.026,13.831 -3.282,-27.267 c 0,0 -13.892,-7.374 -22.137,-17.924 -8.246,-10.549 -28.99,-34.078 -36.585,-41.897 -7.596,-7.818 4.543,-16.68 10.745,-10.363 6.201,6.316 11.887,12.258 14.185,14.446 2.297,2.19 9.37,-8.708 7.595,-15.26 z"
   id="path11002"
   inkscape:connector-curvature="0"
   style="fill:#fca678" />
		<polygon
   points="278.283,433.531 277.724,451.764 346.345,451.764 338.868,415.041 "
   id="polygon11004"
   style="fill:#0d2b6b" />
		<polygon
   points="140.11,314.41 93.812,451.764 167.098,451.764 185.756,348.597 "
   id="polygon11006"
   style="fill:#0d2b6b" />
	</g>
	<g
   id="g11046">
		<path
   d="m 237.71,237.964 c 0,3.108 -2.353,5.628 -5.255,5.628 H 91.211 c -2.902,0 -5.255,-2.52 -5.255,-5.628 v -79.486 c 0,-3.107 2.354,-5.627 5.255,-5.627 h 141.244 c 2.902,0 5.255,2.52 5.255,5.627 z"
   id="path11010"
   inkscape:connector-curvature="0"
   style="fill:#b5b5b5" />
		<path
   d="m 234.044,234.676 c 0,3.108 -2.354,5.627 -5.256,5.627 H 87.545 c -2.902,0 -5.256,-2.519 -5.256,-5.627 V 155.19 c 0,-3.107 2.354,-5.627 5.256,-5.627 h 141.243 c 2.902,0 5.256,2.52 5.256,5.627 z"
   id="path11012"
   inkscape:connector-curvature="0"
   style="fill:#ffffff" />
		<path
   d="m 234.044,164.984 v -10.057 c 0,-2.962 -2.354,-5.364 -5.256,-5.364 H 87.545 c -2.902,0 -5.256,2.402 -5.256,5.364 v 10.057 z"
   id="path11014"
   inkscape:connector-curvature="0"
   style="fill:#061a3d" />
		<rect
   x="94.582001"
   y="172.36"
   width="60.344002"
   height="16.091999"
   id="rect11016"
   style="fill:#6eb7ac" />
		<rect
   x="159.731"
   y="192.81"
   width="60.344002"
   height="16.091999"
   id="rect11018"
   style="fill:#6eb7ac" />
		<rect
   x="94.582001"
   y="192.81"
   width="15.645"
   height="16.091999"
   id="rect11020"
   style="fill:#7e9926" />
		<rect
   x="116.247"
   y="192.81"
   width="15.645"
   height="16.091999"
   id="rect11022"
   style="fill:#fea621" />
		<rect
   x="136.375"
   y="192.81"
   width="15.646"
   height="16.091999"
   id="rect11024"
   style="fill:#c1111e" />
		<rect
   x="165.65401"
   y="172.36"
   width="54.98"
   height="4.4699998"
   id="rect11026"
   style="fill:#6eb7ac" />
		<rect
   x="165.65401"
   y="180.40601"
   width="54.98"
   height="4.4699998"
   id="rect11028"
   style="fill:#6eb7ac" />
		<rect
   x="94.582001"
   y="216.166"
   width="54.98"
   height="4.4699998"
   id="rect11030"
   style="fill:#6eb7ac" />
		<rect
   x="94.582001"
   y="224.211"
   width="54.98"
   height="4.4689999"
   id="rect11032"
   style="fill:#6eb7ac" />
		<rect
   x="159.731"
   y="216.166"
   width="60.344002"
   height="4.4699998"
   id="rect11034"
   style="fill:#6eb7ac" />
		<rect
   x="159.731"
   y="224.211"
   width="60.344002"
   height="4.4689999"
   id="rect11036"
   style="fill:#6eb7ac" />
		<circle
   cx="197.311"
   cy="157.498"
   r="4.1680002"
   id="circle11038"
   style="fill:#ffffff" />
		<circle
   cx="208.84399"
   cy="157.498"
   r="4.1669998"
   id="circle11040"
   style="fill:#ffffff" />
		<circle
   cx="220.377"
   cy="157.498"
   r="4.1680002"
   id="circle11042"
   style="fill:#ffffff" />
		<path
   d="m 176.829,157.498 c 0,2.302 -1.866,4.168 -4.168,4.168 H 98.749 c -2.301,0 -4.167,-1.866 -4.167,-4.168 v 0 c 0,-2.302 1.866,-4.167 4.167,-4.167 h 73.912 c 2.302,-10e-4 4.168,1.865 4.168,4.167 z"
   id="path11044"
   inkscape:connector-curvature="0"
   style="fill:#ffffff" />
	</g>
</g>
</svg>