<?xml version="1.0" encoding="utf-8"?>
<!-- Generator: Adobe Illustrator 16.0.2, SVG Export Plug-In . SVG Version: 6.00 Build 0)  -->
<!DOCTYPE svg PUBLIC "-//W3C//DTD SVG 1.1//EN" "http://www.w3.org/Graphics/SVG/1.1/DTD/svg11.dtd">
<svg version="1.1"
	 id="svg815" xmlns:svg="http://www.w3.org/2000/svg" xmlns:rdf="http://www.w3.org/1999/02/22-rdf-syntax-ns#" xmlns:sodipodi="http://sodipodi.sourceforge.net/DTD/sodipodi-0.dtd" xmlns:cc="http://creativecommons.org/ns#" xmlns:inkscape="http://www.inkscape.org/namespaces/inkscape" xmlns:dc="http://purl.org/dc/elements/1.1/" inkscape:version="1.2.2 (732a01da63, 2022-12-09)" sodipodi:docname="coffee018.svg"
	 xmlns="http://www.w3.org/2000/svg" xmlns:xlink="http://www.w3.org/1999/xlink" x="0px" y="0px" width="400.322px"
	 height="137.447px" viewBox="-2.001 125.555 400.322 137.447" enable-background="new -2.001 125.555 400.322 137.447"
	 xml:space="preserve">
<text transform="matrix(0.7268 0 0 1 119.1602 176.3291)" fill="#FE9929" font-family="'FranklinGothic-DemiCond'" font-size="32.0168">&lt;&lt; SIGUIENTE &gt;&gt;</text>
<text transform="matrix(0.7268 0 0 1 137.1602 163.3262)" fill="#FE9929" font-family="'Bahnschrift'" font-size="32.0168">&lt;&lt; LOCALES &gt;&gt;</text>
<text transform="matrix(0.7268 0 0 1 9.8799 213.2461)" fill="#FAFCFA" font-family="'Bahnschrift'" font-size="64.0336">LOCALES</text>
<sodipodi:namedview  id="namedview817" inkscape:zoom="0.56470259" pagecolor="#ffffff" showgrid="false" bordercolor="#666666" inkscape:cx="-19.47928" inkscape:cy="223.1263" borderopacity="1" inkscape:window-maximized="1" inkscape:pagecheckerboard="0" inkscape:snap-page="false" inkscape:pageshadow="2" fit-margin-bottom="0" fit-margin-right="0" inkscape:window-width="1366" inkscape:showpageshadow="2" inkscape:pageopacity="0" inkscape:deskcolor="#d1d1d1" inkscape:window-x="-8" inkscape:window-y="-8" inkscape:window-height="705" inkscape:current-layer="g823" guidetolerance="10" gridtolerance="10" fit-margin-left="0" fit-margin-top="0" objecttolerance="10">
	</sodipodi:namedview>
<g>
	<g>
		
			<path fill="none" stroke="#999999" stroke-width="0.5" stroke-linecap="round" stroke-linejoin="round" stroke-miterlimit="10" d="
			M5.04,228.565c0,3.92,0.72,7.521,2.16,11.121c1.44,3.357,3.52,6.4,6.16,8.959c2.56,2.642,5.6,4.72,8.959,6.16
			c3.6,1.439,7.2,2.16,11.12,2.16h333.199c3.84,0,7.441-0.721,11.041-2.16c3.359-1.44,6.4-3.52,9.041-6.16
			c2.561-2.559,4.561-5.602,6-8.959c1.52-3.6,2.24-7.201,2.24-11.121v-63.76c0-7.841-2.721-14.479-8.24-20.08
			c-2.641-2.561-5.682-4.561-9.041-6.082c-3.6-1.438-7.201-2.158-11.041-2.158H33.44c-7.92,0-14.56,2.72-20.08,8.24
			c-2.64,2.64-4.72,5.681-6.16,9.039c-1.44,3.601-2.16,7.2-2.16,11.041V228.565"/>
	</g>
	<g>
		<path fill="#FF3300" d="M5.04,228.565v-63.76c0-3.841,0.72-7.44,2.16-11.041c1.44-3.358,3.52-6.399,6.16-9.039
			c5.52-5.521,12.16-8.24,20.08-8.24h333.2c3.84,0,7.439,0.719,11.039,2.158c3.361,1.521,6.4,3.521,9.043,6.082
			c5.52,5.601,8.238,12.239,8.238,20.08v63.76c0,3.92-0.719,7.521-2.238,11.121c-1.441,3.357-3.441,6.4-6,8.959
			c-2.643,2.642-5.682,4.72-9.043,6.16c-3.6,1.439-7.199,2.16-11.039,2.16H33.44c-3.92,0-7.52-0.721-11.12-2.16
			c-3.359-1.44-6.4-3.52-8.959-6.16c-2.64-2.559-4.72-5.602-6.16-8.959C5.76,236.088,5.04,232.485,5.04,228.565z"/>
	</g>
</g>
<g>
	<g>
		
			<path fill="none" stroke="#999999" stroke-width="0.4" stroke-linecap="round" stroke-linejoin="round" stroke-miterlimit="10" d="
			M286.479,222.246c0,6.239,2.242,11.601,6.642,16.082c4.4,4.399,9.76,6.639,16.08,6.639h51.041c6.238,0,11.6-2.237,16.08-6.639
			c4.398-4.481,6.559-9.843,6.559-16.082v-51.04c0-6.241-2.158-11.6-6.559-16.08c-4.482-4.398-9.844-6.561-16.082-6.561h-51.039
			c-6.32,0-11.681,2.162-16.08,6.562c-4.399,4.479-6.642,9.839-6.642,16.08V222.246"/>
	</g>
	<g>
		<path fill="#F2F2F2" d="M286.479,222.246v-51.04c0-6.241,2.242-11.6,6.642-16.08c4.4-4.4,9.76-6.561,16.08-6.561h51.041
			c6.238,0,11.6,2.16,16.08,6.561c4.398,4.479,6.559,9.839,6.559,16.08v51.04c0,6.239-2.158,11.601-6.559,16.082
			c-4.48,4.399-9.842,6.639-16.08,6.639h-51.041c-6.32,0-11.68-2.237-16.08-6.639C288.721,233.847,286.479,228.485,286.479,222.246z
			"/>
	</g>
</g>
<path fill="#FF0000" d="M300.064,197.604c0.32,0.72,0.719,1.358,1.281,2c0.559,0.56,1.199,1.041,2,1.28
	c0.719,0.32,1.518,0.561,2.398,0.561l40.881,0.721c0.238,0,0.471-0.018,0.697-0.041l0.654,0.013l-16.074,15.547
	c-0.559,0.562-1.039,1.2-1.357,2c-0.242,0.72-0.48,1.521-0.48,2.319c-0.08,0.801,0.08,1.521,0.48,2.242
	c0.158,0.799,0.641,1.521,1.199,2.08l2.158,2.241c0.643,0.56,1.281,1.039,2,1.358c0.801,0.32,1.521,0.479,2.32,0.56
	c0.801,0,1.521-0.239,2.32-0.479c0.801-0.239,1.439-0.721,2.08-1.28l29.52-28.479c0.561-0.642,0.959-1.201,1.359-2
	c0.135-0.451,0.238-0.879,0.322-1.307c0.117-0.202,0.225-0.409,0.316-0.615c0.318-0.72,0.48-1.52,0.48-2.318
	c0.078-0.801-0.08-1.601-0.4-2.32c-0.32-0.721-0.721-1.439-1.279-2.08l-28.48-29.441c-0.563-0.559-1.279-1.039-2-1.358
	c-0.721-0.32-1.52-0.479-2.318-0.479c-0.801,0-1.602,0.079-2.32,0.399c-0.801,0.319-1.521,0.721-2.08,1.28l-2.24,2.158
	c-0.561,0.562-0.959,1.281-1.359,2c-0.242,0.722-0.398,1.441-0.398,2.24c0,0.801,0,1.603,0.398,2.4c0.24,0.801,0.719,1.441,1.199,2
	l15.51,16.031l-24.551-0.433c-0.016,0-0.035,0.005-0.051,0.005l-18.35-0.324c-0.801,0-1.6,0.162-2.398,0.481
	c-0.719,0.24-1.359,0.64-1.92,1.279c-0.641,0.561-1.039,1.2-1.359,1.922c-0.32,0.717-0.479,1.519-0.479,2.399l-0.16,3.039
	C299.583,196.003,299.746,196.805,300.064,197.604z"/>
<line fill="none" x1="-1.84" y1="262.528" x2="398.16" y2="126.028"/>
<g enable-background="new    ">
	<path fill="#FAFCFA" d="M62.13,167.784h4.636v45.462H62.13V167.784z M64.448,207.181h18.907v6.065H64.448V207.181z"/>
	<path fill="#FAFCFA" d="M92.74,211.636c-1.757-1.386-3.117-3.346-4.079-5.878s-1.443-5.466-1.443-8.802v-12.881
		c0-3.336,0.481-6.27,1.443-8.803c0.962-2.532,2.322-4.491,4.079-5.877c1.757-1.387,3.787-2.08,6.09-2.08
		c2.302,0,4.333,0.693,6.09,2.08c1.757,1.386,3.117,3.345,4.079,5.877c0.962,2.533,1.443,5.467,1.443,8.803v12.881
		c0,3.336-0.481,6.27-1.443,8.802s-2.322,4.492-4.079,5.878c-1.757,1.387-3.788,2.08-6.09,2.08
		C96.527,213.716,94.498,213.022,92.74,211.636z M102.432,206.164c1.038-0.845,1.841-2.042,2.409-3.595
		c0.568-1.553,0.853-3.352,0.853-5.395v-13.319c0-2.042-0.284-3.841-0.853-5.394c-0.568-1.553-1.371-2.751-2.409-3.596
		c-1.038-0.844-2.238-1.266-3.602-1.266c-1.364,0-2.564,0.422-3.602,1.266c-1.038,0.845-1.841,2.043-2.409,3.596
		c-0.568,1.553-0.852,3.352-0.852,5.394v13.319c0,2.043,0.284,3.842,0.852,5.395c0.568,1.553,1.371,2.75,2.409,3.595
		s2.238,1.267,3.602,1.267C100.194,207.431,101.395,207.009,102.432,206.164z"/>
	<path fill="#FAFCFA" d="M124.418,213.716c0,0-0.868-0.699-2.602-2.096c-1.735-1.396-3.079-3.377-4.034-5.94
		s-1.432-5.534-1.432-8.911v-12.475c0-3.377,0.477-6.348,1.432-8.912c0.955-2.563,2.299-4.549,4.034-5.955
		c1.734-1.408,3.746-2.111,6.033-2.111c1.894,0,3.636,0.559,5.227,1.673c1.591,1.116,2.92,2.694,3.988,4.737
		c1.068,2.043,1.791,4.408,2.17,7.098h-4.749c-0.288-1.418-0.77-2.684-1.443-3.799c-0.674-1.115-1.466-1.975-2.375-2.58
		c-0.909-0.604-1.849-0.906-2.818-0.906c-1.349,0-2.53,0.448-3.545,1.344c-1.015,0.896-1.803,2.152-2.363,3.768
		c-0.561,1.616-0.841,3.498-0.841,5.645v12.475c0,2.127,0.28,4.002,0.841,5.628c0.56,1.626,1.348,2.882,2.363,3.768
		c1.015,0.886,2.196,1.329,3.545,1.329c0.984,0,1.928-0.281,2.829-0.844c0.901-0.563,1.689-1.396,2.363-2.502
		c0.674-1.104,1.155-2.418,1.443-3.939h4.749c-0.379,2.689-1.106,5.055-2.181,7.098c-1.076,2.043-2.409,3.622-4,4.736
		c-1.591,1.115-3.326,1.674-5.204,1.674C125.562,213.716,124.418,213.716,124.418,213.716z"/>
	<path fill="#FAFCFA" d="M153.46,167.784h3.954l12.18,45.462h-5l-9.158-36.675l-9.158,36.675h-4.999L153.46,167.784z
		 M146.893,197.206h17.384v6.066h-17.384V197.206z"/>
	<path fill="#FAFCFA" d="M174.594,167.784h4.636v45.462h-4.636V167.784z M176.912,207.181h18.907v6.065h-18.907V207.181z"/>
	<path fill="#FAFCFA" d="M201.272,167.784h4.636v45.462h-4.636V167.784z M203.522,167.784h18.975v6.066h-18.975V167.784z
		 M203.522,187.639h16.475v6.065h-16.475V187.639z M203.522,207.181h18.975v6.065h-18.975V207.181z"/>
	<path fill="#FAFCFA" d="M236.631,213.716c0,0-0.712-0.209-2.136-0.626c-1.425-0.417-2.754-1.042-3.988-1.876
		c-1.235-0.834-2.39-1.876-3.466-3.127l2.887-4.877c1.257,1.5,2.643,2.626,4.158,3.377c1.515,0.75,3.158,1.125,4.931,1.125
		c2.394,0,4.25-0.609,5.568-1.829c1.317-1.22,1.977-2.944,1.977-5.175v-0.031c0-1.584-0.299-2.84-0.897-3.768
		s-1.371-1.615-2.318-2.063c-0.946-0.448-2.17-0.86-3.67-1.235c-0.045-0.02-0.095-0.031-0.147-0.031s-0.103-0.01-0.147-0.031
		l-0.341-0.094c-2.212-0.521-4.011-1.109-5.397-1.766c-1.386-0.657-2.571-1.855-3.557-3.596c-0.984-1.74-1.477-4.217-1.477-7.426
		v-0.031c0-2.814,0.458-5.217,1.375-7.207c0.916-1.99,2.253-3.508,4.011-4.55c1.757-1.042,3.87-1.563,6.34-1.563
		c1.182,0,2.345,0.178,3.488,0.531c1.144,0.355,2.272,0.881,3.386,1.58c1.113,0.698,2.208,1.578,3.284,2.642l-2.637,5.065
		c-1.257-1.271-2.511-2.225-3.761-2.861c-1.25-0.636-2.503-0.953-3.761-0.953c-2.258,0-4.011,0.62-5.261,1.859
		c-1.25,1.24-1.875,2.997-1.875,5.27v0.031c0,1.563,0.322,2.793,0.966,3.689c0.645,0.896,1.447,1.558,2.409,1.984
		c0.962,0.428,2.299,0.871,4.011,1.329c0.061,0.021,0.117,0.036,0.171,0.047c0.053,0.011,0.109,0.026,0.17,0.047
		c0.076,0.021,0.159,0.042,0.25,0.063c0.091,0.021,0.174,0.042,0.25,0.063c2,0.563,3.67,1.229,5.011,2
		c1.341,0.771,2.462,2.018,3.363,3.736c0.901,1.721,1.353,4.07,1.353,7.051v0.063c0,2.772-0.478,5.144-1.432,7.113
		c-0.955,1.97-2.338,3.471-4.147,4.502c-1.811,1.032-3.996,1.549-6.557,1.549C237.427,213.716,236.631,213.716,236.631,213.716z"/>
</g>
<g>
	<path fill="#FE9929" d="M82.147,218.381v4.748l-6.407,4.533l6.396,4.552l0.011,4.724l-10.078-7.285v-4.002L82.147,218.381z"/>
	<path fill="#FE9929" d="M94.043,218.381v4.748l-6.407,4.533l6.396,4.552l0.011,4.724l-10.078-7.285v-4.002L94.043,218.381z"/>
	<path fill="#FE9929" d="M110.246,221.633l-2.818,1.485c-0.401-1.762-1.136-2.643-2.204-2.643c-0.5,0-0.896,0.196-1.188,0.587
		s-0.438,0.847-0.438,1.367c0,0.605,0.172,1.087,0.517,1.446s1.066,0.831,2.165,1.415c1,0.511,1.786,1.017,2.357,1.517
		c0.572,0.5,1.034,1.18,1.386,2.04c0.353,0.859,0.528,1.857,0.528,2.994c0,1.99-0.498,3.624-1.494,4.9
		c-0.996,1.277-2.331,1.915-4.005,1.915c-2.811,0-4.605-1.954-5.386-5.862l2.977-1.173c0.363,2.147,1.193,3.221,2.488,3.221
		c0.591,0,1.07-0.211,1.437-0.633c0.368-0.422,0.551-0.978,0.551-1.665c0-0.521-0.129-0.987-0.386-1.399
		c-0.258-0.411-0.849-0.847-1.772-1.306c-1.189-0.583-2.076-1.112-2.659-1.586c-0.583-0.475-1.064-1.152-1.443-2.033
		c-0.379-0.88-0.568-1.884-0.568-3.009c0-1.918,0.449-3.488,1.346-4.714c0.898-1.225,2.085-1.837,3.562-1.837
		C107.898,216.661,109.58,218.318,110.246,221.633z"/>
	<path fill="#FE9929" d="M112.655,216.99h3.409v21.339h-3.409V216.99z"/>
	<path fill="#FE9929" d="M124.438,226.948h5.386v11.381h-1.443l-0.443-2.438c-0.833,1.845-2.083,2.767-3.75,2.767
		c-1.765,0-3.165-0.956-4.198-2.868c-1.034-1.913-1.551-4.484-1.551-7.716c0-3.512,0.509-6.292,1.528-8.34
		c1.019-2.048,2.524-3.072,4.517-3.072c3.174,0,4.954,2.439,5.34,7.316l-3.068,0.688c-0.212-2.793-0.947-4.19-2.204-4.19
		c-0.765,0-1.377,0.517-1.835,1.548c-0.458,1.032-0.688,2.986-0.688,5.862c0,2.554,0.223,4.352,0.67,5.394
		c0.447,1.043,1.102,1.563,1.965,1.563c1.386,0,2.083-1.412,2.091-4.236h-2.318V226.948z"/>
	<path fill="#FE9929" d="M132.482,216.99h3.409v12.193c0,1.72,0.057,2.918,0.17,3.596c0.113,0.678,0.35,1.19,0.71,1.54
		s0.801,0.523,1.324,0.523c0.568,0,1.019-0.192,1.352-0.578s0.538-0.896,0.614-1.532s0.113-1.818,0.113-3.549V216.99h2.852v12.006
		c0,2.397-0.101,4.185-0.301,5.362c-0.201,1.178-0.712,2.188-1.534,3.032c-0.822,0.845-1.953,1.267-3.392,1.267
		c-1.348,0-2.409-0.31-3.181-0.93c-0.773-0.62-1.322-1.49-1.648-2.611c-0.326-1.12-0.488-3.098-0.488-5.933V216.99z"/>
	<path fill="#FE9929" d="M145.958,216.99h3.409v21.339h-3.409V216.99z"/>
	<path fill="#FE9929" d="M152.297,216.99h9.431v3.658h-6.022v4.955h4.682v3.658h-4.682v5.253h6.022v3.814h-9.431V216.99z"/>
	<path fill="#FE9929" d="M163.274,216.99h3.783l3.988,13.257V216.99h2.636v21.339h-3.045l-4.727-15.445v15.445h-2.636V216.99z"/>
	<path fill="#FE9929" d="M174.738,216.99h9.669v4.002h-3.17v17.337h-3.409v-17.337h-3.09V216.99z"/>
	<path fill="#FE9929" d="M185.589,216.99h9.431v3.658h-6.022v4.955h4.682v3.658h-4.682v5.253h6.022v3.814h-9.431V216.99z"/>
	<path fill="#FE9929" d="M200.473,236.938v-4.748l6.406-4.532l-6.384-4.562l-0.022-4.715l10.078,7.285v4.002L200.473,236.938z"/>
	<path fill="#FE9929" d="M212.37,236.938v-4.748l6.406-4.532l-6.384-4.562l-0.022-4.715l10.078,7.285v4.002L212.37,236.938z"/>
</g>
</svg>
