<?xml version="1.0" encoding="utf-8"?>
<!-- Generator: Adobe Illustrator 16.0.2, SVG Export Plug-In . SVG Version: 6.00 Build 0)  -->
<!DOCTYPE svg PUBLIC "-//W3C//DTD SVG 1.1//EN" "http://www.w3.org/Graphics/SVG/1.1/DTD/svg11.dtd">
<svg version="1.1"
	 id="svg815" xmlns:dc="http://purl.org/dc/elements/1.1/" xmlns:cc="http://creativecommons.org/ns#" xmlns:rdf="http://www.w3.org/1999/02/22-rdf-syntax-ns#" xmlns:svg="http://www.w3.org/2000/svg" xmlns:sodipodi="http://sodipodi.sourceforge.net/DTD/sodipodi-0.dtd" xmlns:inkscape="http://www.inkscape.org/namespaces/inkscape" sodipodi:docname="coffee018.svg" inkscape:version="1.2.2 (732a01da63, 2022-12-09)"
	 xmlns="http://www.w3.org/2000/svg" xmlns:xlink="http://www.w3.org/1999/xlink" x="0px" y="0px" width="400.323px"
	 height="137.447px" viewBox="-2.001 125.556 400.323 137.447" enable-background="new -2.001 125.556 400.323 137.447"
	 xml:space="preserve">
<sodipodi:namedview  id="namedview817" gridtolerance="10" showgrid="false" inkscape:zoom="0.56470259" guidetolerance="10" inkscape:cx="-19.47928" inkscape:cy="223.1263" pagecolor="#ffffff" bordercolor="#666666" borderopacity="1" objecttolerance="10" inkscape:pagecheckerboard="0" inkscape:window-maximized="1" inkscape:current-layer="g823" inkscape:window-height="705" inkscape:window-y="-8" inkscape:window-x="-8" inkscape:deskcolor="#d1d1d1" inkscape:pageopacity="0" inkscape:showpageshadow="2" inkscape:pageshadow="2" inkscape:window-width="1366" fit-margin-left="0" fit-margin-top="0" fit-margin-right="0" inkscape:snap-page="false" fit-margin-bottom="0">
	</sodipodi:namedview>
<g>
	<g>
		
			<path fill="none" stroke="#999999" stroke-width="0.5" stroke-linecap="round" stroke-linejoin="round" stroke-miterlimit="10" d="
			M5.04,228.566c0,3.92,0.72,7.521,2.16,11.121c1.44,3.357,3.52,6.4,6.16,8.959c2.56,2.641,5.6,4.719,8.959,6.16
			c3.6,1.439,7.2,2.16,11.12,2.16h333.2c3.84,0,7.44-0.721,11.04-2.16c3.36-1.441,6.4-3.52,9.042-6.16
			c2.559-2.559,4.559-5.602,6-8.959c1.519-3.6,2.239-7.201,2.239-11.121v-63.76c0-7.841-2.72-14.48-8.239-20.08
			c-2.642-2.561-5.682-4.561-9.042-6.082c-3.6-1.439-7.2-2.159-11.04-2.159H33.44c-7.92,0-14.56,2.72-20.08,8.241
			c-2.64,2.639-4.72,5.68-6.16,9.039c-1.44,3.6-2.16,7.2-2.16,11.041V228.566"/>
	</g>
	<g>
		<path fill="#FF3300" d="M5.04,228.566v-63.76c0-3.841,0.72-7.441,2.16-11.041c1.44-3.359,3.52-6.4,6.16-9.039
			c5.52-5.521,12.16-8.241,20.08-8.241h333.2c3.84,0,7.44,0.719,11.04,2.159c3.36,1.52,6.4,3.52,9.042,6.082
			c5.519,5.6,8.239,12.239,8.239,20.08v63.76c0,3.92-0.72,7.521-2.239,11.121c-1.441,3.357-3.441,6.4-6,8.959
			c-2.642,2.641-5.682,4.719-9.042,6.16c-3.6,1.439-7.2,2.16-11.04,2.16H33.44c-3.92,0-7.52-0.721-11.12-2.16
			c-3.359-1.441-6.4-3.52-8.959-6.16c-2.64-2.559-4.72-5.602-6.16-8.959C5.76,236.088,5.04,232.486,5.04,228.566z"/>
	</g>
</g>
<g>
	<g>
		
			<path fill="none" stroke="#999999" stroke-width="0.4" stroke-linecap="round" stroke-linejoin="round" stroke-miterlimit="10" d="
			M286.479,222.246c0,6.24,2.242,11.6,6.642,16.082c4.4,4.4,9.759,6.639,16.08,6.639h51.04c6.239,0,11.6-2.238,16.081-6.639
			c4.399-4.482,6.559-9.842,6.559-16.082v-51.04c0-6.241-2.159-11.6-6.559-16.08c-4.482-4.399-9.843-6.56-16.082-6.56H309.2
			c-6.32,0-11.68,2.161-16.08,6.561c-4.399,4.48-6.641,9.839-6.641,16.08V222.246"/>
	</g>
	<g>
		<path fill="#F2F2F2" d="M286.479,222.246v-51.04c0-6.241,2.242-11.6,6.642-16.08c4.4-4.4,9.759-6.561,16.08-6.561h51.04
			c6.239,0,11.6,2.161,16.081,6.561c4.399,4.479,6.559,9.839,6.559,16.08v51.04c0,6.24-2.159,11.6-6.559,16.082
			c-4.481,4.4-9.842,6.639-16.081,6.639h-51.04c-6.32,0-11.68-2.238-16.08-6.639C288.721,233.846,286.479,228.486,286.479,222.246z"
			/>
	</g>
</g>
<g>
	<g>
		<g>
			<path fill="#FFFFFF" d="M86,213.287l-9.12-45.359h6.16l6,34.879l6.08-34.879h6.24l-9.121,45.359H86z"/>
		</g>
	</g>
	<g>
		<g>
			<path fill="#FFFFFF" d="M123.6,212.486c-1.68,0.881-3.76,1.281-6.08,1.281c-2.4,0-4.4-0.4-6.08-1.281
				c-1.68-0.879-2.96-2.24-3.92-3.92c-0.88-1.76-1.28-3.76-1.28-6.158v-23.601c0-2.4,0.4-4.479,1.28-6.161
				c0.96-1.68,2.24-3.039,3.92-3.918c1.68-0.882,3.68-1.282,6.08-1.282c2.32,0,4.4,0.4,6.08,1.282c1.68,0.879,2.96,2.239,3.84,3.918
				c0.88,1.682,1.36,3.761,1.36,6.161v23.601c0,2.398-0.48,4.398-1.36,6.158C126.64,210.246,125.36,211.607,123.6,212.486z
				 M114.64,207.367c0.8,0.479,1.84,0.641,2.88,0.641c1.12,0,2-0.158,2.88-0.641c0.88-0.4,1.44-1.039,1.84-1.84
				c0.4-0.881,0.641-1.84,0.641-2.961v-23.92c0-1.039-0.24-2.08-0.641-2.88c-0.4-0.8-0.959-1.52-1.84-1.92
				c-0.88-0.479-1.76-0.639-2.88-0.639c-1.04,0-2.08,0.159-2.88,0.639c-0.8,0.4-1.44,1.121-1.84,1.92
				c-0.48,0.8-0.64,1.841-0.64,2.88v23.92c0,1.121,0.16,2.08,0.64,2.961C113.2,206.328,113.84,206.967,114.64,207.367z"/>
		</g>
	</g>
	<g>
		<g>
			<path fill="#FFFFFF" d="M139.76,207.688v5.6h-3.2v-45.359h5.92v39.76H139.76z"/>
			<path fill="#FFFFFF" d="M142.48,207.688h12.96v5.6h-12.96V207.688z"/>
		</g>
	</g>
	<g>
		<g>
			<path fill="#FFFFFF" d="M167.92,213.287l-9.12-45.359h6.16l6.08,34.879l6-34.879h6.16l-9.12,45.359H167.92z"/>
		</g>
	</g>
	<g>
		<g>
			<path fill="#FFFFFF" d="M197.6,193.606l-6.32-0.041h2.8v14.081l4.08,5.6h-6.88h-3.12v-45.359h3.12l6.88,0.041l-4.08,5.559v14.48
				L197.6,193.606z"/>
			<path fill="#FFFFFF" d="M194.08,193.606v-5.6h12v5.6H194.08z"/>
			<path fill="#FFFFFF" d="M194.08,173.528v-5.6h13.6v5.6H194.08z"/>
			<path fill="#FFFFFF" d="M194.08,207.688h13.6v5.6h-13.6V207.688z"/>
		</g>
	</g>
	<g>
		<g>
			<path fill="#FFFFFF" d="M213.84,213.287v-45.441h2.721v5.6h3.119v15.041h-3.119v5.68h3.119v19.121H213.84z"/>
			<path fill="#FFFFFF" d="M230.64,192.887c0,0.08,0,0.08-0.079,0.08l-0.561-1.68l-5.6,1.44l0.479,1.439c-0.158,0-0.318,0-0.4,0
				h-4.8v-5.68h5.281c0.96,0,1.919-0.24,2.719-0.559c0.8-0.4,1.36-0.961,1.761-1.761c0.399-0.8,0.56-1.68,0.56-2.718v-4.642
				c0-1.041-0.16-2-0.56-2.879c-0.4-0.8-0.961-1.361-1.761-1.761c-0.8-0.479-1.759-0.718-2.719-0.718h-5.281v-5.6h4.8
				c2.4,0,4.4,0.4,6.16,1.2c1.682,0.8,3.04,2,4,3.518c0.882,1.6,1.281,3.44,1.281,5.6v5.282c0,2.318-0.399,4.239-1.281,5.759
				C233.68,190.807,232.32,192.006,230.64,192.887z"/>
			<path fill="#FFFFFF" d="M230.721,213.287l-5.841-19.121c2.241-0.08,4.16-0.479,5.682-1.2l6.719,20.32H230.721z"/>
		</g>
	</g>
</g>
<path fill="#FF0000" d="M374.16,191.207c-0.32-0.72-0.72-1.359-1.281-2c-0.559-0.56-1.2-1.041-2-1.28
	c-0.719-0.32-1.519-0.561-2.399-0.561l-40.88-0.72c-0.239,0-0.472,0.017-0.699,0.04l-0.653-0.012l16.073-15.547
	c0.559-0.561,1.04-1.2,1.358-2c0.242-0.72,0.481-1.521,0.481-2.32c0.08-0.8-0.081-1.52-0.481-2.241
	c-0.158-0.8-0.64-1.521-1.199-2.08l-2.159-2.242c-0.642-0.559-1.281-1.039-2-1.358c-0.8-0.32-1.521-0.48-2.32-0.56
	c-0.8,0-1.521,0.239-2.32,0.48c-0.8,0.239-1.439,0.72-2.079,1.28l-29.521,28.48c-0.559,0.641-0.959,1.2-1.358,2
	c-0.136,0.451-0.24,0.878-0.323,1.306c-0.117,0.202-0.225,0.409-0.317,0.615c-0.318,0.72-0.479,1.52-0.479,2.319
	c-0.079,0.8,0.08,1.6,0.4,2.32s0.72,1.439,1.279,2.08l28.481,29.441c0.561,0.559,1.279,1.039,2,1.359
	c0.719,0.32,1.519,0.48,2.318,0.48c0.801,0,1.601-0.08,2.32-0.4c0.801-0.32,1.521-0.721,2.08-1.281l2.241-2.158
	c0.559-0.561,0.959-1.281,1.358-2c0.242-0.721,0.4-1.441,0.4-2.24c0-0.801,0-1.602-0.4-2.4c-0.239-0.801-0.719-1.441-1.199-2
	l-15.51-16.031l24.551,0.432c0.017,0,0.035-0.004,0.052-0.004l18.349,0.324c0.8,0,1.6-0.162,2.399-0.482
	c0.719-0.24,1.358-0.639,1.919-1.279c0.64-0.561,1.04-1.201,1.36-1.922c0.32-0.717,0.479-1.518,0.479-2.399l0.16-3.039
	C374.64,192.807,374.479,192.006,374.16,191.207z"/>
<g>
	<g>
		<g>
			<path fill="#FE9929" d="M96,231.287v3.279l-6.8-5.359l6.8-5.357v3.279l-2.8,2.08L96,231.287z"/>
		</g>
	</g>
	<g>
		<g>
			<path fill="#FE9929" d="M103.36,231.287v3.279l-6.8-5.359l6.8-5.357v3.279l-2.8,2.08L103.36,231.287z"/>
		</g>
	</g>
	<g>
		<g>
			<path fill="#FE9929" d="M115.68,222.566l-1.76,8.961h-1.04v2.4h0.64l-0.88,4.238h-2.72l4.56-19.6h2.32l4.56,19.6h-2.8l-0.8-4.238
				h0.88v-2.4h-1.28L115.68,222.566z"/>
			<path fill="#FE9929" d="M117.76,233.928h-4.24l0.4-2.4h3.44L117.76,233.928z"/>
		</g>
	</g>
	<g>
		<g>
			<path fill="#FE9929" d="M133.68,230.566h-2.56v-2.4h2.64c0.32,0,0.56-0.078,0.88-0.238s0.4-0.4,0.56-0.721
				c0.16-0.24,0.24-0.641,0.24-1.119v-2.959c0-0.482-0.08-0.801-0.24-1.121c-0.16-0.318-0.24-0.561-0.56-0.719
				c-0.32-0.16-0.56-0.242-0.88-0.242h-2.64v-2.479h2.56c0.88,0,1.6,0.24,2.4,0.561c0.56,0.4,1.04,0.879,1.44,1.6
				c0.32,0.559,0.48,1.359,0.48,2.4v3.037c0,0.961-0.16,1.762-0.48,2.4c-0.4,0.641-0.88,1.121-1.52,1.441
				C135.44,230.406,134.64,230.566,133.68,230.566z"/>
			<path fill="#FE9929" d="M128.64,238.166v-19.6h1.44v2.48h1.04v7.119h-1.04v2.4h1.04v7.6H128.64z"/>
		</g>
	</g>
	<g>
		<g>
			<path fill="#FE9929" d="M140.64,238.166v-19.6h1.2v2.4h1.28v6.561h-1.28v2.4h1.28v8.238H140.64z"/>
			<path fill="#FE9929" d="M147.84,229.367L147.84,229.367l-0.32-0.721l-2.4,0.641l0.24,0.641c-0.08,0-0.16,0-0.24,0h-2v-2.398h2.32
				c0.4,0,0.8-0.162,1.12-0.32c0.4-0.242,0.56-0.4,0.8-0.721c0.08-0.32,0.16-0.721,0.16-1.199v-2c0-0.48-0.08-0.881-0.16-1.201
				c-0.16-0.32-0.4-0.559-0.8-0.799c-0.32-0.16-0.72-0.32-1.12-0.32h-2.32v-2.4h2c1.12,0,2,0.24,2.72,0.561
				c0.72,0.318,1.28,0.881,1.68,1.518c0.4,0.643,0.64,1.441,0.64,2.4v2.242c0,0.959-0.24,1.84-0.64,2.479
				C149.12,228.486,148.64,228.967,147.84,229.367z"/>
			<path fill="#FE9929" d="M147.84,238.166l-2.479-8.238c0.959-0.082,1.76-0.24,2.479-0.561l2.8,8.799H147.84z"/>
		</g>
	</g>
	<g>
		<g>
			<path fill="#FE9929" d="M155.52,218.566v19.6h-2.48v-19.6H155.52z"/>
		</g>
	</g>
	<g>
		<g>
			<path fill="#FE9929" d="M158.24,238.088v-19.521h2.24l4.88,13.92v1.441l0.4-0.32l-0.4-1.119v-13.92h2.479v19.52h-2.32
				l-4.88-13.281v-1.52l-0.4,0.32l0.4,1.199v13.281H158.24L158.24,238.088z"/>
		</g>
	</g>
	<g>
		<g>
			<path fill="#FE9929" d="M177.44,237.768c-0.72,0.398-1.52,0.561-2.4,0.561c-0.96,0-1.84-0.162-2.48-0.561
				c-0.72-0.4-1.2-0.961-1.6-1.68c-0.32-0.801-0.48-1.602-0.48-2.721v-10c0-1.039,0.16-2,0.48-2.639
				c0.4-0.721,0.879-1.361,1.6-1.762c0.64-0.4,1.52-0.559,2.48-0.559c0.88,0,1.68,0.158,2.4,0.559c0.72,0.4,1.2,1.041,1.6,1.762
				c0.32,0.639,0.48,1.6,0.48,2.639v0.879h-2.56v-0.879c0-0.48-0.08-0.959-0.24-1.359c-0.16-0.32-0.4-0.641-0.64-0.801
				c-0.32-0.24-0.64-0.318-1.04-0.318c-0.48,0-0.8,0.078-1.12,0.318c-0.24,0.16-0.48,0.48-0.64,0.801
				c-0.24,0.4-0.24,0.881-0.24,1.359v10c0,0.561,0,0.961,0.24,1.361c0.16,0.398,0.4,0.639,0.64,0.799c0.32,0.24,0.64,0.4,1.12,0.4
				c0.4,0,0.72-0.16,1.04-0.4c0.24-0.16,0.48-0.4,0.64-0.799c0.16-0.4,0.24-0.801,0.24-1.361v-0.881h2.56v0.881
				c0,1.119-0.16,1.92-0.48,2.721C178.64,236.807,178.16,237.367,177.44,237.768z"/>
		</g>
	</g>
	<g>
		<g>
			<path fill="#FE9929" d="M184.48,218.566v19.6h-2.64v-19.6H184.48z"/>
		</g>
	</g>
	<g>
		<g>
			<path fill="#FE9929" d="M192.16,230.566h-2.56v-2.4h2.56c0.4,0,0.72-0.078,0.88-0.238c0.32-0.16,0.48-0.4,0.64-0.721
				c0.16-0.318,0.16-0.719,0.16-1.119v-2.959l-0.16-1.121c-0.16-0.318-0.32-0.561-0.64-0.719c-0.16-0.16-0.48-0.242-0.88-0.242
				h-2.56v-2.479h2.56c0.88,0,1.68,0.24,2.32,0.561c0.64,0.4,1.2,0.879,1.44,1.6c0.4,0.559,0.56,1.359,0.56,2.4v3.037
				c0,0.881-0.16,1.602-0.56,2.4c-0.32,0.641-0.88,1.201-1.44,1.441C193.84,230.406,193.04,230.566,192.16,230.566z"/>
			<path fill="#FE9929" d="M187.04,238.166v-19.6h1.44v2.48h1.12v7.119h-1.12v2.4h1.12v7.6H187.04z"/>
		</g>
	</g>
	<g>
		<g>
			<path fill="#FE9929" d="M203.84,222.566l-1.68,8.961h-1.12v2.4h0.64l-0.8,4.238h-2.72l4.479-19.6h2.32l4.48,19.6h-2.72
				l-0.8-4.238h0.879v-2.4h-1.359L203.84,222.566z"/>
			<path fill="#FE9929" d="M205.921,233.928h-4.241l0.481-2.4h3.279L205.921,233.928z"/>
		</g>
	</g>
	<g>
		<g>
			<path fill="#FE9929" d="M212.64,235.688v2.479h-1.359v-19.6h2.56v17.121H212.64z"/>
			<path fill="#FE9929" d="M213.84,235.688h5.521v2.479h-5.521V235.688z"/>
		</g>
	</g>
	<g>
		<g>
			<path fill="#FE9929" d="M232.24,231.287v3.279l-6.8-5.359l6.8-5.357v3.279l-2.8,2.08L232.24,231.287z"/>
		</g>
	</g>
	<g>
		<g>
			<path fill="#FE9929" d="M239.601,231.287v3.279l-6.88-5.359l6.88-5.357v3.279l-2.801,2.08L239.601,231.287z"/>
		</g>
	</g>
</g>
<line fill="none" stroke="#000000" stroke-miterlimit="10" x1="-1.84" y1="262.529" x2="398.16" y2="126.029"/>
</svg>
