<?xml version="1.0" encoding="utf-8"?>
<!-- Generator: Adobe Illustrator 16.0.2, SVG Export Plug-In . SVG Version: 6.00 Build 0)  -->
<!DOCTYPE svg PUBLIC "-//W3C//DTD SVG 1.1//EN" "http://www.w3.org/Graphics/SVG/1.1/DTD/svg11.dtd">
<svg version="1.1"
	 id="svg815" xmlns:sodipodi="http://sodipodi.sourceforge.net/DTD/sodipodi-0.dtd" xmlns:inkscape="http://www.inkscape.org/namespaces/inkscape" xmlns:dc="http://purl.org/dc/elements/1.1/" xmlns:svg="http://www.w3.org/2000/svg" xmlns:rdf="http://www.w3.org/1999/02/22-rdf-syntax-ns#" xmlns:cc="http://creativecommons.org/ns#" sodipodi:docname="coffee016.svg" inkscape:version="1.2.2 (732a01da63, 2022-12-09)"
	 xmlns="http://www.w3.org/2000/svg" xmlns:xlink="http://www.w3.org/1999/xlink" x="0px" y="0px" width="390.852px"
	 height="601.967px" viewBox="0 0 390.852 601.967" enable-background="new 0 0 390.852 601.967" xml:space="preserve">
<g enable-background="new    ">
	<path fill="#F70B0B" d="M129.354,217.749c1.063-0.624,2.672-1.219,4.828-1.781c2.156-0.562,4.327-0.844,6.516-0.844
		c3.125,0,5.891,0.454,8.297,1.359c2.405,0.906,3.952,2.329,4.641,4.266c1.125,3.25,2.344,7.031,3.656,11.344
		c1.312,4.313,2.625,8.766,3.938,13.359c1.313,4.593,2.593,9.126,3.844,13.594c1.25,4.469,2.344,8.423,3.281,11.859
		c-0.75,0.876-1.875,1.579-3.375,2.109c-1.5,0.53-3.281,0.797-5.344,0.797c-1.5,0-2.766-0.126-3.797-0.375
		c-1.031-0.25-1.875-0.624-2.531-1.125c-0.656-0.5-1.188-1.156-1.594-1.969c-0.407-0.812-0.766-1.749-1.078-2.813l-1.688-6.469
		h-16.969c-0.501,1.875-1,3.813-1.5,5.813c-0.501,2.001-1,3.938-1.5,5.813c-0.876,0.313-1.797,0.577-2.766,0.797
		c-0.97,0.219-2.142,0.328-3.516,0.328c-3.188,0-5.547-0.548-7.078-1.641c-1.532-1.093-2.297-2.609-2.297-4.547
		c0-0.875,0.125-1.749,0.375-2.625c0.249-0.875,0.53-1.906,0.844-3.094c0.437-1.688,1.046-3.781,1.828-6.281
		c0.781-2.499,1.641-5.203,2.578-8.109c0.937-2.906,1.937-5.891,3-8.953c1.063-3.062,2.063-5.953,3-8.672
		c0.937-2.719,1.796-5.141,2.578-7.266C128.307,220.5,128.916,218.874,129.354,217.749z M140.604,229.843
		c-0.876,2.625-1.86,5.547-2.953,8.766c-1.094,3.22-2.078,6.484-2.953,9.797h11.625c-0.876-3.375-1.767-6.671-2.672-9.891
		c-0.906-3.219-1.734-6.108-2.484-8.672H140.604z"/>
	<path fill="#F70B0B" d="M172.104,250.093c0-4.125,0.625-7.702,1.875-10.734c1.25-3.031,2.984-5.546,5.203-7.547
		c2.219-2,4.813-3.483,7.781-4.453c2.969-0.969,6.172-1.453,9.609-1.453c1.25,0,2.469,0.109,3.656,0.328
		c1.188,0.22,2.152,0.484,2.902,0.797v-15.188c0.625-0.188,1.625-0.39,3-0.609c1.375-0.219,2.781-0.328,4.223-0.328
		c1.375,0,2.605,0.094,3.703,0.281c1.094,0.187,2.016,0.563,2.766,1.125s1.313,1.328,1.688,2.297
		c0.375,0.97,0.563,2.235,0.563,3.797v44.438c0,2.938-1.375,5.282-4.125,7.031c-1.813,1.188-4.156,2.235-7.031,3.141
		c-2.875,0.906-6.188,1.359-9.938,1.359c-4.063,0-7.703-0.563-10.918-1.688c-3.219-1.125-5.938-2.75-8.156-4.875
		c-2.219-2.124-3.906-4.672-5.063-7.641C172.682,257.203,172.104,253.843,172.104,250.093z M198.729,238.374
		c-3.375,0-5.969,0.97-7.777,2.906c-1.813,1.938-2.719,4.875-2.719,8.813c0,3.876,0.844,6.797,2.531,8.766
		c1.688,1.969,4.125,2.953,7.313,2.953c1.125,0,2.141-0.172,3.047-0.516c0.902-0.343,1.605-0.734,2.105-1.172v-20.625
		C201.979,238.749,200.479,238.374,198.729,238.374z"/>
	<path fill="#F70B0B" d="M250.854,225.905c2.563,0,5.078,0.36,7.547,1.078c2.473,0.719,4.608,1.797,6.426,3.234
		c1.875-1.25,3.98-2.281,6.324-3.094c2.348-0.812,5.175-1.219,8.484-1.219c2.375,0,4.702,0.313,6.984,0.938
		c2.281,0.625,4.313,1.609,6.094,2.953c1.781,1.345,3.202,3.126,4.266,5.344c1.063,2.219,1.598,4.922,1.598,8.109v29.531
		c-0.625,0.188-1.609,0.375-2.953,0.563c-1.348,0.188-2.732,0.281-4.172,0.281c-1.375,0-2.61-0.094-3.703-0.281
		c-1.098-0.188-2.02-0.563-2.77-1.125s-1.328-1.327-1.73-2.297c-0.407-0.969-0.607-2.234-0.607-3.797v-22.406
		c0-1.875-0.529-3.234-1.596-4.078c-1.063-0.844-2.5-1.266-4.313-1.266c-0.875,0-1.813,0.203-2.813,0.609
		c-1,0.407-1.75,0.829-2.25,1.266c0.063,0.25,0.097,0.484,0.097,0.703c0,0.22,0,0.422,0,0.609v31.219
		c-0.688,0.188-1.703,0.375-3.05,0.563c-1.345,0.188-2.702,0.281-4.075,0.281c-1.375,0-2.609-0.094-3.703-0.281
		c-1.097-0.188-2.019-0.563-2.769-1.125s-1.328-1.327-1.731-2.297c-0.406-0.969-0.608-2.234-0.608-3.797v-22.406
		c0-1.875-0.578-3.234-1.733-4.078c-1.158-0.844-2.548-1.266-4.173-1.266c-1.125,0-2.095,0.173-2.905,0.516
		c-0.813,0.344-1.5,0.672-2.063,0.984v32.906c-0.625,0.188-1.609,0.375-2.953,0.563c-1.346,0.188-2.732,0.281-4.172,0.281
		c-1.375,0-2.609-0.094-3.703-0.281c-1.096-0.188-2.018-0.563-2.768-1.125s-1.328-1.327-1.732-2.297
		c-0.406-0.969-0.607-2.234-0.607-3.797V237.81c0-1.688,0.357-3.031,1.076-4.031c0.719-0.999,1.702-1.937,2.953-2.813
		c2.124-1.5,4.768-2.719,7.922-3.656C244.118,226.374,247.416,225.905,250.854,225.905z"/>
	<path fill="#F70B0B" d="M307.947,214.655c0-2.375,0.797-4.374,2.391-6c1.594-1.625,3.703-2.438,6.328-2.438
		s4.734,0.813,6.328,2.438c1.594,1.626,2.391,3.625,2.391,6c0,2.376-0.797,4.375-2.391,6c-1.594,1.626-3.703,2.438-6.328,2.438
		s-4.734-0.812-6.328-2.438C308.744,219.03,307.947,217.031,307.947,214.655z M324.635,272.78c-0.688,0.125-1.704,0.296-3.047,0.516
		c-1.346,0.219-2.705,0.328-4.078,0.328c-1.376,0-2.607-0.094-3.703-0.281c-1.095-0.187-2.016-0.563-2.766-1.125
		c-0.75-0.562-1.329-1.327-1.734-2.297c-0.404-0.969-0.605-2.234-0.605-3.797v-38.156c0.687-0.125,1.701-0.296,3.047-0.516
		c1.343-0.219,2.702-0.328,4.078-0.328c1.373,0,2.604,0.094,3.703,0.281c1.092,0.188,2.016,0.563,2.766,1.125
		s1.326,1.328,1.734,2.297c0.401,0.97,0.605,2.235,0.605,3.797V272.78z"/>
	<path fill="#F70B0B" d="M331.947,265.28c0-2.625,0.811-4.813,2.438-6.563c1.624-1.749,3.844-2.625,6.656-2.625
		c2.812,0,5.029,0.876,6.656,2.625c1.624,1.75,2.438,3.938,2.438,6.563s-0.813,4.813-2.438,6.563
		c-1.627,1.749-3.848,2.625-6.656,2.625c-2.813,0-5.032-0.876-6.656-2.625C332.758,270.094,331.947,267.905,331.947,265.28z"/>
	<path fill="#F70B0B" d="M363.914,231.062l-9.375,2.906c-0.938-0.624-1.875-1.5-2.813-2.625c-0.938-1.125-1.402-2.687-1.402-4.688
		c0-3.75,2.277-6.375,6.844-7.875l10.5-3.563h3.469c2.688,0,4.813,0.782,6.375,2.344c1.563,1.563,2.345,3.688,2.345,6.375v48.844
		c-0.688,0.125-1.7,0.296-3.048,0.516c-1.344,0.219-2.702,0.328-4.077,0.328s-2.606-0.094-3.7-0.281
		c-1.098-0.187-2.02-0.563-2.77-1.125c-0.75-0.562-1.328-1.327-1.73-2.297c-0.406-0.969-0.609-2.234-0.609-3.797L363.914,231.062
		L363.914,231.062z"/>
</g>
<sodipodi:namedview  id="namedview817" inkscape:zoom="1.2150542" pagecolor="#ffffff" inkscape:cx="218.09727" bordercolor="#666666" showgrid="false" inkscape:cy="193.40701" borderopacity="1" inkscape:pagecheckerboard="0" inkscape:window-maximized="1" inkscape:current-layer="g823" inkscape:window-height="705" inkscape:window-y="-8" inkscape:window-x="-8" inkscape:deskcolor="#d1d1d1" inkscape:pageopacity="0" inkscape:showpageshadow="2" inkscape:window-width="1366" fit-margin-right="0" fit-margin-bottom="0" inkscape:pageshadow="2" inkscape:snap-page="false" objecttolerance="10" fit-margin-left="0" gridtolerance="10" fit-margin-top="0" guidetolerance="10">
	</sodipodi:namedview>
<g>
	
		<path fill="none" stroke="#0480B7" stroke-width="0.15" stroke-linecap="round" stroke-linejoin="round" stroke-miterlimit="10" d="
		M81.411,580.79H371.89c2.318,0,4.158-0.8,5.769-2.4c1.601-1.6,2.396-3.52,2.396-5.839V220.069c0-2.239-0.801-4.239-2.396-5.84
		c-0.728-0.8-1.604-1.359-2.563-1.76c-0.961-0.479-2-0.64-3.198-0.64H22.052c-2.24,0-4.16,0.8-5.76,2.399
		c-1.601,1.601-2.4,3.601-2.4,5.84V329.83"/>
	<g>
		<path fill="#F0F0F0" d="M379.49,220.629c0-2.319-0.799-4.24-2.397-5.84c-1.603-1.68-3.603-2.479-5.842-2.479H21.492
			c-2.24,0-4.24,0.8-5.84,2.479c-1.601,1.6-2.4,3.521-2.4,5.84v352.48c0,2.229,0.8,4.229,2.4,5.841c1.6,1.6,3.6,2.396,5.84,2.396
			h349.759c2.239,0,4.239-0.8,5.842-2.396c1.604-1.604,2.397-3.604,2.397-5.841V220.629L379.49,220.629z"/>
	</g>
</g>
<g>
	<g>
		<path fill="#FFFFFF" d="M1.625,567.79V18.59c0-4.16,1.439-7.76,4.399-10.72c3.041-2.96,6.641-4.48,10.801-4.48h357.999
			c4.238,0,7.84,1.52,10.799,4.48c2.962,2.96,4.48,6.56,4.48,10.72v549.2c0,4.161-1.521,7.761-4.48,10.721
			c-2.959,3.04-6.561,4.479-10.799,4.479H16.825c-4.16,0-7.761-1.439-10.801-4.479C3.066,575.55,1.625,571.951,1.625,567.79z"/>
		
			<path fill="none" stroke="#0480B7" stroke-width="0.15" stroke-linecap="round" stroke-linejoin="round" stroke-miterlimit="10" d="
			M1.625,567.79c0,4.161,1.439,7.761,4.399,10.721c3.041,3.04,6.641,4.479,10.801,4.479h357.999c4.238,0,7.84-1.439,10.799-4.479
			c2.962-2.96,4.48-6.56,4.48-10.721V18.59c0-4.16-1.521-7.76-4.48-10.72s-6.561-4.48-10.799-4.48H16.825
			c-4.16,0-7.761,1.52-10.801,4.48c-2.959,2.96-4.399,6.56-4.399,10.72V567.79"/>
	</g>
</g>
<g>
	<g>
		<path fill="none" stroke="#10C7F9" stroke-width="3" stroke-linecap="round" stroke-linejoin="round" stroke-miterlimit="10" d="
			M2.532,574.951c0,4.079,1.84,7.6,5.68,10.719c3.6,2.961,7.6,4.481,11.92,4.481h355.68c4.156,0,7.687-1.521,10.646-4.481
			s4.396-6.479,4.396-10.719V216.79c0-4.16-1.438-7.76-4.396-10.64c-2.961-2.96-6.479-4.4-10.646-4.4H20.132
			c-4.32,0-8.32,1.44-11.92,4.4c-3.84,3.04-5.68,6.64-5.68,10.64V574.951"/>
	</g>
</g>
<g>
	<path fill="#FFFFFF" d="M171.972,231.75v3.68v110.08l45.838,28.159l3.438,2.16l88.239,54.16l6.396,3.92v-113.76L171.972,231.75z"/>
	<path fill="#FFFFFF" stroke="#C3C7C9" stroke-miterlimit="10" d="M382.692,284.229l-3.849-2.399l-60.723,37.36v113.76
		l64.563-39.682L382.692,284.229L382.692,284.229z"/>
	<path fill="#FFFFFF" stroke="#D1D1D1" stroke-miterlimit="10" d="M199.893,212.469l-26.396,16.16l141.999,88l60-36.8l-48.646-29.92
		v-37.44H199.893L199.893,212.469z"/>
	<path fill="#FFFFFF" stroke="#C9C9C9" stroke-miterlimit="10" d="M382.692,212.469H326.85v37.44l48.646,29.92l3.354,2l3.849,2.399
		L382.692,212.469L382.692,212.469z"/>
	<path fill="#FFFFFF" d="M171.972,235.429l-7.121-4.399L20.932,319.429l142,88l54.878-33.76l-45.838-28.159V235.429L171.972,235.429
		z"/>
	<path fill="#FFFFFF" d="M309.49,435.35v-5.354l-88.239-54.16l-55.679,34.08v3.12v110.72l1.278-0.8L309.49,435.35z"/>
	<path fill="#FFFFFF" d="M19.411,436.229l3.521,2.229l140.399,86.24V411.58v-0.646l-143.92-88.396v10.563V436.229z"/>
	<path fill="#FFFFFF" d="M22.932,438.469v0.646l48.561,29.841l3.439,2.079l83.119,51.121l8.8,5.354v-4.56l-1.278,0.8V413.03
		l-2.24-1.44v113.12L22.932,438.469z"/>
	<path fill="#FFFFFF" stroke="#C3C7C9" stroke-miterlimit="10" d="M13.411,329.429l-1.2,0.801v175.12l1.68-1.04l57.601-35.354
		l-48.561-29.841v-0.646l-3.521-2.239V333.11L13.411,329.429z"/>
	<path fill="#FFFFFF" d="M14.211,574.79v6h67.2l76.64-47.039v-11.6L74.932,471.03L14.211,508.31V574.79z"/>
	
		<path fill="none" stroke="#0480B7" stroke-width="0.15" stroke-linecap="round" stroke-linejoin="round" stroke-miterlimit="10" d="
		M13.891,504.31v68.24c0,0.8,0.08,1.604,0.32,2.239"/>
	
		<polyline fill="none" stroke="#CCCCCC" stroke-width="1.15" stroke-linecap="round" stroke-linejoin="round" stroke-miterlimit="10" points="
		309.49,429.99 315.892,433.91 315.892,320.149 171.972,231.75 171.972,235.429 	"/>
	
		<polyline fill="none" stroke="#CCCCCC" stroke-width="1.15" stroke-linecap="round" stroke-linejoin="round" stroke-miterlimit="10" points="
		199.893,212.469 173.492,228.629 315.49,316.629 375.49,279.83 	"/>
	
		<line fill="none" stroke="#CCCCCC" stroke-width="1.15" stroke-linecap="round" stroke-linejoin="round" stroke-miterlimit="10" x1="378.851" y1="281.83" x2="382.692" y2="284.229"/>
	
		<line fill="none" stroke="#CCCCCC" stroke-width="1.15" stroke-linecap="round" stroke-linejoin="round" stroke-miterlimit="10" x1="375.49" y1="279.83" x2="378.851" y2="281.83"/>
	
		<polyline fill="none" stroke="#CCCCCC" stroke-width="1.15" stroke-linecap="round" stroke-linejoin="round" stroke-miterlimit="10" points="
		326.851,212.469 326.851,249.91 375.49,279.83 	"/>
	
		<polyline fill="none" stroke="#CCCCCC" stroke-width="1.15" stroke-linecap="round" stroke-linejoin="round" stroke-miterlimit="10" points="
		382.692,393.269 318.132,432.95 318.132,319.19 378.851,281.83 	"/>
	
		<polyline fill="none" stroke="#CCCCCC" stroke-width="1.15" stroke-linecap="round" stroke-linejoin="round" stroke-miterlimit="10" points="
		19.411,333.11 13.411,329.429 12.211,330.229 	"/>
	
		<polyline fill="none" stroke="#CCCCCC" stroke-width="1.15" stroke-linecap="round" stroke-linejoin="round" stroke-miterlimit="10" points="
		19.411,333.11 19.411,436.229 22.932,438.469 	"/>
	
		<polyline fill="none" stroke="#CCCCCC" stroke-width="1.15" stroke-linecap="round" stroke-linejoin="round" stroke-miterlimit="10" points="
		22.932,438.469 22.932,439.11 71.492,468.951 	"/>
	
		<line fill="none" stroke="#CCCCCC" stroke-width="1.15" stroke-linecap="round" stroke-linejoin="round" stroke-miterlimit="10" x1="71.492" y1="468.951" x2="74.932" y2="471.03"/>
	
		<polyline fill="none" stroke="#CCCCCC" stroke-width="1.15" stroke-linecap="round" stroke-linejoin="round" stroke-miterlimit="10" points="
		12.211,505.35 13.891,504.31 71.492,468.951 	"/>
	
		<polyline fill="none" stroke="#CCCCCC" stroke-width="1.15" stroke-linecap="round" stroke-linejoin="round" stroke-miterlimit="10" points="
		74.932,471.03 14.211,508.31 14.211,574.79 14.211,580.79 	"/>
	
		<polyline fill="none" stroke="#CCCCCC" stroke-width="1.15" stroke-linecap="round" stroke-linejoin="round" stroke-miterlimit="10" points="
		171.972,235.429 164.851,231.03 20.932,319.429 162.932,407.429 217.813,373.669 	"/>
	
		<polyline fill="none" stroke="#CCCCCC" stroke-width="1.15" stroke-linecap="round" stroke-linejoin="round" stroke-miterlimit="10" points="
		166.851,522.951 309.49,435.35 309.49,429.99 	"/>
	
		<line fill="none" stroke="#CCCCCC" stroke-width="1.15" stroke-linecap="round" stroke-linejoin="round" stroke-miterlimit="10" x1="217.813" y1="373.669" x2="221.251" y2="375.83"/>
	
		<polyline fill="none" stroke="#CCCCCC" stroke-width="1.15" stroke-linecap="round" stroke-linejoin="round" stroke-miterlimit="10" points="
		221.251,375.83 165.572,409.91 165.572,413.03 	"/>
	
		<line fill="none" stroke="#CCCCCC" stroke-width="1.15" stroke-linecap="round" stroke-linejoin="round" stroke-miterlimit="10" x1="165.572" y1="413.03" x2="163.331" y2="411.589"/>
	
		<polyline fill="none" stroke="#CCCCCC" stroke-width="1.15" stroke-linecap="round" stroke-linejoin="round" stroke-miterlimit="10" points="
		163.331,411.589 163.331,410.95 19.411,322.549 19.411,333.11 	"/>
	
		<polyline fill="none" stroke="#CCCCCC" stroke-width="1.15" stroke-linecap="round" stroke-linejoin="round" stroke-miterlimit="10" points="
		171.972,235.429 171.972,345.51 217.813,373.669 	"/>
	
		<polyline fill="none" stroke="#CCCCCC" stroke-width="1.15" stroke-linecap="round" stroke-linejoin="round" stroke-miterlimit="10" points="
		165.572,413.03 165.572,523.75 166.851,522.951 	"/>
	
		<polyline fill="none" stroke="#CCCCCC" stroke-width="1.15" stroke-linecap="round" stroke-linejoin="round" stroke-miterlimit="10" points="
		158.051,522.151 166.851,527.51 166.851,522.951 	"/>
	
		<polyline fill="none" stroke="#CCCCCC" stroke-width="1.15" stroke-linecap="round" stroke-linejoin="round" stroke-miterlimit="10" points="
		81.411,580.79 158.051,533.75 158.051,522.151 	"/>
	
		<line fill="none" stroke="#CCCCCC" stroke-width="1.15" stroke-linecap="round" stroke-linejoin="round" stroke-miterlimit="10" x1="221.251" y1="375.83" x2="309.49" y2="429.99"/>
	
		<polyline fill="none" stroke="#CCCCCC" stroke-width="1.15" stroke-linecap="round" stroke-linejoin="round" stroke-miterlimit="10" points="
		22.932,438.469 163.331,524.709 163.331,411.589 	"/>
	
		<line fill="none" stroke="#CCCCCC" stroke-width="1.15" stroke-linecap="round" stroke-linejoin="round" stroke-miterlimit="10" x1="74.932" y1="471.03" x2="158.051" y2="522.151"/>
</g>
<g opacity="0.3">
	<g>
		<g>
			<path fill="#0860A8" d="M315.093,319.11l-66.641-38.32c-52.241,0.08-78.32,0.08-78.32-0.08c0,0.24-13.2,0.24-39.601-0.08
				c-26.721-0.24-40.24-0.24-40.721,0c-43.04,25.28-64.399,38.08-64.159,38.48L23.89,431.589l144.8,93.361l146.401-90.001
				L315.093,319.11L315.093,319.11z"/>
		</g>
	</g>
</g>
<g>
	<g>
		<path fill="#CCCCCC" d="M164.746,130.509l-0.801,43.04l-0.721-43.04l34.32-20.72L164.746,130.509z"/>
		
			<line fill="none" stroke="#CCCCCC" stroke-width="1.9" stroke-linecap="round" stroke-linejoin="round" stroke-miterlimit="10" x1="281.865" y1="57.79" x2="197.545" y2="109.79"/>
		
			<polyline fill="none" stroke="#CCCCCC" stroke-width="1.9" stroke-linecap="round" stroke-linejoin="round" stroke-miterlimit="10" points="
			197.545,109.79 164.746,130.509 163.946,173.549 163.225,130.509 197.545,109.79 		"/>
	</g>
	<g>
		<g>
			<path fill="#F0F0F0" d="M376.665,182.75c-0.801,0.72-1.76,1.36-2.801,1.761c-0.959,0.479-2.16,0.719-3.278,0.719H19.066
				c-1.199,0-2.239-0.239-3.359-0.719c-1.04-0.4-1.84-1.041-2.641-1.761c-0.8-0.8-1.439-1.76-1.84-2.72
				c-0.479-1.12-0.72-2.24-0.72-3.36V21.79c0-1.2,0.24-2.32,0.72-3.36c0.4-1.04,1.04-2,1.84-2.72c0.801-0.8,1.601-1.44,2.641-1.84
				c1.12-0.48,2.16-0.72,3.359-0.72h351.521c1.118,0,2.319,0.24,3.278,0.72c1.041,0.4,2,1.04,2.801,1.84
				c0.8,0.72,1.359,1.68,1.841,2.72c0.399,1.041,0.646,2.16,0.646,3.36v154.88c0,1.12-0.238,2.24-0.646,3.36
				C378.025,180.99,377.465,181.95,376.665,182.75z"/>
		</g>
	</g>
	<g>
		<path fill="#FFFFFF" d="M349.945,94.91v89.12h-267.2v-73.68l148.479-89.6L349.945,94.91z"/>
	</g>
	<g>
		<path fill="none" stroke="#0480B7" stroke-linecap="round" stroke-linejoin="round" stroke-miterlimit="10" d="M376.586,182.669
			c0.799-0.8,1.438-1.76,1.92-2.72c0.399-1.12,0.646-2.24,0.646-3.439V21.79c0-1.12-0.24-2.24-0.646-3.36
			c-0.479-1.04-1.121-1.84-1.92-2.64c-0.802-0.8-1.681-1.52-2.722-1.92c-1.039-0.48-2.16-0.72-3.358-0.72H19.226
			c-1.2,0-2.32,0.24-3.359,0.72c-1.04,0.4-2,1.12-2.801,1.92c-0.8,0.8-1.359,1.6-1.84,2.64c-0.479,1.121-0.72,2.24-0.72,3.36v154.72
			c0,1.199,0.24,2.319,0.72,3.439c0.48,0.96,1.04,1.92,1.84,2.72c0.801,0.8,1.761,1.36,2.801,1.841
			c1.039,0.479,2.159,0.719,3.359,0.719h351.28c1.198,0,2.319-0.239,3.358-0.719C374.906,184.03,375.784,183.469,376.586,182.669"/>
	</g>
	<g>
		<path fill="#FFFFFF" d="M229.064,26.029L346.266,98.35l-137.76,86.079L91.466,112.03L229.064,26.029z"/>
		
			<polyline fill="none" stroke="#CCCCCC" stroke-width="1.9" stroke-linecap="round" stroke-linejoin="round" stroke-miterlimit="10" points="
			229.064,26.029 91.466,112.03 208.506,184.429 346.266,98.35 229.064,26.029 		"/>
	</g>
	<g>
		<path fill="#CCCCCC" d="M89.625,112.03l-0.8,74.399l-0.801-74.399l36.081-21.84L89.625,112.03z"/>
		
			<line fill="none" stroke="#CCCCCC" stroke-width="1.9" stroke-linecap="round" stroke-linejoin="round" stroke-miterlimit="10" x1="124.106" y1="90.189" x2="228.186" y2="25.87"/>
		
			<polyline fill="none" stroke="#CCCCCC" stroke-width="1.9" stroke-linecap="round" stroke-linejoin="round" stroke-miterlimit="10" points="
			124.106,90.189 89.625,112.03 88.826,186.429 88.025,112.03 124.106,90.189 		"/>
	</g>
	<g>
		<path fill="#CCCCCC" d="M274.105,184.83c-0.399-0.08-0.646-0.08-0.799-0.08c0.559-0.32,6.719-4,18.479-11.12L274.105,184.83z"/>
		
			<line fill="none" stroke="#CCCCCC" stroke-width="1.9" stroke-linecap="round" stroke-linejoin="round" stroke-miterlimit="10" x1="273.307" y1="184.75" x2="273.307" y2="184.75"/>
		
			<path fill="none" stroke="#CCCCCC" stroke-width="1.9" stroke-linecap="round" stroke-linejoin="round" stroke-miterlimit="10" d="
			M291.785,173.629l-17.682,11.2c-0.398-0.08-0.646-0.08-0.799-0.08"/>
		
			<path fill="none" stroke="#CCCCCC" stroke-width="1.9" stroke-linecap="round" stroke-linejoin="round" stroke-miterlimit="10" d="
			M273.307,184.75c0.563-0.32,6.719-4,18.479-11.12"/>
		
			<line fill="none" stroke="#CCCCCC" stroke-width="1.9" stroke-linecap="round" stroke-linejoin="round" stroke-miterlimit="10" x1="291.785" y1="173.629" x2="345.225" y2="140.589"/>
	</g>
	<g>
		<path fill="#CCCCCC" d="M344.506,97.15h1.604l-0.81,42.96L344.506,97.15z"/>
		
			<polyline fill="none" stroke="#CCCCCC" stroke-width="1.9" stroke-linecap="round" stroke-linejoin="round" stroke-miterlimit="10" points="
			346.105,97.15 345.307,140.11 344.506,97.15 346.105,97.15 		"/>
	</g>
	<g>
		<path fill="none" stroke="#10C7F9" stroke-width="3" stroke-linecap="round" stroke-linejoin="round" stroke-miterlimit="10" d="
			M388.825,183.31c0.8-1.841,1.199-3.841,1.199-5.921v-158.8c0-2-0.399-4-1.199-5.92c-0.722-1.76-1.84-3.44-3.2-4.8
			c-1.439-1.44-3.119-2.48-4.88-3.28c-1.84-0.8-3.84-1.2-5.92-1.2H16.826c-2,0-4,0.4-5.921,1.2c-1.76,0.8-3.439,1.84-4.88,3.28
			c-1.359,1.36-2.399,3.04-3.199,4.8c-0.801,1.92-1.2,3.92-1.2,5.92v158.8c0,2.08,0.399,4.08,1.2,5.921
			c0.8,1.84,1.84,3.52,3.199,4.88c1.44,1.439,3.121,2.479,4.88,3.199c1.921,0.801,3.921,1.2,5.921,1.2h357.999
			c2.08,0,4.08-0.399,5.92-1.2c1.761-0.72,3.438-1.76,4.88-3.199C386.986,186.83,388.105,185.15,388.825,183.31"/>
	</g>
	<g>
		<path fill="#CCCCCC" d="M209.865,184.75l-0.803-0.56l33.604-20.16L209.865,184.75z"/>
		<path fill="#CCCCCC" d="M209.064,184.19l-0.799,0.56l-32.729-20.64L209.064,184.19z"/>
		
			<polyline fill="none" stroke="#CCCCCC" stroke-width="1.9" stroke-linecap="round" stroke-linejoin="round" stroke-miterlimit="10" points="
			209.064,184.19 208.266,184.75 175.545,164.11 		"/>
		
			<line fill="none" stroke="#CCCCCC" stroke-width="1.9" stroke-linecap="round" stroke-linejoin="round" stroke-miterlimit="10" x1="209.064" y1="184.19" x2="242.666" y2="164.03"/>
		
			<line fill="none" stroke="#CCCCCC" stroke-width="1.9" stroke-linecap="round" stroke-linejoin="round" stroke-miterlimit="10" x1="175.545" y1="164.11" x2="209.064" y2="184.19"/>
		
			<line fill="none" stroke="#CCCCCC" stroke-width="1.9" stroke-linecap="round" stroke-linejoin="round" stroke-miterlimit="10" x1="326.986" y1="112.03" x2="242.666" y2="164.03"/>
		
			<line fill="none" stroke="#CCCCCC" stroke-width="1.9" stroke-linecap="round" stroke-linejoin="round" stroke-miterlimit="10" x1="91.226" y1="112.429" x2="175.545" y2="164.11"/>
		
			<polyline fill="none" stroke="#CCCCCC" stroke-width="1.9" stroke-linecap="round" stroke-linejoin="round" stroke-miterlimit="10" points="
			242.666,164.03 209.865,184.75 209.064,184.19 		"/>
	</g>
	<g>
		<path fill="#FFFFFF" d="M52.666,32.189v11.84l-15.04,9.36l-14.96-9.6l0.239-11.6c-0.079-0.08,2.4-1.52,7.28-4.4
			c4.8-2.88,7.28-4.32,7.28-4.4L52.666,32.189z"/>
	</g>
	<g>
		
			<polyline fill="none" stroke="#FFFFFF" stroke-width="3.8" stroke-linecap="round" stroke-linejoin="round" stroke-miterlimit="10" points="
			355.465,50.83 355.625,50.83 367.625,58.189 		"/>
		
			<line fill="none" stroke="#FFFFFF" stroke-width="3.8" stroke-linecap="round" stroke-linejoin="round" stroke-miterlimit="10" x1="355.465" y1="37.79" x2="355.465" y2="50.83"/>
		
			<polyline fill="none" stroke="#FFFFFF" stroke-width="3.8" stroke-linecap="round" stroke-linejoin="round" stroke-miterlimit="10" points="
			367.625,58.189 355.465,50.99 355.465,50.83 		"/>
		
			<line fill="none" stroke="#FFFFFF" stroke-width="3.8" stroke-linecap="round" stroke-linejoin="round" stroke-miterlimit="10" x1="337.704" y1="60.429" x2="355.465" y2="50.83"/>
		
			<line fill="none" stroke="#FFFFFF" stroke-width="3.8" stroke-linecap="round" stroke-linejoin="round" stroke-miterlimit="10" x1="367.625" y1="58.189" x2="371.704" y2="60.669"/>
	</g>
	<g>
		<path fill="#C9C8CC" d="M50.666,33.229v10.4l-13.04,8l-12.96-8.24l0.16-10.16c0,0,2.079-1.28,6.319-3.76
			c4.24-2.479,6.4-3.68,6.4-3.76L50.666,33.229z"/>
	</g>
</g>
<g>
	<g>
		<path fill="#FFFFFF" stroke="#909090" stroke-miterlimit="10" d="M241.625,51.629v11.76l-14.799-9.12v-11.68L241.625,51.629z"/>
		
			<polyline fill="none" stroke="#CCCCCC" stroke-width="0.2" stroke-linecap="round" stroke-linejoin="round" stroke-miterlimit="10" points="
			241.625,51.629 226.826,42.589 226.826,54.27 241.625,63.39 241.625,51.629 		"/>
	</g>
	<g>
		<path fill="#FFFFFF" stroke="#909090" stroke-miterlimit="10" d="M211.705,63.47V51.79l14.801-9.12v11.68L211.705,63.47z"/>
		
			<polyline fill="none" stroke="#CCCCCC" stroke-width="0.2" stroke-linecap="round" stroke-linejoin="round" stroke-miterlimit="10" points="
			211.705,51.79 226.506,42.669 226.506,54.35 211.705,63.47 211.705,51.79 		"/>
	</g>
	<g>
		<path fill="#FFFFFF" d="M212.025,63.79l14.802-9.12l14.639,9.04l-14.799,9.04L212.025,63.79z"/>
		
			<polyline fill="none" stroke="#CCCCCC" stroke-width="0.2" stroke-linecap="round" stroke-linejoin="round" stroke-miterlimit="10" points="
			212.025,63.79 226.666,72.75 241.465,63.709 226.826,54.669 212.025,63.79 		"/>
	</g>
	<g>
		<path fill="#FFFFFF" stroke="#909090" stroke-miterlimit="10" d="M211.064,63.629V51.87l14.801,9.12v11.68L211.064,63.629z"/>
		
			<polyline fill="none" stroke="#CCCCCC" stroke-width="0.2" stroke-linecap="round" stroke-linejoin="round" stroke-miterlimit="10" points="
			211.064,63.629 225.865,72.669 225.865,60.99 211.064,51.87 211.064,63.629 		"/>
	</g>
	<g>
		<path fill="#FFFFFF" stroke="#909090" stroke-miterlimit="10" d="M210.826,52.029v11.68l-14.803,9.12V61.07L210.826,52.029z"/>
		
			<polyline fill="none" stroke="#CCCCCC" stroke-width="0.2" stroke-linecap="round" stroke-linejoin="round" stroke-miterlimit="10" points="
			210.826,63.709 196.025,72.83 196.025,61.07 210.826,52.029 210.826,63.709 		"/>
	</g>
	<g>
		<path fill="#FFFFFF" d="M196.266,73.07l14.799-9.12l14.646,9.04l-14.799,9.12L196.266,73.07z"/>
		
			<polyline fill="none" stroke="#CCCCCC" stroke-width="0.2" stroke-linecap="round" stroke-linejoin="round" stroke-miterlimit="10" points="
			196.266,73.07 210.906,82.109 225.705,72.99 211.064,63.95 196.266,73.07 		"/>
	</g>
	<g>
		<path fill="#FFFFFF" stroke="#909090" stroke-miterlimit="10" d="M209.945,70.83v11.68l-14.799-9.04V61.79L209.945,70.83z"/>
		
			<polyline fill="none" stroke="#909090" stroke-width="0.2" stroke-linecap="round" stroke-linejoin="round" stroke-miterlimit="10" points="
			209.945,70.83 195.146,61.79 195.146,73.47 209.945,82.509 209.945,70.83 		"/>
	</g>
	<g>
		<path fill="#FFFFFF" stroke="#909090" stroke-miterlimit="10" d="M194.826,61.87v11.68l-14.801,9.04v-11.6L194.826,61.87z"/>
		
			<polyline fill="none" stroke="#CCCCCC" stroke-width="0.2" stroke-linecap="round" stroke-linejoin="round" stroke-miterlimit="10" points="
			194.826,73.55 180.026,82.589 180.026,70.99 194.826,61.87 194.826,73.55 		"/>
	</g>
	<g>
		<path fill="#FFFFFF" d="M194.906,91.95l-14.56-9.04l14.8-9.12l14.64,9.04L194.906,91.95z"/>
		
			<polyline fill="none" stroke="#CCCCCC" stroke-width="0.2" stroke-linecap="round" stroke-linejoin="round" stroke-miterlimit="10" points="
			194.906,91.95 209.785,82.83 195.146,73.79 180.346,82.91 194.906,91.95 		"/>
	</g>
	<g>
		<path fill="#FFFFFF" stroke="#909090" stroke-miterlimit="10" d="M193.465,92.83l-14.8-9.04V72.03l14.8,9.121V92.83z"/>
		
			<polyline fill="none" stroke="#CCCCCC" stroke-width="0.2" stroke-linecap="round" stroke-linejoin="round" stroke-miterlimit="10" points="
			193.465,92.83 193.465,81.15 178.666,72.029 178.666,83.79 193.465,92.83 		"/>
	</g>
	<g>
		<path fill="#FFFFFF" stroke="#909090" stroke-miterlimit="10" d="M163.625,92.91V81.23l14.8-9.04v11.68L163.625,92.91z"/>
		
			<polyline fill="none" stroke="#CCCCCC" stroke-width="0.2" stroke-linecap="round" stroke-linejoin="round" stroke-miterlimit="10" points="
			163.625,81.229 178.425,72.189 178.425,83.87 163.625,92.91 163.625,81.229 		"/>
	</g>
	<g>
		<path fill="#FFFFFF" d="M178.666,84.109l14.641,9.12l-14.881,9.041l-14.56-9.041L178.666,84.109z"/>
		
			<polyline fill="none" stroke="#CCCCCC" stroke-width="0.2" stroke-linecap="round" stroke-linejoin="round" stroke-miterlimit="10" points="
			178.666,84.109 163.866,93.229 178.425,102.27 193.306,93.229 178.666,84.109 		"/>
	</g>
	<g>
		<path fill="#FFFFFF" stroke="#909090" stroke-miterlimit="10" d="M162.906,93.15V81.39l14.801,9.12v11.681L162.906,93.15z"/>
		
			<polyline fill="none" stroke="#CCCCCC" stroke-width="0.2" stroke-linecap="round" stroke-linejoin="round" stroke-miterlimit="10" points="
			162.906,93.15 177.706,102.19 177.706,90.509 162.906,81.39 162.906,93.15 		"/>
	</g>
	<g>
		<path fill="#FFFFFF" stroke="#909090" stroke-miterlimit="10" d="M162.666,81.47v11.76l-14.8,9.121V90.589L162.666,81.47z"/>
		
			<polyline fill="none" stroke="#CCCCCC" stroke-width="0.2" stroke-linecap="round" stroke-linejoin="round" stroke-miterlimit="10" points="
			162.666,93.229 147.866,102.35 147.866,90.589 162.666,81.47 162.666,93.229 		"/>
	</g>
	<g>
		<path fill="#FFFFFF" d="M177.625,102.509l-14.88,9.12l-14.641-9.12l14.8-9.04L177.625,102.509z"/>
		
			<polyline fill="none" stroke="#CCCCCC" stroke-width="0.2" stroke-linecap="round" stroke-linejoin="round" stroke-miterlimit="10" points="
			177.625,102.509 162.906,93.47 148.106,102.509 162.746,111.629 177.625,102.509 		"/>
	</g>
	<g>
		<path fill="#FFFFFF" stroke="#909090" stroke-miterlimit="10" d="M161.786,112.03l-14.881-9.12V91.23l14.881,9.121V112.03z"/>
		
			<polyline fill="none" stroke="#CCCCCC" stroke-width="0.2" stroke-linecap="round" stroke-linejoin="round" stroke-miterlimit="10" points="
			161.786,112.03 161.786,100.35 146.906,91.229 146.906,102.91 161.786,112.03 		"/>
	</g>
	<g>
		<path fill="#FFFFFF" stroke="#909090" stroke-miterlimit="10" d="M146.426,102.99l-14.88,9.12v-11.681l14.88-9.12V102.99z"/>
		
			<polyline fill="none" stroke="#CCCCCC" stroke-width="0.2" stroke-linecap="round" stroke-linejoin="round" stroke-miterlimit="10" points="
			131.866,112.11 131.866,100.429 146.746,91.31 146.746,102.99 131.866,112.11 		"/>
	</g>
	<g>
		<path fill="#FFFFFF" stroke="#909090" stroke-miterlimit="10" d="M132.106,112.429l14.88-9.12l14.641,9.041l-14.8,9.039
			L132.106,112.429z"/>
		
			<polyline fill="none" stroke="#CCCCCC" stroke-width="0.2" stroke-linecap="round" stroke-linejoin="round" stroke-miterlimit="10" points="
			132.106,112.429 146.826,121.389 161.625,112.35 146.986,103.309 132.106,112.429 		"/>
	</g>
</g>
<g>
	<g>
		<path fill="#FFFFFF" stroke="#909090" stroke-miterlimit="10" d="M242.746,63.47V51.79l14.879,9.12v11.68L242.746,63.47z"/>
		
			<polyline fill="none" stroke="#CCCCCC" stroke-width="0.2" stroke-linecap="round" stroke-linejoin="round" stroke-miterlimit="10" points="
			242.746,63.47 257.625,72.589 257.625,60.91 242.746,51.79 242.746,63.47 		"/>
	</g>
	<g>
		
			<path fill="none" stroke="#CCCCCC" stroke-width="0.2" stroke-linecap="round" stroke-linejoin="round" stroke-miterlimit="10" d="
			M242.506,51.87v11.68l-14.801,9.12V60.99L242.506,51.87z"/>
		<polyline fill="none" stroke="#CCCCCC" stroke-linecap="round" stroke-linejoin="round" stroke-miterlimit="10" points="
			242.506,63.55 227.705,72.669 227.705,60.99 242.506,51.87 242.506,63.55 		"/>
	</g>
	<g>
		<path fill="#FFFFFF" d="M242.826,63.87l14.639,9.04l-14.879,9.04l-14.643-9.04L242.826,63.87z"/>
		<polyline fill="#FFFFFF" stroke="#909090" stroke-miterlimit="10" points="242.826,63.87 227.945,72.91 242.586,81.95 
			257.465,72.91 242.826,63.87 		"/>
	</g>
	<g>
		<path fill="#FFFFFF" stroke="#909090" stroke-miterlimit="10" d="M241.865,70.189v11.76l-14.803-9.12V61.15L241.865,70.189z"/>
		
			<polyline fill="none" stroke="#CCCCCC" stroke-width="0.2" stroke-linecap="round" stroke-linejoin="round" stroke-miterlimit="10" points="
			241.865,70.189 227.064,61.15 227.064,72.83 241.865,81.95 241.865,70.189 		"/>
	</g>
	<g>
		
			<path fill="none" stroke="#CCCCCC" stroke-width="0.2" stroke-linecap="round" stroke-linejoin="round" stroke-miterlimit="10" d="
			M226.826,61.229v11.68l-14.883,9.12V70.27L226.826,61.229z"/>
		<polyline fill="none" stroke="#CCCCCC" stroke-linecap="round" stroke-linejoin="round" stroke-miterlimit="10" points="
			226.826,72.91 211.945,82.029 211.945,70.27 226.826,61.229 226.826,72.91 		"/>
	</g>
	<g>
		<path fill="#FFFFFF" stroke="#909090" stroke-miterlimit="10" d="M212.266,82.27l14.799-9.12l14.646,9.04l-14.799,9.12
			L212.266,82.27z"/>
		
			<polyline fill="none" stroke="#CCCCCC" stroke-width="0.2" stroke-linecap="round" stroke-linejoin="round" stroke-miterlimit="10" points="
			212.266,82.27 226.906,91.31 241.705,82.189 227.064,73.15 212.266,82.27 		"/>
	</g>
	<g>
		<path fill="#FFFFFF" stroke="#909090" stroke-miterlimit="10" d="M225.865,80.029v11.68l-14.803-9.04V70.99L225.865,80.029z"/>
		
			<polyline fill="none" stroke="#CCCCCC" stroke-width="0.2" stroke-linecap="round" stroke-linejoin="round" stroke-miterlimit="10" points="
			225.865,80.029 211.064,70.99 211.064,82.669 225.865,91.709 225.865,80.029 		"/>
	</g>
	<g>
		
			<path fill="none" stroke="#CCCCCC" stroke-width="0.2" stroke-linecap="round" stroke-linejoin="round" stroke-miterlimit="10" d="
			M210.826,82.75l-14.803,9.12V80.11l14.803-9.04V82.75z"/>
		<polyline fill="none" stroke="#CCCCCC" stroke-linecap="round" stroke-linejoin="round" stroke-miterlimit="10" points="
			196.025,91.87 196.025,80.109 210.826,71.07 210.826,82.75 196.025,91.87 		"/>
	</g>
	<g>
		<path fill="#FFFFFF" d="M196.266,92.109l14.799-9.12l14.646,9.04l-14.799,9.2L196.266,92.109z"/>
		<polyline fill="#FFFFFF" stroke="#909090" stroke-miterlimit="10" points="196.266,92.109 210.906,101.229 225.705,92.029 
			211.064,82.99 196.266,92.109 		"/>
	</g>
	<g>
		<path fill="#FFFFFF" stroke="#909090" stroke-miterlimit="10" d="M194.585,92.99V81.23l14.879,9.12v11.68L194.585,92.99z"/>
		
			<polyline fill="none" stroke="#CCCCCC" stroke-width="0.2" stroke-linecap="round" stroke-linejoin="round" stroke-miterlimit="10" points="
			194.585,92.99 209.465,102.03 209.465,90.35 194.585,81.229 194.585,92.99 		"/>
	</g>
	<g>
		
			<path fill="none" stroke="#CCCCCC" stroke-width="0.2" stroke-linecap="round" stroke-linejoin="round" stroke-miterlimit="10" d="
			M194.346,81.39v11.68l-14.801,9.12V90.429L194.346,81.39z"/>
		<polyline fill="none" stroke="#CCCCCC" stroke-linecap="round" stroke-linejoin="round" stroke-miterlimit="10" points="
			194.346,93.07 179.545,102.19 179.545,90.429 194.346,81.39 194.346,93.07 		"/>
	</g>
	<g>
		<path fill="#FFFFFF" d="M194.425,111.469l-14.64-9.04l14.88-9.12l14.642,9.12L194.425,111.469z"/>
		<polyline fill="#FFFFFF" stroke="#909090" stroke-miterlimit="10" points="194.425,111.469 209.307,102.429 194.666,93.31 
			179.786,102.429 194.425,111.469 		"/>
	</g>
	<g>
		<path fill="#FFFFFF" stroke="#909090" stroke-miterlimit="10" d="M193.706,111.389l-14.88-9.039V90.589l14.88,9.12V111.389z"/>
		
			<polyline fill="none" stroke="#CCCCCC" stroke-width="0.2" stroke-linecap="round" stroke-linejoin="round" stroke-miterlimit="10" points="
			193.706,111.389 193.706,99.709 178.826,90.589 178.826,102.35 193.706,111.389 		"/>
	</g>
	<g>
		
			<path fill="none" stroke="#CCCCCC" stroke-width="0.2" stroke-linecap="round" stroke-linejoin="round" stroke-miterlimit="10" d="
			M178.666,102.429l-14.88,9.12V99.79l14.88-9.12V102.429z"/>
		<polyline fill="none" stroke="#CCCCCC" stroke-linecap="round" stroke-linejoin="round" stroke-miterlimit="10" points="
			163.786,111.549 163.786,99.79 178.666,90.669 178.666,102.429 163.786,111.549 		"/>
	</g>
	<g>
		<path fill="#FFFFFF" d="M178.906,102.669l14.641,9.04l-14.8,9.12l-14.721-9.04L178.906,102.669z"/>
		<polyline fill="#FFFFFF" stroke="#909090" stroke-miterlimit="10" points="178.906,102.669 164.026,111.79 178.746,120.83 
			193.545,111.709 178.906,102.669 		"/>
	</g>
	<g>
		<path fill="#FFFFFF" stroke="#909090" stroke-miterlimit="10" d="M177.706,109.549v11.68l-14.801-9.119v-11.681L177.706,109.549z"
			/>
		
			<polyline fill="none" stroke="#CCCCCC" stroke-width="0.2" stroke-linecap="round" stroke-linejoin="round" stroke-miterlimit="10" points="
			177.706,109.549 162.906,100.429 162.906,112.11 177.706,121.229 177.706,109.549 		"/>
	</g>
	<g>
		<path fill="#FFFFFF" stroke="#909090" stroke-miterlimit="10" d="M147.866,121.309v-11.68l14.8-9.12v11.681L147.866,121.309z"/>
		
			<polyline fill="none" stroke="#CCCCCC" stroke-width="0.2" stroke-linecap="round" stroke-linejoin="round" stroke-miterlimit="10" points="
			147.866,109.629 162.666,100.509 162.666,112.19 147.866,121.309 147.866,109.629 		"/>
	</g>
	<g>
		<path fill="#FFFFFF" stroke="#909090" stroke-miterlimit="10" d="M162.906,112.509l14.641,9.04l-14.8,9.12l-14.641-9.04
			L162.906,112.509z"/>
		
			<polyline fill="none" stroke="#CCCCCC" stroke-width="0.2" stroke-linecap="round" stroke-linejoin="round" stroke-miterlimit="10" points="
			162.906,112.509 148.106,121.629 162.746,130.669 177.545,121.549 162.906,112.509 		"/>
	</g>
</g>
<g>
	<g>
		<path fill="#FFFFFF" stroke="#909090" stroke-miterlimit="10" d="M291.064,82.35v11.76l-14.799-9.12V73.31L291.064,82.35z"/>
		
			<polyline fill="none" stroke="#CCCCCC" stroke-width="0.2" stroke-linecap="round" stroke-linejoin="round" stroke-miterlimit="10" points="
			291.064,82.35 276.266,73.31 276.266,84.99 291.064,94.109 291.064,82.35 		"/>
	</g>
	<g>
		<path fill="#FFFFFF" stroke="#909090" stroke-miterlimit="10" d="M276.025,85.07l-14.801,9.12V82.51l14.801-9.12V85.07z"/>
		
			<polyline fill="none" stroke="#CCCCCC" stroke-width="0.2" stroke-linecap="round" stroke-linejoin="round" stroke-miterlimit="10" points="
			261.225,94.189 261.225,82.509 276.025,73.39 276.025,85.07 261.225,94.189 		"/>
	</g>
	<g>
		<path fill="#FFFFFF" d="M261.465,94.429l14.801-9.04l14.646,9.04l-14.807,9.12L261.465,94.429z"/>
		
			<polyline fill="none" stroke="#CCCCCC" stroke-width="0.2" stroke-linecap="round" stroke-linejoin="round" stroke-miterlimit="10" points="
			261.465,94.429 276.105,103.549 290.906,94.429 276.266,85.39 261.465,94.429 		"/>
	</g>
	<g>
		<path fill="#FFFFFF" stroke="#909090" stroke-miterlimit="10" d="M260.506,94.35V82.59l14.879,9.12v11.68L260.506,94.35z"/>
		
			<polyline fill="none" stroke="#CCCCCC" stroke-width="0.2" stroke-linecap="round" stroke-linejoin="round" stroke-miterlimit="10" points="
			260.506,94.35 275.385,103.389 275.385,91.709 260.506,82.589 260.506,94.35 		"/>
	</g>
	<g>
		<path fill="#FFFFFF" stroke="#909090" stroke-miterlimit="10" d="M260.266,82.75v11.68l-14.801,9.12V91.79L260.266,82.75z"/>
		
			<polyline fill="none" stroke="#CCCCCC" stroke-width="0.2" stroke-linecap="round" stroke-linejoin="round" stroke-miterlimit="10" points="
			260.266,94.429 245.465,103.549 245.465,91.79 260.266,82.75 260.266,94.429 		"/>
	</g>
	<g>
		<path fill="#FFFFFF" d="M275.225,103.709l-14.799,9.12l-14.721-9.04l14.881-9.04L275.225,103.709z"/>
		
			<polyline fill="none" stroke="#CCCCCC" stroke-width="0.2" stroke-linecap="round" stroke-linejoin="round" stroke-miterlimit="10" points="
			275.225,103.709 260.586,94.75 245.705,103.79 260.426,112.83 275.225,103.709 		"/>
	</g>
	<g>
		<path fill="#FFFFFF" stroke="#909090" stroke-miterlimit="10" d="M259.385,113.229l-14.879-9.119V92.429l14.879,9.12V113.229z"/>
		
			<polyline fill="none" stroke="#CCCCCC" stroke-width="0.2" stroke-linecap="round" stroke-linejoin="round" stroke-miterlimit="10" points="
			259.385,113.229 259.385,101.549 244.506,92.429 244.506,104.11 259.385,113.229 		"/>
	</g>
	<g>
		<path fill="#FFFFFF" stroke="#909090" stroke-miterlimit="10" d="M244.346,104.27l-14.881,9.039v-11.68l14.881-9.12V104.27z"/>
		
			<polyline fill="none" stroke="#CCCCCC" stroke-width="0.2" stroke-linecap="round" stroke-linejoin="round" stroke-miterlimit="10" points="
			229.465,113.309 229.465,101.629 244.346,92.509 244.346,104.27 229.465,113.309 		"/>
	</g>
	<g>
		<path fill="#FFFFFF" d="M244.586,104.509l14.639,9.12l-14.799,9.04l-14.641-9.04L244.586,104.509z"/>
		
			<polyline fill="none" stroke="#CCCCCC" stroke-width="0.2" stroke-linecap="round" stroke-linejoin="round" stroke-miterlimit="10" points="
			244.586,104.509 229.785,113.629 244.426,122.669 259.225,113.629 244.586,104.509 		"/>
	</g>
	<g>
		<path fill="#FFFFFF" stroke="#909090" stroke-miterlimit="10" d="M228.105,114.429v-11.6l14.801,9.04v11.76L228.105,114.429z"/>
		
			<polyline fill="none" stroke="#CCCCCC" stroke-width="0.2" stroke-linecap="round" stroke-linejoin="round" stroke-miterlimit="10" points="
			228.105,114.429 242.906,123.629 242.906,111.87 228.105,102.83 228.105,114.429 		"/>
	</g>
	<g>
		<path fill="#FFFFFF" stroke="#909090" stroke-miterlimit="10" d="M213.064,123.629v-11.6l14.801-9.2v11.76L213.064,123.629z"/>
		
			<polyline fill="none" stroke="#CCCCCC" stroke-width="0.2" stroke-linecap="round" stroke-linejoin="round" stroke-miterlimit="10" points="
			213.064,112.03 227.865,102.83 227.865,114.589 213.064,123.629 213.064,112.03 		"/>
	</g>
	<g>
		<path fill="#FFFFFF" d="M213.307,123.95l14.799-9.12l14.729,9.12l-14.89,9.04L213.307,123.95z"/>
		
			<polyline fill="none" stroke="#CCCCCC" stroke-width="0.2" stroke-linecap="round" stroke-linejoin="round" stroke-miterlimit="10" points="
			213.307,123.95 227.945,132.99 242.826,123.95 228.105,114.83 213.307,123.95 		"/>
	</g>
	<g>
		<path fill="#FFFFFF" stroke="#909090" stroke-miterlimit="10" d="M212.426,123.79v-11.68l14.799,9.119v11.681L212.426,123.79z"/>
		
			<polyline fill="none" stroke="#CCCCCC" stroke-width="0.2" stroke-linecap="round" stroke-linejoin="round" stroke-miterlimit="10" points="
			212.426,123.79 227.225,132.91 227.225,121.229 212.426,112.11 212.426,123.79 		"/>
	</g>
	<g>
		<path fill="#FFFFFF" stroke="#909090" stroke-miterlimit="10" d="M212.105,112.19v11.76l-14.799,9.04v-11.681L212.105,112.19z"/>
		
			<polyline fill="none" stroke="#CCCCCC" stroke-width="0.2" stroke-linecap="round" stroke-linejoin="round" stroke-miterlimit="10" points="
			212.105,123.95 197.307,132.99 197.307,121.309 212.105,112.19 212.105,123.95 		"/>
	</g>
	<g>
		
			<polyline fill="none" stroke="#CCCCCC" stroke-width="0.2" stroke-linecap="round" stroke-linejoin="round" stroke-miterlimit="10" points="
			212.266,142.35 227.064,133.229 212.426,124.19 197.625,133.229 212.266,142.35 		"/>
		<path fill="#FFFFFF" d="M212.266,142.35l-14.641-9.121l14.801-9.039l14.639,9.039L212.266,142.35z"/>
	</g>
	<g>
		<path fill="#FFFFFF" stroke="#909090" stroke-miterlimit="10" d="M211.225,142.75l-14.799-9.12v-11.68l14.799,9.04V142.75z"/>
		
			<polyline fill="none" stroke="#CCCCCC" stroke-width="0.2" stroke-linecap="round" stroke-linejoin="round" stroke-miterlimit="10" points="
			211.225,142.75 211.225,130.99 196.426,121.95 196.426,133.629 211.225,142.75 		"/>
	</g>
	<g>
		<path fill="#FFFFFF" stroke="#909090" stroke-miterlimit="10" d="M196.105,122.03v11.68l-14.799,9.12v-11.68L196.105,122.03z"/>
		
			<polyline fill="none" stroke="#CCCCCC" stroke-width="0.2" stroke-linecap="round" stroke-linejoin="round" stroke-miterlimit="10" points="
			196.105,133.709 181.306,142.83 181.306,131.15 196.105,122.03 196.105,133.709 		"/>
	</g>
	<g>
		<path fill="#FFFFFF" d="M196.426,134.03l14.639,9.039l-14.799,9.041l-14.64-8.96L196.426,134.03z"/>
		<polyline fill="#FFFFFF" stroke="#909090" stroke-miterlimit="10" points="196.426,134.03 181.625,143.15 196.266,152.11 
			211.064,143.069 196.426,134.03 		"/>
	</g>
</g>
<g>
	<path fill="#CCCCCC" d="M138.986,184.99l-0.479,0.16l-12.081-7.601L138.986,184.99z"/>
	
		<line fill="none" stroke="#CCCCCC" stroke-width="1.9" stroke-linecap="round" stroke-linejoin="round" stroke-miterlimit="10" x1="126.425" y1="177.549" x2="89.946" y2="155.15"/>
	
		<polyline fill="none" stroke="#CCCCCC" stroke-width="1.9" stroke-linecap="round" stroke-linejoin="round" stroke-miterlimit="10" points="
		126.425,177.549 138.506,185.15 138.986,184.99 126.425,177.549 	"/>
</g>
<g>
	<text transform="matrix(1 0 0 1 54.7456 41.71)" fill="#999999" font-family="'Bahnschrift'" font-size="9.216">MEZZANINA</text>
</g>
<g>
	<text transform="matrix(1 0 0 1 54.7456 30.71)" fill="#CCCCCC" font-family="'ArialMT'" font-size="4.608">EDIFICIO</text>
</g>
<g>
	<text transform="matrix(1 0 0 1 54.7456 45.5898)" fill="#CCCCCC" font-family="'ArialMT'" font-size="4.608">PLAN</text>
</g>
<g>
	<text transform="matrix(1 0 0 1 66.7852 45.5898)" fill="#CCCCCC" font-family="'ArialMT'" font-size="4.608">T</text>
</g>
<g>
	<text transform="matrix(1 0 0 1 69.146 45.5898)" fill="#CCCCCC" font-family="'ArialMT'" font-size="4.608">A</text>
</g>
<g>
	<text transform="matrix(1 0 0 1 71.8657 45.5898)" fill="#CCCCCC" font-family="'ArialMT'" font-size="4.608"> BAJA</text>
</g>
<g opacity="0.4">
	<g>
		<path fill="#F0F0F0" d="M375.931,575.03c-0.799,0.719-1.76,1.354-2.799,1.76c-0.961,0.479-2.16,0.721-3.271,0.721H18.331
			c-1.2,0-2.24-0.229-3.36-0.721c-1.04-0.4-1.84-1.041-2.64-1.76c-0.8-0.8-1.44-1.771-1.84-2.729
			c-0.479-1.108-0.721-2.229-0.721-3.354v-348.48c0-1.2,0.24-2.32,0.721-3.36c0.399-1.04,1.041-2,1.84-2.72
			c0.8-0.8,1.6-1.44,2.64-1.84c1.12-0.48,2.16-0.72,3.36-0.72h351.521c1.117,0,2.316,0.239,3.277,0.72c1.039,0.399,2,1.04,2.8,1.84
			c0.811,0.72,1.36,1.68,1.852,2.72c0.396,1.04,0.64,2.16,0.64,3.36v348.479c0,1.12-0.24,2.241-0.64,3.354
			C377.292,573.269,376.731,574.229,375.931,575.03z"/>
	</g>
</g>
<g>
	<g>
		<g>
			<path fill="none" stroke="#16A6CA" stroke-width="3" stroke-linecap="round" stroke-linejoin="round" stroke-miterlimit="10" d="
				M1.786,575.83c0,4.079,1.84,7.6,5.68,10.717c3.6,2.961,7.6,4.483,11.92,4.483h355.679c4.153,0,7.683-1.521,10.642-4.483
				c2.961-2.958,4.396-6.479,4.396-10.717V217.667c0-4.16-1.438-7.76-4.396-10.64c-2.959-2.96-6.479-4.4-10.642-4.4H19.386
				c-4.32,0-8.32,1.44-11.92,4.4c-3.84,3.04-5.68,6.64-5.68,10.64V575.83"/>
		</g>
	</g>
	<g>
		
			<line fill="none" stroke="#CCCCCC" stroke-width="1.15" stroke-linecap="round" stroke-linejoin="round" stroke-miterlimit="10" x1="80.665" y1="581.669" x2="157.306" y2="534.63"/>
		
			<line fill="none" stroke="#CCCCCC" stroke-width="1.15" stroke-linecap="round" stroke-linejoin="round" stroke-miterlimit="10" x1="67.846" y1="589.575" x2="144.486" y2="542.536"/>
		
			<line fill="none" stroke="#CCCCCC" stroke-width="1.15" stroke-linecap="round" stroke-linejoin="round" stroke-miterlimit="10" x1="313.361" y1="440.687" x2="390.003" y2="393.647"/>
		
			<line fill="none" stroke="#CCCCCC" stroke-width="1.15" stroke-linecap="round" stroke-linejoin="round" stroke-miterlimit="10" x1="157.625" y1="534.63" x2="234.268" y2="487.591"/>
		
			<line fill="none" stroke="#CCCCCC" stroke-width="1.15" stroke-linecap="round" stroke-linejoin="round" stroke-miterlimit="10" x1="234.268" y1="488.458" x2="310.906" y2="441.417"/>
		
			<line fill="none" stroke="#CCCCCC" stroke-width="1.15" stroke-linecap="round" stroke-linejoin="round" stroke-miterlimit="10" x1="301.753" y1="447.663" x2="378.394" y2="400.623"/>
	</g>
	<g>
		<path fill="#FA0F0C" d="M368.367,498.054l-22.629-22.628c-1.873-1.875-4.911-1.875-6.786,0l-1.697,1.697
			c-1.875,1.875-1.875,4.914,0,6.789l12.271,12.271h-1.521h-17.601h-14.399c-2.646,0-4.799,2.149-4.799,4.81v2.396
			c0,2.652,2.146,4.803,4.799,4.803h14.399h17.601h1.051l-12.313,12.31c-1.873,1.875-1.873,4.914,0,6.789l1.698,1.69
			c1.873,1.875,4.907,1.875,6.782,0l22.634-22.632c0.735-0.732,1.187-1.668,1.34-2.631
			C370.179,501.901,369.901,499.589,368.367,498.054z"/>
		<text transform="matrix(1 0 0 1 290.0166 430.9463)" font-family="'MicrosoftJhengHeiLight'" font-size="9.375">fachada</text>
		<text transform="matrix(1 0 0 1 290.0166 440.3213)" font-family="'MicrosoftJhengHeiLight'" font-size="9.375">o</text>
		<text transform="matrix(1 0 0 1 295.5615 440.3213)" font-family="'MicrosoftJhengHeiLight'" font-size="9.375">ficina</text>
		<text transform="matrix(1 0 0 1 290.0166 449.6963)" font-family="'MicrosoftJhengHeiLight'" font-size="9.375">x</text>
		<text transform="matrix(1 0 0 1 294.25 449.6963)" font-family="'MicrosoftJhengHeiLight'" font-size="9.375">dx_int</text>
		<text transform="matrix(1 0 0 1 290.0166 459.0713)" font-family="'MicrosoftJhengHeiLight'" font-size="9.375">x</text>
		<text transform="matrix(1 0 0 1 294.25 459.0713)" font-family="'MicrosoftJhengHeiLight'" font-size="9.375">dx_ext</text>
		<g>
			<g>
				<g>
					<g>
						<g>
							<g>
								<g>
									<g>
										<g>
											<g>
												<g>
													<defs>
														<polygon id="SVGID_1_" points="276.525,344.214 278.911,475.459 281.298,344.214 														"/>
													</defs>
													<clipPath id="SVGID_2_">
														<use xlink:href="#SVGID_1_"  overflow="visible"/>
													</clipPath>
													<polygon clip-path="url(#SVGID_2_)" fill="#F0EEE8" points="276.525,344.214 278.911,475.459 281.298,344.214 
																											"/>
												</g>
											</g>
										</g>
									</g>
								</g>
							</g>
						</g>
					</g>
				</g>
			</g>
			<g>
				<g>
					<g>
						<g>
							<g>
								<g>
									<g>
										<g>
											<g>
												<g>
													<defs>
														<polygon id="SVGID_3_" points="276.525,344.214 278.911,475.459 281.298,344.214 														"/>
													</defs>
													<clipPath id="SVGID_4_">
														<use xlink:href="#SVGID_3_"  overflow="visible"/>
													</clipPath>
													
														<polygon clip-path="url(#SVGID_4_)" fill="none" stroke="#CCCCCC" stroke-width="1.875" stroke-miterlimit="3.8637" points="
														276.525,344.214 278.911,475.459 281.298,344.214 													"/>
												</g>
											</g>
										</g>
									</g>
								</g>
							</g>
						</g>
					</g>
				</g>
			</g>
		</g>
		<polygon fill="none" stroke="#CCCCCC" stroke-width="1.875" stroke-miterlimit="3.8637" points="276.525,344.214 278.911,475.459 
			281.298,344.214 		"/>
		<rect x="285.9" y="306.962" fill="#F0F0F0" width="86.042" height="52.915"/>
		<rect x="287.909" y="364.55" fill="#F0F0F0" width="43.021" height="26.457"/>
		<rect x="288.354" y="394.618" fill="#F0F0F0" width="21.516" height="13.229"/>
		
			<rect x="288.354" y="394.618" fill="none" stroke="#FFFFFF" stroke-width="1.9531" stroke-linecap="round" stroke-linejoin="round" stroke-miterlimit="3.8636" width="21.516" height="13.229"/>
		<g>
			<g>
				<g>
					<g>
						<g>
							<g>
								<g>
									<g>
										<g>
											<g>
												<g>
													<defs>
														<polygon id="SVGID_5_" points="279.439,532.514 234.173,560.264 189.498,532.665 234.77,504.915 														"/>
													</defs>
													<clipPath id="SVGID_6_">
														<use xlink:href="#SVGID_5_"  overflow="visible"/>
													</clipPath>
													<polygon clip-path="url(#SVGID_6_)" fill="#FFFFFF" points="279.439,532.514 234.173,560.264 189.498,532.665 
														234.77,504.915 													"/>
												</g>
											</g>
										</g>
									</g>
								</g>
							</g>
						</g>
					</g>
				</g>
			</g>
			<g>
				<g>
					<g>
						<g>
							<g>
								<g>
									<g>
										<g>
											<g>
												<g>
													<defs>
														<polygon id="SVGID_7_" points="279.439,532.514 234.173,560.264 189.498,532.665 234.77,504.915 														"/>
													</defs>
													<clipPath id="SVGID_8_">
														<use xlink:href="#SVGID_7_"  overflow="visible"/>
													</clipPath>
													
														<polygon clip-path="url(#SVGID_8_)" fill="none" stroke="#CCCCCC" stroke-width="0.2343" stroke-miterlimit="3.8637" points="
														279.439,532.514 234.173,560.264 189.498,532.665 234.77,504.915 													"/>
												</g>
											</g>
										</g>
									</g>
								</g>
							</g>
						</g>
					</g>
				</g>
			</g>
		</g>
		<polygon fill="none" stroke="#CCCCCC" stroke-width="0.2343" stroke-miterlimit="3.8637" points="279.439,532.514 
			234.173,560.264 189.498,532.665 234.77,504.915 		"/>
		<ellipse fill="#F0F0F0" cx="235.313" cy="532.853" rx="34.063" ry="18.433"/>
		<path fill="#F0F0F0" d="M234.441,503.478c1.473,0.87,1.297,0.239,3.008,0.239c0.063,0.36,0.844-0.119,0.844,0.24
			c0,2.281,0.836,3.687,0.836,5.968c0,6.188,0,9.631,0,15.813c0,2.459-0.506,2.92-0.715,5.381c1.168,0.028,0.955,0.709,2.125,0.709
			c0.99,0,1.563,0.354,2.552,0.354c0.601,0,1.319-0.182,1.319-0.771c0-0.729-0.99-0.604-1.439-1.146
			c-1.08-1.262-1.921-2.188-1.921-3.871c0-0.861,0-1.381,0-2.25c0-2.222-0.229-3.188-0.229-5.399c0-1.146,0.718-2.003,0.718-3.146
			c0-3.688-0.111-5.905-0.111-9.597c0-3.541,1.201-4.75,1.201-8.291c0-1.92,0.959-6.344,0.959-7.693
			c0-1.591-0.354-2.977-0.354-4.563c0-0.421,0.479-0.215,1.317,2.16c1.115,3.118,1.224,2.963,1.224,5.934
			c0,2.159,0.688,3.329,0.688,5.49l0.619,1.432c0.721-1.08,0.84-1.95,0.84-3.241c0-2.188-0.237-1.524-0.237-3.725
			c0-0.87-0.238-2.255-0.238-3.125c0-5.581-1.006-5.075-4.563-9.375c-3.485-4.205-4.688-3.125-5.291-4.445
			c0.554-0.802,1.084-1.542,1.084-2.815c0-2.429-1.233-4.396-2.769-4.396c-1.523,0-2.771,1.967-2.771,4.396
			c0,1.273,0.289,2.143,0.847,2.938c-1.201,4.411-3.117,2.336-5.644,6.115c-1.021,1.531-2.157,2.432-2.157,4.291
			c0,1.561,0,2.461,0,4.021c0,2.229-0.722,3.48-0.722,5.7c0,1.896,0,2.975,0,4.861c0,0.42,0.354,0.72,0.774,0.72
			c1.291,0,1.771-1.606,1.604-2.875c-0.356-2.884,0.427-4.559,0.586-7.439c0.144-2.405,0.199-5.931,2.063-6.26
			c0.146,1.354-0.116,4.54-0.116,5.896c0,4.193,0.485,6.603,0.485,10.805c0,1.709,0.72,2.579,0.72,4.29c0,2.28,0,3.541,0,5.82
			c0,2.481,0.963,3.812,0.963,6.302c0,1.021,0,1.591,0,2.611c0,1.854,0.722,2.879,0.722,4.73c0,0.989,0,1.563,0,2.56l0.355,1.075
			c-0.657,0.963-2.577,1.229-2.041,2.313c0.57,0.091,0.898-0.029,1.474-0.029c0.632,0,0.962,0.359,1.595,0.359
			c0.655,0,1.26-0.479,1.26-1.146c0-1.104-0.723-1.612-0.723-2.729c0-2.13,0-3.332,0-5.461c0-1.051-0.238-2.094-0.238-3.146
			c0-3.721-0.116-4.331-0.116-8.056c0-1.319,0-2.764,0-4.084C234.809,506.392,233.964,504.948,234.441,503.478z"/>
		<path fill="none" stroke="#FA0F0C" stroke-miterlimit="3.8637" d="M234.441,503.478c1.473,0.87,1.297,0.239,3.008,0.239
			c0.063,0.36,0.844-0.119,0.844,0.24c0,2.281,0.836,3.687,0.836,5.968c0,6.188,0,9.631,0,15.813c0,2.459-0.506,2.92-0.715,5.381
			c1.168,0.028,0.955,0.709,2.125,0.709c0.99,0,1.563,0.354,2.552,0.354c0.601,0,1.319-0.182,1.319-0.771
			c0-0.729-0.99-0.604-1.439-1.146c-1.08-1.262-1.921-2.188-1.921-3.871c0-0.861,0-1.381,0-2.25c0-2.222-0.229-3.188-0.229-5.399
			c0-1.146,0.718-2.003,0.718-3.146c0-3.688-0.111-5.905-0.111-9.597c0-3.541,1.201-4.75,1.201-8.291
			c0-1.92,0.959-6.344,0.959-7.693c0-1.591-0.354-2.977-0.354-4.563c0-0.421,0.479-0.215,1.317,2.16
			c1.115,3.118,1.224,2.963,1.224,5.934c0,2.159,0.688,3.329,0.688,5.49l0.619,1.432c0.721-1.08,0.84-1.95,0.84-3.241
			c0-2.188-0.237-1.524-0.237-3.725c0-0.87-0.238-2.255-0.238-3.125c0-5.581-1.006-5.075-4.563-9.375
			c-3.485-4.205-4.688-3.125-5.291-4.445c0.554-0.802,1.084-1.542,1.084-2.815c0-2.429-1.233-4.396-2.769-4.396
			c-1.523,0-2.771,1.967-2.771,4.396c0,1.273,0.289,2.143,0.847,2.938c-1.201,4.411-3.117,2.336-5.644,6.115
			c-1.021,1.531-2.157,2.432-2.157,4.291c0,1.561,0,2.461,0,4.021c0,2.229-0.722,3.48-0.722,5.7c0,1.896,0,2.975,0,4.861
			c0,0.42,0.354,0.72,0.774,0.72c1.291,0,1.771-1.606,1.604-2.875c-0.356-2.884,0.427-4.559,0.586-7.439
			c0.144-2.405,0.199-5.931,2.063-6.26c0.146,1.354-0.116,4.54-0.116,5.896c0,4.193,0.485,6.603,0.485,10.805
			c0,1.709,0.72,2.579,0.72,4.29c0,2.28,0,3.541,0,5.82c0,2.481,0.963,3.812,0.963,6.302c0,1.021,0,1.591,0,2.611
			c0,1.854,0.722,2.879,0.722,4.73c0,0.989,0,1.563,0,2.56l0.355,1.075c-0.657,0.963-2.577,1.229-2.041,2.313
			c0.57,0.091,0.898-0.029,1.474-0.029c0.632,0,0.962,0.359,1.595,0.359c0.655,0,1.26-0.479,1.26-1.146
			c0-1.104-0.723-1.612-0.723-2.729c0-2.13,0-3.332,0-5.461c0-1.051-0.238-2.094-0.238-3.146c0-3.721-0.116-4.331-0.116-8.056
			c0-1.319,0-2.764,0-4.084C234.809,506.392,233.964,504.948,234.441,503.478z"/>
	</g>
</g>
<g>
	<g>
		
			<path fill="none" stroke="#CCCCCC" stroke-width="0.2" stroke-linecap="round" stroke-linejoin="round" stroke-miterlimit="10" d="
			M292.666,94.429v-11.76l14.799,9.04v11.76L292.666,94.429z"/>
		<polyline fill="#FFFFFF" stroke="#909090" stroke-miterlimit="10" points="292.666,94.429 307.465,103.469 307.465,91.709 
			292.666,82.669 292.666,94.429 		"/>
	</g>
	<g>
		<path fill="#FFFFFF" d="M292.426,82.75v11.68l-14.801,9.12V91.87L292.426,82.75z"/>
		<polyline fill="#FFFFFF" stroke="#909090" stroke-miterlimit="10" points="292.426,94.429 277.625,103.549 277.625,91.87 
			292.426,82.75 292.426,94.429 		"/>
	</g>
	<g>
		<path fill="#FFFFFF" d="M307.307,103.79l-14.801,9.04l-14.641-9.04l14.801-9.04L307.307,103.79z"/>
		<polyline fill="#FFFFFF" stroke="#909090" stroke-miterlimit="10" points="307.307,103.79 292.666,94.75 277.865,103.79 
			292.506,112.83 307.307,103.79 		"/>
	</g>
	<g>
		<path fill="#FFFFFF" d="M291.705,112.83l-14.801-9.12V92.03l14.801,9.121V112.83z"/>
		<polyline fill="#FFFFFF" stroke="#909090" stroke-miterlimit="10" points="291.705,112.83 291.705,101.15 276.906,92.029 
			276.906,103.709 291.705,112.83 		"/>
	</g>
	<g>
		<path fill="#FFFFFF" d="M276.666,103.79l-14.803,9.12v-11.681l14.803-9.12V103.79z"/>
		<polyline fill="#FFFFFF" stroke="#909090" stroke-miterlimit="10" points="261.865,112.91 261.865,101.229 276.666,92.109 
			276.666,103.79 261.865,112.91 		"/>
	</g>
	<g>
		<path fill="#FFFFFF" stroke="#909090" stroke-miterlimit="10" d="M262.105,113.15l14.801-9.12l14.72,9.12l-14.879,9.04
			L262.105,113.15z"/>
		
			<polyline fill="none" stroke="#CCCCCC" stroke-width="0.2" stroke-linecap="round" stroke-linejoin="round" stroke-miterlimit="10" points="
			262.105,113.15 276.746,122.19 291.625,113.15 276.906,104.03 262.105,113.15 		"/>
	</g>
	<g>
		<path fill="#FFFFFF" d="M260.906,113.549v-11.76l14.88,9.12v11.68L260.906,113.549z"/>
		<polyline fill="#FFFFFF" stroke="#909090" stroke-miterlimit="10" points="260.906,113.549 275.785,122.589 275.785,110.91 
			260.906,101.79 260.906,113.549 		"/>
	</g>
	<g>
		<path fill="#FFFFFF" stroke="#909090" stroke-miterlimit="10" d="M245.865,122.75v-11.76l14.801-9.04v11.68L245.865,122.75z"/>
		
			<polyline fill="none" stroke="#CCCCCC" stroke-width="0.2" stroke-linecap="round" stroke-linejoin="round" stroke-miterlimit="10" points="
			245.865,110.99 260.666,101.95 260.666,113.629 245.865,122.75 245.865,110.99 		"/>
	</g>
	<g>
		<path fill="#FFFFFF" stroke="#909090" stroke-miterlimit="10" d="M260.986,113.95l14.64,8.96l-14.799,9.12l-14.722-9.04
			L260.986,113.95z"/>
		
			<polyline fill="none" stroke="#CCCCCC" stroke-width="0.2" stroke-linecap="round" stroke-linejoin="round" stroke-miterlimit="10" points="
			260.986,113.95 246.105,122.99 260.826,132.03 275.625,122.91 260.986,113.95 		"/>
	</g>
	<g>
		<path fill="#FFFFFF" d="M244.506,123.87v-11.76l14.801,9.119v11.681L244.506,123.87z"/>
		<polyline fill="#FFFFFF" stroke="#909090" stroke-miterlimit="10" points="244.506,123.87 259.307,132.91 259.307,121.229 
			244.506,112.11 244.506,123.87 		"/>
	</g>
	<g>
		<path fill="#FFFFFF" d="M229.465,133.07v-11.761l14.801-9.039v11.68L229.465,133.07z"/>
		<polyline fill="#FFFFFF" stroke="#909090" stroke-miterlimit="10" points="229.465,121.309 244.266,112.27 244.266,123.95 
			229.465,133.07 229.465,121.309 		"/>
	</g>
	<g>
		<path fill="#FFFFFF" stroke="#909090" stroke-miterlimit="10" d="M244.506,124.19l14.641,9.039l-14.801,9.121l-14.641-9.041
			L244.506,124.19z"/>
		
			<polyline fill="none" stroke="#CCCCCC" stroke-width="0.2" stroke-linecap="round" stroke-linejoin="round" stroke-miterlimit="10" points="
			244.506,124.19 229.705,133.309 244.346,142.35 259.146,133.229 244.506,124.19 		"/>
	</g>
	<g>
		<path fill="#FFFFFF" d="M228.746,133.229v-11.68l14.879,9.04v11.761L228.746,133.229z"/>
		<polyline fill="#FFFFFF" stroke="#909090" stroke-miterlimit="10" points="228.746,133.229 243.625,142.35 243.625,130.589 
			228.746,121.549 228.746,133.229 		"/>
	</g>
	<g>
		<path fill="#FFFFFF" d="M213.705,142.429v-11.68l14.801-9.12v11.68L213.705,142.429z"/>
		<polyline fill="#FFFFFF" stroke="#909090" stroke-miterlimit="10" points="213.705,130.75 228.506,121.629 228.506,133.309 
			213.705,142.429 213.705,130.75 		"/>
	</g>
	<g>
		<path fill="#FFFFFF" d="M213.945,142.669l14.882-9.12l14.639,9.04l-14.879,9.12L213.945,142.669z"/>
		<polyline fill="#FFFFFF" stroke="#909090" stroke-miterlimit="10" points="213.945,142.669 228.586,151.709 243.465,142.589 
			228.826,133.549 213.945,142.669 		"/>
	</g>
	<g>
		<path fill="#FFFFFF" d="M227.625,140.429v11.681l-14.799-9.12v-11.681L227.625,140.429z"/>
		<polyline fill="#FFFFFF" stroke="#909090" stroke-miterlimit="10" points="227.625,140.429 212.826,131.309 212.826,142.99 
			227.625,152.11 227.625,140.429 		"/>
	</g>
	<g>
		<path fill="#FFFFFF" d="M197.705,152.19v-11.68l14.801-9.121v11.761L197.705,152.19z"/>
		<polyline fill="#FFFFFF" stroke="#909090" stroke-miterlimit="10" points="197.705,140.51 212.506,131.389 212.506,143.15 
			197.705,152.19 197.705,140.51 		"/>
	</g>
	<g>
		<path fill="#FFFFFF" stroke="#909090" stroke-miterlimit="10" d="M212.666,161.549l-14.643-9.12l14.803-9.04l14.639,9.04
			L212.666,161.549z"/>
		
			<polyline fill="none" stroke="#CCCCCC" stroke-width="0.2" stroke-linecap="round" stroke-linejoin="round" stroke-miterlimit="10" points="
			212.666,161.549 227.465,152.429 212.826,143.389 198.025,152.429 212.666,161.549 		"/>
	</g>
</g>
<g opacity="0.3">
	<path fill="#0860A8" d="M197.146,151.991l0.24-11.601c0-0.079,31.354-19.28,94.07-57.6l15.201,8.72v11.92l-94.479,58.16
		L197.146,151.991z"/>
</g>
<path fill="#C9C8CC" d="M74.463,61.889c-1.162-1.141-2.551-1.722-4.166-1.722H48.265h-1.199H25.035
	c-1.639,0-3.027,0.582-4.167,1.722c-1.141,1.16-1.722,2.529-1.722,4.167v13.228c0,1.64,0.581,3.008,1.722,4.147
	c1.141,1.16,2.529,1.742,4.167,1.742h22.031h1.199h22.03c1.617,0,3.006-0.58,4.168-1.742c1.14-1.141,1.699-2.509,1.699-4.147V66.056
	C76.163,64.417,75.603,63.048,74.463,61.889z"/>
<g>
	<g>
		<path fill="#F70B0B" d="M377.582,182.669c0.799-0.8,1.438-1.76,1.92-2.72c0.399-1.12,0.646-2.24,0.646-3.439V21.79
			c0-1.12-0.24-2.24-0.646-3.36c-0.479-1.04-1.121-1.84-1.92-2.64c-0.802-0.8-1.681-1.52-2.722-1.92
			c-1.039-0.48-2.16-0.72-3.358-0.72H20.222c-1.2,0-2.32,0.24-3.359,0.72c-1.04,0.4-2,1.12-2.801,1.92c-0.8,0.8-1.359,1.6-1.84,2.64
			c-0.479,1.121-0.72,2.24-0.72,3.36v154.72c0,1.199,0.24,2.319,0.72,3.439c0.48,0.96,1.04,1.92,1.84,2.72
			c0.801,0.8,1.761,1.359,2.801,1.841c1.039,0.479,2.159,0.72,3.359,0.72h351.28c1.198,0,2.319-0.239,3.358-0.72
			C375.902,184.03,376.78,183.469,377.582,182.669"/>
	</g>
</g>
<g enable-background="new    ">
	<path fill="#F70B0B" d="M106.057,214.057c7.187,0,12.656,1.485,16.406,4.453c3.75,2.969,5.625,6.953,5.625,11.953
		c0,3-0.797,5.547-2.391,7.641c-1.594,2.095-3.485,3.672-5.672,4.734c1.313,0.501,2.531,1.125,3.656,1.875s2.124,1.688,3,2.813
		c0.875,1.125,1.562,2.438,2.063,3.938c0.5,1.5,0.75,3.25,0.75,5.25c0,2.688-0.579,5.095-1.734,7.219
		c-1.157,2.125-2.766,3.938-4.828,5.438s-4.516,2.641-7.359,3.422c-2.845,0.781-5.953,1.172-9.328,1.172
		c-6.501,0-11.407-0.906-14.719-2.719c-3.313-1.813-4.969-4.125-4.969-6.938c0-1.688,0.406-3.141,1.219-4.359
		c0.812-1.219,1.812-2.171,3-2.859c1.25,0.876,2.921,1.797,5.016,2.766c2.093,0.97,4.828,1.453,8.203,1.453
		c3.188,0,5.546-0.563,7.078-1.688c1.531-1.125,2.297-2.593,2.297-4.406c0-1.813-0.609-3.188-1.828-4.125s-3.328-1.406-6.328-1.406
		h-8.813c-0.438-0.688-0.813-1.531-1.125-2.531c-0.313-0.999-0.469-2.188-0.469-3.563c0-1.438,0.141-2.672,0.422-3.703
		s0.671-1.89,1.172-2.578h8.813c4.5,0,6.75-1.719,6.75-5.156c0-1.625-0.719-2.938-2.156-3.938c-1.438-0.999-3.595-1.5-6.469-1.5
		c-2.563,0-4.813,0.297-6.75,0.891c-1.938,0.595-3.532,1.328-4.781,2.203c-1.063-0.75-1.938-1.672-2.625-2.766
		c-0.688-1.093-1.031-2.391-1.031-3.891c0-3.125,1.625-5.422,4.875-6.891C96.275,214.792,100.62,214.057,106.057,214.057z"/>
	<path fill="#F70B0B" d="M138.869,224.369c0-2.687,0.781-4.813,2.344-6.375c1.562-1.562,3.687-2.344,6.375-2.344h30.938
		c0.437,0.688,0.828,1.594,1.172,2.719c0.343,1.125,0.516,2.313,0.516,3.563c0,2.376-0.516,4.063-1.547,5.063
		c-1.031,1-2.391,1.5-4.078,1.5h-19.781v8.719H175.9c0.437,0.688,0.828,1.579,1.172,2.672c0.343,1.094,0.516,2.266,0.516,3.516
		c0,2.376-0.501,4.063-1.5,5.063c-1,1-2.344,1.5-4.031,1.5h-17.25v9.844H178.9c0.437,0.688,0.828,1.594,1.172,2.719
		c0.343,1.125,0.516,2.313,0.516,3.563c0,2.376-0.516,4.078-1.547,5.109s-2.391,1.547-4.078,1.547h-27.375
		c-2.688,0-4.813-0.781-6.375-2.344c-1.563-1.562-2.344-3.688-2.344-6.375V224.369z"/>
	<path fill="#F70B0B" d="M206.555,254.088v18c-0.688,0.188-1.766,0.375-3.234,0.563s-2.922,0.281-4.359,0.281
		s-2.703-0.109-3.796-0.328c-1.094-0.219-2.001-0.609-2.719-1.172c-0.719-0.563-1.266-1.344-1.641-2.344
		c-0.375-0.999-0.563-2.312-0.563-3.938v-44.156c0-1.313,0.359-2.328,1.078-3.047c0.718-0.718,1.702-1.297,2.953-1.734
		c2.125-0.75,4.593-1.297,7.406-1.641c2.813-0.343,5.813-0.516,9-0.516c8.625,0,15.125,1.813,19.5,5.438
		c4.375,3.625,6.563,8.531,6.563,14.719c0,3.876-1,7.188-3,9.938c-2,2.751-4.375,4.875-7.125,6.375
		c2.25,3.063,4.469,5.938,6.656,8.625c2.188,2.688,3.906,5.125,5.156,7.313c-0.625,2.188-1.766,3.859-3.422,5.016
		s-3.516,1.734-5.578,1.734c-1.375,0-2.563-0.156-3.563-0.469s-1.875-0.75-2.625-1.313s-1.438-1.25-2.063-2.063
		c-0.625-0.812-1.219-1.688-1.781-2.625l-7.875-12.656H206.555z M212.461,241.619c2.375,0,4.25-0.609,5.625-1.828
		s2.063-3.015,2.063-5.391c0-2.375-0.766-4.172-2.297-5.391s-3.953-1.828-7.266-1.828c-0.938,0-1.688,0.032-2.25,0.094
		c-0.563,0.063-1.188,0.156-1.875,0.281v14.063H212.461z"/>
	<path fill="#F70B0B" d="M243.772,264.869c0-2.625,0.812-4.813,2.438-6.563c1.624-1.749,3.844-2.625,6.656-2.625
		s5.03,0.876,6.656,2.625c1.624,1.75,2.438,3.938,2.438,6.563s-0.813,4.813-2.438,6.563c-1.626,1.749-3.844,2.625-6.656,2.625
		s-5.032-0.876-6.656-2.625C244.584,269.683,243.772,267.494,243.772,264.869z"/>
	<path fill="#F70B0B" d="M275.74,230.65l-9.375,2.906c-0.938-0.624-1.875-1.5-2.813-2.625s-1.406-2.687-1.406-4.688
		c0-3.75,2.281-6.375,6.844-7.875l10.5-3.563h3.469c2.687,0,4.813,0.782,6.375,2.344c1.562,1.563,2.344,3.688,2.344,6.375v48.844
		c-0.688,0.125-1.703,0.296-3.047,0.516c-1.345,0.219-2.704,0.328-4.078,0.328c-1.375,0-2.61-0.094-3.703-0.281
		c-1.094-0.188-2.016-0.563-2.766-1.125s-1.328-1.327-1.734-2.297c-0.407-0.969-0.609-2.234-0.609-3.797V230.65z"/>
</g>
<g enable-background="new    ">
	<path fill="#F70B0B" d="M119.038,323.312c-0.353,0.097-0.904,0.192-1.656,0.288c-0.752,0.097-1.496,0.145-2.232,0.145
		c-0.736,0-1.384-0.057-1.944-0.168c-0.56-0.112-1.032-0.313-1.416-0.601s-0.672-0.688-0.864-1.199
		c-0.192-0.512-0.288-1.184-0.288-2.017v-22.607c0-0.673,0.184-1.192,0.552-1.561c0.368-0.367,0.872-0.664,1.512-0.888
		c1.087-0.384,2.328-0.664,3.72-0.84c1.392-0.176,2.792-0.265,4.2-0.265c4.416,0,7.792,0.944,10.128,2.832
		c2.335,1.889,3.504,4.448,3.504,7.681c0,1.567-0.248,2.983-0.744,4.248c-0.497,1.264-1.232,2.352-2.208,3.264
		c-0.977,0.912-2.208,1.616-3.696,2.112c-1.488,0.496-3.208,0.743-5.16,0.743h-3.408V323.312z M121.534,307.904
		c1.344,0,2.376-0.313,3.096-0.937c0.72-0.624,1.08-1.575,1.08-2.855c0-1.216-0.376-2.152-1.128-2.809
		c-0.752-0.655-1.848-0.983-3.288-0.983c-0.512,0-0.936,0.008-1.272,0.023c-0.336,0.017-0.68,0.057-1.032,0.12v7.44H121.534z"/>
	<path fill="#F70B0B" d="M143.278,295.28c0.544-0.32,1.368-0.624,2.472-0.912s2.215-0.433,3.336-0.433
		c1.6,0,3.016,0.232,4.248,0.696c1.231,0.464,2.023,1.192,2.376,2.184c0.576,1.665,1.2,3.601,1.872,5.809
		c0.672,2.208,1.344,4.488,2.016,6.84c0.672,2.352,1.328,4.673,1.968,6.96c0.64,2.288,1.2,4.313,1.68,6.072
		c-0.384,0.448-0.96,0.809-1.728,1.08c-0.768,0.271-1.68,0.408-2.736,0.408c-0.768,0-1.416-0.065-1.944-0.192
		c-0.528-0.128-0.96-0.319-1.296-0.576c-0.336-0.256-0.608-0.592-0.816-1.008c-0.208-0.416-0.392-0.896-0.552-1.44l-0.864-3.312
		h-8.688c-0.256,0.96-0.512,1.952-0.768,2.976c-0.257,1.024-0.512,2.017-0.768,2.977c-0.449,0.159-0.92,0.295-1.416,0.407
		c-0.497,0.112-1.097,0.169-1.8,0.169c-1.632,0-2.84-0.281-3.624-0.841s-1.176-1.335-1.176-2.328c0-0.447,0.064-0.896,0.192-1.344
		c0.127-0.447,0.271-0.976,0.432-1.584c0.224-0.864,0.536-1.936,0.936-3.216c0.4-1.279,0.84-2.664,1.32-4.152
		c0.48-1.487,0.992-3.016,1.536-4.584c0.544-1.567,1.056-3.048,1.536-4.439c0.48-1.393,0.919-2.632,1.32-3.72
		C142.742,296.688,143.054,295.855,143.278,295.28z M149.038,301.472c-0.448,1.344-0.952,2.841-1.512,4.488
		c-0.561,1.648-1.064,3.32-1.512,5.016h5.952c-0.449-1.728-0.904-3.415-1.368-5.063s-0.888-3.128-1.272-4.44H149.038z"/>
	<path fill="#F70B0B" d="M175.629,311.936c-1.409-0.479-2.688-0.967-3.84-1.464c-1.152-0.495-2.145-1.096-2.976-1.8
		c-0.833-0.703-1.48-1.544-1.944-2.52c-0.464-0.977-0.696-2.168-0.696-3.576c0-2.72,1.048-4.896,3.144-6.528
		c2.096-1.632,5.032-2.448,8.808-2.448c1.375,0,2.656,0.097,3.84,0.288c1.184,0.192,2.2,0.488,3.048,0.889
		c0.848,0.4,1.512,0.911,1.992,1.535s0.72,1.353,0.72,2.185s-0.192,1.544-0.576,2.136c-0.384,0.593-0.848,1.097-1.392,1.512
		c-0.704-0.447-1.648-0.84-2.832-1.176c-1.184-0.336-2.48-0.504-3.888-0.504c-1.44,0-2.496,0.2-3.168,0.6
		c-0.672,0.401-1.008,0.905-1.008,1.513c0,0.479,0.208,0.872,0.624,1.176c0.416,0.305,1.04,0.584,1.872,0.84l2.544,0.816
		c3.007,0.96,5.32,2.184,6.936,3.672c1.616,1.488,2.424,3.512,2.424,6.072c0,2.72-1.072,4.92-3.216,6.6
		c-2.144,1.68-5.296,2.52-9.456,2.52c-1.472,0-2.84-0.119-4.104-0.359c-1.265-0.24-2.369-0.592-3.312-1.057
		c-0.944-0.463-1.68-1.039-2.208-1.728c-0.528-0.688-0.792-1.479-0.792-2.376c0-0.928,0.271-1.72,0.816-2.376
		c0.544-0.655,1.136-1.159,1.776-1.512c0.896,0.704,1.992,1.313,3.288,1.823c1.296,0.513,2.712,0.769,4.248,0.769
		c1.568,0,2.672-0.24,3.312-0.72c0.64-0.48,0.96-1.04,0.96-1.681c0-0.64-0.256-1.128-0.768-1.464
		c-0.512-0.336-1.232-0.664-2.16-0.984L175.629,311.936z"/>
	<path fill="#F70B0B" d="M202.221,323.312c-0.352,0.097-0.904,0.192-1.656,0.288c-0.752,0.097-1.496,0.145-2.231,0.145
		c-0.736,0-1.384-0.057-1.944-0.168c-0.56-0.112-1.032-0.313-1.416-0.601s-0.672-0.688-0.864-1.199
		c-0.192-0.512-0.288-1.184-0.288-2.017v-25.344c0.352-0.063,0.912-0.151,1.68-0.264c0.769-0.112,1.504-0.168,2.208-0.168
		c0.736,0,1.384,0.056,1.944,0.168c0.56,0.112,1.032,0.312,1.416,0.6s0.672,0.688,0.864,1.2c0.191,0.512,0.287,1.184,0.287,2.016
		V323.312z"/>
	<path fill="#F70B0B" d="M212.925,323.647c-1.376,0-2.464-0.399-3.265-1.199c-0.8-0.8-1.199-1.888-1.199-3.265v-24.815
		c0.352-0.064,0.912-0.151,1.68-0.265c0.768-0.111,1.504-0.168,2.208-0.168c0.735,0,1.384,0.057,1.944,0.168
		c0.56,0.113,1.031,0.313,1.416,0.601c0.384,0.288,0.672,0.688,0.863,1.2c0.192,0.512,0.289,1.184,0.289,2.016v18.96h10.992
		c0.223,0.353,0.432,0.824,0.623,1.416c0.192,0.593,0.288,1.208,0.288,1.848c0,1.28-0.272,2.185-0.815,2.712
		c-0.545,0.528-1.266,0.792-2.16,0.792H212.925z"/>
	<path fill="#F70B0B" d="M237.549,323.647c-1.377,0-2.465-0.399-3.265-1.199s-1.2-1.888-1.2-3.265v-24.815
		c0.352-0.064,0.912-0.151,1.68-0.265c0.769-0.111,1.504-0.168,2.209-0.168c0.735,0,1.383,0.057,1.943,0.168
		c0.561,0.113,1.032,0.313,1.416,0.601c0.385,0.288,0.672,0.688,0.864,1.2s0.288,1.184,0.288,2.016v18.96h10.992
		c0.223,0.353,0.432,0.824,0.624,1.416c0.192,0.593,0.288,1.208,0.288,1.848c0,1.28-0.272,2.185-0.816,2.712
		c-0.545,0.528-1.265,0.792-2.16,0.792H237.549z"/>
	<path fill="#F70B0B" d="M254.828,308.912c0-2.496,0.391-4.704,1.176-6.624c0.783-1.92,1.855-3.528,3.215-4.824
		c1.36-1.296,2.961-2.28,4.801-2.952s3.832-1.008,5.977-1.008c2.143,0,4.135,0.336,5.976,1.008c1.839,0.672,3.448,1.656,4.823,2.952
		c1.376,1.296,2.456,2.904,3.24,4.824s1.176,4.128,1.176,6.624s-0.383,4.712-1.151,6.647c-0.769,1.937-1.833,3.553-3.192,4.849
		c-1.36,1.296-2.969,2.279-4.824,2.952c-1.855,0.672-3.871,1.008-6.047,1.008c-2.178,0-4.193-0.345-6.049-1.032s-3.455-1.688-4.8-3
		c-1.345-1.312-2.399-2.928-3.168-4.848S254.828,311.376,254.828,308.912z M263.467,308.912c0,2.912,0.592,5.088,1.777,6.527
		c1.183,1.44,2.767,2.16,4.752,2.16c2.016,0,3.615-0.72,4.799-2.16c1.184-1.439,1.776-3.615,1.776-6.527
		c0-2.88-0.584-5.04-1.752-6.48c-1.169-1.439-2.76-2.16-4.776-2.16c-1.984,0-3.576,0.713-4.775,2.137
		C264.067,303.832,263.467,306,263.467,308.912z"/>
	<path fill="#F70B0B" d="M288.549,319.707c0-1.313,0.406-2.406,1.219-3.281s1.922-1.313,3.328-1.313s2.516,0.438,3.328,1.313
		s1.219,1.969,1.219,3.281s-0.406,2.406-1.219,3.281s-1.922,1.313-3.328,1.313s-2.516-0.438-3.328-1.313
		S288.549,321.02,288.549,319.707z"/>
	<path fill="#F70B0B" d="M304.533,302.598l-4.688,1.453c-0.469-0.313-0.938-0.75-1.406-1.313s-0.703-1.344-0.703-2.344
		c0-1.875,1.141-3.188,3.422-3.938l5.25-1.781h1.734c1.343,0,2.406,0.391,3.188,1.172c0.78,0.781,1.172,1.844,1.172,3.188v24.422
		c-0.345,0.063-0.852,0.148-1.523,0.258c-0.673,0.109-1.353,0.164-2.039,0.164c-0.688,0-1.306-0.047-1.852-0.141
		c-0.547-0.094-1.008-0.281-1.383-0.563s-0.664-0.664-0.867-1.148c-0.204-0.484-0.305-1.117-0.305-1.898V302.598z"/>
</g>
<text transform="matrix(1 0 0 1 548.541 305.749)" fill="#F70B0B" font-family="'BalooDa'" font-size="93.75">3ER.1</text>
<text transform="matrix(1 0 0 1 571.8457 356.79)" enable-background="new    "><tspan x="0" y="0" fill="#F70B0B" font-family="'BalooDa'" font-size="48">PASILLO</tspan><tspan x="182.061" y="0" fill="#F70B0B" font-family="'BalooDa'" font-size="48" letter-spacing="24">	</tspan><tspan x="216" y="0" fill="#F70B0B" font-family="'BalooDa'" font-size="46.875">.1</tspan></text>
<g>
	<path fill="#DD7878" d="M521.193,169.995c1.063-0.624,2.672-1.219,4.828-1.781c2.155-0.562,4.326-0.844,6.516-0.844
		c3.125,0,5.891,0.454,8.297,1.359c2.404,0.906,3.952,2.329,4.641,4.266c1.125,3.25,2.344,7.031,3.656,11.344
		s2.625,8.766,3.938,13.359c1.313,4.593,2.594,9.126,3.845,13.594c1.25,4.469,2.344,8.423,3.28,11.859
		c-0.75,0.876-1.875,1.579-3.375,2.109s-3.28,0.797-5.344,0.797c-1.5,0-2.766-0.126-3.797-0.375
		c-1.031-0.25-1.875-0.624-2.531-1.125c-0.655-0.5-1.188-1.156-1.594-1.969c-0.406-0.812-0.766-1.749-1.078-2.813l-1.688-6.469
		h-16.969c-0.502,1.875-1,3.813-1.5,5.813c-0.502,2.001-1,3.938-1.5,5.813c-0.877,0.313-1.797,0.577-2.767,0.797
		c-0.97,0.219-2.142,0.328-3.516,0.328c-3.188,0-5.548-0.548-7.078-1.641c-1.532-1.093-2.297-2.609-2.297-4.547
		c0-0.875,0.125-1.749,0.375-2.625c0.249-0.875,0.53-1.906,0.844-3.094c0.437-1.688,1.046-3.781,1.828-6.281
		c0.78-2.499,1.642-5.203,2.578-8.109s1.937-5.891,3-8.953s2.063-5.953,3-8.672s1.796-5.141,2.577-7.266
		C520.146,172.746,520.755,171.12,521.193,169.995z M532.443,182.089c-0.877,2.625-1.86,5.547-2.953,8.766
		c-1.094,3.22-2.078,6.484-2.953,9.797h11.625c-0.876-3.375-1.768-6.671-2.672-9.891c-0.906-3.219-1.734-6.108-2.484-8.672H532.443z
		"/>
	<path fill="#DD7878" d="M563.943,202.339c0-4.125,0.625-7.702,1.875-10.734c1.25-3.031,2.983-5.546,5.203-7.547
		c2.219-2,4.813-3.483,7.78-4.453c2.97-0.969,6.173-1.453,9.609-1.453c1.25,0,2.469,0.109,3.655,0.328
		c1.188,0.22,2.156,0.484,2.906,0.797v-15.188c0.625-0.188,1.625-0.39,3-0.609c1.375-0.219,2.78-0.328,4.219-0.328
		c1.375,0,2.608,0.094,3.703,0.281c1.094,0.187,2.017,0.563,2.767,1.125s1.313,1.328,1.688,2.297
		c0.375,0.97,0.563,2.235,0.563,3.797v44.438c0,2.938-1.375,5.282-4.125,7.031c-1.813,1.188-4.156,2.235-7.031,3.141
		s-6.188,1.359-9.938,1.359c-4.063,0-7.703-0.563-10.922-1.688s-5.938-2.75-8.155-4.875c-2.22-2.124-3.906-4.672-5.063-7.641
		C564.521,209.449,563.943,206.089,563.943,202.339z M590.566,190.62c-3.375,0-5.969,0.97-7.779,2.906
		c-1.813,1.938-2.719,4.875-2.719,8.813c0,3.876,0.844,6.797,2.531,8.766c1.688,1.969,4.125,2.953,7.313,2.953
		c1.125,0,2.141-0.172,3.047-0.516c0.905-0.343,1.607-0.734,2.107-1.172v-20.625C593.816,190.995,592.316,190.62,590.566,190.62z"/>
	<path fill="#DD7878" d="M642.691,178.151c2.563,0,5.078,0.36,7.547,1.078c2.471,0.719,4.609,1.797,6.424,3.234
		c1.875-1.25,3.982-2.281,6.326-3.094c2.346-0.812,5.173-1.219,8.484-1.219c2.375,0,4.7,0.313,6.982,0.938
		c2.279,0.625,4.313,1.609,6.094,2.953c1.781,1.345,3.202,3.126,4.268,5.344c1.063,2.219,1.596,4.922,1.596,8.109v29.531
		c-0.625,0.188-1.609,0.375-2.953,0.563c-1.346,0.188-2.734,0.281-4.172,0.281c-1.375,0-2.61-0.094-3.703-0.281
		c-1.096-0.188-2.018-0.563-2.768-1.125s-1.328-1.327-1.732-2.297c-0.407-0.969-0.609-2.234-0.609-3.797v-22.406
		c0-1.875-0.529-3.234-1.594-4.078c-1.063-0.844-2.5-1.266-4.313-1.266c-0.875,0-1.813,0.203-2.813,0.609
		c-1,0.407-1.75,0.829-2.25,1.266c0.063,0.25,0.095,0.484,0.095,0.703c0,0.22,0,0.422,0,0.609v31.219
		c-0.688,0.188-1.703,0.375-3.048,0.563s-2.704,0.281-4.077,0.281c-1.375,0-2.607-0.094-3.703-0.281
		c-1.095-0.188-2.017-0.563-2.767-1.125s-1.328-1.327-1.733-2.297c-0.404-0.969-0.606-2.234-0.606-3.797v-22.406
		c0-1.875-0.578-3.234-1.731-4.078c-1.158-0.844-2.55-1.266-4.175-1.266c-1.125,0-2.095,0.173-2.903,0.516
		c-0.813,0.344-1.5,0.672-2.063,0.984v32.906c-0.625,0.188-1.608,0.375-2.953,0.563s-2.733,0.281-4.172,0.281
		c-1.375,0-2.61-0.094-3.703-0.281c-1.095-0.188-2.017-0.563-2.767-1.125s-1.328-1.327-1.733-2.297
		c-0.407-0.969-0.608-2.234-0.608-3.797v-28.313c0-1.688,0.358-3.031,1.078-4.031c0.717-0.999,1.701-1.937,2.952-2.813
		c2.124-1.5,4.767-2.719,7.923-3.656C635.957,178.62,639.255,178.151,642.691,178.151z"/>
	<path fill="#DD7878" d="M699.786,166.901c0-2.375,0.797-4.374,2.391-6c1.595-1.625,3.703-2.438,6.328-2.438
		s4.734,0.813,6.328,2.438c1.594,1.626,2.392,3.625,2.392,6c0,2.376-0.798,4.375-2.392,6c-1.594,1.626-3.703,2.438-6.328,2.438
		s-4.733-0.812-6.328-2.438C700.583,171.276,699.786,169.277,699.786,166.901z M716.475,225.026
		c-0.688,0.125-1.705,0.296-3.048,0.516c-1.346,0.219-2.704,0.328-4.077,0.328c-1.377,0-2.608-0.094-3.703-0.281
		c-1.096-0.188-2.017-0.563-2.767-1.125s-1.329-1.327-1.733-2.297c-0.406-0.969-0.606-2.234-0.606-3.797v-38.156
		c0.688-0.125,1.7-0.296,3.047-0.516c1.345-0.219,2.702-0.328,4.078-0.328c1.373,0,2.604,0.094,3.703,0.281
		c1.092,0.188,2.016,0.563,2.766,1.125s1.326,1.328,1.734,2.297c0.401,0.97,0.606,2.235,0.606,3.797V225.026z"/>
	<path fill="#DD7878" d="M723.786,217.526c0-2.625,0.812-4.813,2.438-6.563c1.623-1.749,3.844-2.625,6.653-2.625
		s5.029,0.876,6.656,2.625c1.624,1.75,2.438,3.938,2.438,6.563s-0.813,4.813-2.438,6.563c-1.627,1.749-3.847,2.625-6.656,2.625
		c-2.813,0-5.03-0.876-6.653-2.625C724.598,222.34,723.786,220.151,723.786,217.526z"/>
	<path fill="#DD7878" d="M755.753,183.308l-9.375,2.906c-0.938-0.624-1.875-1.5-2.813-2.625c-0.938-1.125-1.405-2.687-1.405-4.688
		c0-3.75,2.28-6.375,6.844-7.875l10.5-3.563h3.469c2.688,0,4.813,0.782,6.375,2.344c1.563,1.563,2.347,3.688,2.347,6.375v48.844
		c-0.688,0.125-1.702,0.296-3.05,0.516c-1.344,0.219-2.7,0.328-4.075,0.328s-2.608-0.094-3.702-0.281
		c-1.098-0.187-2.02-0.563-2.77-1.125s-1.328-1.327-1.73-2.297c-0.406-0.969-0.609-2.234-0.609-3.797L755.753,183.308
		L755.753,183.308z"/>
</g>
<g>
	<path fill="#DD7878" d="M84.187,116.248c-0.688,0.188-1.767,0.375-3.232,0.563c-1.47,0.188-2.922,0.281-4.358,0.281
		c-1.438,0-2.705-0.109-3.798-0.328c-1.094-0.219-2.016-0.607-2.766-1.172c-0.75-0.563-1.313-1.344-1.688-2.344
		c-0.375-0.999-0.563-2.313-0.563-3.938V65.154c0-1.313,0.358-2.328,1.078-3.047c0.718-0.72,1.701-1.298,2.953-1.734
		c2.123-0.75,4.547-1.297,7.266-1.641c2.719-0.345,5.451-0.518,8.203-0.518c8.625,0,15.219,1.845,19.781,5.531
		c4.562,3.688,6.844,8.688,6.844,15c0,3.063-0.484,5.828-1.453,8.297c-0.971,2.47-2.406,4.595-4.313,6.375
		c-1.907,1.781-4.313,3.156-7.22,4.125c-2.905,0.97-6.267,1.453-10.078,1.453h-6.654L84.187,116.248L84.187,116.248z M89.062,86.154
		c2.625,0,4.643-0.609,6.048-1.828c1.405-1.22,2.108-3.078,2.108-5.578c0-2.375-0.733-4.203-2.203-5.484
		c-1.469-1.279-3.607-1.922-6.422-1.922c-1,0-1.828,0.016-2.483,0.047c-0.655,0.032-1.327,0.109-2.017,0.234v14.531H89.062z"/>
	<path fill="#DD7878" d="M138.843,69.654c3.375,0,6.453,0.344,9.234,1.03c2.779,0.688,5.156,1.733,7.125,3.142
		c1.969,1.405,3.481,3.188,4.547,5.344c1.063,2.156,1.594,4.703,1.594,7.641v21c0,1.627-0.453,2.953-1.358,3.984
		c-0.904,1.031-1.982,1.922-3.232,2.672c-4.063,2.438-9.782,3.656-17.156,3.656c-3.313,0-6.297-0.313-8.953-0.938
		c-2.655-0.625-4.938-1.563-6.844-2.813c-1.906-1.25-3.375-2.844-4.406-4.781c-1.03-1.937-1.547-4.187-1.547-6.75
		c0-4.313,1.28-7.625,3.845-9.938c2.563-2.313,6.529-3.75,11.905-4.313l12.281-1.313v-0.656c0-1.813-0.797-3.107-2.393-3.891
		c-1.595-0.781-3.892-1.173-6.892-1.173c-2.376,0-4.688,0.25-6.938,0.75s-4.281,1.125-6.094,1.875
		c-0.813-0.563-1.5-1.422-2.063-2.577c-0.563-1.156-0.845-2.358-0.845-3.609c0-1.625,0.391-2.921,1.173-3.891
		c0.78-0.97,1.982-1.798,3.607-2.484c1.813-0.688,3.953-1.188,6.423-1.5C134.327,69.81,136.653,69.654,138.843,69.654z
		 M139.593,106.498c1.063,0,2.234-0.107,3.517-0.328c1.28-0.219,2.233-0.516,2.858-0.891v-7.5l-6.75,0.563
		c-1.75,0.126-3.188,0.501-4.313,1.125c-1.125,0.625-1.688,1.563-1.688,2.813c0,1.251,0.483,2.266,1.453,3.047
		C135.64,106.107,137.28,106.498,139.593,106.498z"/>
	<path fill="#DD7878" d="M209.527,103.029c0,4.75-1.779,8.47-5.344,11.155c-3.563,2.687-8.813,4.03-15.75,4.03
		c-2.625,0-5.063-0.188-7.313-0.563s-4.172-0.953-5.767-1.734c-1.595-0.78-2.847-1.766-3.75-2.953
		c-0.906-1.187-1.358-2.593-1.358-4.219c0-1.5,0.313-2.768,0.938-3.797c0.625-1.031,1.375-1.891,2.25-2.578
		c1.813,1,3.893,1.892,6.233,2.672c2.345,0.782,5.046,1.172,8.108,1.172c1.938,0,3.423-0.28,4.452-0.844
		c1.031-0.563,1.548-1.313,1.548-2.25c0-0.875-0.375-1.563-1.125-2.063s-2.003-0.903-3.75-1.219l-2.813-0.563
		c-5.438-1.063-9.484-2.733-12.141-5.017c-2.657-2.281-3.984-5.547-3.984-9.798c0-2.312,0.499-4.405,1.5-6.28
		c0.999-1.875,2.405-3.438,4.221-4.688c1.813-1.25,3.982-2.218,6.517-2.906c2.53-0.688,5.326-1.03,8.391-1.03
		c2.313,0,4.483,0.172,6.518,0.517c2.029,0.344,3.797,0.858,5.297,1.547c1.5,0.688,2.688,1.579,3.563,2.672
		c0.874,1.094,1.313,2.391,1.313,3.891c0,1.438-0.268,2.672-0.797,3.703c-0.531,1.031-1.205,1.893-2.02,2.578
		c-0.501-0.313-1.251-0.641-2.25-0.984c-1.001-0.342-2.095-0.654-3.277-0.938c-1.188-0.281-2.395-0.516-3.608-0.703
		c-1.22-0.187-2.329-0.281-3.328-0.281c-2.063,0-3.656,0.234-4.781,0.703c-1.125,0.469-1.688,1.204-1.688,2.203
		c0,0.688,0.312,1.251,0.938,1.688c0.624,0.438,1.813,0.844,3.563,1.219l2.904,0.656c6,1.375,10.268,3.267,12.797,5.672
		C208.266,96.107,209.527,99.217,209.527,103.029z"/>
	<path fill="#DD7878" d="M241.777,118.123c-3.688,0-7.11-0.516-10.271-1.547c-3.153-1.031-5.903-2.578-8.25-4.642
		c-2.344-2.063-4.188-4.654-5.528-7.78c-1.348-3.125-2.019-6.781-2.019-10.97c0-4.125,0.671-7.672,2.019-10.642
		c1.344-2.968,3.105-5.405,5.297-7.313c2.188-1.904,4.688-3.313,7.5-4.219c2.813-0.903,5.688-1.358,8.627-1.358
		c3.312,0,6.326,0.502,9.047,1.5c2.719,1,5.063,2.377,7.029,4.125c1.971,1.75,3.5,3.845,4.596,6.28
		c1.093,2.438,1.641,5.097,1.641,7.97c0,2.125-0.595,3.75-1.781,4.875c-1.188,1.125-2.845,1.845-4.969,2.155l-23.154,3.471
		c0.688,2.063,2.092,3.607,4.219,4.641c2.123,1.031,4.563,1.547,7.313,1.547c2.563,0,4.983-0.327,7.269-0.982
		c2.277-0.656,4.142-1.423,5.576-2.298c0.998,0.625,1.847,1.5,2.53,2.625c0.688,1.125,1.031,2.313,1.031,3.563
		c0,2.813-1.313,4.907-3.938,6.281c-2,1.063-4.25,1.78-6.75,2.155C246.309,117.935,243.964,118.123,241.777,118.123z
		 M239.152,81.279c-1.502,0-2.799,0.25-3.896,0.75c-1.095,0.501-1.981,1.141-2.672,1.922c-0.688,0.78-1.204,1.655-1.547,2.625
		c-0.347,0.97-0.548,1.954-0.606,2.953l16.028-2.625c-0.188-1.25-0.876-2.499-2.063-3.75
		C243.214,81.904,241.464,81.279,239.152,81.279z"/>
	<path fill="#DD7878" d="M316.308,93.841c0,3.876-0.594,7.328-1.776,10.359c-1.188,3.031-2.859,5.578-5.021,7.641
		c-2.152,2.063-4.729,3.625-7.729,4.688s-6.348,1.594-10.031,1.594c-3.688,0-7.031-0.563-10.031-1.688s-5.576-2.731-7.73-4.828
		c-2.155-2.094-3.827-4.641-5.02-7.641c-1.188-3-1.779-6.375-1.779-10.125c0-3.688,0.597-7.031,1.779-10.031
		c1.188-3,2.859-5.545,5.02-7.641c2.154-2.094,4.73-3.703,7.73-4.828s6.346-1.688,10.031-1.688s7.031,0.578,10.031,1.733
		c3,1.156,5.578,2.78,7.729,4.875c2.156,2.095,3.828,4.642,5.021,7.642C315.715,86.904,316.308,90.217,316.308,93.841z
		 M283.495,93.841c0,3.813,0.733,6.735,2.203,8.766c1.469,2.031,3.516,3.049,6.141,3.049s4.642-1.031,6.047-3.096
		c1.406-2.063,2.109-4.969,2.109-8.719s-0.719-6.641-2.156-8.672c-1.438-2.029-3.469-3.047-6.094-3.047s-4.656,1.018-6.095,3.047
		C284.214,87.201,283.495,90.091,283.495,93.841z"/>
</g>
<rect x="10.079" y="120.104" fill="#DD7878" width="370.457" height="49.209"/>
<text transform="matrix(1 0 0 1 72.9458 157.1104)" fill="#F70B0B" font-family="'BalooDa'" font-size="48">Tercer Piso</text>
</svg>
