<?xml version="1.0" encoding="utf-8"?>
<!-- Generator: Adobe Illustrator 16.0.2, SVG Export Plug-In . SVG Version: 6.00 Build 0)  -->
<!DOCTYPE svg PUBLIC "-//W3C//DTD SVG 1.1//EN" "http://www.w3.org/Graphics/SVG/1.1/DTD/svg11.dtd">
<svg version="1.1"
	 id="svg815" xmlns:dc="http://purl.org/dc/elements/1.1/" xmlns:rdf="http://www.w3.org/1999/02/22-rdf-syntax-ns#" xmlns:cc="http://creativecommons.org/ns#" xmlns:sodipodi="http://sodipodi.sourceforge.net/DTD/sodipodi-0.dtd" xmlns:inkscape="http://www.inkscape.org/namespaces/inkscape" xmlns:svg="http://www.w3.org/2000/svg" inkscape:version="1.2.2 (732a01da63, 2022-12-09)" sodipodi:docname="coffee016.svg"
	 xmlns="http://www.w3.org/2000/svg" xmlns:xlink="http://www.w3.org/1999/xlink" x="0px" y="0px" width="390.852px"
	 height="601.967px" viewBox="0 0 390.852 601.967" enable-background="new 0 0 390.852 601.967" xml:space="preserve">
<symbol  id="New_Symbol" viewBox="-12.042 -40.933 24.084 81.864">
	<polyline fill="#A3A2A2" points="11.922,-26.055 -12.042,-40.933 -12.042,25.353 12.042,40.932 	"/>
</symbol>
<sodipodi:namedview  id="namedview817" inkscape:cy="193.40701" showgrid="false" bordercolor="#666666" inkscape:cx="218.09727" inkscape:zoom="1.2150542" borderopacity="1" inkscape:window-maximized="1" inkscape:pagecheckerboard="0" inkscape:snap-page="false" inkscape:pageshadow="2" fit-margin-bottom="0" fit-margin-right="0" inkscape:window-width="1366" inkscape:showpageshadow="2" inkscape:pageopacity="0" inkscape:deskcolor="#d1d1d1" inkscape:window-x="-8" inkscape:window-y="-8" inkscape:window-height="705" inkscape:current-layer="g823" pagecolor="#ffffff" objecttolerance="10" gridtolerance="10" fit-margin-left="0" guidetolerance="10" fit-margin-top="0">
	</sodipodi:namedview>
<g>
	
		<path fill="none" stroke="#0480B7" stroke-width="0.15" stroke-linecap="round" stroke-linejoin="round" stroke-miterlimit="10" d="
		M81.411,580.79H371.89c2.318,0,4.158-0.8,5.771-2.4c1.601-1.6,2.396-3.52,2.396-5.839V220.069c0-2.239-0.801-4.239-2.396-5.84
		c-0.729-0.8-1.604-1.359-2.563-1.76c-0.961-0.479-2-0.64-3.193-0.64H22.052c-2.24,0-4.16,0.8-5.76,2.399
		c-1.601,1.601-2.4,3.601-2.4,5.84V329.83"/>
	<g>
		<path fill="#F0F0F0" d="M379.49,220.629c0-2.319-0.799-4.24-2.397-5.84c-1.603-1.68-3.603-2.479-5.842-2.479H21.492
			c-2.24,0-4.24,0.8-5.84,2.479c-1.601,1.6-2.4,3.521-2.4,5.84v352.48c0,2.229,0.8,4.229,2.4,5.841c1.6,1.6,3.6,2.396,5.84,2.396
			h349.759c2.239,0,4.239-0.8,5.842-2.396c1.604-1.604,2.397-3.604,2.397-5.841V220.629L379.49,220.629z"/>
	</g>
</g>
<g>
	<g>
		<path fill="#FFFFFF" d="M1.625,567.79V18.59c0-4.16,1.439-7.76,4.399-10.72c3.041-2.96,6.641-4.48,10.801-4.48h357.999
			c4.238,0,7.84,1.52,10.799,4.48c2.962,2.96,4.48,6.56,4.48,10.72v549.2c0,4.161-1.521,7.761-4.48,10.721
			c-2.959,3.04-6.561,4.479-10.799,4.479H16.825c-4.16,0-7.761-1.439-10.801-4.479C3.066,575.55,1.625,571.951,1.625,567.79z"/>
		
			<path fill="none" stroke="#0480B7" stroke-width="0.15" stroke-linecap="round" stroke-linejoin="round" stroke-miterlimit="10" d="
			M1.625,567.79c0,4.161,1.439,7.761,4.399,10.721c3.041,3.04,6.641,4.479,10.801,4.479h357.999c4.238,0,7.84-1.439,10.799-4.479
			c2.962-2.96,4.48-6.56,4.48-10.721V18.59c0-4.16-1.521-7.76-4.48-10.72s-6.561-4.48-10.799-4.48H16.825
			c-4.16,0-7.761,1.52-10.801,4.48c-2.959,2.96-4.399,6.56-4.399,10.72V567.79"/>
	</g>
</g>
<g>
	<g>
		<path fill="none" stroke="#10C7F9" stroke-width="3" stroke-linecap="round" stroke-linejoin="round" stroke-miterlimit="10" d="
			M2.532,574.951c0,4.079,1.84,7.6,5.68,10.719c3.6,2.961,7.6,4.481,11.92,4.481h355.68c4.156,0,7.688-1.521,10.646-4.481
			s4.396-6.479,4.396-10.719V216.79c0-4.16-1.438-7.76-4.396-10.64c-2.961-2.96-6.479-4.4-10.646-4.4H20.132
			c-4.32,0-8.32,1.44-11.92,4.4c-3.84,3.04-5.68,6.64-5.68,10.64V574.951"/>
	</g>
</g>
<g>
	<path fill="#FFFFFF" d="M171.972,231.75v3.68v110.08l45.838,28.159l3.438,2.16l88.239,54.16l6.396,3.92v-113.76L171.972,231.75z"/>
	<path fill="#FFFFFF" stroke="#C3C7C9" stroke-miterlimit="10" d="M382.692,284.229l-3.854-2.399l-60.723,37.36v113.76
		l64.563-39.682L382.692,284.229L382.692,284.229z"/>
	<path fill="#FFFFFF" stroke="#D1D1D1" stroke-miterlimit="10" d="M199.893,212.469l-26.396,16.16l141.999,88l60-36.8l-48.646-29.92
		v-37.44H199.893L199.893,212.469z"/>
	<path fill="#FFFFFF" stroke="#C9C9C9" stroke-miterlimit="10" d="M382.692,212.469H326.85v37.44l48.646,29.92l3.354,2l3.854,2.399
		L382.692,212.469L382.692,212.469z"/>
	<path fill="#FFFFFF" d="M171.972,235.429l-7.121-4.399L20.932,319.429l142,88l54.878-33.76l-45.838-28.159V235.429L171.972,235.429
		z"/>
	<path fill="#FFFFFF" d="M309.49,435.35v-5.354l-88.239-54.16l-55.679,34.08v3.12v110.72l1.278-0.8L309.49,435.35z"/>
	<path fill="#FFFFFF" d="M19.411,436.229l3.521,2.229l140.399,86.24V411.58v-0.646l-143.92-88.396v10.563V436.229z"/>
	<path fill="#FFFFFF" d="M22.932,438.469v0.646l48.561,29.841l3.439,2.079l83.119,51.121l8.8,5.354v-4.56l-1.278,0.8V413.03
		l-2.24-1.44v113.12L22.932,438.469z"/>
	<path fill="#FFFFFF" stroke="#C3C7C9" stroke-miterlimit="10" d="M13.411,329.429l-1.2,0.801v175.12l1.68-1.04l57.601-35.354
		l-48.561-29.841v-0.646l-3.521-2.239V333.11L13.411,329.429z"/>
	<path fill="#FFFFFF" d="M14.211,574.79v6h67.2l76.64-47.039v-11.6L74.932,471.03L14.211,508.31V574.79z"/>
	
		<path fill="none" stroke="#0480B7" stroke-width="0.15" stroke-linecap="round" stroke-linejoin="round" stroke-miterlimit="10" d="
		M13.891,504.31v68.24c0,0.8,0.08,1.604,0.32,2.239"/>
	
		<polyline fill="none" stroke="#CCCCCC" stroke-width="1.15" stroke-linecap="round" stroke-linejoin="round" stroke-miterlimit="10" points="
		309.49,429.99 315.892,433.91 315.892,320.149 171.972,231.75 171.972,235.429 	"/>
	
		<polyline fill="none" stroke="#CCCCCC" stroke-width="1.15" stroke-linecap="round" stroke-linejoin="round" stroke-miterlimit="10" points="
		199.893,212.469 173.492,228.629 315.49,316.629 375.49,279.83 	"/>
	
		<line fill="none" stroke="#CCCCCC" stroke-width="1.15" stroke-linecap="round" stroke-linejoin="round" stroke-miterlimit="10" x1="378.851" y1="281.83" x2="382.692" y2="284.229"/>
	
		<line fill="none" stroke="#CCCCCC" stroke-width="1.15" stroke-linecap="round" stroke-linejoin="round" stroke-miterlimit="10" x1="375.49" y1="279.83" x2="378.851" y2="281.83"/>
	
		<polyline fill="none" stroke="#CCCCCC" stroke-width="1.15" stroke-linecap="round" stroke-linejoin="round" stroke-miterlimit="10" points="
		326.851,212.469 326.851,249.91 375.49,279.83 	"/>
	
		<polyline fill="none" stroke="#CCCCCC" stroke-width="1.15" stroke-linecap="round" stroke-linejoin="round" stroke-miterlimit="10" points="
		382.692,393.269 318.132,432.95 318.132,319.19 378.851,281.83 	"/>
	
		<polyline fill="none" stroke="#CCCCCC" stroke-width="1.15" stroke-linecap="round" stroke-linejoin="round" stroke-miterlimit="10" points="
		19.411,333.11 13.411,329.429 12.211,330.229 	"/>
	
		<polyline fill="none" stroke="#CCCCCC" stroke-width="1.15" stroke-linecap="round" stroke-linejoin="round" stroke-miterlimit="10" points="
		19.411,333.11 19.411,436.229 22.932,438.469 	"/>
	
		<polyline fill="none" stroke="#CCCCCC" stroke-width="1.15" stroke-linecap="round" stroke-linejoin="round" stroke-miterlimit="10" points="
		22.932,438.469 22.932,439.11 71.492,468.951 	"/>
	
		<line fill="none" stroke="#CCCCCC" stroke-width="1.15" stroke-linecap="round" stroke-linejoin="round" stroke-miterlimit="10" x1="71.492" y1="468.951" x2="74.932" y2="471.03"/>
	
		<polyline fill="none" stroke="#CCCCCC" stroke-width="1.15" stroke-linecap="round" stroke-linejoin="round" stroke-miterlimit="10" points="
		12.211,505.35 13.891,504.31 71.492,468.951 	"/>
	
		<polyline fill="none" stroke="#CCCCCC" stroke-width="1.15" stroke-linecap="round" stroke-linejoin="round" stroke-miterlimit="10" points="
		74.932,471.03 14.211,508.31 14.211,574.79 14.211,580.79 	"/>
	
		<polyline fill="none" stroke="#CCCCCC" stroke-width="1.15" stroke-linecap="round" stroke-linejoin="round" stroke-miterlimit="10" points="
		171.972,235.429 164.851,231.03 20.932,319.429 162.932,407.429 217.813,373.669 	"/>
	
		<polyline fill="none" stroke="#CCCCCC" stroke-width="1.15" stroke-linecap="round" stroke-linejoin="round" stroke-miterlimit="10" points="
		166.851,522.951 309.49,435.35 309.49,429.99 	"/>
	
		<line fill="none" stroke="#CCCCCC" stroke-width="1.15" stroke-linecap="round" stroke-linejoin="round" stroke-miterlimit="10" x1="217.813" y1="373.669" x2="221.251" y2="375.83"/>
	
		<polyline fill="none" stroke="#CCCCCC" stroke-width="1.15" stroke-linecap="round" stroke-linejoin="round" stroke-miterlimit="10" points="
		221.251,375.83 165.572,409.91 165.572,413.03 	"/>
	
		<line fill="none" stroke="#CCCCCC" stroke-width="1.15" stroke-linecap="round" stroke-linejoin="round" stroke-miterlimit="10" x1="165.572" y1="413.03" x2="163.331" y2="411.589"/>
	
		<polyline fill="none" stroke="#CCCCCC" stroke-width="1.15" stroke-linecap="round" stroke-linejoin="round" stroke-miterlimit="10" points="
		163.331,411.589 163.331,410.95 19.411,322.549 19.411,333.11 	"/>
	
		<polyline fill="none" stroke="#CCCCCC" stroke-width="1.15" stroke-linecap="round" stroke-linejoin="round" stroke-miterlimit="10" points="
		171.972,235.429 171.972,345.51 217.813,373.669 	"/>
	
		<polyline fill="none" stroke="#CCCCCC" stroke-width="1.15" stroke-linecap="round" stroke-linejoin="round" stroke-miterlimit="10" points="
		165.572,413.03 165.572,523.75 166.851,522.951 	"/>
	
		<polyline fill="none" stroke="#CCCCCC" stroke-width="1.15" stroke-linecap="round" stroke-linejoin="round" stroke-miterlimit="10" points="
		158.051,522.151 166.851,527.51 166.851,522.951 	"/>
	
		<polyline fill="none" stroke="#CCCCCC" stroke-width="1.15" stroke-linecap="round" stroke-linejoin="round" stroke-miterlimit="10" points="
		81.411,580.79 158.051,533.75 158.051,522.151 	"/>
	
		<line fill="none" stroke="#CCCCCC" stroke-width="1.15" stroke-linecap="round" stroke-linejoin="round" stroke-miterlimit="10" x1="221.251" y1="375.83" x2="309.49" y2="429.99"/>
	
		<polyline fill="none" stroke="#CCCCCC" stroke-width="1.15" stroke-linecap="round" stroke-linejoin="round" stroke-miterlimit="10" points="
		22.932,438.469 163.331,524.709 163.331,411.589 	"/>
	
		<line fill="none" stroke="#CCCCCC" stroke-width="1.15" stroke-linecap="round" stroke-linejoin="round" stroke-miterlimit="10" x1="74.932" y1="471.03" x2="158.051" y2="522.151"/>
</g>
<g opacity="0.3">
	<g>
		<g>
			<path fill="#0860A8" d="M315.093,319.11l-66.641-38.32c-52.241,0.08-78.32,0.08-78.32-0.08c0,0.24-13.2,0.24-39.601-0.08
				c-26.721-0.24-40.24-0.24-40.721,0c-43.04,25.28-64.399,38.08-64.159,38.48L23.89,431.589l144.8,93.361l146.401-90.001
				L315.093,319.11L315.093,319.11z"/>
		</g>
	</g>
</g>
<g>
	<g>
		<path fill="#CCCCCC" d="M164.746,130.509l-0.801,43.04l-0.721-43.04l34.32-20.72L164.746,130.509z"/>
		
			<line fill="none" stroke="#CCCCCC" stroke-width="1.9" stroke-linecap="round" stroke-linejoin="round" stroke-miterlimit="10" x1="281.865" y1="57.79" x2="197.545" y2="109.79"/>
		
			<polyline fill="none" stroke="#CCCCCC" stroke-width="1.9" stroke-linecap="round" stroke-linejoin="round" stroke-miterlimit="10" points="
			197.545,109.79 164.746,130.509 163.946,173.549 163.225,130.509 197.545,109.79 		"/>
	</g>
	<g>
		<g>
			<path fill="#F0F0F0" d="M376.665,182.75c-0.801,0.72-1.76,1.36-2.801,1.761c-0.959,0.479-2.16,0.719-3.278,0.719H19.066
				c-1.199,0-2.239-0.239-3.359-0.719c-1.04-0.4-1.84-1.041-2.641-1.761c-0.8-0.8-1.439-1.76-1.84-2.72
				c-0.479-1.12-0.72-2.24-0.72-3.36V21.79c0-1.2,0.24-2.32,0.72-3.36c0.4-1.04,1.04-2,1.84-2.72c0.801-0.8,1.601-1.44,2.641-1.84
				c1.12-0.48,2.16-0.72,3.359-0.72h351.521c1.118,0,2.319,0.24,3.278,0.72c1.041,0.4,2,1.04,2.801,1.84
				c0.8,0.72,1.359,1.68,1.841,2.72c0.399,1.041,0.646,2.16,0.646,3.36v154.88c0,1.12-0.238,2.24-0.646,3.36
				C378.025,180.99,377.465,181.95,376.665,182.75z"/>
		</g>
	</g>
	<g>
		<path fill="#FFFFFF" d="M349.945,94.91v89.12h-267.2v-73.68l148.479-89.6L349.945,94.91z"/>
	</g>
	<g>
		<path fill="none" stroke="#0480B7" stroke-linecap="round" stroke-linejoin="round" stroke-miterlimit="10" d="M376.586,182.669
			c0.799-0.8,1.438-1.76,1.92-2.72c0.399-1.12,0.646-2.24,0.646-3.439V21.79c0-1.12-0.24-2.24-0.646-3.36
			c-0.479-1.04-1.121-1.84-1.92-2.64c-0.802-0.8-1.681-1.52-2.722-1.92c-1.039-0.48-2.16-0.72-3.358-0.72H19.226
			c-1.2,0-2.32,0.24-3.359,0.72c-1.04,0.4-2,1.12-2.801,1.92c-0.8,0.8-1.359,1.6-1.84,2.64c-0.479,1.121-0.72,2.24-0.72,3.36v154.72
			c0,1.199,0.24,2.319,0.72,3.439c0.48,0.96,1.04,1.92,1.84,2.72c0.801,0.8,1.761,1.36,2.801,1.841
			c1.039,0.479,2.159,0.719,3.359,0.719h351.28c1.198,0,2.319-0.239,3.358-0.719C374.906,184.03,375.784,183.469,376.586,182.669"/>
	</g>
	<g>
		<path fill="#FFFFFF" d="M229.064,26.029L346.266,98.35l-137.76,86.079L91.466,112.03L229.064,26.029z"/>
		
			<polyline fill="none" stroke="#CCCCCC" stroke-width="1.9" stroke-linecap="round" stroke-linejoin="round" stroke-miterlimit="10" points="
			229.064,26.029 91.466,112.03 208.506,184.429 346.266,98.35 229.064,26.029 		"/>
	</g>
	<g>
		<path fill="#CCCCCC" d="M89.625,112.03l-0.8,74.399l-0.801-74.399l36.081-21.84L89.625,112.03z"/>
		
			<line fill="none" stroke="#CCCCCC" stroke-width="1.9" stroke-linecap="round" stroke-linejoin="round" stroke-miterlimit="10" x1="124.106" y1="90.189" x2="228.186" y2="25.87"/>
		
			<polyline fill="none" stroke="#CCCCCC" stroke-width="1.9" stroke-linecap="round" stroke-linejoin="round" stroke-miterlimit="10" points="
			124.106,90.189 89.625,112.03 88.826,186.429 88.025,112.03 124.106,90.189 		"/>
	</g>
	<g>
		<path fill="#CCCCCC" d="M274.105,184.83c-0.399-0.08-0.646-0.08-0.799-0.08c0.559-0.32,6.719-4,18.479-11.12L274.105,184.83z"/>
		
			<line fill="none" stroke="#CCCCCC" stroke-width="1.9" stroke-linecap="round" stroke-linejoin="round" stroke-miterlimit="10" x1="273.307" y1="184.75" x2="273.307" y2="184.75"/>
		
			<path fill="none" stroke="#CCCCCC" stroke-width="1.9" stroke-linecap="round" stroke-linejoin="round" stroke-miterlimit="10" d="
			M291.785,173.629l-17.682,11.2c-0.398-0.08-0.646-0.08-0.799-0.08"/>
		
			<path fill="none" stroke="#CCCCCC" stroke-width="1.9" stroke-linecap="round" stroke-linejoin="round" stroke-miterlimit="10" d="
			M273.307,184.75c0.563-0.32,6.719-4,18.479-11.12"/>
		
			<line fill="none" stroke="#CCCCCC" stroke-width="1.9" stroke-linecap="round" stroke-linejoin="round" stroke-miterlimit="10" x1="291.785" y1="173.629" x2="345.225" y2="140.589"/>
	</g>
	<g>
		<path fill="#CCCCCC" d="M344.506,97.15h1.604l-0.813,42.96L344.506,97.15z"/>
		
			<polyline fill="none" stroke="#CCCCCC" stroke-width="1.9" stroke-linecap="round" stroke-linejoin="round" stroke-miterlimit="10" points="
			346.105,97.15 345.307,140.11 344.506,97.15 346.105,97.15 		"/>
	</g>
	<g>
		<path fill="none" stroke="#10C7F9" stroke-width="3" stroke-linecap="round" stroke-linejoin="round" stroke-miterlimit="10" d="
			M388.825,183.31c0.8-1.841,1.199-3.841,1.199-5.921v-158.8c0-2-0.399-4-1.199-5.92c-0.722-1.76-1.84-3.44-3.2-4.8
			c-1.439-1.44-3.119-2.48-4.88-3.28c-1.84-0.8-3.84-1.2-5.92-1.2H16.826c-2,0-4,0.4-5.921,1.2c-1.76,0.8-3.439,1.84-4.88,3.28
			c-1.359,1.36-2.399,3.04-3.199,4.8c-0.801,1.92-1.2,3.92-1.2,5.92v158.8c0,2.08,0.399,4.08,1.2,5.921
			c0.8,1.84,1.84,3.52,3.199,4.88c1.44,1.439,3.121,2.479,4.88,3.199c1.921,0.801,3.921,1.2,5.921,1.2h357.999
			c2.08,0,4.08-0.399,5.92-1.2c1.761-0.72,3.438-1.76,4.88-3.199C386.986,186.83,388.105,185.15,388.825,183.31"/>
	</g>
	<g>
		<path fill="#CCCCCC" d="M209.865,184.75l-0.803-0.56l33.604-20.16L209.865,184.75z"/>
		<path fill="#CCCCCC" d="M209.064,184.19l-0.799,0.56l-32.729-20.64L209.064,184.19z"/>
		
			<polyline fill="none" stroke="#CCCCCC" stroke-width="1.9" stroke-linecap="round" stroke-linejoin="round" stroke-miterlimit="10" points="
			209.064,184.19 208.266,184.75 175.545,164.11 		"/>
		
			<line fill="none" stroke="#CCCCCC" stroke-width="1.9" stroke-linecap="round" stroke-linejoin="round" stroke-miterlimit="10" x1="209.064" y1="184.19" x2="242.666" y2="164.03"/>
		
			<line fill="none" stroke="#CCCCCC" stroke-width="1.9" stroke-linecap="round" stroke-linejoin="round" stroke-miterlimit="10" x1="175.545" y1="164.11" x2="209.064" y2="184.19"/>
		
			<line fill="none" stroke="#CCCCCC" stroke-width="1.9" stroke-linecap="round" stroke-linejoin="round" stroke-miterlimit="10" x1="326.986" y1="112.03" x2="242.666" y2="164.03"/>
		
			<line fill="none" stroke="#CCCCCC" stroke-width="1.9" stroke-linecap="round" stroke-linejoin="round" stroke-miterlimit="10" x1="91.226" y1="112.429" x2="175.545" y2="164.11"/>
		
			<polyline fill="none" stroke="#CCCCCC" stroke-width="1.9" stroke-linecap="round" stroke-linejoin="round" stroke-miterlimit="10" points="
			242.666,164.03 209.865,184.75 209.064,184.19 		"/>
	</g>
	<g>
		<path fill="#FFFFFF" d="M52.666,32.189v11.84l-15.04,9.36l-14.96-9.6l0.239-11.6c-0.079-0.08,2.4-1.52,7.28-4.4
			c4.8-2.88,7.28-4.32,7.28-4.4L52.666,32.189z"/>
	</g>
	<g>
		
			<polyline fill="none" stroke="#FFFFFF" stroke-width="3.8" stroke-linecap="round" stroke-linejoin="round" stroke-miterlimit="10" points="
			355.465,50.83 355.625,50.83 367.625,58.189 		"/>
		
			<line fill="none" stroke="#FFFFFF" stroke-width="3.8" stroke-linecap="round" stroke-linejoin="round" stroke-miterlimit="10" x1="355.465" y1="37.79" x2="355.465" y2="50.83"/>
		
			<polyline fill="none" stroke="#FFFFFF" stroke-width="3.8" stroke-linecap="round" stroke-linejoin="round" stroke-miterlimit="10" points="
			367.625,58.189 355.465,50.99 355.465,50.83 		"/>
		
			<line fill="none" stroke="#FFFFFF" stroke-width="3.8" stroke-linecap="round" stroke-linejoin="round" stroke-miterlimit="10" x1="337.704" y1="60.429" x2="355.465" y2="50.83"/>
		
			<line fill="none" stroke="#FFFFFF" stroke-width="3.8" stroke-linecap="round" stroke-linejoin="round" stroke-miterlimit="10" x1="367.625" y1="58.189" x2="371.704" y2="60.669"/>
	</g>
	<g>
		<path fill="#C9C8CC" d="M50.666,33.229v10.4l-13.04,8l-12.96-8.24l0.16-10.16c0,0,2.079-1.28,6.319-3.76
			c4.24-2.479,6.4-3.68,6.4-3.76L50.666,33.229z"/>
	</g>
</g>
<g>
	<g>
		<path fill="#FFFFFF" stroke="#909090" stroke-miterlimit="10" d="M241.625,51.629v11.76l-14.799-9.12v-11.68L241.625,51.629z"/>
		
			<polyline fill="none" stroke="#CCCCCC" stroke-width="0.2" stroke-linecap="round" stroke-linejoin="round" stroke-miterlimit="10" points="
			241.625,51.629 226.826,42.589 226.826,54.27 241.625,63.39 241.625,51.629 		"/>
	</g>
	<g>
		<path fill="#FFFFFF" stroke="#909090" stroke-miterlimit="10" d="M211.705,63.47V51.79l14.801-9.12v11.68L211.705,63.47z"/>
		
			<polyline fill="none" stroke="#CCCCCC" stroke-width="0.2" stroke-linecap="round" stroke-linejoin="round" stroke-miterlimit="10" points="
			211.705,51.79 226.506,42.669 226.506,54.35 211.705,63.47 211.705,51.79 		"/>
	</g>
	<g>
		<path fill="#FFFFFF" d="M212.025,63.79l14.802-9.12l14.639,9.04l-14.799,9.04L212.025,63.79z"/>
		
			<polyline fill="none" stroke="#CCCCCC" stroke-width="0.2" stroke-linecap="round" stroke-linejoin="round" stroke-miterlimit="10" points="
			212.025,63.79 226.666,72.75 241.465,63.709 226.826,54.669 212.025,63.79 		"/>
	</g>
	<g>
		<path fill="#FFFFFF" stroke="#909090" stroke-miterlimit="10" d="M211.064,63.629V51.87l14.801,9.12v11.68L211.064,63.629z"/>
		
			<polyline fill="none" stroke="#CCCCCC" stroke-width="0.2" stroke-linecap="round" stroke-linejoin="round" stroke-miterlimit="10" points="
			211.064,63.629 225.865,72.669 225.865,60.99 211.064,51.87 211.064,63.629 		"/>
	</g>
	<g>
		<path fill="#FFFFFF" stroke="#909090" stroke-miterlimit="10" d="M210.826,52.029v11.68l-14.803,9.12V61.07L210.826,52.029z"/>
		
			<polyline fill="none" stroke="#CCCCCC" stroke-width="0.2" stroke-linecap="round" stroke-linejoin="round" stroke-miterlimit="10" points="
			210.826,63.709 196.025,72.83 196.025,61.07 210.826,52.029 210.826,63.709 		"/>
	</g>
	<g>
		<path fill="#FFFFFF" d="M196.266,73.07l14.799-9.12l14.646,9.04l-14.799,9.12L196.266,73.07z"/>
		
			<polyline fill="none" stroke="#CCCCCC" stroke-width="0.2" stroke-linecap="round" stroke-linejoin="round" stroke-miterlimit="10" points="
			196.266,73.07 210.906,82.109 225.705,72.99 211.064,63.95 196.266,73.07 		"/>
	</g>
	<g>
		<path fill="#FFFFFF" stroke="#909090" stroke-miterlimit="10" d="M209.945,70.83v11.68l-14.799-9.04V61.79L209.945,70.83z"/>
		
			<polyline fill="none" stroke="#909090" stroke-width="0.2" stroke-linecap="round" stroke-linejoin="round" stroke-miterlimit="10" points="
			209.945,70.83 195.146,61.79 195.146,73.47 209.945,82.509 209.945,70.83 		"/>
	</g>
	<g>
		<path fill="#FFFFFF" stroke="#909090" stroke-miterlimit="10" d="M194.826,61.87v11.68l-14.801,9.04v-11.6L194.826,61.87z"/>
		
			<polyline fill="none" stroke="#CCCCCC" stroke-width="0.2" stroke-linecap="round" stroke-linejoin="round" stroke-miterlimit="10" points="
			194.826,73.55 180.026,82.589 180.026,70.99 194.826,61.87 194.826,73.55 		"/>
	</g>
	<g>
		<path fill="#FFFFFF" d="M194.906,91.95l-14.56-9.04l14.8-9.12l14.64,9.04L194.906,91.95z"/>
		
			<polyline fill="none" stroke="#CCCCCC" stroke-width="0.2" stroke-linecap="round" stroke-linejoin="round" stroke-miterlimit="10" points="
			194.906,91.95 209.785,82.83 195.146,73.79 180.346,82.91 194.906,91.95 		"/>
	</g>
	<g>
		<path fill="#FFFFFF" stroke="#909090" stroke-miterlimit="10" d="M193.465,92.83l-14.8-9.04V72.03l14.8,9.121V92.83z"/>
		
			<polyline fill="none" stroke="#CCCCCC" stroke-width="0.2" stroke-linecap="round" stroke-linejoin="round" stroke-miterlimit="10" points="
			193.465,92.83 193.465,81.15 178.666,72.029 178.666,83.79 193.465,92.83 		"/>
	</g>
	<g>
		<path fill="#FFFFFF" stroke="#909090" stroke-miterlimit="10" d="M163.625,92.91V81.23l14.8-9.04v11.68L163.625,92.91z"/>
		
			<polyline fill="none" stroke="#CCCCCC" stroke-width="0.2" stroke-linecap="round" stroke-linejoin="round" stroke-miterlimit="10" points="
			163.625,81.229 178.425,72.189 178.425,83.87 163.625,92.91 163.625,81.229 		"/>
	</g>
	<g>
		<path fill="#FFFFFF" d="M178.666,84.109l14.641,9.12l-14.881,9.041l-14.56-9.041L178.666,84.109z"/>
		
			<polyline fill="none" stroke="#CCCCCC" stroke-width="0.2" stroke-linecap="round" stroke-linejoin="round" stroke-miterlimit="10" points="
			178.666,84.109 163.866,93.229 178.425,102.27 193.306,93.229 178.666,84.109 		"/>
	</g>
	<g>
		<path fill="#FFFFFF" stroke="#909090" stroke-miterlimit="10" d="M162.906,93.15V81.39l14.801,9.12v11.681L162.906,93.15z"/>
		
			<polyline fill="none" stroke="#CCCCCC" stroke-width="0.2" stroke-linecap="round" stroke-linejoin="round" stroke-miterlimit="10" points="
			162.906,93.15 177.706,102.19 177.706,90.509 162.906,81.39 162.906,93.15 		"/>
	</g>
	<g>
		<path fill="#FFFFFF" stroke="#909090" stroke-miterlimit="10" d="M162.666,81.47v11.76l-14.8,9.121V90.589L162.666,81.47z"/>
		
			<polyline fill="none" stroke="#CCCCCC" stroke-width="0.2" stroke-linecap="round" stroke-linejoin="round" stroke-miterlimit="10" points="
			162.666,93.229 147.866,102.35 147.866,90.589 162.666,81.47 162.666,93.229 		"/>
	</g>
	<g>
		<path fill="#FFFFFF" d="M177.625,102.509l-14.88,9.12l-14.641-9.12l14.8-9.04L177.625,102.509z"/>
		
			<polyline fill="none" stroke="#CCCCCC" stroke-width="0.2" stroke-linecap="round" stroke-linejoin="round" stroke-miterlimit="10" points="
			177.625,102.509 162.906,93.47 148.106,102.509 162.746,111.629 177.625,102.509 		"/>
	</g>
	<g>
		<path fill="#FFFFFF" stroke="#909090" stroke-miterlimit="10" d="M161.786,112.03l-14.881-9.12V91.23l14.881,9.121V112.03z"/>
		
			<polyline fill="none" stroke="#CCCCCC" stroke-width="0.2" stroke-linecap="round" stroke-linejoin="round" stroke-miterlimit="10" points="
			161.786,112.03 161.786,100.35 146.906,91.229 146.906,102.91 161.786,112.03 		"/>
	</g>
	<g>
		<path fill="#FFFFFF" stroke="#909090" stroke-miterlimit="10" d="M146.426,102.99l-14.88,9.12v-11.681l14.88-9.12V102.99z"/>
		
			<polyline fill="none" stroke="#CCCCCC" stroke-width="0.2" stroke-linecap="round" stroke-linejoin="round" stroke-miterlimit="10" points="
			131.866,112.11 131.866,100.429 146.746,91.31 146.746,102.99 131.866,112.11 		"/>
	</g>
	<g>
		<path fill="#FFFFFF" stroke="#909090" stroke-miterlimit="10" d="M132.106,112.429l14.88-9.12l14.641,9.041l-14.8,9.039
			L132.106,112.429z"/>
		
			<polyline fill="none" stroke="#CCCCCC" stroke-width="0.2" stroke-linecap="round" stroke-linejoin="round" stroke-miterlimit="10" points="
			132.106,112.429 146.826,121.389 161.625,112.35 146.986,103.309 132.106,112.429 		"/>
	</g>
</g>
<g>
	<g>
		<path fill="#FFFFFF" stroke="#909090" stroke-miterlimit="10" d="M242.746,63.47V51.79l14.879,9.12v11.68L242.746,63.47z"/>
		
			<polyline fill="none" stroke="#CCCCCC" stroke-width="0.2" stroke-linecap="round" stroke-linejoin="round" stroke-miterlimit="10" points="
			242.746,63.47 257.625,72.589 257.625,60.91 242.746,51.79 242.746,63.47 		"/>
	</g>
	<g>
		
			<path fill="none" stroke="#CCCCCC" stroke-width="0.2" stroke-linecap="round" stroke-linejoin="round" stroke-miterlimit="10" d="
			M242.506,51.87v11.68l-14.801,9.12V60.99L242.506,51.87z"/>
		<polyline fill="none" stroke="#CCCCCC" stroke-linecap="round" stroke-linejoin="round" stroke-miterlimit="10" points="
			242.506,63.55 227.705,72.669 227.705,60.99 242.506,51.87 242.506,63.55 		"/>
	</g>
	<g>
		<path fill="#FFFFFF" d="M242.826,63.87l14.639,9.04l-14.879,9.04l-14.643-9.04L242.826,63.87z"/>
		<polyline fill="#FFFFFF" stroke="#909090" stroke-miterlimit="10" points="242.826,63.87 227.945,72.91 242.586,81.95 
			257.465,72.91 242.826,63.87 		"/>
	</g>
	<g>
		<path fill="#FFFFFF" stroke="#909090" stroke-miterlimit="10" d="M241.865,70.189v11.76l-14.803-9.12V61.15L241.865,70.189z"/>
		
			<polyline fill="none" stroke="#CCCCCC" stroke-width="0.2" stroke-linecap="round" stroke-linejoin="round" stroke-miterlimit="10" points="
			241.865,70.189 227.064,61.15 227.064,72.83 241.865,81.95 241.865,70.189 		"/>
	</g>
	<g>
		
			<path fill="none" stroke="#CCCCCC" stroke-width="0.2" stroke-linecap="round" stroke-linejoin="round" stroke-miterlimit="10" d="
			M226.826,61.229v11.68l-14.883,9.12V70.27L226.826,61.229z"/>
		<polyline fill="none" stroke="#CCCCCC" stroke-linecap="round" stroke-linejoin="round" stroke-miterlimit="10" points="
			226.826,72.91 211.945,82.029 211.945,70.27 226.826,61.229 226.826,72.91 		"/>
	</g>
	<g>
		<path fill="#FFFFFF" stroke="#909090" stroke-miterlimit="10" d="M212.266,82.27l14.799-9.12l14.646,9.04l-14.799,9.12
			L212.266,82.27z"/>
		
			<polyline fill="none" stroke="#CCCCCC" stroke-width="0.2" stroke-linecap="round" stroke-linejoin="round" stroke-miterlimit="10" points="
			212.266,82.27 226.906,91.31 241.705,82.189 227.064,73.15 212.266,82.27 		"/>
	</g>
	<g>
		<path fill="#FFFFFF" stroke="#909090" stroke-miterlimit="10" d="M225.865,80.029v11.68l-14.803-9.04V70.99L225.865,80.029z"/>
		
			<polyline fill="none" stroke="#CCCCCC" stroke-width="0.2" stroke-linecap="round" stroke-linejoin="round" stroke-miterlimit="10" points="
			225.865,80.029 211.064,70.99 211.064,82.669 225.865,91.709 225.865,80.029 		"/>
	</g>
	<g>
		
			<path fill="none" stroke="#CCCCCC" stroke-width="0.2" stroke-linecap="round" stroke-linejoin="round" stroke-miterlimit="10" d="
			M210.826,82.75l-14.803,9.12V80.11l14.803-9.04V82.75z"/>
		<polyline fill="none" stroke="#CCCCCC" stroke-linecap="round" stroke-linejoin="round" stroke-miterlimit="10" points="
			196.025,91.87 196.025,80.109 210.826,71.07 210.826,82.75 196.025,91.87 		"/>
	</g>
	<g>
		<path fill="#FFFFFF" d="M196.266,92.109l14.799-9.12l14.646,9.04l-14.799,9.2L196.266,92.109z"/>
		<polyline fill="#FFFFFF" stroke="#909090" stroke-miterlimit="10" points="196.266,92.109 210.906,101.229 225.705,92.029 
			211.064,82.99 196.266,92.109 		"/>
	</g>
	<g>
		<path fill="#FFFFFF" stroke="#909090" stroke-miterlimit="10" d="M194.585,92.99V81.23l14.879,9.12v11.68L194.585,92.99z"/>
		
			<polyline fill="none" stroke="#CCCCCC" stroke-width="0.2" stroke-linecap="round" stroke-linejoin="round" stroke-miterlimit="10" points="
			194.585,92.99 209.465,102.03 209.465,90.35 194.585,81.229 194.585,92.99 		"/>
	</g>
	<g>
		
			<path fill="none" stroke="#CCCCCC" stroke-width="0.2" stroke-linecap="round" stroke-linejoin="round" stroke-miterlimit="10" d="
			M194.346,81.39v11.68l-14.801,9.12V90.429L194.346,81.39z"/>
		<polyline fill="none" stroke="#CCCCCC" stroke-linecap="round" stroke-linejoin="round" stroke-miterlimit="10" points="
			194.346,93.07 179.545,102.19 179.545,90.429 194.346,81.39 194.346,93.07 		"/>
	</g>
	<g>
		<path fill="#FFFFFF" d="M194.425,111.469l-14.64-9.04l14.88-9.12l14.642,9.12L194.425,111.469z"/>
		<polyline fill="#FFFFFF" stroke="#909090" stroke-miterlimit="10" points="194.425,111.469 209.307,102.429 194.666,93.31 
			179.786,102.429 194.425,111.469 		"/>
	</g>
	<g>
		<path fill="#FFFFFF" stroke="#909090" stroke-miterlimit="10" d="M193.706,111.389l-14.88-9.039V90.589l14.88,9.12V111.389z"/>
		
			<polyline fill="none" stroke="#CCCCCC" stroke-width="0.2" stroke-linecap="round" stroke-linejoin="round" stroke-miterlimit="10" points="
			193.706,111.389 193.706,99.709 178.826,90.589 178.826,102.35 193.706,111.389 		"/>
	</g>
	<g>
		
			<path fill="none" stroke="#CCCCCC" stroke-width="0.2" stroke-linecap="round" stroke-linejoin="round" stroke-miterlimit="10" d="
			M178.666,102.429l-14.88,9.12V99.79l14.88-9.12V102.429z"/>
		<polyline fill="none" stroke="#CCCCCC" stroke-linecap="round" stroke-linejoin="round" stroke-miterlimit="10" points="
			163.786,111.549 163.786,99.79 178.666,90.669 178.666,102.429 163.786,111.549 		"/>
	</g>
	<g>
		<path fill="#FFFFFF" d="M178.906,102.669l14.641,9.04l-14.8,9.12l-14.721-9.04L178.906,102.669z"/>
		<polyline fill="#FFFFFF" stroke="#909090" stroke-miterlimit="10" points="178.906,102.669 164.026,111.79 178.746,120.83 
			193.545,111.709 178.906,102.669 		"/>
	</g>
	<g>
		<path fill="#FFFFFF" stroke="#909090" stroke-miterlimit="10" d="M177.706,109.549v11.68l-14.801-9.119v-11.681L177.706,109.549z"
			/>
		
			<polyline fill="none" stroke="#CCCCCC" stroke-width="0.2" stroke-linecap="round" stroke-linejoin="round" stroke-miterlimit="10" points="
			177.706,109.549 162.906,100.429 162.906,112.11 177.706,121.229 177.706,109.549 		"/>
	</g>
	<g>
		<path fill="#FFFFFF" stroke="#909090" stroke-miterlimit="10" d="M147.866,121.309v-11.68l14.8-9.12v11.681L147.866,121.309z"/>
		
			<polyline fill="none" stroke="#CCCCCC" stroke-width="0.2" stroke-linecap="round" stroke-linejoin="round" stroke-miterlimit="10" points="
			147.866,109.629 162.666,100.509 162.666,112.19 147.866,121.309 147.866,109.629 		"/>
	</g>
	<g>
		<path fill="#FFFFFF" stroke="#909090" stroke-miterlimit="10" d="M162.906,112.509l14.641,9.04l-14.8,9.12l-14.641-9.04
			L162.906,112.509z"/>
		
			<polyline fill="none" stroke="#CCCCCC" stroke-width="0.2" stroke-linecap="round" stroke-linejoin="round" stroke-miterlimit="10" points="
			162.906,112.509 148.106,121.629 162.746,130.669 177.545,121.549 162.906,112.509 		"/>
	</g>
</g>
<g>
	<g>
		<path fill="#FFFFFF" stroke="#909090" stroke-miterlimit="10" d="M291.064,82.35v11.76l-14.799-9.12V73.31L291.064,82.35z"/>
		
			<polyline fill="none" stroke="#CCCCCC" stroke-width="0.2" stroke-linecap="round" stroke-linejoin="round" stroke-miterlimit="10" points="
			291.064,82.35 276.266,73.31 276.266,84.99 291.064,94.109 291.064,82.35 		"/>
	</g>
	<g>
		<path fill="#FFFFFF" stroke="#909090" stroke-miterlimit="10" d="M276.025,85.07l-14.801,9.12V82.51l14.801-9.12V85.07z"/>
		
			<polyline fill="none" stroke="#CCCCCC" stroke-width="0.2" stroke-linecap="round" stroke-linejoin="round" stroke-miterlimit="10" points="
			261.225,94.189 261.225,82.509 276.025,73.39 276.025,85.07 261.225,94.189 		"/>
	</g>
	<g>
		<path fill="#FFFFFF" d="M261.465,94.429l14.801-9.04l14.646,9.04l-14.807,9.12L261.465,94.429z"/>
		
			<polyline fill="none" stroke="#CCCCCC" stroke-width="0.2" stroke-linecap="round" stroke-linejoin="round" stroke-miterlimit="10" points="
			261.465,94.429 276.105,103.549 290.906,94.429 276.266,85.39 261.465,94.429 		"/>
	</g>
	<g>
		<path fill="#FFFFFF" stroke="#909090" stroke-miterlimit="10" d="M260.506,94.35V82.59l14.879,9.12v11.68L260.506,94.35z"/>
		
			<polyline fill="none" stroke="#CCCCCC" stroke-width="0.2" stroke-linecap="round" stroke-linejoin="round" stroke-miterlimit="10" points="
			260.506,94.35 275.385,103.389 275.385,91.709 260.506,82.589 260.506,94.35 		"/>
	</g>
	<g>
		<path fill="#FFFFFF" stroke="#909090" stroke-miterlimit="10" d="M260.266,82.75v11.68l-14.801,9.12V91.79L260.266,82.75z"/>
		
			<polyline fill="none" stroke="#CCCCCC" stroke-width="0.2" stroke-linecap="round" stroke-linejoin="round" stroke-miterlimit="10" points="
			260.266,94.429 245.465,103.549 245.465,91.79 260.266,82.75 260.266,94.429 		"/>
	</g>
	<g>
		<path fill="#FFFFFF" d="M275.225,103.709l-14.799,9.12l-14.721-9.04l14.881-9.04L275.225,103.709z"/>
		
			<polyline fill="none" stroke="#CCCCCC" stroke-width="0.2" stroke-linecap="round" stroke-linejoin="round" stroke-miterlimit="10" points="
			275.225,103.709 260.586,94.75 245.705,103.79 260.426,112.83 275.225,103.709 		"/>
	</g>
	<g>
		<path fill="#FFFFFF" stroke="#909090" stroke-miterlimit="10" d="M259.385,113.229l-14.879-9.119V92.429l14.879,9.12V113.229z"/>
		
			<polyline fill="none" stroke="#CCCCCC" stroke-width="0.2" stroke-linecap="round" stroke-linejoin="round" stroke-miterlimit="10" points="
			259.385,113.229 259.385,101.549 244.506,92.429 244.506,104.11 259.385,113.229 		"/>
	</g>
	<g>
		<path fill="#FFFFFF" stroke="#909090" stroke-miterlimit="10" d="M244.346,104.27l-14.881,9.039v-11.68l14.881-9.12V104.27z"/>
		
			<polyline fill="none" stroke="#CCCCCC" stroke-width="0.2" stroke-linecap="round" stroke-linejoin="round" stroke-miterlimit="10" points="
			229.465,113.309 229.465,101.629 244.346,92.509 244.346,104.27 229.465,113.309 		"/>
	</g>
	<g>
		<path fill="#FFFFFF" d="M244.586,104.509l14.639,9.12l-14.799,9.04l-14.641-9.04L244.586,104.509z"/>
		
			<polyline fill="none" stroke="#CCCCCC" stroke-width="0.2" stroke-linecap="round" stroke-linejoin="round" stroke-miterlimit="10" points="
			244.586,104.509 229.785,113.629 244.426,122.669 259.225,113.629 244.586,104.509 		"/>
	</g>
	<g>
		<path fill="#FFFFFF" stroke="#909090" stroke-miterlimit="10" d="M228.105,114.429v-11.6l14.801,9.04v11.76L228.105,114.429z"/>
		
			<polyline fill="none" stroke="#CCCCCC" stroke-width="0.2" stroke-linecap="round" stroke-linejoin="round" stroke-miterlimit="10" points="
			228.105,114.429 242.906,123.629 242.906,111.87 228.105,102.83 228.105,114.429 		"/>
	</g>
	<g>
		<path fill="#FFFFFF" stroke="#909090" stroke-miterlimit="10" d="M213.064,123.629v-11.6l14.801-9.2v11.76L213.064,123.629z"/>
		
			<polyline fill="none" stroke="#CCCCCC" stroke-width="0.2" stroke-linecap="round" stroke-linejoin="round" stroke-miterlimit="10" points="
			213.064,112.03 227.865,102.83 227.865,114.589 213.064,123.629 213.064,112.03 		"/>
	</g>
	<g>
		<path fill="#FFFFFF" d="M213.307,123.95l14.799-9.12l14.729,9.12l-14.89,9.04L213.307,123.95z"/>
		
			<polyline fill="none" stroke="#CCCCCC" stroke-width="0.2" stroke-linecap="round" stroke-linejoin="round" stroke-miterlimit="10" points="
			213.307,123.95 227.945,132.99 242.826,123.95 228.105,114.83 213.307,123.95 		"/>
	</g>
	<g>
		<path fill="#FFFFFF" stroke="#909090" stroke-miterlimit="10" d="M212.426,123.79v-11.68l14.799,9.119v11.681L212.426,123.79z"/>
		
			<polyline fill="none" stroke="#CCCCCC" stroke-width="0.2" stroke-linecap="round" stroke-linejoin="round" stroke-miterlimit="10" points="
			212.426,123.79 227.225,132.91 227.225,121.229 212.426,112.11 212.426,123.79 		"/>
	</g>
	<g>
		<path fill="#FFFFFF" stroke="#909090" stroke-miterlimit="10" d="M212.105,112.19v11.76l-14.799,9.04v-11.681L212.105,112.19z"/>
		
			<polyline fill="none" stroke="#CCCCCC" stroke-width="0.2" stroke-linecap="round" stroke-linejoin="round" stroke-miterlimit="10" points="
			212.105,123.95 197.307,132.99 197.307,121.309 212.105,112.19 212.105,123.95 		"/>
	</g>
	<g>
		
			<polyline fill="none" stroke="#CCCCCC" stroke-width="0.2" stroke-linecap="round" stroke-linejoin="round" stroke-miterlimit="10" points="
			212.266,142.35 227.064,133.229 212.426,124.19 197.625,133.229 212.266,142.35 		"/>
		<path fill="#FFFFFF" d="M212.266,142.35l-14.641-9.121l14.801-9.039l14.639,9.039L212.266,142.35z"/>
	</g>
	<g>
		<path fill="#FFFFFF" stroke="#909090" stroke-miterlimit="10" d="M211.225,142.75l-14.799-9.12v-11.68l14.799,9.04V142.75z"/>
		
			<polyline fill="none" stroke="#CCCCCC" stroke-width="0.2" stroke-linecap="round" stroke-linejoin="round" stroke-miterlimit="10" points="
			211.225,142.75 211.225,130.99 196.426,121.95 196.426,133.629 211.225,142.75 		"/>
	</g>
	<g>
		<path fill="#FFFFFF" stroke="#909090" stroke-miterlimit="10" d="M196.105,122.03v11.68l-14.799,9.12v-11.68L196.105,122.03z"/>
		
			<polyline fill="none" stroke="#CCCCCC" stroke-width="0.2" stroke-linecap="round" stroke-linejoin="round" stroke-miterlimit="10" points="
			196.105,133.709 181.306,142.83 181.306,131.15 196.105,122.03 196.105,133.709 		"/>
	</g>
	<g>
		<path fill="#FFFFFF" d="M196.426,134.03l14.639,9.039l-14.799,9.041l-14.64-8.96L196.426,134.03z"/>
		<polyline fill="#FFFFFF" stroke="#909090" stroke-miterlimit="10" points="196.426,134.03 181.625,143.15 196.266,152.11 
			211.064,143.069 196.426,134.03 		"/>
	</g>
</g>
<g>
	<path fill="#CCCCCC" d="M138.986,184.99l-0.479,0.16l-12.081-7.601L138.986,184.99z"/>
	
		<line fill="none" stroke="#CCCCCC" stroke-width="1.9" stroke-linecap="round" stroke-linejoin="round" stroke-miterlimit="10" x1="126.425" y1="177.549" x2="89.946" y2="155.15"/>
	
		<polyline fill="none" stroke="#CCCCCC" stroke-width="1.9" stroke-linecap="round" stroke-linejoin="round" stroke-miterlimit="10" points="
		126.425,177.549 138.506,185.15 138.986,184.99 126.425,177.549 	"/>
</g>
<g>
	<text transform="matrix(1 0 0 1 54.7456 41.71)" fill="#999999" font-family="'Bahnschrift'" font-size="9.216">MEZZANINA</text>
</g>
<g>
	<text transform="matrix(1 0 0 1 54.7456 30.71)" fill="#CCCCCC" font-family="'ArialMT'" font-size="4.608">EDIFICIO</text>
</g>
<g>
	<text transform="matrix(1 0 0 1 54.7456 45.5898)" fill="#CCCCCC" font-family="'ArialMT'" font-size="4.608">PLAN</text>
</g>
<g>
	<text transform="matrix(1 0 0 1 66.7852 45.5898)" fill="#CCCCCC" font-family="'ArialMT'" font-size="4.608">T</text>
</g>
<g>
	<text transform="matrix(1 0 0 1 69.146 45.5898)" fill="#CCCCCC" font-family="'ArialMT'" font-size="4.608">A</text>
</g>
<g>
	<text transform="matrix(1 0 0 1 71.8657 45.5898)" fill="#CCCCCC" font-family="'ArialMT'" font-size="4.608"> BAJA</text>
</g>
<g opacity="0.4">
	<g>
		<path fill="#F0F0F0" d="M375.931,575.03c-0.799,0.719-1.76,1.354-2.799,1.76c-0.961,0.479-2.16,0.721-3.271,0.721H18.331
			c-1.2,0-2.24-0.229-3.36-0.721c-1.04-0.4-1.84-1.041-2.64-1.76c-0.8-0.8-1.44-1.771-1.84-2.729
			c-0.479-1.104-0.721-2.229-0.721-3.354v-348.48c0-1.2,0.24-2.32,0.721-3.36c0.399-1.04,1.041-2,1.84-2.72
			c0.8-0.8,1.6-1.44,2.64-1.84c1.12-0.48,2.16-0.72,3.36-0.72h351.521c1.117,0,2.316,0.239,3.277,0.72c1.039,0.399,2,1.04,2.8,1.84
			c0.813,0.72,1.36,1.68,1.854,2.72c0.396,1.04,0.64,2.16,0.64,3.36v348.479c0,1.12-0.24,2.241-0.64,3.354
			C377.292,573.269,376.731,574.229,375.931,575.03z"/>
	</g>
</g>
<g>
	<g>
		<g>
			<path fill="none" stroke="#16A6CA" stroke-width="3" stroke-linecap="round" stroke-linejoin="round" stroke-miterlimit="10" d="
				M1.786,575.83c0,4.079,1.84,7.6,5.68,10.717c3.6,2.961,7.6,4.483,11.92,4.483h355.679c4.148,0,7.683-1.521,10.642-4.483
				c2.961-2.958,4.396-6.479,4.396-10.717V217.667c0-4.16-1.438-7.76-4.396-10.64c-2.959-2.96-6.479-4.4-10.642-4.4H19.386
				c-4.32,0-8.32,1.44-11.92,4.4c-3.84,3.04-5.68,6.64-5.68,10.64V575.83"/>
		</g>
	</g>
	<g>
		
			<line fill="none" stroke="#CCCCCC" stroke-width="1.15" stroke-linecap="round" stroke-linejoin="round" stroke-miterlimit="10" x1="80.665" y1="581.669" x2="157.306" y2="534.63"/>
		
			<line fill="none" stroke="#CCCCCC" stroke-width="1.15" stroke-linecap="round" stroke-linejoin="round" stroke-miterlimit="10" x1="67.846" y1="589.575" x2="144.486" y2="542.536"/>
		
			<line fill="none" stroke="#CCCCCC" stroke-width="1.15" stroke-linecap="round" stroke-linejoin="round" stroke-miterlimit="10" x1="313.361" y1="440.687" x2="390.003" y2="393.647"/>
		
			<line fill="none" stroke="#CCCCCC" stroke-width="1.15" stroke-linecap="round" stroke-linejoin="round" stroke-miterlimit="10" x1="157.625" y1="534.63" x2="234.268" y2="487.591"/>
		
			<line fill="none" stroke="#CCCCCC" stroke-width="1.15" stroke-linecap="round" stroke-linejoin="round" stroke-miterlimit="10" x1="234.268" y1="488.458" x2="310.906" y2="441.417"/>
		
			<line fill="none" stroke="#CCCCCC" stroke-width="1.15" stroke-linecap="round" stroke-linejoin="round" stroke-miterlimit="10" x1="301.753" y1="447.663" x2="378.394" y2="400.623"/>
	</g>
	<g>
		<path fill="#FA0F0C" d="M368.367,498.054l-22.629-22.628c-1.873-1.875-4.911-1.875-6.786,0l-1.697,1.697
			c-1.875,1.875-1.875,4.914,0,6.789l12.271,12.271h-1.521h-17.601h-14.399c-2.646,0-4.799,2.149-4.799,4.813v2.396
			c0,2.652,2.146,4.808,4.799,4.808h14.399h17.601h1.051l-12.313,12.31c-1.873,1.875-1.873,4.914,0,6.789l1.698,1.69
			c1.873,1.875,4.902,1.875,6.777,0l22.639-22.637c0.73-0.729,1.187-1.668,1.34-2.631
			C370.179,501.901,369.901,499.589,368.367,498.054z"/>
		<text transform="matrix(1 0 0 1 290.0166 430.9463)" font-family="'MicrosoftJhengHeiLight'" font-size="9.375">fachada</text>
		<text transform="matrix(1 0 0 1 290.0166 440.3213)" font-family="'MicrosoftJhengHeiLight'" font-size="9.375">o</text>
		<text transform="matrix(1 0 0 1 295.5615 440.3213)" font-family="'MicrosoftJhengHeiLight'" font-size="9.375">ficina</text>
		<text transform="matrix(1 0 0 1 290.0166 449.6963)" font-family="'MicrosoftJhengHeiLight'" font-size="9.375">x</text>
		<text transform="matrix(1 0 0 1 294.25 449.6963)" font-family="'MicrosoftJhengHeiLight'" font-size="9.375">dx_int</text>
		<text transform="matrix(1 0 0 1 290.0166 459.0713)" font-family="'MicrosoftJhengHeiLight'" font-size="9.375">x</text>
		<text transform="matrix(1 0 0 1 294.25 459.0713)" font-family="'MicrosoftJhengHeiLight'" font-size="9.375">dx_ext</text>
		<g>
			<g>
				<g>
					<g>
						<g>
							<g>
								<g>
									<g>
										<g>
											<g>
												<g>
													<g>
														<g>
															<g>
																<g>
																	<g>
																		<defs>
																			<polygon id="SVGID_1_" points="276.525,344.214 278.911,475.459 281.298,344.214 																			"/>
																		</defs>
																		<clipPath id="SVGID_2_">
																			<use xlink:href="#SVGID_1_"  overflow="visible"/>
																		</clipPath>
																		<polygon clip-path="url(#SVGID_2_)" fill="#F0EEE8" points="276.525,344.214 278.911,475.459 281.298,344.214 
																																					"/>
																	</g>
																</g>
															</g>
														</g>
													</g>
												</g>
											</g>
										</g>
									</g>
								</g>
							</g>
						</g>
					</g>
				</g>
			</g>
			<g>
				<g>
					<g>
						<g>
							<g>
								<g>
									<g>
										<g>
											<g>
												<g>
													<g>
														<g>
															<g>
																<g>
																	<g>
																		<defs>
																			<polygon id="SVGID_3_" points="276.525,344.214 278.911,475.459 281.298,344.214 																			"/>
																		</defs>
																		<clipPath id="SVGID_4_">
																			<use xlink:href="#SVGID_3_"  overflow="visible"/>
																		</clipPath>
																		
																			<polygon clip-path="url(#SVGID_4_)" fill="none" stroke="#CCCCCC" stroke-width="1.875" stroke-miterlimit="3.8637" points="
																			276.525,344.214 278.911,475.459 281.298,344.214 																		"/>
																	</g>
																</g>
															</g>
														</g>
													</g>
												</g>
											</g>
										</g>
									</g>
								</g>
							</g>
						</g>
					</g>
				</g>
			</g>
		</g>
		<polygon fill="none" stroke="#CCCCCC" stroke-width="1.875" stroke-miterlimit="3.8637" points="276.525,344.214 278.911,475.459 
			281.298,344.214 		"/>
		<rect x="285.9" y="306.962" fill="#F0F0F0" width="86.042" height="52.915"/>
		<rect x="287.909" y="364.55" fill="#F0F0F0" width="43.021" height="26.457"/>
		<rect x="288.354" y="394.618" fill="#F0F0F0" width="21.521" height="13.229"/>
		
			<rect x="288.354" y="394.618" fill="none" stroke="#FFFFFF" stroke-width="1.9531" stroke-linecap="round" stroke-linejoin="round" stroke-miterlimit="3.8636" width="21.521" height="13.229"/>
		<g>
			<g>
				<g>
					<g>
						<g>
							<g>
								<g>
									<g>
										<g>
											<g>
												<g>
													<g>
														<g>
															<g>
																<g>
																	<g>
																		<defs>
																			<polygon id="SVGID_5_" points="279.439,532.514 234.173,560.264 189.498,532.665 234.77,504.915 
																																							"/>
																		</defs>
																		<clipPath id="SVGID_6_">
																			<use xlink:href="#SVGID_5_"  overflow="visible"/>
																		</clipPath>
																		<polygon clip-path="url(#SVGID_6_)" fill="#FFFFFF" points="279.439,532.514 234.173,560.264 189.498,532.665 
																			234.77,504.915 																		"/>
																	</g>
																</g>
															</g>
														</g>
													</g>
												</g>
											</g>
										</g>
									</g>
								</g>
							</g>
						</g>
					</g>
				</g>
			</g>
			<g>
				<g>
					<g>
						<g>
							<g>
								<g>
									<g>
										<g>
											<g>
												<g>
													<g>
														<g>
															<g>
																<g>
																	<g>
																		<defs>
																			<polygon id="SVGID_7_" points="279.439,532.514 234.173,560.264 189.498,532.665 234.77,504.915 
																																							"/>
																		</defs>
																		<clipPath id="SVGID_8_">
																			<use xlink:href="#SVGID_7_"  overflow="visible"/>
																		</clipPath>
																		
																			<polygon clip-path="url(#SVGID_8_)" fill="none" stroke="#CCCCCC" stroke-width="0.2343" stroke-miterlimit="3.8637" points="
																			279.439,532.514 234.173,560.264 189.498,532.665 234.77,504.915 																		"/>
																	</g>
																</g>
															</g>
														</g>
													</g>
												</g>
											</g>
										</g>
									</g>
								</g>
							</g>
						</g>
					</g>
				</g>
			</g>
		</g>
		<polygon fill="none" stroke="#CCCCCC" stroke-width="0.2343" stroke-miterlimit="3.8637" points="279.439,532.514 
			234.173,560.264 189.498,532.665 234.77,504.915 		"/>
		<ellipse fill="#F0F0F0" cx="235.313" cy="532.853" rx="34.063" ry="18.433"/>
		<path fill="#F0F0F0" d="M234.441,503.478c1.473,0.87,1.297,0.239,3.008,0.239c0.063,0.36,0.844-0.119,0.844,0.24
			c0,2.281,0.836,3.687,0.836,5.968c0,6.188,0,9.631,0,15.813c0,2.459-0.506,2.92-0.715,5.381c1.168,0.028,0.955,0.709,2.125,0.709
			c0.99,0,1.563,0.354,2.552,0.354c0.601,0,1.319-0.182,1.319-0.771c0-0.729-0.99-0.604-1.439-1.146
			c-1.08-1.262-1.921-2.188-1.921-3.871c0-0.856,0-1.381,0-2.25c0-2.222-0.229-3.188-0.229-5.396c0-1.146,0.723-2.003,0.723-3.146
			c0-3.688-0.107-5.9-0.107-9.597c0-3.541,1.197-4.75,1.197-8.291c0-1.92,0.959-6.344,0.959-7.69c0-1.594-0.354-2.979-0.354-4.563
			c0-0.421,0.479-0.215,1.314,2.16c1.115,3.118,1.227,2.963,1.227,5.934c0,2.159,0.688,3.329,0.688,5.49l0.619,1.432
			c0.725-1.078,0.84-1.946,0.84-3.236c0-2.188-0.232-1.524-0.232-3.729c0-0.87-0.238-2.255-0.238-3.125
			c0-5.581-1.006-5.075-4.563-9.375c-3.486-4.205-4.688-3.125-5.291-4.443c0.553-0.804,1.084-1.541,1.084-2.813
			c0-2.429-1.234-4.396-2.771-4.396c-1.521,0-2.771,1.97-2.771,4.396c0,1.271,0.289,2.143,0.849,2.938
			c-1.199,4.409-3.115,2.337-5.646,6.113c-1.021,1.531-2.156,2.436-2.156,4.291c0,1.563,0,2.461,0,4.021
			c0,2.229-0.724,3.479-0.724,5.696c0,1.896,0,2.979,0,4.86c0,0.42,0.354,0.72,0.772,0.72c1.291,0,1.771-1.604,1.604-2.875
			c-0.354-2.884,0.43-4.559,0.588-7.438c0.145-2.405,0.197-5.934,2.063-6.26c0.146,1.354-0.115,4.54-0.115,5.896
			c0,4.193,0.482,6.604,0.482,10.806c0,1.71,0.723,2.578,0.723,4.289c0,2.28,0,3.541,0,5.82c0,2.481,0.963,3.813,0.963,6.302
			c0,1.021,0,1.594,0,2.611c0,1.854,0.725,2.879,0.725,4.729c0,0.985,0,1.563,0,2.561l0.354,1.075
			c-0.657,0.963-2.577,1.229-2.041,2.313c0.567,0.094,0.896-0.024,1.476-0.024c0.633,0,0.963,0.354,1.596,0.354
			c0.654,0,1.261-0.479,1.261-1.146c0-1.104-0.724-1.612-0.724-2.729c0-2.13,0-3.332,0-5.461c0-1.051-0.237-2.094-0.237-3.146
			c0-3.726-0.115-4.331-0.115-8.061c0-1.314,0-2.764,0-4.084C234.809,506.392,233.964,504.948,234.441,503.478z"/>
		<path fill="none" stroke="#FA0F0C" stroke-miterlimit="3.8637" d="M234.441,503.478c1.473,0.87,1.297,0.239,3.008,0.239
			c0.063,0.36,0.844-0.119,0.844,0.24c0,2.281,0.836,3.687,0.836,5.968c0,6.188,0,9.631,0,15.813c0,2.459-0.506,2.92-0.715,5.381
			c1.168,0.028,0.955,0.709,2.125,0.709c0.99,0,1.563,0.354,2.552,0.354c0.601,0,1.319-0.182,1.319-0.771
			c0-0.729-0.99-0.604-1.439-1.146c-1.08-1.262-1.921-2.188-1.921-3.871c0-0.856,0-1.381,0-2.25c0-2.222-0.229-3.188-0.229-5.396
			c0-1.146,0.723-2.003,0.723-3.146c0-3.688-0.107-5.9-0.107-9.597c0-3.541,1.197-4.75,1.197-8.291c0-1.92,0.959-6.344,0.959-7.69
			c0-1.594-0.354-2.979-0.354-4.563c0-0.421,0.479-0.215,1.314,2.16c1.115,3.118,1.227,2.963,1.227,5.934
			c0,2.159,0.688,3.329,0.688,5.49l0.619,1.432c0.725-1.078,0.84-1.946,0.84-3.236c0-2.188-0.232-1.524-0.232-3.729
			c0-0.87-0.238-2.255-0.238-3.125c0-5.581-1.006-5.075-4.563-9.375c-3.486-4.205-4.688-3.125-5.291-4.443
			c0.553-0.804,1.084-1.541,1.084-2.813c0-2.429-1.234-4.396-2.771-4.396c-1.521,0-2.771,1.97-2.771,4.396
			c0,1.271,0.289,2.143,0.849,2.938c-1.199,4.409-3.115,2.337-5.646,6.113c-1.021,1.531-2.156,2.436-2.156,4.291
			c0,1.563,0,2.461,0,4.021c0,2.229-0.724,3.479-0.724,5.696c0,1.896,0,2.979,0,4.86c0,0.42,0.354,0.72,0.772,0.72
			c1.291,0,1.771-1.604,1.604-2.875c-0.354-2.884,0.43-4.559,0.588-7.438c0.145-2.405,0.197-5.934,2.063-6.26
			c0.146,1.354-0.115,4.54-0.115,5.896c0,4.193,0.482,6.604,0.482,10.806c0,1.71,0.723,2.578,0.723,4.289c0,2.28,0,3.541,0,5.82
			c0,2.481,0.963,3.813,0.963,6.302c0,1.021,0,1.594,0,2.611c0,1.854,0.725,2.879,0.725,4.729c0,0.985,0,1.563,0,2.561l0.354,1.075
			c-0.657,0.963-2.577,1.229-2.041,2.313c0.567,0.094,0.896-0.024,1.476-0.024c0.633,0,0.963,0.354,1.596,0.354
			c0.654,0,1.261-0.479,1.261-1.146c0-1.104-0.724-1.612-0.724-2.729c0-2.13,0-3.332,0-5.461c0-1.051-0.237-2.094-0.237-3.146
			c0-3.726-0.115-4.331-0.115-8.061c0-1.314,0-2.764,0-4.084C234.809,506.392,233.964,504.948,234.441,503.478z"/>
	</g>
</g>
<g>
	<g>
		
			<path fill="none" stroke="#CCCCCC" stroke-width="0.2" stroke-linecap="round" stroke-linejoin="round" stroke-miterlimit="10" d="
			M292.666,94.429v-11.76l14.799,9.04v11.76L292.666,94.429z"/>
		<polyline fill="#FFFFFF" stroke="#909090" stroke-miterlimit="10" points="292.666,94.429 307.465,103.469 307.465,91.709 
			292.666,82.669 292.666,94.429 		"/>
	</g>
	<g>
		<path fill="#FFFFFF" d="M292.426,82.75v11.68l-14.801,9.12V91.87L292.426,82.75z"/>
		<polyline fill="#FFFFFF" stroke="#909090" stroke-miterlimit="10" points="292.426,94.429 277.625,103.549 277.625,91.87 
			292.426,82.75 292.426,94.429 		"/>
	</g>
	<g>
		<path fill="#FFFFFF" d="M307.307,103.79l-14.801,9.04l-14.641-9.04l14.801-9.04L307.307,103.79z"/>
		<polyline fill="#FFFFFF" stroke="#909090" stroke-miterlimit="10" points="307.307,103.79 292.666,94.75 277.865,103.79 
			292.506,112.83 307.307,103.79 		"/>
	</g>
	<g>
		<path fill="#FFFFFF" d="M291.705,112.83l-14.801-9.12V92.03l14.801,9.121V112.83z"/>
		<polyline fill="#FFFFFF" stroke="#909090" stroke-miterlimit="10" points="291.705,112.83 291.705,101.15 276.906,92.029 
			276.906,103.709 291.705,112.83 		"/>
	</g>
	<g>
		<path fill="#FFFFFF" d="M276.666,103.79l-14.803,9.12v-11.681l14.803-9.12V103.79z"/>
		<polyline fill="#FFFFFF" stroke="#909090" stroke-miterlimit="10" points="261.865,112.91 261.865,101.229 276.666,92.109 
			276.666,103.79 261.865,112.91 		"/>
	</g>
	<g>
		<path fill="#FFFFFF" stroke="#909090" stroke-miterlimit="10" d="M262.105,113.15l14.801-9.12l14.72,9.12l-14.879,9.04
			L262.105,113.15z"/>
		
			<polyline fill="none" stroke="#CCCCCC" stroke-width="0.2" stroke-linecap="round" stroke-linejoin="round" stroke-miterlimit="10" points="
			262.105,113.15 276.746,122.19 291.625,113.15 276.906,104.03 262.105,113.15 		"/>
	</g>
	<g>
		<path fill="#FFFFFF" d="M260.906,113.549v-11.76l14.88,9.12v11.68L260.906,113.549z"/>
		<polyline fill="#FFFFFF" stroke="#909090" stroke-miterlimit="10" points="260.906,113.549 275.785,122.589 275.785,110.91 
			260.906,101.79 260.906,113.549 		"/>
	</g>
	<g>
		<path fill="#FFFFFF" stroke="#909090" stroke-miterlimit="10" d="M245.865,122.75v-11.76l14.801-9.04v11.68L245.865,122.75z"/>
		
			<polyline fill="none" stroke="#CCCCCC" stroke-width="0.2" stroke-linecap="round" stroke-linejoin="round" stroke-miterlimit="10" points="
			245.865,110.99 260.666,101.95 260.666,113.629 245.865,122.75 245.865,110.99 		"/>
	</g>
	<g>
		<path fill="#FFFFFF" stroke="#909090" stroke-miterlimit="10" d="M260.986,113.95l14.64,8.96l-14.799,9.12l-14.722-9.04
			L260.986,113.95z"/>
		
			<polyline fill="none" stroke="#CCCCCC" stroke-width="0.2" stroke-linecap="round" stroke-linejoin="round" stroke-miterlimit="10" points="
			260.986,113.95 246.105,122.99 260.826,132.03 275.625,122.91 260.986,113.95 		"/>
	</g>
	<g>
		<path fill="#FFFFFF" d="M244.506,123.87v-11.76l14.801,9.119v11.681L244.506,123.87z"/>
		<polyline fill="#FFFFFF" stroke="#909090" stroke-miterlimit="10" points="244.506,123.87 259.307,132.91 259.307,121.229 
			244.506,112.11 244.506,123.87 		"/>
	</g>
	<g>
		<path fill="#FFFFFF" d="M229.465,133.07v-11.761l14.801-9.039v11.68L229.465,133.07z"/>
		<polyline fill="#FFFFFF" stroke="#909090" stroke-miterlimit="10" points="229.465,121.309 244.266,112.27 244.266,123.95 
			229.465,133.07 229.465,121.309 		"/>
	</g>
	<g>
		<path fill="#FFFFFF" stroke="#909090" stroke-miterlimit="10" d="M244.506,124.19l14.641,9.039l-14.801,9.121l-14.641-9.041
			L244.506,124.19z"/>
		
			<polyline fill="none" stroke="#CCCCCC" stroke-width="0.2" stroke-linecap="round" stroke-linejoin="round" stroke-miterlimit="10" points="
			244.506,124.19 229.705,133.309 244.346,142.35 259.146,133.229 244.506,124.19 		"/>
	</g>
	<g>
		<path fill="#FFFFFF" d="M228.746,133.229v-11.68l14.879,9.04v11.761L228.746,133.229z"/>
		<polyline fill="#FFFFFF" stroke="#909090" stroke-miterlimit="10" points="228.746,133.229 243.625,142.35 243.625,130.589 
			228.746,121.549 228.746,133.229 		"/>
	</g>
	<g>
		<path fill="#FFFFFF" d="M213.705,142.429v-11.68l14.801-9.12v11.68L213.705,142.429z"/>
		<polyline fill="#FFFFFF" stroke="#909090" stroke-miterlimit="10" points="213.705,130.75 228.506,121.629 228.506,133.309 
			213.705,142.429 213.705,130.75 		"/>
	</g>
	<g>
		<path fill="#FFFFFF" d="M213.945,142.669l14.882-9.12l14.639,9.04l-14.879,9.12L213.945,142.669z"/>
		<polyline fill="#FFFFFF" stroke="#909090" stroke-miterlimit="10" points="213.945,142.669 228.586,151.709 243.465,142.589 
			228.826,133.549 213.945,142.669 		"/>
	</g>
	<g>
		<path fill="#FFFFFF" d="M227.625,140.429v11.681l-14.799-9.12v-11.681L227.625,140.429z"/>
		<polyline fill="#FFFFFF" stroke="#909090" stroke-miterlimit="10" points="227.625,140.429 212.826,131.309 212.826,142.99 
			227.625,152.11 227.625,140.429 		"/>
	</g>
	<g>
		<path fill="#FFFFFF" d="M197.705,152.19v-11.68l14.801-9.121v11.761L197.705,152.19z"/>
		<polyline fill="#FFFFFF" stroke="#909090" stroke-miterlimit="10" points="197.705,140.51 212.506,131.389 212.506,143.15 
			197.705,152.19 197.705,140.51 		"/>
	</g>
	<g>
		<path fill="#FFFFFF" stroke="#909090" stroke-miterlimit="10" d="M212.666,161.549l-14.643-9.12l14.803-9.04l14.639,9.04
			L212.666,161.549z"/>
		
			<polyline fill="none" stroke="#CCCCCC" stroke-width="0.2" stroke-linecap="round" stroke-linejoin="round" stroke-miterlimit="10" points="
			212.666,161.549 227.465,152.429 212.826,143.389 198.025,152.429 212.666,161.549 		"/>
	</g>
</g>
<g opacity="0.3">
	<path fill="#0860A8" d="M197.146,151.991l0.24-11.601c0-0.079,31.354-19.28,94.065-57.6l15.201,8.72v11.92l-94.479,58.16
		L197.146,151.991z"/>
</g>
<path fill="#C9C8CC" d="M74.463,61.889c-1.162-1.141-2.551-1.722-4.166-1.722H48.265h-1.199H25.035
	c-1.639,0-3.027,0.582-4.167,1.722c-1.141,1.16-1.722,2.529-1.722,4.167v13.228c0,1.64,0.581,3.008,1.722,4.147
	c1.141,1.16,2.529,1.742,4.167,1.742h22.031h1.199h22.03c1.617,0,3.006-0.58,4.168-1.742c1.14-1.141,1.699-2.509,1.699-4.147V66.056
	C76.163,64.417,75.603,63.048,74.463,61.889z"/>
<g enable-background="new    ">
	<path fill="#F70B0B" d="M535.098,250.623c-0.688,0.188-1.767,0.375-3.229,0.563c-1.475,0.188-2.922,0.278-4.358,0.278
		c-1.438,0-2.705-0.106-3.798-0.325c-1.094-0.222-2.016-0.609-2.766-1.175c-0.75-0.563-1.313-1.344-1.688-2.344
		c-0.375-0.999-0.563-2.312-0.563-3.938v-44.154c0-1.313,0.354-2.328,1.078-3.048c0.719-0.717,1.696-1.297,2.952-1.733
		c2.12-0.75,4.548-1.297,7.267-1.642c2.72-0.342,5.451-0.518,8.203-0.518c8.625,0,15.22,1.846,19.78,5.531
		c4.563,3.688,6.845,8.688,6.845,15c0,3.063-0.483,5.828-1.453,8.297c-0.971,2.473-2.405,4.596-4.313,6.375
		c-1.904,1.781-4.313,3.156-7.221,4.125c-2.904,0.973-6.267,1.453-10.078,1.453H535.1v17.255H535.098L535.098,250.623z
		 M539.973,220.529c2.625,0,4.646-0.609,6.047-1.828c1.406-1.22,2.109-3.078,2.109-5.578c0-2.375-0.734-4.203-2.203-5.481
		c-1.469-1.281-3.604-1.924-6.422-1.924c-1,0-1.828,0.018-2.484,0.049c-0.649,0.029-1.321,0.106-2.016,0.231v14.531H539.973z"/>
	<path fill="#F70B0B" d="M589.754,204.029c3.375,0,6.453,0.344,9.234,1.03c2.774,0.688,5.156,1.732,7.125,3.142
		c1.969,1.408,3.479,3.188,4.547,5.344c1.063,2.156,1.594,4.703,1.594,7.644v21c0,1.625-0.453,2.953-1.359,3.981
		c-0.899,1.031-1.979,1.923-3.229,2.673c-4.063,2.438-9.782,3.655-17.156,3.655c-3.313,0-6.297-0.313-8.951-0.938
		c-2.653-0.623-4.938-1.563-6.846-2.813s-3.375-2.844-4.404-4.781c-1.026-1.937-1.549-4.187-1.549-6.75
		c0-4.313,1.28-7.625,3.851-9.938c2.563-2.313,6.523-3.75,11.899-4.313l12.281-1.313v-0.655c0-1.813-0.797-3.106-2.396-3.892
		c-1.594-0.78-3.891-1.172-6.891-1.172c-2.376,0-4.688,0.25-6.938,0.75c-2.25,0.502-4.281,1.125-6.099,1.875
		c-0.813-0.563-1.5-1.42-2.063-2.578c-0.563-1.155-0.845-2.357-0.845-3.608c0-1.625,0.391-2.921,1.172-3.892
		c0.777-0.969,1.979-1.795,3.604-2.483c1.813-0.688,3.953-1.187,6.423-1.5C585.238,204.187,587.564,204.029,589.754,204.029z
		 M590.504,240.873c1.063,0,2.234-0.106,3.516-0.328c1.281-0.219,2.234-0.516,2.859-0.891v-7.5l-6.75,0.563
		c-1.75,0.126-3.188,0.501-4.313,1.125c-1.125,0.625-1.688,1.563-1.688,2.813c0,1.251,0.483,2.266,1.453,3.047
		C586.551,240.483,588.191,240.873,590.504,240.873z"/>
	<path fill="#F70B0B" d="M660.439,237.404c0,4.75-1.78,8.47-5.349,11.155c-3.563,2.687-8.813,4.029-15.75,4.029
		c-2.625,0-5.063-0.188-7.313-0.563s-4.173-0.953-5.771-1.734c-1.594-0.779-2.846-1.766-3.75-2.953
		c-0.901-1.187-1.354-2.593-1.354-4.219c0-1.5,0.313-2.766,0.938-3.797c0.625-1.031,1.375-1.891,2.25-2.578
		c1.813,1,3.896,1.893,6.233,2.672c2.344,0.782,5.046,1.172,8.104,1.172c1.938,0,3.426-0.279,4.453-0.844
		c1.031-0.563,1.547-1.313,1.547-2.25c0-0.875-0.375-1.563-1.125-2.063s-2-0.905-3.75-1.222L637,233.648
		c-5.438-1.063-9.484-2.732-12.141-5.017c-2.657-2.28-3.984-5.547-3.984-9.798c0-2.313,0.499-4.404,1.5-6.279
		c0.999-1.875,2.404-3.438,4.22-4.688c1.813-1.25,3.983-2.219,6.521-2.906c2.526-0.688,5.321-1.029,8.391-1.029
		c2.313,0,4.482,0.174,6.517,0.517c2.03,0.344,3.801,0.858,5.301,1.547s2.688,1.579,3.563,2.672
		c0.874,1.097,1.313,2.394,1.313,3.894c0,1.438-0.271,2.672-0.8,3.703c-0.53,1.028-1.203,1.891-2.021,2.576
		c-0.501-0.313-1.251-0.642-2.25-0.982c-1.001-0.344-2.095-0.656-3.278-0.938c-1.188-0.279-2.394-0.518-3.604-0.702
		c-1.22-0.188-2.329-0.28-3.328-0.28c-2.063,0-3.656,0.231-4.781,0.703c-1.125,0.469-1.688,1.203-1.688,2.202
		c0,0.688,0.312,1.251,0.938,1.688c0.624,0.438,1.813,0.844,3.563,1.219l2.901,0.656c6,1.375,10.271,3.268,12.798,5.672
		C659.176,230.481,660.439,233.593,660.439,237.404z"/>
	<path fill="#F70B0B" d="M692.688,252.498c-3.688,0-7.104-0.517-10.267-1.547c-3.155-1.031-5.905-2.578-8.25-4.642
		c-2.344-2.063-4.188-4.654-5.53-7.78c-1.346-3.125-2.017-6.781-2.017-10.97c0-4.125,0.671-7.672,2.017-10.643
		c1.349-2.968,3.107-5.402,5.297-7.313c2.188-1.906,4.688-3.313,7.5-4.221c2.813-0.904,5.688-1.357,8.625-1.357
		c3.313,0,6.328,0.501,9.052,1.5c2.721,1,5.063,2.376,7.026,4.125c1.974,1.75,3.5,3.844,4.599,6.281
		c1.095,2.437,1.643,5.095,1.643,7.969c0,2.125-0.595,3.75-1.781,4.875c-1.188,1.125-2.845,1.844-4.969,2.156l-23.154,3.469
		c0.688,2.063,2.097,3.607,4.224,4.641c2.123,1.031,4.563,1.547,7.313,1.547c2.563,0,4.982-0.326,7.271-0.982
		c2.275-0.655,4.143-1.42,5.576-2.297c0.998,0.625,1.848,1.5,2.528,2.625c0.688,1.125,1.031,2.313,1.031,3.563
		c0,2.813-1.313,4.907-3.938,6.281c-2,1.063-4.25,1.78-6.75,2.155C697.219,252.312,694.875,252.498,692.688,252.498z
		 M690.063,215.654c-1.5,0-2.797,0.25-3.892,0.75c-1.095,0.501-1.983,1.141-2.672,1.922c-0.688,0.782-1.204,1.655-1.547,2.625
		c-0.345,0.97-0.548,1.954-0.609,2.953l16.031-2.625c-0.188-1.25-0.876-2.499-2.063-3.75
		C694.125,216.279,692.375,215.654,690.063,215.654z"/>
	<path fill="#F70B0B" d="M767.219,228.217c0,3.876-0.594,7.328-1.773,10.359c-1.188,3.032-2.859,5.578-5.021,7.641
		c-2.156,2.063-4.729,3.625-7.729,4.688c-3,1.063-6.352,1.594-10.031,1.594c-3.688,0-7.031-0.563-10.031-1.688
		s-5.578-2.733-7.729-4.828c-2.156-2.094-3.828-4.644-5.021-7.644c-1.188-3-1.78-6.375-1.78-10.125c0-3.688,0.601-7.028,1.78-10.028
		c1.188-3,2.858-5.547,5.021-7.644c2.148-2.094,4.729-3.703,7.729-4.828s6.345-1.688,10.031-1.688c3.686,0,7.031,0.578,10.031,1.732
		c3,1.157,5.571,2.781,7.729,4.875c2.156,2.098,3.828,4.643,5.021,7.643C766.626,221.278,767.219,224.593,767.219,228.217z
		 M734.406,228.217c0,3.813,0.729,6.735,2.203,8.769c1.469,2.034,3.516,3.047,6.141,3.047s4.641-1.031,6.047-3.094
		s2.109-4.971,2.109-8.721s-0.726-6.642-2.156-8.673c-1.438-2.028-3.469-3.047-6.094-3.047s-4.656,1.019-6.094,3.047
		C735.125,221.576,734.406,224.467,734.406,228.217z"/>
</g>
<g>
	<g>
		<path fill="#A4E1F4" d="M377.582,182.669c0.799-0.8,1.438-1.76,1.92-2.72c0.399-1.12,0.646-2.24,0.646-3.439V21.79
			c0-1.12-0.24-2.24-0.646-3.36c-0.479-1.04-1.121-1.84-1.92-2.64c-0.802-0.8-1.681-1.52-2.722-1.92
			c-1.039-0.48-2.16-0.72-3.358-0.72H20.222c-1.2,0-2.32,0.24-3.359,0.72c-1.04,0.4-2,1.12-2.801,1.92c-0.8,0.8-1.359,1.6-1.84,2.64
			c-0.479,1.121-0.72,2.24-0.72,3.36v154.72c0,1.199,0.24,2.319,0.72,3.439c0.48,0.96,1.04,1.92,1.84,2.72
			c0.801,0.8,1.761,1.359,2.801,1.841c1.039,0.479,2.159,0.72,3.359,0.72h351.28c1.198,0,2.319-0.239,3.358-0.72
			C375.902,184.03,376.78,183.469,377.582,182.669"/>
	</g>
</g>
<text transform="matrix(1 0 0 1 511.8262 329.4287)" fill="#F70B0B" font-family="'BalooDa'" font-size="93.75">Paseo</text>
<g>
	<path fill="#DD7878" d="M508.656,378.028c1.063-0.623,2.672-1.219,4.828-1.78c2.152-0.562,4.322-0.845,6.516-0.845
		c3.125,0,5.891,0.455,8.297,1.359c2.404,0.902,3.952,2.325,4.641,4.266c1.125,3.25,2.348,7.031,3.656,11.345
		c1.313,4.313,2.625,8.767,3.938,13.358c1.313,4.594,2.594,9.127,3.845,13.594c1.25,4.47,2.344,8.424,3.28,11.855
		c-0.75,0.878-1.875,1.58-3.375,2.109s-3.28,0.797-5.345,0.797c-1.5,0-2.769-0.126-3.8-0.375c-1.027-0.25-1.875-0.624-2.527-1.125
		c-0.655-0.5-1.188-1.156-1.598-1.969c-0.402-0.813-0.766-1.749-1.075-2.813l-1.688-6.47H511.28c-0.502,1.875-1,3.813-1.5,5.813
		c-0.502,2-1,3.938-1.5,5.813c-0.877,0.313-1.797,0.577-2.771,0.797c-0.97,0.222-2.142,0.328-3.516,0.328
		c-3.188,0-5.548-0.548-7.078-1.641c-1.532-1.097-2.297-2.609-2.297-4.547c0-0.875,0.125-1.75,0.375-2.625
		c0.249-0.875,0.53-1.906,0.844-3.098c0.438-1.688,1.046-3.78,1.828-6.28c0.78-2.5,1.643-5.201,2.578-8.106
		c0.935-2.906,1.937-5.894,3-8.953c1.063-3.063,2.063-5.953,3-8.672c0.937-2.72,1.796-5.144,2.577-7.269
		C507.609,380.78,508.218,379.153,508.656,378.028z M519.906,390.123c-0.877,2.625-1.86,5.547-2.953,8.767
		c-1.094,3.219-2.078,6.483-2.953,9.797h11.625c-0.876-3.375-1.768-6.672-2.672-9.892c-0.906-3.22-1.734-6.108-2.484-8.672H519.906z
		"/>
	<path fill="#DD7878" d="M551.406,410.373c0-4.125,0.625-7.702,1.875-10.733s2.979-5.547,5.203-7.548
		c2.219-2,4.813-3.483,7.776-4.452c2.974-0.97,6.177-1.453,9.609-1.453c1.25,0,2.469,0.108,3.655,0.328
		c1.188,0.219,2.152,0.483,2.902,0.797v-15.188c0.625-0.188,1.625-0.391,3-0.607c1.375-0.221,2.78-0.328,4.223-0.328
		c1.375,0,2.604,0.097,3.703,0.279c1.094,0.188,2.017,0.563,2.767,1.125s1.313,1.328,1.688,2.299
		c0.375,0.969,0.563,2.233,0.563,3.797v44.438c0,2.938-1.375,5.281-4.125,7.031c-1.813,1.188-4.156,2.23-7.031,3.141
		s-6.188,1.359-9.938,1.359c-4.063,0-7.703-0.563-10.922-1.688c-3.223-1.125-5.938-2.75-8.155-4.875
		c-2.22-2.124-3.906-4.672-5.063-7.642C551.984,417.483,551.406,414.123,551.406,410.373z M578.029,398.653
		c-3.375,0-5.973,0.971-7.779,2.906c-1.813,1.938-2.719,4.875-2.719,8.813c0,3.876,0.844,6.797,2.531,8.768
		c1.687,1.972,4.125,2.951,7.313,2.951c1.125,0,2.141-0.172,3.047-0.517c0.905-0.342,1.607-0.733,2.107-1.173v-20.625
		C581.279,399.028,579.779,398.653,578.029,398.653z"/>
	<path fill="#DD7878" d="M630.154,386.185c2.563,0,5.078,0.36,7.547,1.078c2.471,0.719,4.605,1.797,6.424,3.234
		c1.875-1.25,3.982-2.281,6.326-3.094c2.346-0.813,5.173-1.219,8.48-1.219c2.375,0,4.699,0.313,6.981,0.938
		c2.278,0.625,4.313,1.609,6.094,2.953c1.781,1.345,3.202,3.125,4.271,5.344c1.063,2.219,1.596,4.922,1.596,8.109v29.527
		c-0.625,0.188-1.609,0.375-2.953,0.563c-1.346,0.188-2.733,0.281-4.172,0.281c-1.375,0-2.61-0.098-3.703-0.281
		c-1.096-0.188-2.018-0.563-2.768-1.125c-0.75-0.563-1.328-1.327-1.732-2.297c-0.407-0.97-0.608-2.234-0.608-3.797v-22.406
		c0-1.875-0.526-3.231-1.595-4.078c-1.063-0.844-2.5-1.269-4.313-1.269c-0.875,0-1.813,0.203-2.813,0.609
		c-1,0.405-1.75,0.827-2.25,1.266c0.063,0.25,0.096,0.484,0.096,0.703c0,0.222,0,0.422,0,0.607v31.22
		c-0.688,0.188-1.7,0.375-3.049,0.563c-1.345,0.188-2.703,0.281-4.076,0.281c-1.375,0-2.604-0.098-3.7-0.281
		c-1.099-0.188-2.021-0.563-2.771-1.125c-0.75-0.563-1.328-1.327-1.729-2.297c-0.403-0.971-0.605-2.234-0.605-3.797v-22.406
		c0-1.875-0.578-3.234-1.729-4.078c-1.158-0.844-2.555-1.266-4.18-1.266c-1.125,0-2.095,0.172-2.898,0.516
		c-0.813,0.344-1.5,0.672-2.063,0.984v32.902c-0.625,0.188-1.604,0.375-2.953,0.563c-1.345,0.188-2.729,0.28-4.172,0.28
		c-1.375,0-2.606-0.097-3.703-0.28c-1.095-0.188-2.017-0.563-2.767-1.125c-0.75-0.563-1.328-1.327-1.733-2.297
		c-0.403-0.972-0.604-2.234-0.604-3.798V398.09c0-1.688,0.354-3.03,1.078-4.03c0.717-1,1.699-1.938,2.953-2.813
		c2.121-1.5,4.766-2.721,7.922-3.656C623.42,386.653,626.718,386.185,630.154,386.185z"/>
	<path fill="#DD7878" d="M687.249,374.935c0-2.375,0.797-4.373,2.391-6c1.599-1.625,3.703-2.438,6.328-2.438
		s4.734,0.813,6.328,2.438c1.594,1.627,2.396,3.625,2.396,6c0,2.377-0.802,4.375-2.396,6c-1.594,1.627-3.703,2.438-6.328,2.438
		s-4.729-0.812-6.328-2.438C688.046,379.31,687.249,377.312,687.249,374.935z M703.938,433.06c-0.688,0.125-1.701,0.301-3.048,0.52
		c-1.346,0.22-2.704,0.328-4.077,0.328c-1.377,0-2.604-0.098-3.699-0.28c-1.1-0.188-2.021-0.563-2.771-1.125
		c-0.75-0.562-1.329-1.327-1.729-2.298c-0.405-0.969-0.605-2.233-0.605-3.797V388.25c0.688-0.125,1.7-0.296,3.047-0.519
		c1.35-0.219,2.702-0.328,4.078-0.328c1.373,0,2.604,0.097,3.703,0.281c1.092,0.188,2.016,0.563,2.766,1.125
		c0.75,0.562,1.326,1.328,1.734,2.297c0.4,0.973,0.604,2.233,0.604,3.797v38.155L703.938,433.06L703.938,433.06z"/>
	<path fill="#DD7878" d="M711.249,425.56c0-2.625,0.812-4.813,2.438-6.563c1.619-1.749,3.844-2.625,6.648-2.625
		s5.029,0.876,6.656,2.625c1.624,1.75,2.438,3.938,2.438,6.563s-0.813,4.813-2.438,6.563c-1.627,1.749-3.852,2.625-6.656,2.625
		c-2.813,0-5.029-0.876-6.648-2.625C712.061,430.374,711.249,428.185,711.249,425.56z"/>
	<path fill="#DD7878" d="M743.216,391.342l-9.375,2.906c-0.938-0.624-1.875-1.5-2.813-2.625c-0.938-1.125-1.405-2.687-1.405-4.688
		c0-3.75,2.28-6.375,6.844-7.875l10.5-3.563h3.469c2.688,0,4.813,0.781,6.375,2.344c1.563,1.563,2.352,3.688,2.352,6.375v48.844
		c-0.688,0.125-1.702,0.301-3.051,0.52c-1.348,0.22-2.699,0.328-4.074,0.328s-2.608-0.098-3.702-0.28
		c-1.099-0.188-2.021-0.563-2.771-1.125c-0.75-0.562-1.325-1.327-1.729-2.298c-0.406-0.969-0.609-2.233-0.609-3.797L743.216,391.342
		L743.216,391.342z"/>
</g>
<rect x="12.078" y="127.105" fill="#D1CDCD" width="370.457" height="49.208"/>
<g enable-background="new    ">
	<text transform="matrix(1 0 0 1 84.1621 164.1104)" fill="#A3A2A2" font-family="'BalooDa'" font-size="48">Mayorista</text>
</g>
<g>
	<g>
		<path fill="#A3A2A2" d="M84.187,116.248c-0.688,0.188-1.767,0.375-3.232,0.563c-1.47,0.188-2.922,0.281-4.358,0.281
			c-1.438,0-2.705-0.109-3.798-0.328c-1.094-0.219-2.016-0.607-2.766-1.172c-0.75-0.563-1.313-1.344-1.688-2.344
			c-0.375-0.999-0.563-2.313-0.563-3.938V65.154c0-1.313,0.358-2.328,1.078-3.047c0.718-0.72,1.701-1.298,2.953-1.734
			c2.123-0.75,4.547-1.297,7.266-1.641c2.719-0.345,5.451-0.518,8.203-0.518c8.625,0,15.219,1.845,19.781,5.531
			c4.562,3.688,6.844,8.688,6.844,15c0,3.063-0.484,5.828-1.453,8.297c-0.971,2.47-2.406,4.595-4.313,6.375
			c-1.907,1.781-4.313,3.156-7.22,4.125c-2.905,0.97-6.267,1.453-10.078,1.453h-6.654L84.187,116.248L84.187,116.248z
			 M89.062,86.154c2.625,0,4.643-0.609,6.048-1.828c1.405-1.22,2.108-3.078,2.108-5.578c0-2.375-0.733-4.203-2.203-5.484
			c-1.469-1.279-3.607-1.922-6.422-1.922c-1,0-1.828,0.016-2.483,0.047c-0.655,0.032-1.327,0.109-2.017,0.234v14.531H89.062z"/>
		<path fill="#A3A2A2" d="M138.843,69.654c3.375,0,6.453,0.344,9.234,1.03c2.779,0.688,5.156,1.733,7.125,3.142
			c1.969,1.405,3.481,3.188,4.547,5.344c1.063,2.156,1.594,4.703,1.594,7.641v21c0,1.627-0.453,2.953-1.358,3.984
			c-0.904,1.031-1.982,1.922-3.232,2.672c-4.063,2.438-9.782,3.656-17.156,3.656c-3.313,0-6.297-0.313-8.953-0.938
			c-2.655-0.625-4.938-1.563-6.844-2.813c-1.906-1.25-3.375-2.844-4.406-4.781c-1.03-1.937-1.547-4.187-1.547-6.75
			c0-4.313,1.28-7.625,3.845-9.938c2.563-2.313,6.529-3.75,11.905-4.313l12.281-1.313v-0.656c0-1.813-0.797-3.107-2.393-3.891
			c-1.595-0.781-3.892-1.173-6.892-1.173c-2.376,0-4.688,0.25-6.938,0.75s-4.281,1.125-6.094,1.875
			c-0.813-0.563-1.5-1.422-2.063-2.577c-0.563-1.156-0.845-2.358-0.845-3.609c0-1.625,0.391-2.921,1.173-3.891
			c0.78-0.97,1.982-1.798,3.607-2.484c1.813-0.688,3.953-1.188,6.423-1.5C134.327,69.81,136.653,69.654,138.843,69.654z
			 M139.593,106.498c1.063,0,2.234-0.107,3.517-0.328c1.28-0.219,2.233-0.516,2.858-0.891v-7.5l-6.75,0.563
			c-1.75,0.126-3.188,0.501-4.313,1.125c-1.125,0.625-1.688,1.563-1.688,2.813c0,1.251,0.483,2.266,1.453,3.047
			C135.64,106.107,137.28,106.498,139.593,106.498z"/>
		<path fill="#A3A2A2" d="M209.527,103.029c0,4.75-1.779,8.47-5.344,11.155c-3.563,2.687-8.813,4.03-15.75,4.03
			c-2.625,0-5.063-0.188-7.313-0.563s-4.172-0.953-5.767-1.734c-1.595-0.78-2.847-1.766-3.75-2.953
			c-0.906-1.187-1.358-2.593-1.358-4.219c0-1.5,0.313-2.768,0.938-3.797c0.625-1.031,1.375-1.891,2.25-2.578
			c1.813,1,3.893,1.892,6.233,2.672c2.345,0.782,5.046,1.172,8.108,1.172c1.938,0,3.423-0.28,4.452-0.844
			c1.031-0.563,1.548-1.313,1.548-2.25c0-0.875-0.375-1.563-1.125-2.063s-2.003-0.903-3.75-1.219l-2.813-0.563
			c-5.438-1.063-9.484-2.733-12.141-5.017c-2.657-2.281-3.984-5.547-3.984-9.798c0-2.312,0.499-4.405,1.5-6.28
			c0.999-1.875,2.405-3.438,4.221-4.688c1.813-1.25,3.982-2.218,6.517-2.906c2.53-0.688,5.326-1.03,8.391-1.03
			c2.313,0,4.483,0.172,6.518,0.517c2.029,0.344,3.797,0.858,5.297,1.547c1.5,0.688,2.688,1.579,3.563,2.672
			c0.874,1.094,1.313,2.391,1.313,3.891c0,1.438-0.268,2.672-0.797,3.703c-0.531,1.031-1.205,1.893-2.021,2.578
			c-0.501-0.313-1.251-0.641-2.25-0.984c-1.001-0.342-2.095-0.654-3.275-0.938c-1.188-0.281-2.396-0.516-3.606-0.703
			c-1.22-0.187-2.329-0.281-3.328-0.281c-2.063,0-3.656,0.234-4.781,0.703c-1.125,0.469-1.688,1.204-1.688,2.203
			c0,0.688,0.312,1.251,0.938,1.688c0.624,0.438,1.813,0.844,3.563,1.219l2.904,0.656c6,1.375,10.268,3.267,12.795,5.672
			C208.266,96.107,209.527,99.217,209.527,103.029z"/>
		<path fill="#A3A2A2" d="M241.777,118.123c-3.688,0-7.11-0.516-10.271-1.547c-3.152-1.031-5.902-2.578-8.25-4.642
			c-2.344-2.063-4.188-4.654-5.527-7.78c-1.349-3.125-2.02-6.781-2.02-10.97c0-4.125,0.671-7.672,2.02-10.642
			c1.347-2.968,3.104-5.405,5.297-7.313c2.188-1.904,4.688-3.313,7.5-4.219c2.813-0.903,5.688-1.358,8.627-1.358
			c3.313,0,6.326,0.502,9.05,1.5c2.719,1,5.063,2.377,7.026,4.125c1.974,1.75,3.5,3.845,4.599,6.28
			c1.093,2.438,1.641,5.097,1.641,7.97c0,2.125-0.595,3.75-1.778,4.875c-1.188,1.125-2.848,1.845-4.972,2.155l-23.151,3.471
			c0.688,2.063,2.092,3.607,4.219,4.641c2.123,1.031,4.563,1.547,7.313,1.547c2.563,0,4.983-0.327,7.271-0.982
			c2.275-0.656,4.143-1.423,5.574-2.298c0.998,0.625,1.85,1.5,2.529,2.625c0.688,1.125,1.031,2.313,1.031,3.563
			c0,2.813-1.313,4.907-3.938,6.281c-2,1.063-4.25,1.78-6.75,2.155C246.309,117.935,243.964,118.123,241.777,118.123z
			 M239.152,81.279c-1.502,0-2.799,0.25-3.896,0.75c-1.095,0.501-1.98,1.141-2.672,1.922c-0.688,0.78-1.204,1.655-1.547,2.625
			c-0.348,0.97-0.549,1.954-0.605,2.953l16.027-2.625c-0.188-1.25-0.876-2.499-2.063-3.75
			C243.214,81.904,241.464,81.279,239.152,81.279z"/>
		<path fill="#A3A2A2" d="M316.308,93.841c0,3.876-0.594,7.328-1.772,10.359c-1.188,3.031-2.859,5.578-5.021,7.641
			c-2.148,2.063-4.729,3.625-7.729,4.688s-6.352,1.594-10.031,1.594c-3.688,0-7.027-0.563-10.027-1.688s-5.576-2.731-7.73-4.828
			c-2.155-2.094-3.827-4.641-5.02-7.641c-1.188-3-1.779-6.375-1.779-10.125c0-3.688,0.597-7.031,1.779-10.031
			c1.188-3,2.855-5.545,5.02-7.641c2.154-2.094,4.73-3.703,7.73-4.828s6.346-1.688,10.027-1.688s7.031,0.578,10.031,1.733
			c3,1.156,5.578,2.78,7.729,4.875c2.156,2.095,3.828,4.642,5.021,7.642C315.715,86.904,316.308,90.217,316.308,93.841z
			 M283.495,93.841c0,3.813,0.733,6.735,2.203,8.766c1.469,2.031,3.516,3.049,6.141,3.049s4.642-1.031,6.047-3.096
			c1.406-2.063,2.109-4.969,2.109-8.719s-0.719-6.641-2.156-8.672c-1.438-2.029-3.469-3.047-6.094-3.047s-4.656,1.018-6.095,3.047
			C284.214,87.201,283.495,90.091,283.495,93.841z"/>
	</g>
</g>
<text transform="matrix(1 0 0 1 13.2188 274.793)" fill="#DD7878" font-family="'BalooDa'" font-size="93.75">PB.28/27</text>
<text transform="matrix(1 0 0 1 73.168 327.1738)" fill="#DD7878" font-family="'BalooDa'" font-size="48">LOCALES</text>
<text transform="matrix(1 0 0 1 483.5273 532.8896)" fill="#F70B0B" font-family="'BalooDa'" font-size="93.75">PBx.2</text>
<text transform="matrix(1 0 0 1 501.7188 583.4092)" fill="#F70B0B" font-family="'BalooDa'" font-size="48">Duplex.2</text>
<use xlink:href="#New_Symbol"  width="24.084" height="81.864" x="-12.042" y="-40.933" transform="matrix(1 0 0 -1 257.4648 430.9502)" overflow="visible"/>
</svg>
