<?xml version="1.0" encoding="UTF-8" standalone="no"?>
<!-- Generator: Adobe Illustrator 16.0.2, SVG Export Plug-In . SVG Version: 6.00 Build 0)  -->

<svg
   xmlns:dc="http://purl.org/dc/elements/1.1/"
   xmlns:cc="http://creativecommons.org/ns#"
   xmlns:rdf="http://www.w3.org/1999/02/22-rdf-syntax-ns#"
   xmlns:svg="http://www.w3.org/2000/svg"
   xmlns="http://www.w3.org/2000/svg"
   xmlns:xlink="http://www.w3.org/1999/xlink"
   xmlns:sodipodi="http://sodipodi.sourceforge.net/DTD/sodipodi-0.dtd"
   xmlns:inkscape="http://www.inkscape.org/namespaces/inkscape"
   version="1.1"
   id="svg9"
   inkscape:version="0.92.3 (2405546, 2018-03-11)"
   sodipodi:docname="aeo_aplicaciones.svg"
   x="0px"
   y="0px"
   width="143.932px"
   height="25.326px"
   viewBox="0 0 143.932 25.326"
   enable-background="new 0 0 143.932 25.326"
   xml:space="preserve"><metadata
   id="metadata11304"><rdf:RDF><cc:Work
       rdf:about=""><dc:format>image/svg+xml</dc:format><dc:type
         rdf:resource="http://purl.org/dc/dcmitype/StillImage" /></cc:Work></rdf:RDF></metadata><defs
   id="defs11302"><linearGradient
     gradientTransform="matrix(0.81232525,0,0,0.82767953,-198.19896,41.774895)"
     inkscape:collect="always"
     xlink:href="#linearGradient1680-1"
     id="linearGradient1682"
     x1="-36.398651"
     y1="1438.5735"
     x2="570.96973"
     y2="1437.568"
     gradientUnits="userSpaceOnUse" /><linearGradient
     inkscape:collect="always"
     id="linearGradient1680-1"><stop
       style="stop-color:#cccccc;stop-opacity:1;"
       offset="0"
       id="stop1676" /><stop
       style="stop-color:#cccccc;stop-opacity:0;"
       offset="1"
       id="stop1678" /></linearGradient></defs>
<sodipodi:namedview
   id="namedview11"
   inkscape:cx="128.20237"
   borderopacity="1"
   inkscape:zoom="15.578702"
   inkscape:cy="2.6829886"
   pagecolor="#ffffff"
   showgrid="false"
   bordercolor="#111111"
   inkscape:window-maximized="1"
   inkscape:pagecheckerboard="1"
   inkscape:window-width="1920"
   inkscape:showpageshadow="0"
   inkscape:pageopacity="0"
   inkscape:deskcolor="#d1d1d1"
   inkscape:window-x="-8"
   inkscape:window-y="-8"
   inkscape:window-height="1057"
   inkscape:current-layer="layer6">
	<inkscape:page
   x="0"
   width="552.47662"
   y="0"
   height="504.95132"
   id="page15" />
</sodipodi:namedview>
<g
   id="g17"
   transform="matrix(1.3333333,0,0,-1.3333333,-138.36684,1585.994)"
   inkscape:groupmode="layer"
   inkscape:label="Page 1">
	<path
   style="fill:#1cf2e2;stroke-width:1.33333325"
   d="M 14.228516 0.5859375 A 11.984 11.984 0 0 0 2.2460938 12.570312 A 11.984 11.984 0 0 0 14.228516 24.554688 A 11.984 11.984 0 0 0 14.615234 24.535156 L 131.54883 24.535156 A 11.984 11.984 0 0 0 131.94727 24.554688 A 11.984 11.984 0 0 0 143.93164 12.570312 A 11.984 11.984 0 0 0 132.47656 0.61328125 L 132.47656 0.58789062 L 14.285156 0.58789062 A 11.984 11.984 0 0 0 14.228516 0.5859375 z "
   transform="matrix(0.75000002,0,0,-0.75000002,103.77513,1189.4955)"
   id="path13047" />
</g><g
   inkscape:groupmode="layer"
   id="layer6"
   inkscape:label="Page 2"><circle
     style=""
     id="path13047_2_"
     fill="#F9F7F7"
     cx="131.947"
     cy="12.571"
     r="9.587" /><g
     id="g11348"
     transform="matrix(0.06666666,0,0,-0.06666666,126.62335,94.511898)"><path
       d="m -131.64905,1054.4011 c -9.56569,0 -17.32007,7.9011 -17.32007,17.6479 v 320.8077 c 0,9.7468 7.75438,17.6478 17.32007,17.6478 h 348.77729 c 9.56578,0 17.32016,-7.901 17.32016,-17.6478 V 1072.049 c 0,-9.7468 -7.75438,-17.6479 -17.32016,-17.6479 z"
       style="display:inline;fill:url(#linearGradient1682);fill-opacity:1;fill-rule:nonzero;stroke:none;stroke-width:1.64013791;stroke-linecap:butt;stroke-linejoin:miter;stroke-miterlimit:3.86369991;stroke-dasharray:none;stroke-opacity:1"
       id="path883"
       inkscape:connector-curvature="0" /><path
       d="m -51.329026,1329.0382 c 0,42.603 35.3116,76.636 78.2436,76.636 37.2098,0 64.72269,-24.906 72.4378,-58.818 1.901996,-0.112 3.831696,-0.242 4.725996,-0.242 42.9321,0 78.24359,-34.033 78.24359,-76.636 0,-21.254 -11.72919,-58.33 -39.55409,-66.665 l -87.022796,-134.374 -109.8021,91.266 c -35.8105,6.858 -63.168204,37.721 -63.168204,75.211 0,39.153 29.828204,71.071 67.981904,75.98 -1.3644,5.669 -2.0857,11.577 -2.0857,17.642 z"
       style="display:inline;fill:#ffffff;fill-opacity:1;fill-rule:nonzero;stroke:none;stroke-width:0.99999994"
       id="path1023"
       inkscape:connector-curvature="0" /><path
       d="m 110.75767,1337.4112 c 60.3651,-12.831 69.4255,-92.287 18.7841,-121.116 l -55.255306,-85.426 -27.99079,101.004 c -37.8753999,46.547 2.7265,118.66 64.461996,105.538 z"
       style="display:inline;fill:#999999;fill-opacity:1;fill-rule:nonzero;stroke:#999999;stroke-width:2.5;stroke-linecap:butt;stroke-linejoin:miter;stroke-miterlimit:3.86369991;stroke-dasharray:none;stroke-opacity:1"
       id="path1025"
       inkscape:connector-curvature="0" /><path
       d="m 31.784974,1385.2642 c 36.20869,0 65.5609,-29.352 65.5609,-65.561 0,-19.492 -8.5138,-37.002 -22.0051,-49.002 l -36.2867,-95.048 -48.3792099,92.977 c -14.9004001,12.008 -24.4506001,30.427 -24.4506001,51.073 0,36.209 29.3521101,65.561 65.56071,65.561 z"
       style="display:inline;fill:#999999;fill-opacity:1;fill-rule:nonzero;stroke:#999999;stroke-width:2.5;stroke-linecap:butt;stroke-linejoin:miter;stroke-miterlimit:3.86369991;stroke-dasharray:none;stroke-opacity:1"
       id="path1027"
       inkscape:connector-curvature="0" /><path
       d="m -43.660526,1300.6452 c 57.2126,23.115 109.16539,-37.681 83.3,-89.905 l 1.9608,-101.72 -79.6857,68.084 c -57.4357,17.412 -64.086504,99.901 -5.5751,123.541 z"
       style="display:inline;fill:#999999;fill-opacity:1;fill-rule:nonzero;stroke:#999999;stroke-width:2.5;stroke-linecap:butt;stroke-linejoin:miter;stroke-miterlimit:3.86369991;stroke-dasharray:none;stroke-opacity:1"
       id="path1029"
       inkscape:connector-curvature="0" /><path
       d="m 51.846974,1280.5102 c 36.2087,0 65.560896,-29.352 65.560896,-65.561 0,-19.568 -8.5804,-37.139 -22.163296,-49.142 l -38.15801,-83.809 -46.25909,81.805 c -14.9523999,12.006 -24.54131,30.458 -24.54131,51.146 0,36.209 29.35221,65.561 65.56081,65.561 z"
       style="display:inline;fill:#999999;fill-opacity:1;fill-rule:nonzero;stroke:#999999;stroke-width:2.5;stroke-linecap:butt;stroke-linejoin:miter;stroke-miterlimit:3.86369991;stroke-dasharray:none;stroke-opacity:1"
       id="path1031"
       inkscape:connector-curvature="0" /><path
       d="m 108.15877,1325.1842 c -51.781596,11.006 -82.877796,-49.308 -50.543696,-87.351 l 21.2868,-76.813 41.869696,64.732 c 42.93479,23.039 38.3638,88.596 -12.6128,99.432 z"
       style="display:inline;fill:#00ccff;fill-opacity:1;fill-rule:nonzero;stroke:#00ccff;stroke-width:2.5;stroke-linecap:butt;stroke-linejoin:miter;stroke-miterlimit:3.86369991;stroke-dasharray:none;stroke-opacity:1"
       id="path1033"
       inkscape:connector-curvature="0" /><path
       d="m 31.784974,1372.7642 c -29.3050999,0 -53.0607,-23.756 -53.0607,-53.061 0,-17.5 8.1279,-32.36 21.7835001,-42.89 l 36.7918999,-70.708 27.4961,72.022 c 12.6628,10.708 20.05009,24.733 20.05009,41.576 0,29.305 -23.75569,53.061 -53.06089,53.061 z"
       style="display:inline;fill:#ff9900;fill-opacity:1;fill-rule:nonzero;stroke:#ff9900;stroke-width:2.5;stroke-linecap:butt;stroke-linejoin:miter;stroke-miterlimit:3.86369991;stroke-dasharray:none;stroke-opacity:1"
       id="path1035"
       inkscape:connector-curvature="0" /><path
       d="m -38.977926,1289.0552 c -49.0888,-19.833 -41.1293,-87.225 6.9436,-100.68 l 60.6008,-51.778 -1.4859,77.078 c 22.7148,43.116 -17.7416999,94.902 -66.0585,75.38 z"
       style="display:inline;fill:#000066;fill-opacity:1;fill-rule:nonzero;stroke:#666666;stroke-width:2.5;stroke-linecap:butt;stroke-linejoin:miter;stroke-miterlimit:3.86369991;stroke-dasharray:none;stroke-opacity:1"
       id="path1037"
       inkscape:connector-curvature="0" /><path
       d="m 51.846974,1268.0102 c -29.3051,0 -53.0607999,-23.755 -53.0607999,-53.061 0,-17.425 8.0822,-32.324 21.6933999,-42.82 l 35.4035,-62.608 29.1327,63.986 c 12.5426,10.606 19.892096,24.788 19.892096,41.442 0,29.306 -23.755696,53.061 -53.060896,53.061 z"
       style="display:inline;fill:#ff00ff;fill-opacity:1;fill-rule:nonzero;stroke:#ff00ff;stroke-width:2.5;stroke-linecap:butt;stroke-linejoin:miter;stroke-miterlimit:3.86369991;stroke-dasharray:none;stroke-opacity:1"
       id="path1039"
       inkscape:connector-curvature="0" /></g></g>



<text
   transform="matrix(1 0 0 1 18.6584 17.5292)"
   fill="#61A372"
   font-family="'Bahnschrift'"
   font-size="14"
   id="text11299">APLICACIONES</text>

</svg>