<?xml version="1.0" encoding="UTF-8" standalone="no"?>
<!-- Generator: Adobe Illustrator 16.0.2, SVG Export Plug-In . SVG Version: 6.00 Build 0)  -->

<svg
   xmlns:dc="http://purl.org/dc/elements/1.1/"
   xmlns:cc="http://creativecommons.org/ns#"
   xmlns:rdf="http://www.w3.org/1999/02/22-rdf-syntax-ns#"
   xmlns:svg="http://www.w3.org/2000/svg"
   xmlns="http://www.w3.org/2000/svg"
   xmlns:sodipodi="http://sodipodi.sourceforge.net/DTD/sodipodi-0.dtd"
   xmlns:inkscape="http://www.inkscape.org/namespaces/inkscape"
   version="1.1"
   id="svg9"
   inkscape:version="0.92.3 (2405546, 2018-03-11)"
   sodipodi:docname="aeo_gaby.svg"
   x="0px"
   y="0px"
   width="82.964px"
   height="25.877px"
   viewBox="0 0 82.964 25.877"
   enable-background="new 0 0 82.964 25.877"
   xml:space="preserve"><metadata
   id="metadata3219"><rdf:RDF><cc:Work
       rdf:about=""><dc:format>image/svg+xml</dc:format><dc:type
         rdf:resource="http://purl.org/dc/dcmitype/StillImage" /></cc:Work></rdf:RDF></metadata><defs
   id="defs3217" />
<sodipodi:namedview
   id="namedview11"
   inkscape:cx="6.0641752"
   borderopacity="1"
   inkscape:zoom="4.0256705"
   inkscape:cy="26.478089"
   pagecolor="#ffffff"
   showgrid="false"
   bordercolor="#111111"
   inkscape:window-maximized="1"
   inkscape:pagecheckerboard="1"
   inkscape:window-width="1920"
   inkscape:showpageshadow="0"
   inkscape:pageopacity="0"
   inkscape:deskcolor="#d1d1d1"
   inkscape:window-x="-8"
   inkscape:window-y="-8"
   inkscape:window-height="1057"
   inkscape:current-layer="svg9">
	<inkscape:page
   x="0"
   width="552.47662"
   y="0"
   height="504.95132"
   id="page15" />
</sodipodi:namedview>

<path
   d="M 13.619141 1.1367188 A 11.984 11.984 0 0 0 1.6347656 13.121094 A 11.984 11.984 0 0 0 13.619141 25.105469 A 11.984 11.984 0 0 0 14.398438 25.076172 L 14.398438 25.085938 L 68.095703 25.085938 L 68.095703 25.039062 A 11.984 11.984 0 0 0 69.337891 25.105469 A 11.984 11.984 0 0 0 81.320312 13.121094 A 11.984 11.984 0 0 0 69.337891 1.1367188 A 11.984 11.984 0 0 0 68.095703 1.2148438 L 68.095703 1.1386719 L 14.398438 1.1386719 L 14.398438 1.1757812 A 11.984 11.984 0 0 0 13.619141 1.1367188 z "
   id="path13047"
   style="fill:#37abc8;fill-opacity:1" />


<circle
   id="path13047_2_"
   fill="#F9F7F7"
   cx="69.337"
   cy="13.122"
   r="9.587" />
<g
   enable-background="new    "
   id="g3210"
   style="fill:#00ffff;fill-opacity:1">
	<text
   transform="translate(12.0474,18.0801)"
   font-size="14"
   id="text3208"
   style="font-size:14px;font-family:Bahnschrift;fill:#00ffff;fill-opacity:1">GABY</text>


</g>
<g
   id="g17_1_"
   transform="matrix(1.3333333,0,0,-1.3333333,-138.36684,1585.994)"
   inkscape:groupmode="layer"
   inkscape:label="Page 1">
	
</g>

</svg>