<?xml version="1.0" encoding="UTF-8" standalone="no"?>
<!-- Generator: Adobe Illustrator 16.0.2, SVG Export Plug-In . SVG Version: 6.00 Build 0)  -->

<svg
   xmlns:dc="http://purl.org/dc/elements/1.1/"
   xmlns:cc="http://creativecommons.org/ns#"
   xmlns:rdf="http://www.w3.org/1999/02/22-rdf-syntax-ns#"
   xmlns:svg="http://www.w3.org/2000/svg"
   xmlns="http://www.w3.org/2000/svg"
   xmlns:sodipodi="http://sodipodi.sourceforge.net/DTD/sodipodi-0.dtd"
   xmlns:inkscape="http://www.inkscape.org/namespaces/inkscape"
   version="1.1"
   id="svg9"
   inkscape:version="0.92.3 (2405546, 2018-03-11)"
   sodipodi:docname="aeo_bros.svg"
   x="0px"
   y="0px"
   width="82.964px"
   height="25.877px"
   viewBox="0 0 82.964 25.877"
   enable-background="new 0 0 82.964 25.877"
   xml:space="preserve"><metadata
   id="metadata3219"><rdf:RDF><cc:Work
       rdf:about=""><dc:format>image/svg+xml</dc:format><dc:type
         rdf:resource="http://purl.org/dc/dcmitype/StillImage" /></cc:Work></rdf:RDF></metadata><defs
   id="defs3217"><marker
     inkscape:stockid="Arrow1Lstart"
     orient="auto"
     refY="0.0"
     refX="0.0"
     id="Arrow1Lstart"
     style="overflow:visible"
     inkscape:isstock="true"><path
       id="path3405"
       d="M 0.0,0.0 L 5.0,-5.0 L -12.5,0.0 L 5.0,5.0 L 0.0,0.0 z "
       style="fill-rule:evenodd;stroke:none;stroke-width:1pt;stroke-opacity:1;fill:#000000;fill-opacity:1"
       transform="scale(0.8) translate(12.5,0)" /></marker><clipPath
     id="clipPath16527-0"
     clipPathUnits="userSpaceOnUse"><path
       inkscape:connector-curvature="0"
       id="path16525-4"
       d="m 13230.525,4896.8577 c 20.556,0 47.098,-15.4538 53.669,-44.121 0.246,-1.0873 0.634,-2.455 0.961,-3.7246 0.319,-1.2411 0.631,-2.5737 0.631,-3.4532 v -136.2778 c 0,-0.8965 -0.543,-2.9871 -1.092,-5.0819 -0.57,-2.177 -1.238,-4.6596 -1.624,-6.5865 -4.299,-21.6421 -33.997,-39.6303 -48.582,-39.6303 h -135.712 c -1.63,0 -9.128,1.9273 -13.524,3.323 -23.053,7.5158 -38.341,32.1483 -38.341,50.6645 v 130.9003 c 0,1.6108 2.051,11.0517 3.814,16.7641 7.25,23.2749 33.433,37.2234 51.447,37.2234 z" /></clipPath><clipPath
     id="clipPath16539-5"
     clipPathUnits="userSpaceOnUse"><path
       inkscape:connector-curvature="0"
       id="path16537-2"
       d="m 13061.225,4832.7895 c 0,27.4296 22.236,49.6651 49.666,49.6651 h 111.534 c 27.43,0 49.666,-22.2355 49.666,-49.6651 v -111.5348 c 0,-27.4297 -22.236,-49.6652 -49.666,-49.6652 h -111.534 c -27.43,0 -49.666,22.2355 -49.666,49.6652 z" /></clipPath></defs>
<sodipodi:namedview
   id="namedview11"
   inkscape:cx="67.005972"
   borderopacity="1"
   inkscape:zoom="24.741656"
   inkscape:cy="9.8880222"
   pagecolor="#ffffff"
   showgrid="false"
   bordercolor="#111111"
   inkscape:window-maximized="1"
   inkscape:pagecheckerboard="1"
   inkscape:window-width="1920"
   inkscape:showpageshadow="0"
   inkscape:pageopacity="0"
   inkscape:deskcolor="#d1d1d1"
   inkscape:window-x="-8"
   inkscape:window-y="-8"
   inkscape:window-height="1057"
   inkscape:current-layer="svg9"
   inkscape:lockguides="true">
	<inkscape:page
   x="0"
   width="552.47662"
   y="0"
   height="504.95132"
   id="page15" />
</sodipodi:namedview>

<path
   d="M 13.619141 1.1367188 A 11.984 11.984 0 0 0 1.6347656 13.121094 A 11.984 11.984 0 0 0 13.619141 25.105469 A 11.984 11.984 0 0 0 14.398438 25.076172 L 14.398438 25.085938 L 68.095703 25.085938 L 68.095703 25.039062 A 11.984 11.984 0 0 0 69.337891 25.105469 A 11.984 11.984 0 0 0 81.320312 13.121094 A 11.984 11.984 0 0 0 69.337891 1.1367188 A 11.984 11.984 0 0 0 68.095703 1.2148438 L 68.095703 1.1386719 L 14.398438 1.1386719 L 14.398438 1.1757812 A 11.984 11.984 0 0 0 13.619141 1.1367188 z "
   id="path13047"
   style="fill:#37abc8;fill-opacity:1" />


<circle
   id="path13047_2_"
   fill="#F9F7F7"
   cx="69.337"
   cy="13.122"
   r="9.587"
   style="fill:#ffffff" />
<g
   enable-background="new    "
   id="g3210"
   style="fill:#00ffff;fill-opacity:1">
	<text
   transform="matrix(1 0 0 1 12.0474 18.0801)"
   fill="#61A372"
   font-family="'Bahnschrift'"
   font-size="14"
   id="text3208"
   style="fill:#00ffff;fill-opacity:1">BROS</text>


</g>
<g
   id="g17_1_"
   transform="matrix(1.3333333,0,0,-1.3333333,-138.36684,1585.994)"
   inkscape:groupmode="layer"
   inkscape:label="Page 1">
	
</g>

<g
   id="g3747"
   transform="matrix(0.2,0,0,0.2,81.014294,17.047731)"><rect
     style="fill:#ffffff;fill-opacity:1;stroke:none;stroke-width:1.79999995;stroke-linecap:round;stroke-linejoin:round;stroke-miterlimit:4;stroke-dasharray:none;stroke-opacity:1"
     id="rect3729"
     width="100.60029"
     height="100.60029"
     x="-124.58494"
     y="-69.158424"
     ry="27.799999" /><rect
     ry="25.019999"
     y="-63.898003"
     x="-119.48535"
     height="90.54026"
     width="90.54026"
     id="rect3717"
     style="fill:#eb879f;fill-opacity:1;stroke:none;stroke-width:1.62;stroke-linecap:round;stroke-linejoin:round;stroke-miterlimit:4;stroke-dasharray:none;stroke-opacity:1" /><path
     sodipodi:nodetypes="cscccsssssccccccccccccscscc"
     inkscape:connector-curvature="0"
     id="path2596"
     d="m -69.494654,-58.465921 c -6.83039,-0.538131 -17.18903,2.035061 -20.9823,4.952966 -4.82067,3.708207 -5.47113,5.333884 -9.045043,9.445471 -3.573923,4.111587 -6.047143,9.469203 -6.548833,17.998047 l 0.99804,0.05859 c 0.49193,-8.362752 -7.04119,26.17052496 -3.59763,22.208922 3.44355,-3.961602 4.0648,19.510988 8.931958,15.76702 4.63013,-3.5616343 3.691898,-1.537144 12.637738,0.821861 8.94583,2.359005 3.797692,2.887553 6.598742,12.995704 2.83391,10.226715 17.586942,-4.195323 15.666272,1.048424 -1.92067,5.243746 27.374983,-2.593712 25.601713,-0.187124 -1.76476,2.395025 -12.528437,-27.18349095 -12.737227,-26.17433795 -0.1044,0.504576 -0.0934,0.87808105 -0.0391,1.14453105 0.0272,0.133224 0.064,0.238824 0.10156,0.318359 0.0122,0.02576 0.0172,0.02933 0.0312,0.05273 l 7.44921,17.3808639 0.91993,-0.392579 -7.47852,-17.4511709 -0.0195,-0.02344 c -0.004,-0.009 -0.0145,-0.03265 -0.0254,-0.08594 -0.0232,-0.113922 -0.0428,-0.34434 0.0391,-0.74023405 0.16382,-0.791789 0.74606,-2.23195395 2.45898,-4.55663995 1.70441,-2.313122 4.87547,-5.74003 6.86719,-11.1777341 1.99172,-5.437704 2.79935,-12.892237 -0.0801,-23.283204 -2.91228,-10.509534 -11.65987,-16.526412 -20.84765,-18.949219 -2.29694,-0.605702 -4.62359,-0.992498 -6.90039,-1.171875 z"
     style="color:#000000;font-style:normal;font-variant:normal;font-weight:normal;font-stretch:normal;font-size:medium;line-height:normal;font-family:sans-serif;font-variant-ligatures:normal;font-variant-position:normal;font-variant-caps:normal;font-variant-numeric:normal;font-variant-alternates:normal;font-feature-settings:normal;text-indent:0;text-align:start;text-decoration:none;text-decoration-line:none;text-decoration-style:solid;text-decoration-color:#000000;letter-spacing:normal;word-spacing:normal;text-transform:none;writing-mode:lr-tb;direction:ltr;text-orientation:mixed;dominant-baseline:auto;baseline-shift:baseline;text-anchor:start;white-space:normal;shape-padding:0;clip-rule:nonzero;display:inline;overflow:visible;visibility:visible;opacity:1;isolation:auto;mix-blend-mode:normal;color-interpolation:sRGB;color-interpolation-filters:linearRGB;solid-color:#000000;solid-opacity:1;vector-effect:none;fill:#ffffff;fill-opacity:1;fill-rule:nonzero;stroke:#ffffff;stroke-width:2.4000001;stroke-linecap:round;stroke-linejoin:round;stroke-miterlimit:4;stroke-dasharray:none;stroke-dashoffset:0;stroke-opacity:1;color-rendering:auto;image-rendering:auto;shape-rendering:auto;text-rendering:auto;enable-background:accumulate" /><path
     sodipodi:nodetypes="ccsc"
     inkscape:connector-curvature="0"
     id="path3687"
     d="m -81.47711,20.660478 c 0,0 -3.229276,-4.968116 -3.726088,-5.961739 -0.496811,-0.993624 0,-2.484059 -3.974493,-2.484059 -3.974493,0 -12.668699,3.477682 -15.649569,-3.7260869 0,0 -0.99362,-9.43942134 -1.49043,-10.9298563 -0.49681,-1.4904349 -1.98725,-1.4904349 -3.47768,-1.4904349 -1.49044,0 -3.47769,0.2484058 -1.73885,-4.2228991 1.73885,-4.4713048 7.45947,-17.7976598 6.46143,-17.8562498"
     style="fill:none;stroke:#ffffff;stroke-width:3.29999995;stroke-linecap:round;stroke-linejoin:round;stroke-miterlimit:4;stroke-dasharray:none;stroke-opacity:1" /><ellipse
     transform="rotate(-21.949978)"
     ry="9.5180836"
     rx="16.292233"
     cy="-60.139355"
     cx="-61.314209"
     id="path3707"
     style="fill:#eb879f;fill-opacity:1;stroke:#eb879f;stroke-width:1.79999995;stroke-linecap:round;stroke-linejoin:round;stroke-miterlimit:4;stroke-dasharray:none;stroke-opacity:1" /><ellipse
     style="fill:#eb879f;fill-opacity:1;stroke:#eb879f;stroke-width:1.71603662;stroke-linecap:round;stroke-linejoin:round;stroke-miterlimit:4;stroke-dasharray:none;stroke-opacity:1"
     id="ellipse3709"
     cx="-76.346817"
     cy="-11.825254"
     rx="14.903578"
     ry="8.7294397"
     transform="matrix(0.94375776,0.33063771,-0.28386798,0.95886337,0,0)" /><ellipse
     style="fill:#eb879f;fill-opacity:1;stroke:#eb879f;stroke-width:1.41453767;stroke-linecap:round;stroke-linejoin:round;stroke-miterlimit:4;stroke-dasharray:none;stroke-opacity:1"
     id="ellipse3711"
     cx="-72.398346"
     cy="-6.8242154"
     rx="13.589777"
     ry="7.0469599"
     transform="matrix(0.95161174,0.30730295,-0.39984088,0.91658457,0,0)" /><g
     style="stroke:#483737;stroke-opacity:1"
     id="g3727"><path
       style="fill:none;stroke:#800000;stroke-width:1.79999995;stroke-linecap:round;stroke-linejoin:round;stroke-miterlimit:4;stroke-dasharray:none;stroke-opacity:1"
       d="m -82.824022,-32.400386 c -1.972998,-3.841049 -3.213643,-8.771317 3.256186,-12.35681 5.694541,-2.274172 9.782338,-1.04548 10.603479,3.590155"
       id="path3691"
       inkscape:connector-curvature="0"
       sodipodi:nodetypes="ccc" /><path
       style="fill:none;stroke:#800000;stroke-width:1.79999995;stroke-linecap:round;stroke-linejoin:round;stroke-miterlimit:4;stroke-dasharray:none;stroke-opacity:1"
       d="m -91.089726,-32.066418 c -0.883125,-4.534069 0.414893,-8.155884 7.180309,-7.848244"
       id="path3699"
       inkscape:connector-curvature="0"
       sodipodi:nodetypes="cc" /><path
       style="fill:none;stroke:#800000;stroke-width:1.79999995;stroke-linecap:round;stroke-linejoin:round;stroke-miterlimit:4;stroke-dasharray:none;stroke-opacity:1"
       d="m -88.084015,-32.650862 c -6.585913,0.67927 -5.451642,3.674596 -5.677454,6.261897 1.698787,3.758239 5.00987,4.303362 8.850148,3.005711"
       id="path3693"
       inkscape:connector-curvature="0"
       sodipodi:nodetypes="ccc" /><path
       inkscape:connector-curvature="0"
       id="path3701"
       d="m -69.966261,-43.838784 c 3.121346,-1.928341 7.961671,-3.08021 9.852052,2.755235"
       style="fill:none;stroke:#800000;stroke-width:1.79999995;stroke-linecap:butt;stroke-linejoin:miter;stroke-miterlimit:4;stroke-dasharray:none;stroke-opacity:1"
       sodipodi:nodetypes="cc" /><path
       style="fill:none;stroke:#800000;stroke-width:1.79999995;stroke-linecap:round;stroke-linejoin:round;stroke-miterlimit:4;stroke-dasharray:none;stroke-opacity:1"
       d="m -84.911321,-27.89182 c -0.63071,5.173613 3.088876,6.038056 6.679356,5.093009 2.995028,-1.420291 5.288193,-5.468116 1.920316,-9.017131"
       id="path3697"
       inkscape:connector-curvature="0"
       sodipodi:nodetypes="ccc" /><path
       style="fill:none;stroke:#800000;stroke-width:1.79999995;stroke-linecap:round;stroke-linejoin:round;stroke-miterlimit:4;stroke-dasharray:none;stroke-opacity:1"
       d="m -69.047849,-34.988636 c 2.927492,-2.772866 5.493048,-6.072183 10.770463,-5.426978 2.05273,1.766808 4.93429,1.875956 3.172694,11.271415 1.87347,1.464663 4.695201,1.463858 2.58825,6.762848 -2.473166,1.908822 -5.072241,1.531334 -9.100623,-1.669839 -2.938259,-3.254713 -3.011237,-6.151265 1.168888,-8.51618"
       id="path3695"
       inkscape:connector-curvature="0"
       sodipodi:nodetypes="cccccc" /><path
       style="fill:none;stroke:#800000;stroke-width:1.79999995;stroke-linecap:round;stroke-linejoin:round;stroke-miterlimit:4;stroke-dasharray:none;stroke-opacity:1"
       d="m -76.144665,-24.635634 c 3.529692,3.679702 6.73979,4.056929 9.601575,0.83492 2.037189,2.037331 4.198892,2.954044 6.679356,1.001903"
       id="path3703"
       inkscape:connector-curvature="0"
       sodipodi:nodetypes="ccc" /><path
       style="fill:none;stroke:#800000;stroke-width:1.79999995;stroke-linecap:round;stroke-linejoin:round;stroke-miterlimit:4;stroke-dasharray:none;stroke-opacity:1"
       d="m -79.31736,-37.409903 c 0,0 3.339679,-2.337775 7.430784,-0.08349 0,0 3.256187,0.75143 3.84063,5.677455"
       id="path3689"
       inkscape:connector-curvature="0"
       sodipodi:nodetypes="ccc" /></g></g><g
   transform="matrix(0.2,0,0,0.2,108.99375,62.007821)"
   id="g3919"><rect
     ry="27.799999"
     y="-69.158424"
     x="-124.58494"
     height="100.60029"
     width="100.60029"
     id="rect3887"
     style="fill:#ffffff;fill-opacity:1;stroke:none;stroke-width:1.79999995;stroke-linecap:round;stroke-linejoin:round;stroke-miterlimit:4;stroke-dasharray:none;stroke-opacity:1" /><rect
     style="fill:#f5eedb;fill-opacity:1;stroke:none;stroke-width:1.62;stroke-linecap:round;stroke-linejoin:round;stroke-miterlimit:4;stroke-dasharray:none;stroke-opacity:1"
     id="rect3889"
     width="90.54026"
     height="90.54026"
     x="-119.48535"
     y="-63.898003"
     ry="25.019999" /><path
     style="color:#000000;font-style:normal;font-variant:normal;font-weight:normal;font-stretch:normal;font-size:medium;line-height:normal;font-family:sans-serif;font-variant-ligatures:normal;font-variant-position:normal;font-variant-caps:normal;font-variant-numeric:normal;font-variant-alternates:normal;font-feature-settings:normal;text-indent:0;text-align:start;text-decoration:none;text-decoration-line:none;text-decoration-style:solid;text-decoration-color:#000000;letter-spacing:normal;word-spacing:normal;text-transform:none;writing-mode:lr-tb;direction:ltr;text-orientation:mixed;dominant-baseline:auto;baseline-shift:baseline;text-anchor:start;white-space:normal;shape-padding:0;clip-rule:nonzero;display:inline;overflow:visible;visibility:visible;opacity:1;isolation:auto;mix-blend-mode:normal;color-interpolation:sRGB;color-interpolation-filters:linearRGB;solid-color:#000000;solid-opacity:1;vector-effect:none;fill:#c87137;fill-opacity:1;fill-rule:nonzero;stroke:#483737;stroke-width:2.4000001;stroke-linecap:round;stroke-linejoin:round;stroke-miterlimit:4;stroke-dasharray:none;stroke-dashoffset:0;stroke-opacity:1;color-rendering:auto;image-rendering:auto;shape-rendering:auto;text-rendering:auto;enable-background:accumulate"
     d="m -69.494654,-58.465921 c -6.83039,-0.538131 -17.18903,2.035061 -20.9823,4.952966 -4.82067,3.708207 -5.47113,5.333884 -9.045043,9.445471 -3.573923,4.111587 -6.047143,9.469203 -6.548833,17.998047 l 0.99804,0.05859 c 0.49193,-8.362752 2.86114,-13.438788 6.304696,-17.400391 3.44355,-3.961602 5.27733,-6.558407 10.14449,-10.302375 4.63013,-3.561634 16.82764,-4.972645 25.77348,-2.61364 8.94583,2.359005 17.33761,8.141849 20.13866,18.25 2.83391,10.226715 2.02614,17.428129 0.10547,22.671876 -1.92067,5.243746 -4.95915,8.5211461 -6.73242,10.9277341 -1.76476,2.395025 -2.42402,3.93811195 -2.63281,4.94726495 -0.1044,0.504576 -0.0934,0.87808105 -0.0391,1.14453105 0.0272,0.133224 0.064,0.238824 0.10156,0.318359 0.0122,0.02576 0.0172,0.02933 0.0312,0.05273 l 7.44921,17.3808639 0.91993,-0.392579 -7.47852,-17.4511709 -0.0195,-0.02344 c -0.004,-0.009 -0.0145,-0.03265 -0.0254,-0.08594 -0.0232,-0.113922 -0.0428,-0.34434 0.0391,-0.74023405 0.16382,-0.791789 0.74606,-2.23195395 2.45898,-4.55663995 1.70441,-2.313122 4.87547,-5.74003 6.86719,-11.1777341 1.99172,-5.437704 2.79935,-12.892237 -0.0801,-23.283204 -2.91228,-10.509534 -11.65987,-16.526412 -20.84765,-18.949219 -2.29694,-0.605702 -4.62359,-0.992498 -6.90039,-1.171875 z"
     id="path3891"
     inkscape:connector-curvature="0"
     sodipodi:nodetypes="cscccsssssccccccccccccscscc" /><path
     style="fill:none;stroke:#483737;stroke-width:3.29999995;stroke-linecap:round;stroke-linejoin:round;stroke-miterlimit:4;stroke-dasharray:none;stroke-opacity:1"
     d="m -81.47711,20.660478 c 0,0 -3.229276,-4.968116 -3.726088,-5.961739 -0.496811,-0.993624 0,-2.484059 -3.974493,-2.484059 -3.974493,0 -12.668699,3.477682 -15.649569,-3.7260869 0,0 -0.99362,-9.43942134 -1.49043,-10.9298563 -0.49681,-1.4904349 -1.98725,-1.4904349 -3.47768,-1.4904349 -1.49044,0 -3.47769,0.2484058 -1.73885,-4.2228991 1.73885,-4.4713048 7.45947,-17.7976598 6.46143,-17.8562498"
     id="path3893"
     inkscape:connector-curvature="0"
     sodipodi:nodetypes="ccsc" /><ellipse
     style="fill:#eb879f;fill-opacity:1;stroke:#eb879f;stroke-width:1.79999995;stroke-linecap:round;stroke-linejoin:round;stroke-miterlimit:4;stroke-dasharray:none;stroke-opacity:1"
     id="ellipse3895"
     cx="-61.314209"
     cy="-60.139355"
     rx="16.292233"
     ry="9.5180836"
     transform="rotate(-21.949978)" /><ellipse
     transform="matrix(0.94375776,0.33063771,-0.28386798,0.95886337,0,0)"
     ry="8.7294397"
     rx="14.903578"
     cy="-11.825254"
     cx="-76.346817"
     id="ellipse3897"
     style="fill:#eb879f;fill-opacity:1;stroke:#eb879f;stroke-width:1.71376634;stroke-linecap:round;stroke-linejoin:round;stroke-miterlimit:4;stroke-dasharray:none;stroke-opacity:1" /><ellipse
     transform="matrix(0.95161174,0.30730295,-0.39984088,0.91658457,0,0)"
     ry="7.0469599"
     rx="13.589777"
     cy="-6.8242154"
     cx="-72.398346"
     id="ellipse3899"
     style="fill:#eb879f;fill-opacity:1;stroke:#eb879f;stroke-width:1.41453767;stroke-linecap:round;stroke-linejoin:round;stroke-miterlimit:4;stroke-dasharray:none;stroke-opacity:1" /><g
     id="g3917"
     style="stroke:#483737;stroke-opacity:1"><path
       sodipodi:nodetypes="ccc"
       inkscape:connector-curvature="0"
       id="path3901"
       d="m -82.824022,-32.400386 c -1.972998,-3.841049 -3.213643,-8.771317 3.256186,-12.35681 5.694541,-2.274172 9.782338,-1.04548 10.603479,3.590155"
       style="fill:none;stroke:#483737;stroke-width:1.79999995;stroke-linecap:round;stroke-linejoin:round;stroke-miterlimit:4;stroke-dasharray:none;stroke-opacity:1" /><path
       sodipodi:nodetypes="cc"
       inkscape:connector-curvature="0"
       id="path3903"
       d="m -91.089726,-32.066418 c -0.883125,-4.534069 0.414893,-8.155884 7.180309,-7.848244"
       style="fill:none;stroke:#483737;stroke-width:1.79999995;stroke-linecap:round;stroke-linejoin:round;stroke-miterlimit:4;stroke-dasharray:none;stroke-opacity:1" /><path
       sodipodi:nodetypes="ccc"
       inkscape:connector-curvature="0"
       id="path3905"
       d="m -88.084015,-32.650862 c -6.585913,0.67927 -5.451642,3.674596 -5.677454,6.261897 1.698787,3.758239 5.00987,4.303362 8.850148,3.005711"
       style="fill:none;stroke:#483737;stroke-width:1.79999995;stroke-linecap:round;stroke-linejoin:round;stroke-miterlimit:4;stroke-dasharray:none;stroke-opacity:1" /><path
       sodipodi:nodetypes="cc"
       style="fill:none;stroke:#483737;stroke-width:1.79999995;stroke-linecap:butt;stroke-linejoin:miter;stroke-miterlimit:4;stroke-dasharray:none;stroke-opacity:1"
       d="m -69.966261,-43.838784 c 3.121346,-1.928341 7.961671,-3.08021 9.852052,2.755235"
       id="path3907"
       inkscape:connector-curvature="0" /><path
       sodipodi:nodetypes="ccc"
       inkscape:connector-curvature="0"
       id="path3909"
       d="m -84.911321,-27.89182 c -0.63071,5.173613 3.088876,6.038056 6.679356,5.093009 2.995028,-1.420291 5.288193,-5.468116 1.920316,-9.017131"
       style="fill:none;stroke:#483737;stroke-width:1.79999995;stroke-linecap:round;stroke-linejoin:round;stroke-miterlimit:4;stroke-dasharray:none;stroke-opacity:1" /><path
       sodipodi:nodetypes="cccccc"
       inkscape:connector-curvature="0"
       id="path3911"
       d="m -69.047849,-34.988636 c 2.927492,-2.772866 5.493048,-6.072183 10.770463,-5.426978 2.05273,1.766808 4.93429,1.875956 3.172694,11.271415 1.87347,1.464663 4.695201,1.463858 2.58825,6.762848 -2.473166,1.908822 -5.072241,1.531334 -9.100623,-1.669839 -2.938259,-3.254713 -3.011237,-6.151265 1.168888,-8.51618"
       style="fill:none;stroke:#483737;stroke-width:1.79999995;stroke-linecap:round;stroke-linejoin:round;stroke-miterlimit:4;stroke-dasharray:none;stroke-opacity:1" /><path
       sodipodi:nodetypes="ccc"
       inkscape:connector-curvature="0"
       id="path3913"
       d="m -76.144665,-24.635634 c 3.529692,3.679702 6.73979,4.056929 9.601575,0.83492 2.037189,2.037331 4.198892,2.954044 6.679356,1.001903"
       style="fill:none;stroke:#483737;stroke-width:1.79999995;stroke-linecap:round;stroke-linejoin:round;stroke-miterlimit:4;stroke-dasharray:none;stroke-opacity:1" /><path
       sodipodi:nodetypes="ccc"
       inkscape:connector-curvature="0"
       id="path3915"
       d="m -79.31736,-37.409903 c 0,0 3.339679,-2.337775 7.430784,-0.08349 0,0 3.256187,0.75143 3.84063,5.677455"
       style="fill:none;stroke:#483737;stroke-width:1.79999995;stroke-linecap:round;stroke-linejoin:round;stroke-miterlimit:4;stroke-dasharray:none;stroke-opacity:1" /></g></g></svg>