<?xml version="1.0" encoding="UTF-8" standalone="no"?>
<!-- Generator: Adobe Illustrator 16.0.2, SVG Export Plug-In . SVG Version: 6.00 Build 0)  -->

<svg
   xmlns:dc="http://purl.org/dc/elements/1.1/"
   xmlns:cc="http://creativecommons.org/ns#"
   xmlns:rdf="http://www.w3.org/1999/02/22-rdf-syntax-ns#"
   xmlns:svg="http://www.w3.org/2000/svg"
   xmlns="http://www.w3.org/2000/svg"
   xmlns:sodipodi="http://sodipodi.sourceforge.net/DTD/sodipodi-0.dtd"
   xmlns:inkscape="http://www.inkscape.org/namespaces/inkscape"
   version="1.1"
   id="svg9"
   inkscape:version="0.92.3 (2405546, 2018-03-11)"
   sodipodi:docname="aeo_omni.svg"
   x="0px"
   y="0px"
   width="113.336px"
   height="26.428px"
   viewBox="0 0 113.336 26.428"
   enable-background="new 0 0 113.336 26.428"
   xml:space="preserve"><metadata
   id="metadata3441"><rdf:RDF><cc:Work
       rdf:about=""><dc:format>image/svg+xml</dc:format><dc:type
         rdf:resource="http://purl.org/dc/dcmitype/StillImage" /></cc:Work></rdf:RDF></metadata><defs
   id="defs3439" />
<sodipodi:namedview
   id="namedview11"
   inkscape:cx="57.988675"
   borderopacity="1"
   inkscape:zoom="5.8282095"
   inkscape:cy="-21.603624"
   pagecolor="#ffffff"
   showgrid="false"
   bordercolor="#111111"
   inkscape:window-maximized="1"
   inkscape:pagecheckerboard="1"
   inkscape:window-width="1920"
   inkscape:showpageshadow="0"
   inkscape:pageopacity="0"
   inkscape:deskcolor="#d1d1d1"
   inkscape:window-x="-8"
   inkscape:window-y="-8"
   inkscape:window-height="1057"
   inkscape:current-layer="svg9">
	<inkscape:page
   x="0"
   width="552.47662"
   y="0"
   height="504.95132"
   id="page15" />
</sodipodi:namedview>

<path
   d="M 13.619141 1.1367188 A 11.984 11.984 0 0 0 1.6347656 13.121094 A 11.984 11.984 0 0 0 13.619141 25.105469 A 11.984 11.984 0 0 0 14.398438 25.076172 L 14.398438 25.085938 L 98.949219 25.085938 A 11.984 11.984 0 0 0 99.335938 25.105469 A 11.984 11.984 0 0 0 99.865234 25.085938 A 11.984 11.984 0 0 0 111.32031 13.121094 A 11.984 11.984 0 0 0 99.865234 1.1640625 L 99.865234 1.1386719 L 99.375 1.1386719 A 11.984 11.984 0 0 0 99.335938 1.1367188 A 11.984 11.984 0 0 0 99.283203 1.1386719 L 14.398438 1.1386719 L 14.398438 1.1757812 A 11.984 11.984 0 0 0 13.619141 1.1367188 z "
   id="path13047"
   style="fill:#37abc8;fill-opacity:1" />


<circle
   id="path13047_2_"
   fill="#F9F7F7"
   cx="99.336"
   cy="13.122"
   r="9.587" />
<g
   enable-background="new    "
   id="g3433"
   style="fill:#04f9fb;fill-opacity:1">
	<text
   transform="matrix(1 0 0 1 12.0474 18.0801)"
   fill="#61A372"
   font-family="'Bahnschrift'"
   font-size="14"
   id="text3431"
   style="fill:#04f9fb;fill-opacity:1">OMNI</text>


</g>


<g
   style="display:inline"
   id="g5450"
   transform="matrix(0.13333334,0,0,-0.13333334,69.780585,91.236169)"><path
     d="m 108.2348,591.583 c 0,41.36 33.5282,74.888 74.8885,74.888 41.3603,0 74.8885,-33.528 74.8885,-74.888 0,-41.36 -33.5282,-74.889 -74.8885,-74.889 -41.3603,0 -74.8885,33.529 -74.8885,74.889 z"
     style="fill:#ffffff;fill-opacity:1;fill-rule:nonzero;stroke:#ffffff;stroke-width:0.2895;stroke-linecap:butt;stroke-linejoin:miter;stroke-miterlimit:3.86369991;stroke-dasharray:none;stroke-opacity:1"
     id="path1369"
     inkscape:connector-curvature="0" /><g
     id="g5443"><path
       inkscape:connector-curvature="0"
       id="path1371"
       style="fill:#000033;fill-opacity:1;fill-rule:nonzero;stroke:none"
       d="m 113.3945,587.014 c 0,38.467 31.1825,74.149 69.6491,74.149 38.4666,0 69.6491,-31.182 69.6491,-69.649 0,-11.422 -2.7493,-22.202 -7.6222,-31.713 -1.428,4.183 -3.2257,8.623 -4.9235,13.497 -2.8035,8.047 -3.5494,11 -11.7896,16.617 -8.2402,5.617 -8.4013,4.65 -13.4616,8.597 -5.4505,4.252 -5.4089,5.925 -1.8595,17.141 3.5494,11.215 7.0984,27.381 -3.2372,37.048 -9.7228,9.095 -18.0362,8.076 -27.4051,2.177 -11.422,-7.191 -8.5344,-29.584 -7.9459,-31.761 0.5886,-2.177 1.5725,-15.907 13.0499,-27.123 0,0 5.4867,-1.08 9.3343,1.29 4.9497,3.048 5.0146,2.164 3.2551,-0.622 -1.3686,-2.168 -5.513,-4.088 -6.4214,-4.208 -6.1323,-0.81 -5.9568,1.097 -5.9568,1.097 0,0 -9.7116,-4.062 -15.6154,-6.861 -5.9038,-2.799 -16.204,-28.01 -16.204,-28.01 l 34.4681,0.622 c 0,0 7.9638,19.302 10.3181,20.546 2.3543,1.244 -0.088,-3.241 -2.166,-8.839 -2.078,-5.599 -4.6206,-11.707 -4.6206,-11.707 l 17.6754,1.866 -2.0601,-5.928 12.3783,-9.331 c 0,0 -0.2895,20.86 0.8828,21.479 1.1772,0.622 1.1772,-0.311 1.1772,-3.421 0,-3.11 1.0001,-20.981 1.0001,-20.981 l 10.2048,4.507 c 0,0 -8.7849,-7.446 -9.5389,-8.91 -2.9708,2.723 -9.3168,8.142 -17.5757,15.102 l -3.2372,-12.441 c 0,0 5.1196,2.285 8.9634,-10.797 0.1291,-0.439 0.2667,-0.857 0.4124,-1.256 -0.7308,-0.366 -1.469,-0.719 -2.2142,-1.06 -0.724,2.264 -1.9182,4.607 -3.0415,6.874 -3.2373,6.531 -4.7086,3.732 -6.1801,-2.178 -1.21,-4.859 -2.4189,-8.167 -7.081,-8.708 -5.4266,-0.63 -22.3841,0.311 -26.21,4.354 -3.8257,4.043 -14.7324,18.991 -14.7324,18.991 0,0 -1.9549,2.902 -2.6487,1.244 -3.2375,-7.738 -3.4038,-13.943 -2.8241,-18.105 -21.38,11.891 -35.8454,30.211 -35.8454,56.411 z"
       sodipodi:nodetypes="sssccsccccccccccsccsccccccscccccccccccccccs" /><path
       inkscape:connector-curvature="0"
       id="path1373"
       style="fill:#ffffff;fill-opacity:1;fill-rule:nonzero;stroke:#999999;stroke-width:0.56840003;stroke-linecap:butt;stroke-linejoin:miter;stroke-miterlimit:3.86360002;stroke-dasharray:none;stroke-opacity:1"
       d="m 207.1504,557.125 c 0,0 -6.7508,-25.853 -8.2402,-28.652 -1.4894,-2.799 -11.8938,-2.934 -21.6054,-0.757 -9.7117,2.177 -7.9581,4.507 -15.9039,14.771 -7.9459,10.263 -9.6312,13.063 -9.6312,13.063 z" /><path
       inkscape:connector-curvature="0"
       id="path1423"
       style="fill:#000033;fill-opacity:1;fill-rule:nonzero;stroke:#000033;stroke-width:0.52929997;stroke-linecap:butt;stroke-linejoin:miter;stroke-miterlimit:3.86369991;stroke-dasharray:none;stroke-opacity:1"
       d="m 252.1381,630.90366 -1e-4,-31.905 c -47.02547,100.5379 -87.61878,57.22366 -138.9701,-10.5 v 42.399 c 0,18.153 14.5059,34.369 32.4003,34.369 h 74.1696 c 17.8944,0 32.4003,-16.216 32.4003,-34.369 z"
       sodipodi:nodetypes="cccssscc" /></g></g></svg>