<?xml version="1.0" encoding="UTF-8" standalone="no"?>
<!-- Generator: Adobe Illustrator 16.0.2, SVG Export Plug-In . SVG Version: 6.00 Build 0)  -->

<svg
   xmlns:dc="http://purl.org/dc/elements/1.1/"
   xmlns:cc="http://creativecommons.org/ns#"
   xmlns:rdf="http://www.w3.org/1999/02/22-rdf-syntax-ns#"
   xmlns:svg="http://www.w3.org/2000/svg"
   xmlns="http://www.w3.org/2000/svg"
   xmlns:sodipodi="http://sodipodi.sourceforge.net/DTD/sodipodi-0.dtd"
   xmlns:inkscape="http://www.inkscape.org/namespaces/inkscape"
   version="1.1"
   id="svg9"
   inkscape:version="0.92.3 (2405546, 2018-03-11)"
   sodipodi:docname="aeo_nagua.svg"
   x="0px"
   y="0px"
   width="92.201px"
   height="25.326px"
   viewBox="0 0 92.201 25.326"
   enable-background="new 0 0 92.201 25.326"
   xml:space="preserve"><metadata
   id="metadata3112"><rdf:RDF><cc:Work
       rdf:about=""><dc:format>image/svg+xml</dc:format><dc:type
         rdf:resource="http://purl.org/dc/dcmitype/StillImage" /></cc:Work></rdf:RDF></metadata><defs
   id="defs3110" />
<sodipodi:namedview
   id="namedview11"
   inkscape:cx="96.163047"
   borderopacity="1"
   inkscape:zoom="5.158185"
   inkscape:cy="0"
   pagecolor="#ffffff"
   showgrid="false"
   bordercolor="#111111"
   inkscape:window-maximized="1"
   inkscape:pagecheckerboard="1"
   inkscape:window-width="1920"
   inkscape:showpageshadow="0"
   inkscape:pageopacity="0"
   inkscape:deskcolor="#d1d1d1"
   inkscape:window-x="-8"
   inkscape:window-y="-8"
   inkscape:window-height="1057"
   inkscape:current-layer="g3104">
	<inkscape:page
   x="0"
   width="552.47662"
   y="0"
   height="504.95132"
   id="page15" />
</sodipodi:namedview>

<path
   d="M 13.619141 0.5859375 A 11.984 11.984 0 0 0 1.6347656 12.570312 A 11.984 11.984 0 0 0 13.619141 24.554688 A 11.984 11.984 0 0 0 14.398438 24.525391 L 14.398438 24.535156 L 76.939453 24.535156 A 11.984 11.984 0 0 0 77.337891 24.554688 A 11.984 11.984 0 0 0 77.902344 24.535156 L 78.146484 24.535156 L 78.146484 24.527344 A 11.984 11.984 0 0 0 89.320312 12.570312 A 11.984 11.984 0 0 0 78.146484 0.62695312 L 78.146484 0.58789062 L 77.337891 0.58789062 L 14.398438 0.58789062 L 14.398438 0.625 A 11.984 11.984 0 0 0 13.619141 0.5859375 z "
   id="path13047"
   style="fill:#37abc8;fill-opacity:1" />


<circle
   id="path13047_2_"
   fill="#F9F7F7"
   cx="77.337"
   cy="12.571"
   r="9.587" />
<g
   enable-background="new    "
   id="g3104"
   style="fill:#00ffff">
	<text
   transform="translate(12.0474,17.5293)"
   font-size="14"
   id="text3102"
   style="font-size:14px;font-family:Bahnschrift;fill:#00ffff">AEREO</text>


</g>


<g
   id="g7811"
   transform="matrix(0.09866499,0,0,0.09824085,93.775827,17.949003)"
   style="stroke-width:10.15716267"><path
     style="fill:none;stroke:#000000;stroke-width:10.15716267px;stroke-linecap:butt;stroke-linejoin:miter;stroke-opacity:1"
     d="m -357.05732,-94.970755 125.93507,-72.708635"
     id="path7761"
     inkscape:connector-curvature="0" /><path
     inkscape:connector-curvature="0"
     id="path7763"
     d="m -50.12938,-98.95542 -125.93507,-72.70864"
     style="fill:none;stroke:#000000;stroke-width:10.15716267px;stroke-linecap:butt;stroke-linejoin:miter;stroke-opacity:1" /><path
     d="m -367.82508,-66.313189 174.49679,107.07066"
     style="display:inline;fill:none;stroke:#666666;stroke-width:10.15716267;stroke-linecap:butt;stroke-linejoin:miter;stroke-miterlimit:3.86360002;stroke-dasharray:none;stroke-opacity:1"
     id="path945"
     inkscape:connector-curvature="0" /><path
     d="m -124.74282,-67.713189 h 31.16506"
     style="display:inline;fill:none;stroke:#666666;stroke-width:10.15716267;stroke-linecap:butt;stroke-linejoin:miter;stroke-miterlimit:3.86360002;stroke-dasharray:none;stroke-opacity:1"
     id="path947"
     inkscape:connector-curvature="0" /><path
     d="M -86.35776,-71.830529 -228.50695,4.786811"
     style="display:inline;fill:none;stroke:#666666;stroke-width:10.15716267;stroke-linecap:butt;stroke-linejoin:miter;stroke-miterlimit:3.86360002;stroke-dasharray:none;stroke-opacity:1"
     id="path949"
     inkscape:connector-curvature="0" /><path
     d="m -230.41935,-124.43985 -142.14907,76.618661"
     style="display:inline;fill:none;stroke:#666666;stroke-width:10.15716267;stroke-linecap:butt;stroke-linejoin:miter;stroke-miterlimit:3.86360002;stroke-dasharray:none;stroke-opacity:1"
     id="path951"
     inkscape:connector-curvature="0" /><path
     d="m -327.05148,-67.713189 h 31.16493"
     style="display:inline;fill:none;stroke:#666666;stroke-width:10.15716267;stroke-linecap:butt;stroke-linejoin:miter;stroke-miterlimit:3.86360002;stroke-dasharray:none;stroke-opacity:1"
     id="path953"
     inkscape:connector-curvature="0" /><path
     d="M -224.98629,-171.09319 -38.33376,-56.562529"
     style="display:inline;fill:none;stroke:#999999;stroke-width:10.15716267;stroke-linecap:butt;stroke-linejoin:miter;stroke-miterlimit:3.86360002;stroke-dasharray:none;stroke-opacity:1"
     id="path955"
     inkscape:connector-curvature="0" /><path
     d="m -37.87509,-71.231859 -137.42773,83.32533"
     style="display:inline;fill:none;stroke:#666666;stroke-width:10.15716267;stroke-linecap:butt;stroke-linejoin:miter;stroke-miterlimit:3.86360002;stroke-dasharray:none;stroke-opacity:1"
     id="path957"
     inkscape:connector-curvature="0" /><path
     sodipodi:nodetypes="cccccsccsccssccccc"
     inkscape:connector-curvature="0"
     id="path7757"
     d="m -192.23047,-175.27734 c -1.97158,0.0437 -3.99042,0.20343 -6.04101,0.44336 -8.2024,0.9597 -16.96195,3.55876 -24.89258,7.7246 l -124.66666,66.94886 c -7.93079,4.165191 -2.05522,1.356729 -5.10287,7.510129 -1.52383,3.076701 -2.2823,6.770624 -1.32813,10.410157 0.95417,3.639532 3.599,6.677787 6.76563,8.572265 l 115.24023,68.949219 c 6.33305,3.78883444 14.00279,4.12979434 22.20508,3.1699219 8.20229,-0.9598725 16.9619,-3.5607314 24.89258,-7.7265625 L -72.21875,-68.597656 c 7.930721,-4.165859 13.782525,-8.983224 16.830078,-15.136719 1.523777,-3.076747 3.750157,-6.182309 2.795978,-9.821843 -0.954179,-3.639535 -0.0828,-6.972922 -3.249418,-8.867402 l -120.222338,-69.24044 v 0.002 c -4.7498,-2.84242 -10.25128,-3.74633 -16.16602,-3.61523 z"
     style="color:#000000;font-style:normal;font-variant:normal;font-weight:normal;font-stretch:normal;font-size:medium;line-height:normal;font-family:sans-serif;font-variant-ligatures:normal;font-variant-position:normal;font-variant-caps:normal;font-variant-numeric:normal;font-variant-alternates:normal;font-feature-settings:normal;text-indent:0;text-align:start;text-decoration:none;text-decoration-line:none;text-decoration-style:solid;text-decoration-color:#000000;letter-spacing:normal;word-spacing:normal;text-transform:none;writing-mode:lr-tb;direction:ltr;text-orientation:mixed;dominant-baseline:auto;baseline-shift:baseline;text-anchor:start;white-space:normal;shape-padding:0;clip-rule:nonzero;display:inline;overflow:visible;visibility:visible;opacity:1;isolation:auto;mix-blend-mode:normal;color-interpolation:sRGB;color-interpolation-filters:linearRGB;solid-color:#000000;solid-opacity:1;vector-effect:none;fill:#ffffff;fill-opacity:1;fill-rule:nonzero;stroke:none;stroke-width:137.18940735;stroke-linecap:butt;stroke-linejoin:miter;stroke-miterlimit:3.86360002;stroke-dasharray:none;stroke-dashoffset:0;stroke-opacity:1;color-rendering:auto;image-rendering:auto;shape-rendering:auto;text-rendering:auto;enable-background:accumulate" /><path
     sodipodi:nodetypes="ccccccsccccccsc"
     inkscape:connector-curvature="0"
     id="path961"
     d="m -192.08984,-161.67773 c 4.3407,0.0212 7.74534,0.80088 9.08984,1.60546 L -67.759766,-91.125 c 1.943043,1.406942 -4.054869,-2.687997 -4.716482,-1.828496 -0.957579,1.933505 0.282987,9.084044 -6.023752,12.396855 l -115.54923,66.210392 c -6.30678,3.312829 -6.42828,3.023978 -12.88098,3.779105 -6.45271,0.7551283 -16.59936,-4.670897 -18.39206,-5.743403 l -109.37468,-65.722285 c -0.89624,-0.536189 -0.0427,-0.162866 0,0 -0.15877,1.881913 -5.50356,0.586066 -4.08087,-8.434758 0.95751,-1.933267 2.64902,-2.046437 8.95555,-5.358582 l 112.93946,-59.326168 c 6.3067,-3.31283 13.72907,-5.51262 20.18164,-6.26758 1.61314,-0.18874 3.16442,-0.26487 4.61133,-0.25781 z"
     style="color:#000000;font-style:normal;font-variant:normal;font-weight:normal;font-stretch:normal;font-size:medium;line-height:normal;font-family:sans-serif;font-variant-ligatures:normal;font-variant-position:normal;font-variant-caps:normal;font-variant-numeric:normal;font-variant-alternates:normal;font-feature-settings:normal;text-indent:0;text-align:start;text-decoration:none;text-decoration-line:none;text-decoration-style:solid;text-decoration-color:#000000;letter-spacing:normal;word-spacing:normal;text-transform:none;writing-mode:lr-tb;direction:ltr;text-orientation:mixed;dominant-baseline:auto;baseline-shift:baseline;text-anchor:start;white-space:normal;shape-padding:0;clip-rule:nonzero;display:inline;overflow:visible;visibility:visible;opacity:1;isolation:auto;mix-blend-mode:normal;color-interpolation:sRGB;color-interpolation-filters:linearRGB;solid-color:#000000;solid-opacity:1;vector-effect:none;fill:#99ffff;fill-opacity:1;fill-rule:nonzero;stroke:none;stroke-width:137.18940735;stroke-linecap:butt;stroke-linejoin:miter;stroke-miterlimit:3.86360002;stroke-dasharray:none;stroke-dashoffset:0;stroke-opacity:1;color-rendering:auto;image-rendering:auto;shape-rendering:auto;text-rendering:auto;enable-background:accumulate" /><path
     d="m -84.34736,-42.729189 -139.70479,82.73333"
     style="display:inline;fill:none;stroke:#666666;stroke-width:10.15716267;stroke-linecap:butt;stroke-linejoin:miter;stroke-miterlimit:3.86360002;stroke-dasharray:none;stroke-opacity:1"
     id="path963"
     inkscape:connector-curvature="0" /><path
     inkscape:connector-curvature="0"
     id="path7697"
     d="m -297.91797,-176.40234 v 66.58789 h 21.58203 0.50782 18.39453 v -7.99414 -58.59375 h -21.50586 -0.46485 z"
     style="color:#000000;font-style:normal;font-variant:normal;font-weight:normal;font-stretch:normal;font-size:medium;line-height:normal;font-family:'Tw Cen MT Condensed';-inkscape-font-specification:TwCenMTCondensed;font-variant-ligatures:normal;font-variant-position:normal;font-variant-caps:normal;font-variant-numeric:normal;font-variant-alternates:normal;font-feature-settings:normal;text-indent:0;text-align:start;text-decoration:none;text-decoration-line:none;text-decoration-style:solid;text-decoration-color:#000000;letter-spacing:normal;word-spacing:normal;text-transform:none;writing-mode:lr-tb;direction:ltr;text-orientation:mixed;dominant-baseline:auto;baseline-shift:baseline;text-anchor:start;white-space:normal;shape-padding:0;clip-rule:nonzero;display:inline;overflow:visible;visibility:visible;opacity:1;isolation:auto;mix-blend-mode:normal;color-interpolation:sRGB;color-interpolation-filters:linearRGB;solid-color:#000000;solid-opacity:1;vector-effect:none;fill:#ffffff;fill-opacity:1;fill-rule:nonzero;stroke:none;stroke-width:162.36201477;stroke-linecap:butt;stroke-linejoin:miter;stroke-miterlimit:3.86360002;stroke-dasharray:none;stroke-dashoffset:0;stroke-opacity:1;color-rendering:auto;image-rendering:auto;shape-rendering:auto;text-rendering:auto;enable-background:accumulate" /><path
     inkscape:connector-curvature="0"
     id="path7699"
     d="m -253.32422,-176.40234 -14.3457,66.58789 h 23.04101 l 0.55469,-2.97461 0.55274,2.97461 h 23.13476 l -2.10156,-9.6875 -12.34766,-56.90039 z"
     style="color:#000000;font-style:normal;font-variant:normal;font-weight:normal;font-stretch:normal;font-size:medium;line-height:normal;font-family:'Tw Cen MT Condensed';-inkscape-font-specification:TwCenMTCondensed;font-variant-ligatures:normal;font-variant-position:normal;font-variant-caps:normal;font-variant-numeric:normal;font-variant-alternates:normal;font-feature-settings:normal;text-indent:0;text-align:start;text-decoration:none;text-decoration-line:none;text-decoration-style:solid;text-decoration-color:#000000;letter-spacing:normal;word-spacing:normal;text-transform:none;writing-mode:lr-tb;direction:ltr;text-orientation:mixed;dominant-baseline:auto;baseline-shift:baseline;text-anchor:start;white-space:normal;shape-padding:0;clip-rule:nonzero;display:inline;overflow:visible;visibility:visible;opacity:1;isolation:auto;mix-blend-mode:normal;color-interpolation:sRGB;color-interpolation-filters:linearRGB;solid-color:#000000;solid-opacity:1;vector-effect:none;fill:#ffffff;fill-opacity:1;fill-rule:nonzero;stroke:none;stroke-width:162.36201477;stroke-linecap:butt;stroke-linejoin:miter;stroke-miterlimit:3.86360002;stroke-dasharray:none;stroke-dashoffset:0;stroke-opacity:1;color-rendering:auto;image-rendering:auto;shape-rendering:auto;text-rendering:auto;enable-background:accumulate" /><path
     inkscape:connector-curvature="0"
     id="path7701"
     d="m -210.98047,-177.27539 c -3.10657,0 -6.19223,0.51762 -9.0625,1.78516 -2.9005,1.25551 -5.49718,3.33997 -7.35937,5.8789 -1.63796,2.20927 -2.87615,4.72223 -3.60938,7.375 l -0.0117,0.0391 -0.0117,0.041 c -0.8407,3.17098 -1.0393,6.40519 -1.28711,11.42578 -0.23928,4.82139 -0.36718,7.56841 -0.36718,9.25 0,10.01913 0.42915,17.11267 4.1582,23.30664 l 0.008,0.0117 0.008,0.0137 c 3.37985,5.56944 10.12836,8.81055 16.58398,8.81055 6.72142,0 13.73178,-2.82178 17.30273,-8.59375 l 0.008,-0.0137 0.008,-0.0117 c 3.10224,-5.05579 4.1543,-11.03173 4.1543,-17.76367 v -16.53125 h -3.12891 l 3.04492,-1.11133 -0.45508,-6.03516 c -0.37358,-4.94886 -2.80596,-9.9175 -6.65429,-13.11914 -3.68242,-3.08678 -8.54168,-4.75781 -13.32813,-4.75781 z"
     style="color:#000000;font-style:normal;font-variant:normal;font-weight:normal;font-stretch:normal;font-size:medium;line-height:normal;font-family:'Tw Cen MT Condensed';-inkscape-font-specification:TwCenMTCondensed;font-variant-ligatures:normal;font-variant-position:normal;font-variant-caps:normal;font-variant-numeric:normal;font-variant-alternates:normal;font-feature-settings:normal;text-indent:0;text-align:start;text-decoration:none;text-decoration-line:none;text-decoration-style:solid;text-decoration-color:#000000;letter-spacing:normal;word-spacing:normal;text-transform:none;writing-mode:lr-tb;direction:ltr;text-orientation:mixed;dominant-baseline:auto;baseline-shift:baseline;text-anchor:start;white-space:normal;shape-padding:0;clip-rule:nonzero;display:inline;overflow:visible;visibility:visible;opacity:1;isolation:auto;mix-blend-mode:normal;color-interpolation:sRGB;color-interpolation-filters:linearRGB;solid-color:#000000;solid-opacity:1;vector-effect:none;fill:#ffffff;fill-opacity:1;fill-rule:nonzero;stroke:none;stroke-width:162.36201477;stroke-linecap:butt;stroke-linejoin:miter;stroke-miterlimit:3.86360002;stroke-dasharray:none;stroke-dashoffset:0;stroke-opacity:1;color-rendering:auto;image-rendering:auto;shape-rendering:auto;text-rendering:auto;enable-background:accumulate" /><path
     inkscape:connector-curvature="0"
     id="path7703"
     d="m -198.17969,-176.32227 v 46.63868 c 0,5.51393 1.47225,11.06961 5.41992,15.0625 3.94768,3.99288 9.52279,5.52148 15.01954,5.52148 5.26798,0 10.80554,-1.74524 14.46093,-5.83008 3.6554,-4.08483 4.8711,-9.41853 4.8711,-14.83398 v -46.5586 h -17.04883 -5.67578 z"
     style="color:#000000;font-style:normal;font-variant:normal;font-weight:normal;font-stretch:normal;font-size:medium;line-height:normal;font-family:'Tw Cen MT Condensed';-inkscape-font-specification:TwCenMTCondensed;font-variant-ligatures:normal;font-variant-position:normal;font-variant-caps:normal;font-variant-numeric:normal;font-variant-alternates:normal;font-feature-settings:normal;text-indent:0;text-align:start;text-decoration:none;text-decoration-line:none;text-decoration-style:solid;text-decoration-color:#000000;letter-spacing:normal;word-spacing:normal;text-transform:none;writing-mode:lr-tb;direction:ltr;text-orientation:mixed;dominant-baseline:auto;baseline-shift:baseline;text-anchor:start;white-space:normal;shape-padding:0;clip-rule:nonzero;display:inline;overflow:visible;visibility:visible;opacity:1;isolation:auto;mix-blend-mode:normal;color-interpolation:sRGB;color-interpolation-filters:linearRGB;solid-color:#000000;solid-opacity:1;vector-effect:none;fill:#ffffff;fill-opacity:1;fill-rule:nonzero;stroke:none;stroke-width:162.36201477;stroke-linecap:butt;stroke-linejoin:miter;stroke-miterlimit:3.86360002;stroke-dasharray:none;stroke-dashoffset:0;stroke-opacity:1;color-rendering:auto;image-rendering:auto;shape-rendering:auto;text-rendering:auto;enable-background:accumulate" /><path
     inkscape:connector-curvature="0"
     id="path7705"
     d="m -155.59766,-176.40234 -14.3457,66.58789 h 23.04102 l 0.55468,-2.97461 0.55274,2.97461 h 23.13476 l -2.10156,-9.6875 -12.34766,-56.90039 z"
     style="color:#000000;font-style:normal;font-variant:normal;font-weight:normal;font-stretch:normal;font-size:medium;line-height:normal;font-family:'Tw Cen MT Condensed';-inkscape-font-specification:TwCenMTCondensed;font-variant-ligatures:normal;font-variant-position:normal;font-variant-caps:normal;font-variant-numeric:normal;font-variant-alternates:normal;font-feature-settings:normal;text-indent:0;text-align:start;text-decoration:none;text-decoration-line:none;text-decoration-style:solid;text-decoration-color:#000000;letter-spacing:normal;word-spacing:normal;text-transform:none;writing-mode:lr-tb;direction:ltr;text-orientation:mixed;dominant-baseline:auto;baseline-shift:baseline;text-anchor:start;white-space:normal;shape-padding:0;clip-rule:nonzero;display:inline;overflow:visible;visibility:visible;opacity:1;isolation:auto;mix-blend-mode:normal;color-interpolation:sRGB;color-interpolation-filters:linearRGB;solid-color:#000000;solid-opacity:1;vector-effect:none;fill:#ffffff;fill-opacity:1;fill-rule:nonzero;stroke:none;stroke-width:162.36201477;stroke-linecap:butt;stroke-linejoin:miter;stroke-miterlimit:3.86360002;stroke-dasharray:none;stroke-dashoffset:0;stroke-opacity:1;color-rendering:auto;image-rendering:auto;shape-rendering:auto;text-rendering:auto;enable-background:accumulate" /><path
     inkscape:connector-curvature="0"
     id="path7708"
     d="m -295.63867,-117.10742 v 66.585936 h 21.58203 0.50781 18.39649 v -7.992188 -58.593748 h -21.50782 -0.46484 z"
     style="color:#000000;font-style:normal;font-variant:normal;font-weight:normal;font-stretch:normal;font-size:medium;line-height:normal;font-family:'Tw Cen MT Condensed';-inkscape-font-specification:TwCenMTCondensed;font-variant-ligatures:normal;font-variant-position:normal;font-variant-caps:normal;font-variant-numeric:normal;font-variant-alternates:normal;font-feature-settings:normal;text-indent:0;text-align:start;text-decoration:none;text-decoration-line:none;text-decoration-style:solid;text-decoration-color:#000000;letter-spacing:normal;word-spacing:normal;text-transform:none;writing-mode:lr-tb;direction:ltr;text-orientation:mixed;dominant-baseline:auto;baseline-shift:baseline;text-anchor:start;white-space:normal;shape-padding:0;clip-rule:nonzero;display:inline;overflow:visible;visibility:visible;opacity:1;isolation:auto;mix-blend-mode:normal;color-interpolation:sRGB;color-interpolation-filters:linearRGB;solid-color:#000000;solid-opacity:1;vector-effect:none;fill:#ffffff;fill-opacity:1;fill-rule:nonzero;stroke:none;stroke-width:162.36201477;stroke-linecap:butt;stroke-linejoin:miter;stroke-miterlimit:3.86360002;stroke-dasharray:none;stroke-dashoffset:0;stroke-opacity:1;color-rendering:auto;image-rendering:auto;shape-rendering:auto;text-rendering:auto;enable-background:accumulate" /><path
     inkscape:connector-curvature="0"
     id="path7710"
     d="m -251.04492,-117.10742 -14.3457,66.585936 h 23.04101 l 0.55273,-2.97461 0.55469,2.97461 h 23.13672 l -2.10351,-9.6875 -12.34766,-56.898436 z"
     style="color:#000000;font-style:normal;font-variant:normal;font-weight:normal;font-stretch:normal;font-size:medium;line-height:normal;font-family:'Tw Cen MT Condensed';-inkscape-font-specification:TwCenMTCondensed;font-variant-ligatures:normal;font-variant-position:normal;font-variant-caps:normal;font-variant-numeric:normal;font-variant-alternates:normal;font-feature-settings:normal;text-indent:0;text-align:start;text-decoration:none;text-decoration-line:none;text-decoration-style:solid;text-decoration-color:#000000;letter-spacing:normal;word-spacing:normal;text-transform:none;writing-mode:lr-tb;direction:ltr;text-orientation:mixed;dominant-baseline:auto;baseline-shift:baseline;text-anchor:start;white-space:normal;shape-padding:0;clip-rule:nonzero;display:inline;overflow:visible;visibility:visible;opacity:1;isolation:auto;mix-blend-mode:normal;color-interpolation:sRGB;color-interpolation-filters:linearRGB;solid-color:#000000;solid-opacity:1;vector-effect:none;fill:#ffffff;fill-opacity:1;fill-rule:nonzero;stroke:none;stroke-width:162.36201477;stroke-linecap:butt;stroke-linejoin:miter;stroke-miterlimit:3.86360002;stroke-dasharray:none;stroke-dashoffset:0;stroke-opacity:1;color-rendering:auto;image-rendering:auto;shape-rendering:auto;text-rendering:auto;enable-background:accumulate" /><path
     inkscape:connector-curvature="0"
     id="path7712"
     d="m -208.69922,-117.98047 c -3.10657,0 -6.19419,0.51762 -9.06445,1.78516 -2.90432,1.25714 -5.50448,3.34327 -7.36719,5.88672 -1.63425,2.20685 -2.86943,4.71648 -3.60156,7.36523 l -0.0117,0.041 -0.0117,0.041 c -0.8407,3.170982 -1.0393,6.403235 -1.28711,11.42383 -0.23928,4.821391 -0.36719,7.57036 -0.36719,9.251953 0,10.019127 0.42917,17.112672 4.15821,23.306641 l 0.008,0.01172 0.008,0.01172 c 3.37986,5.569436 10.12837,8.8125 16.58399,8.8125 6.72142,0 13.73177,-2.821783 17.30273,-8.59375 l 0.008,-0.01367 0.008,-0.01172 c 3.10222,-5.055781 4.15429,-11.031744 4.15429,-17.763672 v -16.533203 h -3.12304 l 3.04101,-1.109375 -0.45703,-6.035164 c -0.37359,-4.94885 -2.80596,-9.9175 -6.6543,-13.11914 -3.68241,-3.08677 -8.53972,-4.75781 -13.32617,-4.75781 z"
     style="color:#000000;font-style:normal;font-variant:normal;font-weight:normal;font-stretch:normal;font-size:medium;line-height:normal;font-family:'Tw Cen MT Condensed';-inkscape-font-specification:TwCenMTCondensed;font-variant-ligatures:normal;font-variant-position:normal;font-variant-caps:normal;font-variant-numeric:normal;font-variant-alternates:normal;font-feature-settings:normal;text-indent:0;text-align:start;text-decoration:none;text-decoration-line:none;text-decoration-style:solid;text-decoration-color:#000000;letter-spacing:normal;word-spacing:normal;text-transform:none;writing-mode:lr-tb;direction:ltr;text-orientation:mixed;dominant-baseline:auto;baseline-shift:baseline;text-anchor:start;white-space:normal;shape-padding:0;clip-rule:nonzero;display:inline;overflow:visible;visibility:visible;opacity:1;isolation:auto;mix-blend-mode:normal;color-interpolation:sRGB;color-interpolation-filters:linearRGB;solid-color:#000000;solid-opacity:1;vector-effect:none;fill:#ffffff;fill-opacity:1;fill-rule:nonzero;stroke:none;stroke-width:162.36201477;stroke-linecap:butt;stroke-linejoin:miter;stroke-miterlimit:3.86360002;stroke-dasharray:none;stroke-dashoffset:0;stroke-opacity:1;color-rendering:auto;image-rendering:auto;shape-rendering:auto;text-rendering:auto;enable-background:accumulate" /><path
     inkscape:connector-curvature="0"
     id="path7714"
     d="m -195.90039,-117.02734 v 46.638668 c 0,5.513932 1.47224,11.069614 5.41992,15.0625 3.94768,3.992887 9.52278,5.521485 15.01953,5.521484 5.26798,10e-7 10.80555,-1.747196 14.46094,-5.832031 3.65539,-4.084834 4.87109,-9.416579 4.87109,-14.832031 v -46.55859 h -17.04687 -5.67774 z"
     style="color:#000000;font-style:normal;font-variant:normal;font-weight:normal;font-stretch:normal;font-size:medium;line-height:normal;font-family:'Tw Cen MT Condensed';-inkscape-font-specification:TwCenMTCondensed;font-variant-ligatures:normal;font-variant-position:normal;font-variant-caps:normal;font-variant-numeric:normal;font-variant-alternates:normal;font-feature-settings:normal;text-indent:0;text-align:start;text-decoration:none;text-decoration-line:none;text-decoration-style:solid;text-decoration-color:#000000;letter-spacing:normal;word-spacing:normal;text-transform:none;writing-mode:lr-tb;direction:ltr;text-orientation:mixed;dominant-baseline:auto;baseline-shift:baseline;text-anchor:start;white-space:normal;shape-padding:0;clip-rule:nonzero;display:inline;overflow:visible;visibility:visible;opacity:1;isolation:auto;mix-blend-mode:normal;color-interpolation:sRGB;color-interpolation-filters:linearRGB;solid-color:#000000;solid-opacity:1;vector-effect:none;fill:#ffffff;fill-opacity:1;fill-rule:nonzero;stroke:none;stroke-width:162.36201477;stroke-linecap:butt;stroke-linejoin:miter;stroke-miterlimit:3.86360002;stroke-dasharray:none;stroke-dashoffset:0;stroke-opacity:1;color-rendering:auto;image-rendering:auto;shape-rendering:auto;text-rendering:auto;enable-background:accumulate" /><path
     inkscape:connector-curvature="0"
     id="path7716"
     d="m -153.31836,-117.10742 -14.3457,66.585936 h 23.04101 l 0.55274,-2.97461 0.55469,2.97461 h 23.13671 l -2.10351,-9.6875 -12.34766,-56.898436 z"
     style="color:#000000;font-style:normal;font-variant:normal;font-weight:normal;font-stretch:normal;font-size:medium;line-height:normal;font-family:'Tw Cen MT Condensed';-inkscape-font-specification:TwCenMTCondensed;font-variant-ligatures:normal;font-variant-position:normal;font-variant-caps:normal;font-variant-numeric:normal;font-variant-alternates:normal;font-feature-settings:normal;text-indent:0;text-align:start;text-decoration:none;text-decoration-line:none;text-decoration-style:solid;text-decoration-color:#000000;letter-spacing:normal;word-spacing:normal;text-transform:none;writing-mode:lr-tb;direction:ltr;text-orientation:mixed;dominant-baseline:auto;baseline-shift:baseline;text-anchor:start;white-space:normal;shape-padding:0;clip-rule:nonzero;display:inline;overflow:visible;visibility:visible;opacity:1;isolation:auto;mix-blend-mode:normal;color-interpolation:sRGB;color-interpolation-filters:linearRGB;solid-color:#000000;solid-opacity:1;vector-effect:none;fill:#ffffff;fill-opacity:1;fill-rule:nonzero;stroke:none;stroke-width:162.36201477;stroke-linecap:butt;stroke-linejoin:miter;stroke-miterlimit:3.86360002;stroke-dasharray:none;stroke-dashoffset:0;stroke-opacity:1;color-rendering:auto;image-rendering:auto;shape-rendering:auto;text-rendering:auto;enable-background:accumulate" /><path
     d="m -264.73348,-116.20519 h -5.37147 l -12.89667,-34.684 -0.15853,-0.0267 v 34.70933 h -6.0932 v -50.59466 h 5.4208 l 12.93227,34.66533 0.15853,0.08 v -34.74934 h 6.00827 v 50.59467 z"
     style="display:inline;fill:#999999;fill-opacity:1;fill-rule:evenodd;stroke:none;stroke-width:13.54288292"
     id="path973"
     inkscape:connector-curvature="0" /><path
     d="m -229.53429,-116.20519 h -6.48026 l -1.86227,-10.08666 h -10.73507 l -1.88653,10.08666 h -6.47867 l 10.88974,-50.59466 h 5.58333 z m -9.23306,-15.12933 -4.48467,-24.23067 h -0.16227 l -4.23093,24.23067 z"
     style="display:inline;fill:#999999;fill-opacity:1;fill-rule:evenodd;stroke:none;stroke-width:13.54288292"
     id="path975"
     inkscape:connector-curvature="0" /><path
     d="m -197.58282,-134.07719 c 0,5.84267 -0.9872,10.376 -2.9616,13.60267 -1.9744,3.22667 -5.4628,4.83867 -10.46547,4.83867 -4.47573,0 -7.71413,-1.66667 -9.71506,-5.00134 -2.00107,-3.336 -3.00174,-9.74667 -3.00174,-19.23466 0,-1.116 0.11867,-4.08667 0.356,-8.91067 0.2372,-4.82267 0.58654,-8.092 1.04787,-9.80667 0.46133,-1.71333 1.23227,-3.308 2.31253,-4.78266 1.08054,-1.47467 2.4508,-2.57734 4.11107,-3.308 1.66013,-0.732 3.61053,-1.09734 5.85093,-1.09734 3.16227,0 5.89,0.96 8.1832,2.88 2.29334,1.92 3.55827,4.45467 3.79507,7.60667 l -6.41413,2.36667 c -0.5252,-4.88134 -2.37734,-7.32134 -5.55654,-7.32134 -2.44253,0 -4.14333,1.272 -5.1024,3.816 -0.95906,2.544 -1.43866,6.76 -1.43866,12.648 v 2.59867 c 0,3.40933 0.104,6.66667 0.31213,9.76933 0.208,3.104 0.4032,5.376 0.58547,6.81467 0.18213,1.43867 0.5596,2.584 1.13226,3.436 0.57254,0.85333 1.1776,1.42533 1.81534,1.71867 0.63773,0.29333 1.38573,0.44 2.24426,0.44 1.6136,0 2.8628,-0.50934 3.74734,-1.52534 0.8848,-1.01733 1.49626,-2.48266 1.83453,-4.39733 0.3384,-1.91334 0.5076,-5.172 0.5076,-9.776 h -6.08947 v -5.93867 h 12.90947 z"
     style="display:inline;fill:#999999;fill-opacity:1;fill-rule:evenodd;stroke:none;stroke-width:13.54288292"
     id="path977"
     inkscape:connector-curvature="0" /><path
     d="m -165.46935,-128.16519 c 0,8.46267 -3.7796,12.69333 -11.33894,12.69333 -8.30026,0 -12.45026,-4.20533 -12.45026,-12.61466 v -38.71333 h 6.82013 v 35.78933 c 0,3.84 0.3252,6.49466 0.9756,7.96533 0.6504,1.46934 2.06867,2.204 4.25493,2.204 2.18614,0 3.55267,-0.77467 4.09894,-2.324 0.54626,-1.54933 0.81946,-4.296 0.81946,-8.24133 v -35.39333 h 6.82014 z"
     style="display:inline;fill:#999999;fill-opacity:1;fill-rule:evenodd;stroke:none;stroke-width:13.54288292"
     id="path979"
     inkscape:connector-curvature="0" /><path
     d="m -131.56922,-116.20519 h -6.48013 l -1.86227,-10.08666 h -10.73507 l -1.88653,10.08666 h -6.4788 l 10.88973,-50.59466 h 5.58334 z m -9.23293,-15.12933 -4.48467,-24.23067 h -0.1624 l -4.2308,24.23067 z"
     style="display:inline;fill:#999999;fill-opacity:1;fill-rule:evenodd;stroke:none;stroke-width:13.54288292"
     id="path981"
     inkscape:connector-curvature="0" /><path
     d="m -264.73348,-56.910529 h -5.37147 l -12.89667,-34.683994 -0.15853,-0.0267 v 34.709334 h -6.0932 v -50.594631 h 5.4208 l 12.93227,34.665331 0.15853,0.08 v -34.749331 h 6.00827 v 50.594661 z"
     style="display:inline;fill:#999999;fill-opacity:1;fill-rule:evenodd;stroke:none;stroke-width:13.54288292"
     id="path983"
     inkscape:connector-curvature="0" /><path
     d="m -229.53429,-56.910529 h -6.48026 l -1.86227,-10.08533 h -10.73507 l -1.88653,10.08533 h -6.47867 l 10.88974,-50.594661 h 5.58333 z m -9.23306,-15.12933 -4.48467,-24.230664 h -0.16227 l -4.23093,24.230664 z"
     style="display:inline;fill:#999999;fill-opacity:1;fill-rule:evenodd;stroke:none;stroke-width:13.54288292"
     id="path985"
     inkscape:connector-curvature="0" /><path
     d="m -197.58282,-74.782529 c 0,5.84267 -0.9872,10.376 -2.9616,13.60267 -1.9744,3.22667 -5.4628,4.84 -10.46547,4.84 -4.47573,0 -7.71413,-1.668 -9.71506,-5.00267 -2.00107,-3.336 -3.00174,-9.74666 -3.00174,-19.23466 0,-1.11733 0.11867,-4.086664 0.356,-8.909334 0.2372,-4.824 0.58654,-8.09333 1.04787,-9.80667 0.46133,-1.714657 1.23227,-3.309327 2.31253,-4.783997 1.08054,-1.47467 2.4508,-2.57733 4.11107,-3.308 1.66013,-0.73067 3.61053,-1.096 5.85093,-1.096 3.16227,0 5.89,0.95867 8.1832,2.87867 2.29334,1.92 3.55827,4.45467 3.79507,7.606667 l -6.41413,2.36666 c -0.5252,-4.881327 -2.37734,-7.321327 -5.55654,-7.321327 -2.44253,0 -4.14333,1.272 -5.1024,3.815997 -0.95906,2.544 -1.43866,6.76 -1.43866,12.64933 v 2.597334 c 0,3.40934 0.104,6.66667 0.31213,9.77067 0.208,3.10266 0.4032,5.37466 0.58547,6.81333 0.18213,1.43867 0.5596,2.584 1.13226,3.43733 0.57254,0.852 1.1776,1.424 1.81534,1.71734 0.63773,0.29333 1.38573,0.44 2.24426,0.44 1.6136,0 2.8628,-0.508 3.74734,-1.52534 0.8848,-1.01733 1.49626,-2.48266 1.83453,-4.39733 0.3384,-1.91333 0.5076,-5.172 0.5076,-9.77733 h -6.08947 v -5.93733 h 12.90947 z"
     style="display:inline;fill:#999999;fill-opacity:1;fill-rule:evenodd;stroke:none;stroke-width:13.54288292"
     id="path987"
     inkscape:connector-curvature="0" /><path
     d="m -165.46935,-68.870529 c 0,8.46267 -3.7796,12.69334 -11.33894,12.69334 -8.30026,0 -12.45026,-4.20534 -12.45026,-12.61334 v -38.714661 h 6.82013 v 35.789331 c 0,3.84 0.3252,6.496 0.9756,7.96533 0.6504,1.46934 2.06867,2.204 4.25493,2.204 2.18614,0 3.55267,-0.77466 4.09894,-2.324 0.54626,-1.54933 0.81946,-4.296 0.81946,-8.24133 v -35.393331 h 6.82014 z"
     style="display:inline;fill:#999999;fill-opacity:1;fill-rule:evenodd;stroke:none;stroke-width:13.54288292"
     id="path989"
     inkscape:connector-curvature="0" /><path
     d="m -131.56922,-56.910529 h -6.48013 l -1.86227,-10.08533 h -10.73507 l -1.88653,10.08533 h -6.4788 l 10.88973,-50.594661 h 5.58334 z m -9.23293,-15.12933 -4.48467,-24.230664 h -0.1624 l -4.2308,24.230664 z"
     style="display:inline;fill:#999999;fill-opacity:1;fill-rule:evenodd;stroke:none;stroke-width:13.54288292"
     id="path991"
     inkscape:connector-curvature="0" /><path
     d="m -353.32842,-89.253193 150.67307,87.642664 -6.36387,32.74 -144.3092,-88.96266 z"
     style="display:inline;fill:#ffffff;fill-opacity:1;fill-rule:evenodd;stroke:none;stroke-width:13.54288292"
     id="path993"
     inkscape:connector-curvature="0" /><path
     d="m -52.99042,-95.817193 -152.25373,92.372004 -4.24854,34.28266 156.50227,-94.09066 z"
     style="display:inline;fill:#ffffff;fill-opacity:1;fill-rule:evenodd;stroke:none;stroke-width:13.54288292"
     id="path995"
     inkscape:connector-curvature="0" /><path
     sodipodi:nodetypes="cscc"
     d="m -354.12175,-57.782529 v -28.011994 c 0,-9.32533 -1.23687,-11.43143 11.87633,-17.719437 13.11306,-6.28933 44.23647,-25.38899 44.23647,-25.38899"
     style="display:inline;fill:none;stroke:#999999;stroke-width:10.24925327;stroke-linecap:butt;stroke-linejoin:miter;stroke-miterlimit:3.86369991;stroke-dasharray:none;stroke-opacity:1"
     id="path999"
     inkscape:connector-curvature="0" /><path
     sodipodi:nodetypes="cscc"
     d="m -52.19762,-64.979859 v -22.148394 c 0,-9.325337 2.43732,-14.070057 -11.69988,-20.358057 -14.13706,-6.28933 -67.56145,-38.63488 -67.56145,-38.63488"
     style="display:inline;fill:none;stroke:#999999;stroke-width:10.64199734;stroke-linecap:butt;stroke-linejoin:miter;stroke-miterlimit:3.86369991;stroke-dasharray:none;stroke-opacity:1"
     id="path1001"
     inkscape:connector-curvature="0" /><ellipse
     ry="5.0790849"
     rx="5.4937038"
     cy="-87.289482"
     cx="-334.50977"
     id="path7751"
     style="fill:#99ffff;fill-opacity:1;stroke:none;stroke-width:3.48390675;stroke-linecap:round;stroke-linejoin:round;stroke-miterlimit:4;stroke-dasharray:none;stroke-opacity:1" /><path
     inkscape:connector-curvature="0"
     id="path7765"
     d="M -197.27421,-12.880349 -71.339137,-85.588984"
     style="fill:#5fbcd3;stroke:#80e5ff;stroke-width:10.15716267px;stroke-linecap:butt;stroke-linejoin:miter;stroke-opacity:1" /><path
     style="fill:none;stroke:#80e5ff;stroke-width:10.15716267px;stroke-linecap:butt;stroke-linejoin:miter;stroke-opacity:1"
     d="M -212.25793,-10.708233 -338.193,-83.416873"
     id="path7767"
     inkscape:connector-curvature="0" /><ellipse
     style="fill:#99ffff;fill-opacity:1;stroke:none;stroke-width:3.48390675;stroke-linecap:round;stroke-linejoin:round;stroke-miterlimit:4;stroke-dasharray:none;stroke-opacity:1"
     id="ellipse7769"
     cx="-74.752266"
     cy="-89.634926"
     rx="5.4937038"
     ry="5.0790849" /></g></svg>