<?xml version="1.0" encoding="UTF-8" standalone="no"?>
<!-- Generator: Adobe Illustrator 16.0.2, SVG Export Plug-In . SVG Version: 6.00 Build 0)  -->

<svg
   xmlns:dc="http://purl.org/dc/elements/1.1/"
   xmlns:cc="http://creativecommons.org/ns#"
   xmlns:rdf="http://www.w3.org/1999/02/22-rdf-syntax-ns#"
   xmlns:svg="http://www.w3.org/2000/svg"
   xmlns="http://www.w3.org/2000/svg"
   xmlns:sodipodi="http://sodipodi.sourceforge.net/DTD/sodipodi-0.dtd"
   xmlns:inkscape="http://www.inkscape.org/namespaces/inkscape"
   version="1.1"
   id="svg9"
   inkscape:version="0.92.3 (2405546, 2018-03-11)"
   sodipodi:docname="aeo_quinto.svg"
   x="0px"
   y="0px"
   width="113.336px"
   height="26.428px"
   viewBox="0 0 113.336 26.428"
   enable-background="new 0 0 113.336 26.428"
   xml:space="preserve"><metadata
   id="metadata3381"><rdf:RDF><cc:Work
       rdf:about=""><dc:format>image/svg+xml</dc:format><dc:type
         rdf:resource="http://purl.org/dc/dcmitype/StillImage" /></cc:Work></rdf:RDF></metadata><defs
   id="defs3379" />
<sodipodi:namedview
   id="namedview11"
   inkscape:cx="40.554172"
   borderopacity="1"
   inkscape:zoom="4.9966283"
   inkscape:cy="-14.382145"
   pagecolor="#ffffff"
   showgrid="false"
   bordercolor="#111111"
   inkscape:window-maximized="1"
   inkscape:pagecheckerboard="1"
   inkscape:window-width="1920"
   inkscape:showpageshadow="0"
   inkscape:pageopacity="0"
   inkscape:deskcolor="#d1d1d1"
   inkscape:window-x="-8"
   inkscape:window-y="-8"
   inkscape:window-height="1057"
   inkscape:current-layer="svg9">
	<inkscape:page
   x="0"
   width="552.47662"
   y="0"
   height="504.95132"
   id="page15" />
</sodipodi:namedview>
<g
   id="g17"
   transform="matrix(1.3333333,0,0,-1.3333333,-138.36684,1585.994)"
   inkscape:groupmode="layer"
   inkscape:label="Page 1">
	<path
   style="fill:#37abc8;stroke-width:1.33333325;stroke:#37abc8;stroke-opacity:1;fill-opacity:1"
   d="M 13.619141 0.5859375 A 11.984 11.984 0 0 0 1.6347656 12.570312 A 11.984 11.984 0 0 0 13.619141 24.554688 A 11.984 11.984 0 0 0 14.398438 24.515625 L 14.398438 24.535156 L 98.9375 24.535156 A 11.984 11.984 0 0 0 99.335938 24.554688 A 11.984 11.984 0 0 0 111.32031 12.570312 A 11.984 11.984 0 0 0 99.865234 0.61328125 L 99.865234 0.58789062 L 14.398438 0.58789062 L 14.398438 0.61328125 A 11.984 11.984 0 0 0 13.619141 0.5859375 z "
   transform="matrix(0.75000002,0,0,-0.75000002,103.77513,1189.4955)"
   id="path13047" />
</g>


<circle
   id="path13047_2_"
   fill="#F9F7F7"
   cx="99.336"
   cy="12.571"
   r="9.587" />
<g
   enable-background="new    "
   id="g3373">
	<text
   transform="matrix(1 0 0 1 12.0474 17.5292)"
   fill="#61A372"
   font-family="'Bahnschrift'"
   font-size="14"
   id="text3371"
   style="fill:#00ffff;fill-opacity:1;">QUINTO</text>

</g>


</svg>