<?xml version="1.0" encoding="utf-8"?>
<!-- Generator: Adobe Illustrator 16.0.2, SVG Export Plug-In . SVG Version: 6.00 Build 0)  -->
<!DOCTYPE svg PUBLIC "-//W3C//DTD SVG 1.1//EN" "http://www.w3.org/Graphics/SVG/1.1/DTD/svg11.dtd">
<svg version="1.1"
	 id="svg9" xmlns:rdf="http://www.w3.org/1999/02/22-rdf-syntax-ns#" xmlns:cc="http://creativecommons.org/ns#" xmlns:sodipodi="http://sodipodi.sourceforge.net/DTD/sodipodi-0.dtd" xmlns:inkscape="http://www.inkscape.org/namespaces/inkscape" xmlns:dc="http://purl.org/dc/elements/1.1/" xmlns:svg="http://www.w3.org/2000/svg" inkscape:version="0.92.3 (2405546, 2018-03-11)" sodipodi:docname="btn1.svg"
	 xmlns="http://www.w3.org/2000/svg" xmlns:xlink="http://www.w3.org/1999/xlink" x="0px" y="0px" width="39.333px"
	 height="25.325px" viewBox="22.871 0 39.333 25.325" enable-background="new 22.871 0 39.333 25.325" xml:space="preserve">
<sodipodi:namedview  id="namedview11" inkscape:cx="-0.019405042" borderopacity="1" inkscape:zoom="1.3192231" inkscape:cy="-164.53891" pagecolor="#ffffff" showgrid="false" bordercolor="#111111" inkscape:window-maximized="1" inkscape:pagecheckerboard="1" inkscape:window-width="1920" inkscape:showpageshadow="0" inkscape:pageopacity="0" inkscape:deskcolor="#d1d1d1" inkscape:window-x="-8" inkscape:window-y="-8" inkscape:window-height="1057" inkscape:current-layer="g17">
	<inkscape:page  x="0" width="552.47662" y="0" height="504.95132" id="page15"></inkscape:page>
</sodipodi:namedview>
<g>
	<circle id="path13047_2_" fill="#F9F7F7" stroke="#FDFFFF" stroke-miterlimit="10" cx="41.859" cy="12.664" r="9.587"/>
	<rect x="36.136" y="0.68" fill="#FF3300" width="11.482" height="23.948"/>
	
		<g id="g17_1_" transform="matrix(1.3333333,0,0,-1.3333333,-138.36684,1585.994)" inkscape:groupmode="layer" inkscape:label="Page 1">
		<circle id="path13047_4_" fill="#FF3300" cx="131.63" cy="1179.999" r="8.988"/>
	</g>
	<circle id="path13047_3_" fill="#FF3300" cx="47.859" cy="12.663" r="11.983"/>
	<path fill="#F9F9F9" d="M47.986,2.253c-0.771,0-6.229,0-7,0c-1.656,0-3,1.345-3,3v15.712c0,1.656,1.344,2.998,3,2.998
		c0.771,0,6.229,0,7,0c1.656,0,3-1.342,3-2.998V5.254C50.987,3.598,49.642,2.253,47.986,2.253z"/>
	<path fill="#F9F9F9" d="M41.377,2.253c-0.771,0-3.229,0-4,0c-1.656,0-3,1.345-3,3v15.712c0,1.656,1.344,2.998,3,2.998
		c0.771,0,3.229,0,4,0c1.656,0,3-1.342,3-2.998V5.254C44.378,3.598,43.033,2.253,41.377,2.253z"/>
	<g>
		<path fill="#FF3300" d="M44.66,18.746h-7.086c-0.663,0-1.2-0.536-1.2-1.198c0-0.663,0.538-1.2,1.2-1.2h7.086
			c0.663,0,1.2,0.537,1.2,1.2C45.86,18.209,45.322,18.746,44.66,18.746z"/>
	</g>
	<g>
		<path fill="#FF3300" d="M47.66,18.746h-7.086c-0.663,0-1.2-0.536-1.2-1.198c0-0.663,0.538-1.2,1.2-1.2h7.086
			c0.663,0,1.2,0.537,1.2,1.2C48.86,18.209,48.322,18.746,47.66,18.746z"/>
	</g>
	<g>
		<path fill="#FF3300" d="M42.38,12.346c-0.663,0-1.2-0.537-1.2-1.199V4.859c0-0.663,0.538-1.2,1.2-1.2s1.2,0.537,1.2,1.2v6.288
			C43.581,11.809,43.043,12.346,42.38,12.346z"/>
	</g>
	<g>
		<path fill="#FF3300" d="M36.926,6.828c0.238,0,0.478,0.07,0.685,0.216l5.559,3.88c0.544,0.38,0.677,1.127,0.298,1.671
			c-0.382,0.543-1.127,0.675-1.673,0.298l-5.557-3.881c-0.546-0.379-0.679-1.127-0.297-1.671
			C36.175,7.007,36.548,6.828,36.926,6.828z"/>
	</g>
	<g>
		<path fill="#FF3300" d="M37.377,18.746c-0.828,0-1.5-0.672-1.5-1.5v-2.858c0-0.827,0.672-1.499,1.5-1.499s1.5,0.672,1.5,1.499
			v2.858C38.877,18.075,38.205,18.746,37.377,18.746z"/>
	</g>
	<g>
		<path fill="#FF3300" d="M47.377,18.746c-0.828,0-1.5-0.672-1.5-1.5v-2.858c0-0.827,0.672-1.499,1.5-1.499s1.5,0.672,1.5,1.499
			v2.858C48.877,18.075,48.205,18.746,47.377,18.746z"/>
	</g>
	<g>
		<path fill="#FF3300" d="M48.411,6.464c0.378,0,0.749,0.177,0.983,0.509c0.381,0.542,0.25,1.291-0.291,1.672l-6.032,4.244
			c-0.542,0.381-1.289,0.251-1.672-0.291c-0.383-0.542-0.25-1.289,0.289-1.671l6.033-4.244C47.931,6.535,48.171,6.464,48.411,6.464z
			"/>
	</g>
</g>
</svg>
