<?xml version="1.0" encoding="utf-8"?>
<!-- Generator: Adobe Illustrator 16.0.2, SVG Export Plug-In . SVG Version: 6.00 Build 0)  -->
<!DOCTYPE svg PUBLIC "-//W3C//DTD SVG 1.1//EN" "http://www.w3.org/Graphics/SVG/1.1/DTD/svg11.dtd">
<svg version="1.1"
	 id="svg9" xmlns:inkscape="http://www.inkscape.org/namespaces/inkscape" xmlns:dc="http://purl.org/dc/elements/1.1/" xmlns:svg="http://www.w3.org/2000/svg" xmlns:rdf="http://www.w3.org/1999/02/22-rdf-syntax-ns#" xmlns:cc="http://creativecommons.org/ns#" xmlns:sodipodi="http://sodipodi.sourceforge.net/DTD/sodipodi-0.dtd" inkscape:version="0.92.3 (2405546, 2018-03-11)" sodipodi:docname="btn1.svg"
	 xmlns="http://www.w3.org/2000/svg" xmlns:xlink="http://www.w3.org/1999/xlink" x="0px" y="0px" width="82.964px"
	 height="25.877px" viewBox="0 0 82.964 25.877" enable-background="new 0 0 82.964 25.877" xml:space="preserve">
<sodipodi:namedview  id="namedview11" inkscape:cx="-0.019405042" borderopacity="1" inkscape:zoom="1.3192231" inkscape:cy="-164.53891" pagecolor="#ffffff" showgrid="false" bordercolor="#111111" inkscape:window-maximized="1" inkscape:pagecheckerboard="1" inkscape:window-width="1920" inkscape:showpageshadow="0" inkscape:pageopacity="0" inkscape:deskcolor="#d1d1d1" inkscape:window-x="-8" inkscape:window-y="-8" inkscape:window-height="1057" inkscape:current-layer="g17">
	<inkscape:page  x="0" width="552.47662" y="0" height="504.95132" id="page15"></inkscape:page>
</sodipodi:namedview>
<g id="g17" transform="matrix(1.3333333,0,0,-1.3333333,-138.36684,1585.994)" inkscape:groupmode="layer" inkscape:label="Page 1">
	<path id="path21" inkscape:connector-curvature="0" inkscape:label="bg13" fill="#F0F0FA" d="M103.775,1189.083h20.712v-18.995
		h-20.712V1189.083L103.775,1189.083z"/>
	<circle id="path13047" fill="#FF3300" cx="113.989" cy="1179.655" r="8.988"/>
</g>
<rect x="14.399" y="1.138" fill="#FF3300" width="53.697" height="23.948"/>
<circle id="path13047_1_" fill="#FF3300" cx="69.337" cy="13.121" r="11.984"/>
<circle id="path13047_2_" fill="#F9F7F7" cx="69.337" cy="13.122" r="9.587"/>
<text transform="matrix(1 0 0 1 12.0474 18.08)" fill="#FFFFFF" font-family="'Bahnschrift'" font-size="14">HOME</text>
<g id="g17_1_" transform="matrix(1.3333333,0,0,-1.3333333,-138.36684,1585.994)" inkscape:groupmode="layer" inkscape:label="Page 1">
	<circle id="path13047_3_" fill="#1CF2E2" cx="82.996" cy="1242.319" r="8.988"/>
</g>
<text transform="matrix(1 0 0 1 -26.3945 -41.2062)" fill="#61A372" font-family="'Bahnschrift'" font-size="14">APLICACIONES</text>
<line fill="none" stroke="#000000" stroke-width="3" stroke-linecap="round" stroke-linejoin="round" stroke-miterlimit="10" x1="26.397" y1="43.542" x2="38.256" y2="43.542"/>
<line fill="none" stroke="#000000" stroke-width="3" stroke-linecap="round" stroke-linejoin="round" stroke-miterlimit="10" x1="26.397" y1="48.046" x2="38.256" y2="48.046"/>
<line fill="none" stroke="#000000" stroke-width="3" stroke-linecap="round" stroke-linejoin="round" stroke-miterlimit="10" x1="26.408" y1="52.325" x2="38.267" y2="52.325"/>
<g>
	
		<line fill="none" stroke="#000000" stroke-width="3" stroke-linecap="round" stroke-linejoin="round" stroke-miterlimit="10" x1="73.593" y1="61.02" x2="82.452" y2="61.02"/>
	<g>
		
			<line fill="none" stroke="#000000" stroke-width="3" stroke-linecap="round" stroke-linejoin="round" stroke-miterlimit="10" x1="73.574" y1="61.02" x2="73.574" y2="53.161"/>
		
			<line fill="none" stroke="#000000" stroke-width="3" stroke-linecap="round" stroke-linejoin="round" stroke-miterlimit="10" x1="85.026" y1="54.011" x2="78.078" y2="49.161"/>
		
			<line fill="none" stroke="#000000" stroke-width="3" stroke-linecap="round" stroke-linejoin="round" stroke-miterlimit="10" x1="78.078" y1="60.02" x2="78.078" y2="57.161"/>
		
			<line fill="none" stroke="#000000" stroke-width="3" stroke-linecap="round" stroke-linejoin="round" stroke-miterlimit="10" x1="70.538" y1="54.466" x2="78.078" y2="49.161"/>
		
			<line fill="none" stroke="#000000" stroke-width="3" stroke-linecap="round" stroke-linejoin="round" stroke-miterlimit="10" x1="82.357" y1="61.009" x2="82.357" y2="53.151"/>
	</g>
</g>
<g>
	<g>
		<path d="M74.006,19.645h-8.858c-0.828,0-1.5-0.672-1.5-1.5s0.672-1.5,1.5-1.5h8.858c0.828,0,1.5,0.672,1.5,1.5
			S74.834,19.645,74.006,19.645z"/>
	</g>
	<g>
		<g>
			<path d="M65.128,19.645c-0.828,0-1.5-0.672-1.5-1.5v-7.859c0-0.828,0.672-1.5,1.5-1.5s1.5,0.672,1.5,1.5v7.859
				C66.628,18.973,65.957,19.645,65.128,19.645z"/>
		</g>
		<g>
			<path d="M76.58,12.636c-0.297,0-0.596-0.088-0.857-0.27l-6.948-4.85c-0.68-0.475-0.846-1.409-0.372-2.089
				c0.475-0.68,1.409-0.843,2.089-0.372l6.948,4.85c0.68,0.475,0.846,1.409,0.372,2.089C77.519,12.412,77.053,12.636,76.58,12.636z"
				/>
		</g>
		<g>
			<path d="M69.632,18.645c-0.828,0-1.5-0.672-1.5-1.5v-2.859c0-0.828,0.672-1.5,1.5-1.5s1.5,0.672,1.5,1.5v2.859
				C71.132,17.973,70.46,18.645,69.632,18.645z"/>
		</g>
		<g>
			<path d="M62.093,13.091c-0.472,0-0.936-0.222-1.228-0.637c-0.477-0.678-0.314-1.613,0.363-2.09l7.54-5.305
				c0.678-0.476,1.612-0.314,2.09,0.363c0.477,0.678,0.314,1.613-0.363,2.09l-7.54,5.305C62.693,13.002,62.392,13.091,62.093,13.091
				z"/>
		</g>
		<g>
			<path d="M73.912,19.634c-0.828,0-1.5-0.672-1.5-1.5v-7.857c0-0.828,0.672-1.5,1.5-1.5s1.5,0.672,1.5,1.5v7.857
				C75.412,18.962,74.74,19.634,73.912,19.634z"/>
		</g>
	</g>
</g>
</svg>
