<?xml version="1.0" encoding="utf-8"?>
<!-- Generator: Adobe Illustrator 16.0.2, SVG Export Plug-In . SVG Version: 6.00 Build 0)  -->
<!DOCTYPE svg PUBLIC "-//W3C//DTD SVG 1.1//EN" "http://www.w3.org/Graphics/SVG/1.1/DTD/svg11.dtd">
<svg version="1.1"
	 id="svg9" xmlns:rdf="http://www.w3.org/1999/02/22-rdf-syntax-ns#" xmlns:cc="http://creativecommons.org/ns#" xmlns:sodipodi="http://sodipodi.sourceforge.net/DTD/sodipodi-0.dtd" xmlns:inkscape="http://www.inkscape.org/namespaces/inkscape" xmlns:dc="http://purl.org/dc/elements/1.1/" xmlns:svg="http://www.w3.org/2000/svg" inkscape:version="0.92.3 (2405546, 2018-03-11)" sodipodi:docname="btn1.svg"
	 xmlns="http://www.w3.org/2000/svg" xmlns:xlink="http://www.w3.org/1999/xlink" x="0px" y="0px" width="40.674px"
	 height="25.877px" viewBox="43.03 0 40.674 25.877" enable-background="new 43.03 0 40.674 25.877" xml:space="preserve">
<sodipodi:namedview  id="namedview11" inkscape:cx="-0.019405042" borderopacity="1" inkscape:zoom="1.3192231" inkscape:cy="-164.53891" pagecolor="#ffffff" showgrid="false" bordercolor="#111111" inkscape:window-maximized="1" inkscape:pagecheckerboard="1" inkscape:window-width="1920" inkscape:showpageshadow="0" inkscape:pageopacity="0" inkscape:deskcolor="#d1d1d1" inkscape:window-x="-8" inkscape:window-y="-8" inkscape:window-height="1057" inkscape:current-layer="g17">
	<inkscape:page  x="0" width="552.47662" y="0" height="504.95132" id="page15"></inkscape:page>
</sodipodi:namedview>
<g id="g17" transform="matrix(1.3333333,0,0,-1.3333333,-138.36684,1585.994)" inkscape:groupmode="layer" inkscape:label="Page 1">
	<circle id="path13047" fill="#FF3300" cx="146.989" cy="1179.655" r="8.988"/>
</g>
<rect x="56.614" y="1.138" fill="#FF3300" width="11.482" height="23.948"/>
<circle id="path13047_1_" fill="#FF3300" cx="69.337" cy="13.121" r="11.984"/>
<circle id="path13047_2_" fill="#F9F7F7" stroke="#FDFFFF" stroke-miterlimit="10" cx="69.337" cy="13.122" r="9.587"/>
<line fill="none" stroke="#000000" stroke-width="3" stroke-linecap="round" stroke-linejoin="round" stroke-miterlimit="10" x1="26.397" y1="43.542" x2="38.255" y2="43.542"/>
<line fill="none" stroke="#000000" stroke-width="3" stroke-linecap="round" stroke-linejoin="round" stroke-miterlimit="10" x1="26.397" y1="48.046" x2="38.255" y2="48.046"/>
<line fill="none" stroke="#000000" stroke-width="3" stroke-linecap="round" stroke-linejoin="round" stroke-miterlimit="10" x1="26.408" y1="52.325" x2="38.267" y2="52.325"/>
<g>
	
		<line fill="none" stroke="#000000" stroke-width="3" stroke-linecap="round" stroke-linejoin="round" stroke-miterlimit="10" x1="73.593" y1="61.02" x2="82.453" y2="61.02"/>
	<g>
		
			<line fill="none" stroke="#000000" stroke-width="3" stroke-linecap="round" stroke-linejoin="round" stroke-miterlimit="10" x1="73.574" y1="61.02" x2="73.574" y2="53.161"/>
		
			<line fill="none" stroke="#000000" stroke-width="3" stroke-linecap="round" stroke-linejoin="round" stroke-miterlimit="10" x1="85.026" y1="54.011" x2="78.078" y2="49.161"/>
		
			<line fill="none" stroke="#000000" stroke-width="3" stroke-linecap="round" stroke-linejoin="round" stroke-miterlimit="10" x1="78.078" y1="60.02" x2="78.078" y2="57.161"/>
		
			<line fill="none" stroke="#000000" stroke-width="3" stroke-linecap="round" stroke-linejoin="round" stroke-miterlimit="10" x1="70.539" y1="54.466" x2="78.078" y2="49.161"/>
		
			<line fill="none" stroke="#000000" stroke-width="3" stroke-linecap="round" stroke-linejoin="round" stroke-miterlimit="10" x1="82.357" y1="61.009" x2="82.357" y2="53.151"/>
	</g>
</g>
<g>
	<path fill="#FF3300" d="M73.766,14.438h-8.857c-0.828,0-1.5-0.672-1.5-1.5s0.672-1.5,1.5-1.5h8.857c0.828,0,1.5,0.672,1.5,1.5
		S74.594,14.438,73.766,14.438z"/>
</g>
<g>
	<path fill="#FF3300" d="M69.581,18.409c-0.828,0-1.5-0.672-1.5-1.5v-7.86c0-0.828,0.672-1.5,1.5-1.5s1.5,0.672,1.5,1.5v7.86
		C71.081,17.737,70.41,18.409,69.581,18.409z"/>
</g>
<g>
	<path fill="#FF3300" d="M61.623,48.466c-0.297,0-0.597-0.088-0.855-0.27l-6.948-4.85c-0.68-0.476-0.846-1.41-0.372-2.09
		c0.478-0.68,1.409-0.843,2.091-0.371l6.946,4.85c0.683,0.475,0.849,1.408,0.372,2.089C62.562,48.242,62.096,48.466,61.623,48.466z"
		/>
</g>
<g>
	<path fill="#FF3300" d="M54.675,54.475c-0.828,0-1.5-0.672-1.5-1.5v-2.859c0-0.828,0.672-1.5,1.5-1.5s1.5,0.672,1.5,1.5v2.859
		C56.175,53.804,55.503,54.475,54.675,54.475z"/>
</g>
<g>
	<path fill="#FF3300" d="M47.136,48.921c-0.473,0-0.936-0.222-1.229-0.637c-0.477-0.678-0.313-1.613,0.363-2.09l7.54-5.305
		c0.678-0.477,1.611-0.314,2.09,0.362c0.479,0.679,0.313,1.613-0.36,2.091l-7.541,5.305C47.736,48.832,47.435,48.921,47.136,48.921z
		"/>
</g>
<g>
	<path fill="#FF3300" d="M54.675,54.475c-0.828,0-1.5-0.672-1.5-1.5v-7.857c0-0.827,0.672-1.5,1.5-1.5s1.5,0.673,1.5,1.5v7.857
		C56.175,53.804,55.503,54.475,54.675,54.475z"/>
</g>
</svg>
