<?xml version="1.0" encoding="utf-8"?>
<!-- Generator: Adobe Illustrator 16.0.2, SVG Export Plug-In . SVG Version: 6.00 Build 0)  -->
<!DOCTYPE svg PUBLIC "-//W3C//DTD SVG 1.1//EN" "http://www.w3.org/Graphics/SVG/1.1/DTD/svg11.dtd">
<svg version="1.1"
	 id="svg9" xmlns:rdf="http://www.w3.org/1999/02/22-rdf-syntax-ns#" xmlns:cc="http://creativecommons.org/ns#" xmlns:sodipodi="http://sodipodi.sourceforge.net/DTD/sodipodi-0.dtd" xmlns:inkscape="http://www.inkscape.org/namespaces/inkscape" xmlns:dc="http://purl.org/dc/elements/1.1/" xmlns:svg="http://www.w3.org/2000/svg" inkscape:version="0.92.3 (2405546, 2018-03-11)" sodipodi:docname="btn1.svg"
	 xmlns="http://www.w3.org/2000/svg" xmlns:xlink="http://www.w3.org/1999/xlink" x="0px" y="0px" width="38.678px"
	 height="25.877px" viewBox="44.217 0 38.678 25.877" enable-background="new 44.217 0 38.678 25.877" xml:space="preserve">
<sodipodi:namedview  id="namedview11" inkscape:cx="-0.019405042" borderopacity="1" inkscape:zoom="1.3192231" inkscape:cy="-164.53891" pagecolor="#ffffff" showgrid="false" bordercolor="#111111" inkscape:window-maximized="1" inkscape:pagecheckerboard="1" inkscape:window-width="1920" inkscape:showpageshadow="0" inkscape:pageopacity="0" inkscape:deskcolor="#d1d1d1" inkscape:window-x="-8" inkscape:window-y="-8" inkscape:window-height="1057" inkscape:current-layer="g17">
	<inkscape:page  x="0" width="552.47662" y="0" height="504.95132" id="page15"></inkscape:page>
</sodipodi:namedview>
<g id="g17" transform="matrix(1.3333333,0,0,-1.3333333,-138.36684,1585.994)" inkscape:groupmode="layer" inkscape:label="Page 1">
	<circle id="path13047" fill="#FF3300" cx="148.225" cy="1179.655" r="8.988"/>
</g>
<rect x="58.261" y="1.138" fill="#FF3300" width="11.482" height="23.948"/>
<circle id="path13047_1_" fill="#FF3300" cx="70.985" cy="13.121" r="11.984"/>
<circle id="path13047_2_" fill="#F9F7F7" stroke="#FDFFFF" stroke-miterlimit="10" cx="70.985" cy="13.122" r="9.587"/>
<g>
	<g>
		<path fill="#FF3300" d="M70.065,20.354c0-0.297,0.088-0.597,0.27-0.855l4.85-6.948c0.476-0.68,1.41-0.846,2.09-0.372
			c0.68,0.478,0.843,1.409,0.371,2.091l-4.85,6.946c-0.475,0.683-1.408,0.849-2.089,0.372
			C70.288,21.293,70.065,20.827,70.065,20.354z"/>
	</g>
	<g>
		<path fill="#FF3300" d="M64.055,13.406c0-0.828,0.672-1.5,1.5-1.5h2.859c0.828,0,1.5,0.672,1.5,1.5s-0.672,1.5-1.5,1.5h-2.859
			C64.727,14.906,64.055,14.234,64.055,13.406z"/>
	</g>
	<g>
		<path fill="#FF3300" d="M69.61,5.867c0-0.473,0.222-0.936,0.637-1.229c0.678-0.477,1.613-0.313,2.09,0.363l5.305,7.54
			c0.477,0.678,0.314,1.611-0.362,2.09c-0.679,0.479-1.613,0.313-2.091-0.36l-5.305-7.541C69.698,6.467,69.61,6.166,69.61,5.867z"/>
	</g>
	<g>
		<path fill="#FF3300" d="M64.055,13.406c0-0.828,0.672-1.5,1.5-1.5h7.857c0.827,0,1.5,0.672,1.5,1.5s-0.673,1.5-1.5,1.5h-7.857
			C64.727,14.906,64.055,14.234,64.055,13.406z"/>
	</g>
</g>
</svg>
