<?xml version="1.0" encoding="utf-8"?>
<!-- Generator: Adobe Illustrator 16.0.2, SVG Export Plug-In . SVG Version: 6.00 Build 0)  -->
<!DOCTYPE svg PUBLIC "-//W3C//DTD SVG 1.1//EN" "http://www.w3.org/Graphics/SVG/1.1/DTD/svg11.dtd">
<svg version="1.1"
	 id="svg815" xmlns:rdf="http://www.w3.org/1999/02/22-rdf-syntax-ns#" xmlns:cc="http://creativecommons.org/ns#" xmlns:sodipodi="http://sodipodi.sourceforge.net/DTD/sodipodi-0.dtd" xmlns:inkscape="http://www.inkscape.org/namespaces/inkscape" xmlns:dc="http://purl.org/dc/elements/1.1/" xmlns:svg="http://www.w3.org/2000/svg" inkscape:version="0.92.3 (2405546, 2018-03-11)" sodipodi:docname="menu_pbx.svg"
	 xmlns="http://www.w3.org/2000/svg" xmlns:xlink="http://www.w3.org/1999/xlink" x="0px" y="0px" width="119.199px" height="40px"
	 viewBox="134.9 45.95 119.199 40" enable-background="new 134.9 45.95 119.199 40" xml:space="preserve">
<text id="text3502" transform="matrix(0.7391 0 0 1 143.1855 60.9492)" fill="#FE9929" font-family="'Bahnschrift'" font-size="8.7912">&gt;&gt; SIGUIENTE</text>
<g id="g3506" transform="matrix(0.93125,0,0,0.91575088,8.25,3.4500008)" enable-background="new    ">
	
		<text id="text3504" transform="matrix(0.7937 0 0 1.092 189.9769 62.7891)" fill="#FE9929" font-family="'Bahnschrift'" font-size="8.7912">&gt;&gt; PASILLOS &gt;&gt;</text>
</g>
<line id="line3508" fill="none" x1="134.9" y1="85.95" x2="254.1" y2="45.95"/>
<sodipodi:namedview  id="namedview817" inkscape:cx="132.5614" borderopacity="1" inkscape:zoom="5.5729775" inkscape:cy="26.018719" pagecolor="#ffffff" showgrid="false" bordercolor="#666666" inkscape:window-maximized="1" inkscape:pagecheckerboard="0" inkscape:window-width="1920" inkscape:showpageshadow="2" inkscape:pageopacity="0" inkscape:deskcolor="#d1d1d1" inkscape:window-x="-8" inkscape:window-y="-8" inkscape:window-height="1057" inkscape:current-layer="svg815" fit-margin-left="0" objecttolerance="10" showguides="true" fit-margin-top="0" guidetolerance="10" gridtolerance="10" fit-margin-bottom="0" inkscape:snap-page="false" inkscape:pageshadow="2" fit-margin-right="0">
	</sodipodi:namedview>
<g id="g3519" transform="matrix(0.93125,0,0,0.91575088,8.25,3.4500008)">
	<g id="g3513">
		<path id="path3511" inkscape:connector-curvature="0" fill="#FF3300" d="M137.612,78.435V58.058c0-1.254,0.231-2.431,0.691-3.558
			c0.46-1.075,1.126-2.049,1.971-2.892c1.766-1.766,3.892-2.637,6.425-2.637h106.624c1.229,0,2.38,0.23,3.533,0.717
			c1.075,0.435,2.047,1.101,2.893,1.92c1.766,1.792,2.635,3.917,2.635,6.451v20.377c0,1.255-0.23,2.432-0.716,3.559
			c-0.459,1.075-1.1,2.048-1.919,2.868c-0.846,0.846-1.818,1.511-2.893,1.946c-1.152,0.484-2.304,0.717-3.533,0.717H146.7
			c-1.253,0-2.407-0.232-3.558-0.717c-1.076-0.435-2.048-1.101-2.867-1.946c-0.844-0.82-1.51-1.793-1.971-2.868
			C137.843,80.867,137.612,79.69,137.612,78.435L137.612,78.435z"/>
	</g>
	<g id="g3517">
		
			<path id="path3515" inkscape:connector-curvature="0" fill="none" stroke="#999999" stroke-width="0.5" stroke-linecap="round" stroke-linejoin="round" stroke-miterlimit="10" d="
			M137.612,78.435c0,1.254,0.231,2.431,0.691,3.559c0.46,1.076,1.126,2.049,1.971,2.868c0.819,0.846,1.791,1.51,2.866,1.945
			c1.152,0.486,2.304,0.717,3.559,0.717h106.622c1.229,0,2.382-0.232,3.534-0.717c1.075-0.435,2.048-1.099,2.892-1.945
			c0.82-0.819,1.46-1.792,1.919-2.868c0.487-1.127,0.717-2.305,0.717-3.559V58.058c0-2.534-0.87-4.658-2.636-6.45
			c-0.845-0.819-1.817-1.484-2.892-1.921c-1.152-0.486-2.305-0.717-3.533-0.717H146.7c-2.536,0-4.659,0.871-6.426,2.637
			c-0.845,0.845-1.51,1.817-1.971,2.892c-0.46,1.126-0.69,2.305-0.69,3.559V78.435"/>
	</g>
</g>
<g id="g3529" transform="matrix(0.93125,0,0,0.91575088,8.25,3.4500008)">
	<g id="g3523">
		
			<path id="path3521" inkscape:connector-curvature="0" fill="none" stroke="#999999" stroke-width="0.4" stroke-linecap="round" stroke-linejoin="round" stroke-miterlimit="10" d="
			M227.673,76.414c0,2.022,0.716,3.713,2.126,5.12c1.407,1.434,3.124,2.151,5.146,2.151h16.333c1.995,0,3.712-0.717,5.146-2.151
			c1.407-1.409,2.098-3.098,2.098-5.12V60.082c0-2.023-0.69-3.713-2.098-5.146c-1.434-1.408-3.15-2.125-5.146-2.125h-16.334
			c-2.022,0-3.737,0.718-5.147,2.125c-1.407,1.433-2.124,3.122-2.124,5.146V76.414"/>
	</g>
	<g id="g3527">
		<path id="path3525" inkscape:connector-curvature="0" fill="#F2F2F2" d="M227.673,76.414V60.082c0-2.023,0.716-3.713,2.126-5.146
			c1.407-1.408,3.124-2.125,5.146-2.125h16.333c1.995,0,3.712,0.718,5.146,2.125c1.407,1.433,2.098,3.122,2.098,5.146v16.332
			c0,2.023-0.69,3.713-2.098,5.121c-1.434,1.433-3.15,2.15-5.146,2.15h-16.334c-2.022,0-3.737-0.716-5.147-2.15
			C228.391,80.125,227.673,78.435,227.673,76.414L227.673,76.414z"/>
	</g>
</g>
<path id="path3531" inkscape:connector-curvature="0" fill="#FF0000" d="M246.519,65.011c0-0.234-0.047-0.471-0.142-0.68
	c-0.072-0.211-0.215-0.422-0.405-0.609l-8.607-8.488c-0.19-0.141-0.405-0.305-0.62-0.375c-0.215-0.094-0.452-0.141-0.69-0.141
	c-0.239,0-0.453,0.047-0.691,0.141c-0.238,0.07-0.43,0.234-0.596,0.375l-0.668,0.656c-0.167,0.164-0.286,0.375-0.38,0.586
	c-0.096,0.211-0.144,0.445-0.144,0.68c0,0.236,0.048,0.469,0.144,0.68c0.094,0.211,0.215,0.422,0.38,0.609l4.688,4.596h-0.563H231.5
	h-5.484c-0.263,0-0.5,0.046-0.713,0.14c-0.217,0.071-0.43,0.212-0.573,0.376c-0.169,0.164-0.31,0.352-0.404,0.563
	c-0.097,0.234-0.144,0.469-0.144,0.703v0.915c0,0.259,0.047,0.492,0.144,0.703c0.095,0.211,0.237,0.399,0.404,0.563
	c0.143,0.164,0.356,0.305,0.573,0.398c0.214,0.07,0.452,0.115,0.713,0.115h5.484h6.723h0.404l-4.695,4.619
	c-0.193,0.188-0.312,0.375-0.406,0.609c-0.096,0.211-0.143,0.445-0.143,0.68c0,0.235,0.047,0.445,0.143,0.68
	c0.095,0.234,0.215,0.422,0.406,0.586l0.641,0.633c0.168,0.188,0.358,0.305,0.598,0.398c0.238,0.094,0.453,0.141,0.691,0.141
	s0.453-0.047,0.691-0.141s0.428-0.211,0.596-0.398l8.631-8.486c0.191-0.164,0.31-0.375,0.404-0.588
	c0.056-0.134,0.093-0.261,0.115-0.389c0.03-0.057,0.056-0.115,0.076-0.173C246.471,65.479,246.519,65.245,246.519,65.011
	L246.519,65.011z"/>
<g id="g3669" transform="matrix(0.93125,0,0,0.91575088,8.25,3.4500008)">
	<g id="g3537">
		<g id="g3535">
			<path id="path3533" inkscape:connector-curvature="0" fill="#FE9929" d="M150.055,80.125l0.896-0.665l-0.896-0.665v-1.049
				l2.201,1.715l-2.201,1.717V80.125z"/>
		</g>
	</g>
	<g id="g3543">
		<g id="g3541">
			<path id="path3539" inkscape:connector-curvature="0" fill="#FE9929" d="M152.385,80.125l0.921-0.665l-0.921-0.665v-1.05
				l2.201,1.716l-2.201,1.717V80.125z"/>
		</g>
	</g>
	<g id="g3551">
		<g id="g3549">
			<path id="path3545" inkscape:connector-curvature="0" fill="#FE9929" d="M158.349,79.894h-0.794v-0.766h0.819
				c0.102,0,0.204-0.026,0.281-0.078c0.103-0.05,0.154-0.126,0.206-0.229c0.025-0.077,0.05-0.207,0.05-0.358v-0.949
				c0-0.154-0.025-0.256-0.05-0.358c-0.051-0.102-0.103-0.179-0.206-0.23c-0.077-0.051-0.179-0.077-0.281-0.077h-0.819v-0.793h0.793
				c0.282,0,0.512,0.077,0.768,0.18c0.179,0.127,0.359,0.283,0.487,0.513c0.077,0.179,0.153,0.435,0.153,0.768v0.974
				c0,0.307-0.077,0.562-0.178,0.767c-0.103,0.206-0.257,0.357-0.461,0.46C158.912,79.845,158.656,79.894,158.349,79.894z"/>
			<path id="path3547" inkscape:connector-curvature="0" fill="#FE9929" d="M156.735,82.327v-6.272h0.461v0.793h0.359v2.278h-0.359
				v0.768h0.359v2.432H156.735z"/>
		</g>
	</g>
	<g id="g3559">
		<g id="g3557">
			<path id="path3553" inkscape:connector-curvature="0" fill="#FE9929" d="M162.087,77.335l-0.538,2.869h-0.332v0.766h0.204
				l-0.257,1.359h-0.896l1.46-6.273h0.741l1.46,6.273h-0.896l-0.256-1.359h0.281v-0.766h-0.435L162.087,77.335z"/>
			<path id="path3555" inkscape:connector-curvature="0" fill="#FE9929" d="M162.778,80.969h-1.358l0.128-0.766h1.076
				L162.778,80.969z"/>
		</g>
	</g>
	<g id="g3565">
		<g id="g3563">
			<path id="path3561" inkscape:connector-curvature="0" fill="#FE9929" d="M166.259,78.819l0.665,0.333
				c0.154,0.102,0.282,0.282,0.385,0.435c0.102,0.181,0.127,0.435,0.127,0.767v0.564c0,0.332-0.025,0.59-0.152,0.82
				c-0.103,0.205-0.281,0.383-0.512,0.459c-0.231,0.128-0.512,0.207-0.819,0.207c-0.307,0-0.588-0.077-0.819-0.207
				c-0.23-0.076-0.409-0.255-0.512-0.459c-0.128-0.256-0.179-0.514-0.179-0.82V80.61h0.819v0.257c0,0.257,0.051,0.41,0.179,0.539
				c0.128,0.127,0.307,0.206,0.512,0.206c0.206,0,0.384-0.077,0.513-0.206c0.128-0.127,0.18-0.282,0.18-0.539v-0.513
				c0-0.152-0.052-0.282-0.103-0.383c-0.078-0.102-0.179-0.205-0.282-0.282l-0.487-0.231l0,0h-0.025l-0.05-0.025l-0.641-0.359
				c-0.204-0.126-0.332-0.282-0.434-0.486c-0.129-0.23-0.18-0.486-0.18-0.767v-0.384c0-0.282,0.051-0.539,0.18-0.768
				c0.102-0.23,0.281-0.383,0.512-0.512c0.23-0.102,0.512-0.154,0.818-0.154c0.307,0,0.563,0.051,0.794,0.154
				c0.23,0.127,0.385,0.282,0.512,0.512c0.103,0.232,0.179,0.514,0.179,0.793v0.332h-0.819v-0.28c0-0.23-0.077-0.384-0.179-0.537
				c-0.102-0.102-0.281-0.18-0.487-0.18c-0.231,0-0.409,0.077-0.512,0.18c-0.128,0.101-0.179,0.282-0.179,0.486v0.384
				c0,0.152,0.025,0.307,0.103,0.408c0.102,0.102,0.177,0.179,0.28,0.256l0.461,0.23c0.025,0,0.051,0,0.051,0.026
				c0.026,0.026,0.051,0.026,0.051,0.026L166.259,78.819z"/>
		</g>
	</g>
	<g id="g3571">
		<g id="g3569">
			<path id="path3567" inkscape:connector-curvature="0" fill="#FE9929" d="M169.074,76.055v6.274h-0.818v-6.274H169.074z"/>
		</g>
	</g>
	<g id="g3579">
		<g id="g3577">
			<path id="path3573" inkscape:connector-curvature="0" fill="#FE9929" d="M170.356,81.533v0.793h-0.436v-6.272h0.819v5.478
				H170.356z"/>
			<path id="path3575" inkscape:connector-curvature="0" fill="#FE9929" d="M170.738,81.533h1.792v0.793h-1.792V81.533z"/>
		</g>
	</g>
	<g id="g3587">
		<g id="g3585">
			<path id="path3581" inkscape:connector-curvature="0" fill="#FE9929" d="M173.58,81.533v0.793h-0.409v-6.272h0.793v5.478H173.58z
				"/>
			<path id="path3583" inkscape:connector-curvature="0" fill="#FE9929" d="M173.965,81.533h1.792v0.793h-1.792V81.533z"/>
		</g>
	</g>
	<g id="g3593">
		<g id="g3591">
			<path id="path3589" inkscape:connector-curvature="0" fill="#FE9929" d="M178.777,82.2c-0.231,0.127-0.512,0.205-0.845,0.205
				c-0.307,0-0.589-0.076-0.818-0.205c-0.257-0.128-0.436-0.309-0.539-0.539c-0.102-0.229-0.179-0.513-0.179-0.846v-3.25
				c0-0.333,0.078-0.614,0.179-0.846c0.103-0.23,0.282-0.408,0.539-0.537c0.255-0.127,0.537-0.181,0.818-0.181
				c0.333,0,0.615,0.051,0.845,0.181c0.206,0.1,0.409,0.307,0.538,0.537c0.128,0.257,0.179,0.539,0.179,0.846v3.25
				c0,0.308-0.05,0.589-0.179,0.846C179.187,81.892,179.007,82.072,178.777,82.2z M177.548,81.509
				c0.128,0.051,0.256,0.102,0.384,0.102c0.128,0,0.256-0.05,0.409-0.102c0.104-0.051,0.206-0.127,0.256-0.256
				c0.052-0.128,0.078-0.256,0.078-0.41V77.54c0-0.154-0.025-0.282-0.078-0.384c-0.05-0.128-0.152-0.23-0.256-0.256
				c-0.152-0.075-0.281-0.102-0.409-0.102c-0.128,0-0.256,0.026-0.384,0.102c-0.102,0.026-0.179,0.128-0.256,0.256
				c-0.05,0.102-0.076,0.23-0.076,0.384v3.304c0,0.151,0.025,0.282,0.076,0.408C177.369,81.381,177.447,81.458,177.548,81.509z"/>
		</g>
	</g>
	<g id="g3599">
		<g id="g3597">
			<path id="path3595" inkscape:connector-curvature="0" fill="#FE9929" d="M181.9,80.125l0.896-0.665l-0.896-0.665v-1.049
				l2.201,1.715l-2.201,1.717V80.125z"/>
		</g>
	</g>
	<g id="g3605">
		<g id="g3603">
			<path id="path3601" inkscape:connector-curvature="0" fill="#FE9929" d="M184.255,80.125l0.923-0.665l-0.923-0.665v-1.049
				l2.202,1.715l-2.202,1.717V80.125z"/>
		</g>
	</g>
	<g id="g3613">
		<g id="g3611">
			<path id="path3607" inkscape:connector-curvature="0" fill="#FE9929" d="M190.22,79.894h-0.793v-0.766h0.793
				c0.129,0,0.231-0.026,0.308-0.078c0.077-0.05,0.153-0.126,0.179-0.229c0.025-0.077,0.05-0.207,0.05-0.358v-0.949
				c0-0.154-0.025-0.256-0.05-0.358c-0.025-0.102-0.103-0.179-0.179-0.23c-0.078-0.051-0.179-0.077-0.308-0.077h-0.793v-0.793h0.793
				c0.282,0,0.538,0.077,0.768,0.18c0.18,0.127,0.36,0.283,0.461,0.513c0.128,0.206,0.18,0.461,0.18,0.768v0.974
				c0,0.282-0.05,0.512-0.18,0.767c-0.127,0.206-0.307,0.383-0.487,0.46C190.758,79.845,190.501,79.894,190.22,79.894L190.22,79.894
				z"/>
			<path id="path3609" inkscape:connector-curvature="0" fill="#FE9929" d="M188.607,82.327v-6.272h0.46v0.793h0.359v2.278h-0.359
				v0.768h0.359v2.432H188.607z"/>
		</g>
	</g>
	<g id="g3621">
		<g id="g3619">
			<path id="path3615" inkscape:connector-curvature="0" fill="#FE9929" d="M193.958,77.335l-0.537,2.869h-0.359v0.766h0.231
				l-0.283,1.359h-0.869l1.434-6.273h0.743l1.459,6.273h-0.87l-0.256-1.359h0.281v-0.766h-0.435L193.958,77.335z"/>
			<path id="path3617" inkscape:connector-curvature="0" fill="#FE9929" d="M194.65,80.969h-1.357l0.128-0.766h1.075L194.65,80.969z
				"/>
		</g>
	</g>
	<g id="g3627">
		<g id="g3625">
			<path id="path3623" inkscape:connector-curvature="0" fill="#FE9929" d="M198.029,78.769l0.103,0.05c0.025,0,0.025,0,0.025,0
				l0.616,0.333c0.152,0.102,0.282,0.23,0.383,0.435c0.129,0.205,0.153,0.461,0.153,0.767v0.564c0,0.307-0.05,0.564-0.153,0.82
				c-0.128,0.205-0.306,0.383-0.512,0.459c-0.231,0.128-0.512,0.207-0.844,0.207c-0.309,0-0.564-0.077-0.82-0.207
				c-0.231-0.076-0.383-0.255-0.512-0.459c-0.102-0.256-0.18-0.514-0.18-0.82V80.61h0.82v0.257c0,0.257,0.05,0.41,0.178,0.539
				c0.129,0.127,0.309,0.206,0.514,0.206c0.23,0,0.409-0.077,0.512-0.206c0.127-0.127,0.204-0.282,0.204-0.539v-0.513
				c0-0.152-0.05-0.282-0.128-0.383c-0.077-0.102-0.152-0.205-0.281-0.282l-0.461-0.231c0,0,0,0-0.025,0l0,0l-0.078-0.025
				l-0.64-0.359c-0.154-0.126-0.306-0.282-0.435-0.486c-0.102-0.179-0.153-0.434-0.153-0.767v-0.384
				c0-0.282,0.051-0.539,0.153-0.768c0.129-0.23,0.281-0.383,0.512-0.512c0.256-0.102,0.538-0.154,0.82-0.154
				c0.307,0,0.587,0.051,0.818,0.154c0.206,0.127,0.384,0.282,0.513,0.512c0.102,0.232,0.152,0.514,0.152,0.793v0.332h-0.818v-0.28
				c0-0.23-0.051-0.435-0.18-0.537c-0.102-0.102-0.255-0.18-0.487-0.18c-0.204,0-0.383,0.077-0.512,0.18
				c-0.127,0.102-0.152,0.282-0.152,0.486v0.384c0,0.178,0.025,0.307,0.102,0.408c0.077,0.102,0.153,0.179,0.281,0.256l0.46,0.23
				C198.002,78.743,198.002,78.743,198.029,78.769z"/>
		</g>
	</g>
	<g id="g3633">
		<g id="g3631">
			<path id="path3629" inkscape:connector-curvature="0" fill="#FE9929" d="M200.947,76.055v6.274h-0.845v-6.274H200.947z"/>
		</g>
	</g>
	<g id="g3641">
		<g id="g3639">
			<path id="path3635" inkscape:connector-curvature="0" fill="#FE9929" d="M202.227,81.533v0.793h-0.46v-6.272h0.845v5.478H202.227
				z"/>
			<path id="path3637" inkscape:connector-curvature="0" fill="#FE9929" d="M202.611,81.533h1.766v0.793h-1.766V81.533z"/>
		</g>
	</g>
	<g id="g3649">
		<g id="g3647">
			<path id="path3643" inkscape:connector-curvature="0" fill="#FE9929" d="M205.453,81.533v0.793h-0.435v-6.272h0.819v5.478
				H205.453z"/>
			<path id="path3645" inkscape:connector-curvature="0" fill="#FE9929" d="M205.836,81.533h1.792v0.793h-1.792V81.533z"/>
		</g>
	</g>
	<g id="g3655">
		<g id="g3653">
			<path id="path3651" inkscape:connector-curvature="0" fill="#FE9929" d="M210.649,82.2c-0.23,0.127-0.513,0.205-0.845,0.205
				c-0.307,0-0.615-0.076-0.82-0.205c-0.257-0.128-0.433-0.309-0.564-0.539c-0.101-0.256-0.153-0.537-0.153-0.846v-3.25
				c0-0.307,0.05-0.589,0.153-0.846c0.128-0.23,0.307-0.408,0.564-0.537c0.231-0.127,0.514-0.181,0.82-0.181
				c0.332,0,0.588,0.051,0.845,0.181c0.257,0.126,0.41,0.307,0.512,0.537c0.128,0.231,0.207,0.539,0.207,0.846v3.25
				c0,0.333-0.078,0.616-0.207,0.846C211.059,81.892,210.906,82.072,210.649,82.2z M209.421,81.509
				c0.126,0.051,0.256,0.102,0.383,0.102c0.152,0,0.282-0.05,0.409-0.102c0.102-0.051,0.179-0.127,0.257-0.256
				c0.05-0.128,0.076-0.256,0.076-0.41V77.54c0-0.128-0.025-0.256-0.076-0.384c-0.078-0.128-0.153-0.23-0.257-0.256
				c-0.127-0.075-0.257-0.102-0.409-0.102c-0.127,0-0.257,0.026-0.383,0.102c-0.128,0.051-0.207,0.128-0.257,0.256
				c-0.05,0.102-0.102,0.23-0.102,0.384v3.304c0,0.151,0.05,0.282,0.102,0.408C209.217,81.354,209.293,81.432,209.421,81.509z"/>
		</g>
	</g>
	<g id="g3661">
		<g id="g3659">
			<path id="path3657" inkscape:connector-curvature="0" fill="#FE9929" d="M213.773,80.125l0.922-0.665l-0.922-0.665v-1.049
				l2.202,1.715l-2.202,1.717V80.125z"/>
		</g>
	</g>
	<g id="g3667">
		<g id="g3665">
			<path id="path3663" inkscape:connector-curvature="0" fill="#FE9929" d="M216.127,80.125l0.897-0.665l-0.897-0.665v-1.049
				l2.202,1.715l-2.202,1.717V80.125z"/>
		</g>
	</g>
</g>
<text id="text3671" transform="matrix(0.7391 0 0 1 142.4317 70.3857)" fill="#FAFCFA" font-family="'Bahnschrift'" font-size="18.3246">PB. DUPLEX</text>
</svg>
