<?xml version="1.0" encoding="utf-8"?>
<!-- Generator: Adobe Illustrator 16.0.2, SVG Export Plug-In . SVG Version: 6.00 Build 0)  -->
<!DOCTYPE svg PUBLIC "-//W3C//DTD SVG 1.1//EN" "http://www.w3.org/Graphics/SVG/1.1/DTD/svg11.dtd">
<svg version="1.1"
	 id="svg815" xmlns:rdf="http://www.w3.org/1999/02/22-rdf-syntax-ns#" xmlns:cc="http://creativecommons.org/ns#" xmlns:sodipodi="http://sodipodi.sourceforge.net/DTD/sodipodi-0.dtd" xmlns:inkscape="http://www.inkscape.org/namespaces/inkscape" xmlns:dc="http://purl.org/dc/elements/1.1/" xmlns:svg="http://www.w3.org/2000/svg" inkscape:version="0.92.3 (2405546, 2018-03-11)" sodipodi:docname="menu_2do.svg"
	 xmlns="http://www.w3.org/2000/svg" xmlns:xlink="http://www.w3.org/1999/xlink" x="0px" y="0px" width="120.049px"
	 height="40.177px" viewBox="134.808 45.391 120.049 40.177" enable-background="new 134.808 45.391 120.049 40.177"
	 xml:space="preserve">
<line id="line2960" fill="none" stroke="#F9F7F7" stroke-width="0.9176" stroke-miterlimit="10" x1="134.952" y1="85.132" x2="254.714" y2="45.826"/>
<sodipodi:namedview  id="namedview817" inkscape:cx="62.046071" borderopacity="1" inkscape:zoom="6.6229588" inkscape:cy="21.651846" pagecolor="#ffffff" showgrid="false" bordercolor="#666666" inkscape:window-maximized="1" inkscape:pagecheckerboard="0" inkscape:window-width="1920" inkscape:showpageshadow="2" inkscape:pageopacity="0" inkscape:deskcolor="#d1d1d1" inkscape:window-x="-8" inkscape:window-y="-8" inkscape:window-height="1057" inkscape:current-layer="svg815" fit-margin-left="0" objecttolerance="10" showguides="true" fit-margin-top="0" guidetolerance="10" gridtolerance="10" fit-margin-bottom="0" inkscape:snap-page="false" inkscape:pageshadow="2" fit-margin-right="0">
	</sodipodi:namedview>
<g id="g2971" transform="matrix(0.93564838,0,0,0.89986325,7.7032573,4.0635082)">
	<g id="g2965">
		<path id="path2963" inkscape:connector-curvature="0" fill="#FF3300" d="M137.612,78.436V58.058c0-1.255,0.231-2.432,0.692-3.558
			c0.46-1.075,1.126-2.049,1.972-2.892c1.766-1.766,3.891-2.638,6.425-2.638h106.624c1.23,0,2.381,0.231,3.533,0.717
			c1.075,0.435,2.048,1.102,2.892,1.92c1.767,1.792,2.638,3.918,2.638,6.451v20.379c0,1.253-0.231,2.431-0.718,3.557
			c-0.458,1.075-1.099,2.048-1.918,2.867c-0.845,0.846-1.818,1.511-2.893,1.946c-1.151,0.485-2.302,0.716-3.532,0.716H146.701
			c-1.254,0-2.406-0.232-3.557-0.716c-1.076-0.435-2.049-1.099-2.867-1.946c-0.844-0.819-1.51-1.792-1.972-2.867
			C137.843,80.868,137.612,79.69,137.612,78.436L137.612,78.436z"/>
	</g>
	<g id="g2969">
		
			<path id="path2967" inkscape:connector-curvature="0" fill="none" stroke="#999999" stroke-width="0.5" stroke-linecap="round" stroke-linejoin="round" stroke-miterlimit="10" d="
			M137.612,78.436c0,1.255,0.231,2.432,0.692,3.558c0.46,1.075,1.126,2.048,1.972,2.867c0.818,0.845,1.791,1.51,2.867,1.946
			c1.151,0.485,2.304,0.716,3.558,0.716h106.624c1.228,0,2.382-0.232,3.533-0.716c1.075-0.436,2.048-1.1,2.892-1.946
			c0.82-0.819,1.461-1.792,1.919-2.867c0.487-1.126,0.718-2.305,0.718-3.558V58.058c0-2.534-0.87-4.659-2.638-6.451
			c-0.844-0.819-1.817-1.485-2.892-1.92c-1.151-0.486-2.305-0.717-3.533-0.717H146.701c-2.534,0-4.659,0.871-6.425,2.638
			c-0.844,0.844-1.51,1.817-1.971,2.891c-0.461,1.128-0.692,2.305-0.692,3.56v20.376"/>
	</g>
</g>
<g id="g2981" transform="matrix(0.93564838,0,0,0.89986325,7.7032573,4.0635082)">
	<g id="g2975">
		
			<path id="path2973" inkscape:connector-curvature="0" fill="none" stroke="#999999" stroke-width="0.4" stroke-linecap="round" stroke-linejoin="round" stroke-miterlimit="10" d="
			M227.673,76.414c0,2.022,0.717,3.713,2.127,5.119c1.406,1.435,3.122,2.151,5.146,2.151h16.332c1.995,0,3.712-0.715,5.146-2.151
			c1.408-1.408,2.098-3.097,2.098-5.119V60.081c0-2.022-0.689-3.713-2.098-5.146c-1.434-1.408-3.15-2.125-5.146-2.125h-16.334
			c-2.023,0-3.738,0.717-5.146,2.125c-1.408,1.434-2.125,3.123-2.125,5.146V76.414"/>
	</g>
	<g id="g2979">
		<path id="path2977" inkscape:connector-curvature="0" fill="#F2F2F2" d="M227.673,76.414V60.081c0-2.022,0.717-3.713,2.127-5.146
			c1.406-1.408,3.122-2.125,5.146-2.125h16.332c1.995,0,3.712,0.717,5.146,2.125c1.408,1.434,2.098,3.123,2.098,5.146v16.333
			c0,2.022-0.689,3.713-2.098,5.12c-1.434,1.434-3.15,2.15-5.146,2.15h-16.334c-2.023,0-3.738-0.715-5.146-2.15
			C228.39,80.125,227.673,78.436,227.673,76.414L227.673,76.414z"/>
	</g>
</g>
<path id="path2983" inkscape:connector-curvature="0" fill="#FF0000" d="M247.097,64.555c0-0.23-0.048-0.461-0.143-0.668
	c-0.072-0.207-0.216-0.414-0.408-0.599l-8.646-8.34c-0.193-0.138-0.406-0.299-0.624-0.368c-0.215-0.092-0.454-0.138-0.693-0.138
	c-0.24,0-0.455,0.046-0.694,0.138c-0.239,0.069-0.432,0.229-0.6,0.368l-0.671,0.646c-0.167,0.16-0.287,0.368-0.382,0.575
	c-0.096,0.208-0.144,0.437-0.144,0.668s0.047,0.461,0.144,0.668c0.095,0.208,0.216,0.415,0.382,0.6l4.71,4.515h-0.566h-6.755h-5.51
	c-0.264,0-0.503,0.045-0.717,0.138c-0.218,0.07-0.431,0.208-0.576,0.368c-0.168,0.163-0.311,0.347-0.406,0.555
	c-0.097,0.23-0.144,0.461-0.144,0.69v0.898c0,0.255,0.047,0.484,0.144,0.691c0.096,0.207,0.24,0.392,0.406,0.554
	c0.143,0.161,0.358,0.299,0.576,0.391c0.215,0.069,0.455,0.114,0.717,0.114h5.51h6.754h0.407l-4.719,4.539
	c-0.192,0.185-0.312,0.368-0.407,0.599c-0.096,0.207-0.144,0.438-0.144,0.667c0,0.231,0.047,0.438,0.144,0.668
	c0.096,0.23,0.216,0.415,0.407,0.576l0.646,0.623c0.169,0.184,0.358,0.298,0.599,0.391c0.241,0.091,0.456,0.138,0.694,0.138
	c0.24,0,0.456-0.046,0.694-0.138c0.24-0.093,0.431-0.208,0.601-0.391l8.671-8.341c0.191-0.162,0.311-0.368,0.406-0.576
	c0.056-0.133,0.094-0.258,0.116-0.384c0.029-0.055,0.056-0.112,0.076-0.168C247.05,65.016,247.097,64.785,247.097,64.555
	L247.097,64.555z"/>
<g id="g3121" transform="matrix(0.93564838,0,0,0.89986325,7.7032573,4.0635082)">
	<g id="g2989">
		<g id="g2987">
			<path id="path2985" inkscape:connector-curvature="0" fill="#FE9929" d="M150.054,80.125l0.897-0.665l-0.897-0.666v-1.049
				l2.202,1.716l-2.202,1.716V80.125z"/>
		</g>
	</g>
	<g id="g2995">
		<g id="g2993">
			<path id="path2991" inkscape:connector-curvature="0" fill="#FE9929" d="M152.384,80.125l0.922-0.665l-0.922-0.666v-1.051
				l2.202,1.717l-2.202,1.716V80.125z"/>
		</g>
	</g>
	<g id="g3003">
		<g id="g3001">
			<path id="path2997" inkscape:connector-curvature="0" fill="#FE9929" d="M158.349,79.894h-0.793v-0.766h0.818
				c0.102,0,0.205-0.025,0.282-0.077c0.102-0.051,0.152-0.126,0.206-0.229c0.025-0.078,0.05-0.207,0.05-0.359v-0.948
				c0-0.154-0.026-0.256-0.05-0.359c-0.052-0.102-0.103-0.178-0.206-0.23c-0.077-0.05-0.178-0.076-0.282-0.076h-0.818v-0.793h0.792
				c0.282,0,0.512,0.077,0.768,0.18c0.18,0.127,0.359,0.282,0.486,0.512c0.077,0.18,0.153,0.435,0.153,0.767v0.975
				c0,0.306-0.076,0.562-0.18,0.766c-0.102,0.206-0.256,0.358-0.461,0.46C158.913,79.844,158.656,79.894,158.349,79.894z"/>
			<path id="path2999" inkscape:connector-curvature="0" fill="#FE9929" d="M156.736,82.326v-6.272h0.46v0.793h0.359v2.279h-0.359
				v0.767h0.359v2.432H156.736z"/>
		</g>
	</g>
	<g id="g3011">
		<g id="g3009">
			<path id="path3005" inkscape:connector-curvature="0" fill="#FE9929" d="M162.086,77.336l-0.538,2.866h-0.333v0.768h0.206
				l-0.257,1.357h-0.896l1.458-6.273h0.743l1.459,6.273h-0.897l-0.255-1.357h0.281v-0.768h-0.435L162.086,77.336z"/>
			<path id="path3007" inkscape:connector-curvature="0" fill="#FE9929" d="M162.778,80.971h-1.357l0.127-0.768h1.075
				L162.778,80.971z"/>
		</g>
	</g>
	<g id="g3017">
		<g id="g3015">
			<path id="path3013" inkscape:connector-curvature="0" fill="#FE9929" d="M166.259,78.82l0.665,0.332
				c0.153,0.103,0.283,0.282,0.384,0.435c0.102,0.181,0.128,0.435,0.128,0.767v0.563c0,0.332-0.026,0.59-0.153,0.819
				c-0.102,0.206-0.282,0.384-0.512,0.46c-0.231,0.128-0.512,0.206-0.819,0.206c-0.306,0-0.589-0.077-0.818-0.206
				c-0.231-0.076-0.409-0.256-0.512-0.46c-0.127-0.255-0.18-0.513-0.18-0.819V80.61h0.819v0.257c0,0.256,0.051,0.409,0.18,0.537
				c0.127,0.127,0.307,0.206,0.511,0.206c0.206,0,0.384-0.077,0.512-0.206c0.128-0.127,0.18-0.281,0.18-0.537v-0.513
				c0-0.153-0.051-0.282-0.103-0.384c-0.076-0.101-0.18-0.205-0.282-0.281l-0.485-0.232l0,0h-0.026l-0.05-0.024l-0.641-0.359
				c-0.205-0.126-0.332-0.282-0.435-0.486c-0.127-0.23-0.18-0.486-0.18-0.767v-0.383c0-0.282,0.051-0.538,0.18-0.768
				c0.103-0.23,0.282-0.382,0.512-0.512c0.23-0.101,0.511-0.153,0.818-0.153c0.308,0,0.564,0.051,0.794,0.153
				c0.231,0.127,0.384,0.282,0.512,0.512c0.102,0.232,0.18,0.514,0.18,0.793v0.332h-0.82v-0.279c0-0.23-0.077-0.384-0.178-0.538
				c-0.103-0.103-0.283-0.181-0.487-0.181c-0.23,0-0.409,0.077-0.511,0.181c-0.127,0.1-0.18,0.282-0.18,0.486v0.383
				c0,0.153,0.025,0.307,0.102,0.408c0.102,0.102,0.178,0.181,0.28,0.256l0.461,0.231c0.026,0,0.052,0,0.052,0.026
				c0.025,0.024,0.05,0.024,0.05,0.024L166.259,78.82z"/>
		</g>
	</g>
	<g id="g3023">
		<g id="g3021">
			<path id="path3019" inkscape:connector-curvature="0" fill="#FE9929" d="M169.075,76.055v6.275h-0.818v-6.275H169.075z"/>
		</g>
	</g>
	<g id="g3031">
		<g id="g3029">
			<path id="path3025" inkscape:connector-curvature="0" fill="#FE9929" d="M170.356,81.533v0.793h-0.436v-6.272h0.819v5.478
				H170.356z"/>
			<path id="path3027" inkscape:connector-curvature="0" fill="#FE9929" d="M170.74,81.533h1.791v0.793h-1.791V81.533z"/>
		</g>
	</g>
	<g id="g3039">
		<g id="g3037">
			<path id="path3033" inkscape:connector-curvature="0" fill="#FE9929" d="M173.582,81.533v0.793h-0.411v-6.272h0.793v5.478
				H173.582z"/>
			<path id="path3035" inkscape:connector-curvature="0" fill="#FE9929" d="M173.965,81.533h1.792v0.793h-1.792V81.533z"/>
		</g>
	</g>
	<g id="g3045">
		<g id="g3043">
			<path id="path3041" inkscape:connector-curvature="0" fill="#FE9929" d="M178.778,82.199c-0.231,0.127-0.512,0.205-0.844,0.205
				c-0.308,0-0.589-0.075-0.818-0.205c-0.257-0.127-0.436-0.308-0.539-0.538c-0.103-0.23-0.18-0.512-0.18-0.844v-3.251
				c0-0.332,0.076-0.614,0.18-0.846c0.102-0.23,0.282-0.408,0.539-0.537c0.255-0.127,0.538-0.181,0.818-0.181
				c0.332,0,0.614,0.052,0.844,0.181c0.206,0.101,0.409,0.307,0.538,0.537c0.128,0.258,0.18,0.539,0.18,0.846v3.251
				c0,0.307-0.05,0.588-0.18,0.844C179.187,81.891,179.008,82.072,178.778,82.199z M177.549,81.509
				c0.127,0.051,0.256,0.102,0.384,0.102c0.127,0,0.255-0.05,0.409-0.102c0.102-0.051,0.205-0.127,0.256-0.256
				c0.051-0.128,0.077-0.256,0.077-0.41V77.54c0-0.154-0.025-0.282-0.077-0.384c-0.051-0.127-0.153-0.23-0.256-0.256
				c-0.153-0.075-0.282-0.102-0.409-0.102c-0.128,0-0.257,0.026-0.384,0.102c-0.102,0.026-0.18,0.128-0.256,0.256
				c-0.051,0.103-0.078,0.23-0.078,0.384v3.302c0,0.153,0.026,0.282,0.078,0.409C177.37,81.38,177.447,81.457,177.549,81.509z"/>
		</g>
	</g>
	<g id="g3051">
		<g id="g3049">
			<path id="path3047" inkscape:connector-curvature="0" fill="#FE9929" d="M181.901,80.125l0.897-0.665l-0.897-0.666v-1.049
				l2.202,1.716l-2.202,1.716V80.125z"/>
		</g>
	</g>
	<g id="g3057">
		<g id="g3055">
			<path id="path3053" inkscape:connector-curvature="0" fill="#FE9929" d="M184.256,80.125l0.921-0.665l-0.921-0.666v-1.049
				l2.201,1.716l-2.201,1.716V80.125z"/>
		</g>
	</g>
	<g id="g3065">
		<g id="g3063">
			<path id="path3059" inkscape:connector-curvature="0" fill="#FE9929" d="M190.22,79.894h-0.793v-0.766h0.793
				c0.128,0,0.231-0.025,0.308-0.077c0.076-0.051,0.152-0.126,0.18-0.229c0.025-0.078,0.051-0.207,0.051-0.359v-0.948
				c0-0.154-0.026-0.256-0.051-0.359c-0.026-0.102-0.103-0.178-0.18-0.23c-0.077-0.05-0.18-0.076-0.308-0.076h-0.793v-0.793h0.793
				c0.283,0,0.539,0.077,0.768,0.18c0.18,0.127,0.358,0.282,0.461,0.512c0.127,0.207,0.18,0.461,0.18,0.768v0.973
				c0,0.282-0.051,0.512-0.18,0.766c-0.127,0.207-0.308,0.383-0.486,0.46C190.759,79.844,190.503,79.894,190.22,79.894z"/>
			<path id="path3061" inkscape:connector-curvature="0" fill="#FE9929" d="M188.609,82.326v-6.272h0.46v0.793h0.358v2.279h-0.358
				v0.767h0.358v2.432H188.609z"/>
		</g>
	</g>
	<g id="g3073">
		<g id="g3071">
			<path id="path3067" inkscape:connector-curvature="0" fill="#FE9929" d="M193.959,77.336l-0.539,2.866h-0.358v0.768h0.231
				l-0.283,1.357h-0.869l1.433-6.273h0.743l1.458,6.273h-0.87l-0.255-1.357h0.282v-0.768h-0.436L193.959,77.336z"/>
			<path id="path3069" inkscape:connector-curvature="0" fill="#FE9929" d="M194.65,80.971h-1.357l0.128-0.768h1.075L194.65,80.971z
				"/>
		</g>
	</g>
	<g id="g3079">
		<g id="g3077">
			<path id="path3075" inkscape:connector-curvature="0" fill="#FE9929" d="M198.028,78.77l0.103,0.05c0.025,0,0.025,0,0.025,0
				l0.615,0.332c0.153,0.103,0.283,0.231,0.383,0.435c0.128,0.205,0.152,0.46,0.152,0.767v0.563c0,0.308-0.05,0.564-0.152,0.819
				c-0.128,0.206-0.307,0.384-0.512,0.46c-0.231,0.128-0.511,0.206-0.844,0.206c-0.308,0-0.564-0.076-0.819-0.206
				c-0.23-0.076-0.383-0.256-0.512-0.46c-0.102-0.255-0.18-0.513-0.18-0.819V80.61h0.819v0.257c0,0.256,0.05,0.409,0.178,0.537
				c0.129,0.127,0.308,0.206,0.514,0.206c0.23,0,0.409-0.077,0.512-0.206c0.127-0.127,0.205-0.281,0.205-0.537v-0.513
				c0-0.153-0.05-0.282-0.128-0.384c-0.076-0.101-0.153-0.205-0.282-0.281l-0.46-0.232c0,0,0,0-0.026,0l0,0l-0.076-0.024
				l-0.642-0.359c-0.151-0.126-0.306-0.282-0.434-0.486c-0.102-0.18-0.153-0.434-0.153-0.767v-0.383
				c0-0.282,0.051-0.538,0.153-0.768c0.128-0.23,0.283-0.382,0.512-0.512c0.256-0.101,0.538-0.153,0.819-0.153
				c0.307,0,0.589,0.051,0.818,0.153c0.205,0.127,0.384,0.282,0.514,0.512c0.1,0.232,0.152,0.514,0.152,0.793v0.332h-0.818v-0.279
				c0-0.23-0.052-0.435-0.181-0.538c-0.102-0.103-0.256-0.181-0.485-0.181c-0.206,0-0.384,0.077-0.514,0.181
				c-0.127,0.101-0.153,0.282-0.153,0.486v0.383c0,0.179,0.026,0.307,0.103,0.408c0.076,0.102,0.152,0.181,0.281,0.256l0.461,0.231
				C198.003,78.743,198.003,78.743,198.028,78.77L198.028,78.77z"/>
		</g>
	</g>
	<g id="g3085">
		<g id="g3083">
			<path id="path3081" inkscape:connector-curvature="0" fill="#FE9929" d="M200.948,76.055v6.275h-0.845v-6.275H200.948z"/>
		</g>
	</g>
	<g id="g3093">
		<g id="g3091">
			<path id="path3087" inkscape:connector-curvature="0" fill="#FE9929" d="M202.227,81.533v0.793h-0.459v-6.272h0.844v5.478
				H202.227z"/>
			<path id="path3089" inkscape:connector-curvature="0" fill="#FE9929" d="M202.611,81.533h1.766v0.793h-1.766V81.533z"/>
		</g>
	</g>
	<g id="g3101">
		<g id="g3099">
			<path id="path3095" inkscape:connector-curvature="0" fill="#FE9929" d="M205.453,81.533v0.793h-0.437v-6.272h0.821v5.478
				H205.453z"/>
			<path id="path3097" inkscape:connector-curvature="0" fill="#FE9929" d="M205.837,81.533h1.792v0.793h-1.792V81.533z"/>
		</g>
	</g>
	<g id="g3107">
		<g id="g3105">
			<path id="path3103" inkscape:connector-curvature="0" fill="#FE9929" d="M210.649,82.199c-0.23,0.127-0.511,0.205-0.844,0.205
				c-0.307,0-0.614-0.075-0.819-0.205c-0.259-0.127-0.434-0.308-0.566-0.538c-0.1-0.256-0.152-0.537-0.152-0.844v-3.251
				c0-0.307,0.051-0.588,0.152-0.846c0.128-0.23,0.308-0.408,0.566-0.537c0.23-0.127,0.514-0.181,0.819-0.181
				c0.333,0,0.589,0.052,0.844,0.181c0.257,0.126,0.411,0.307,0.514,0.537c0.127,0.232,0.206,0.539,0.206,0.846v3.251
				c0,0.332-0.077,0.614-0.206,0.844C211.059,81.891,210.906,82.072,210.649,82.199z M209.421,81.509
				c0.125,0.051,0.256,0.102,0.384,0.102c0.152,0,0.281-0.05,0.407-0.102c0.102-0.051,0.182-0.127,0.258-0.256
				c0.05-0.128,0.076-0.256,0.076-0.41V77.54c0-0.128-0.026-0.255-0.076-0.384c-0.077-0.127-0.152-0.23-0.258-0.256
				c-0.126-0.075-0.255-0.102-0.407-0.102c-0.128,0-0.259,0.026-0.384,0.102c-0.127,0.051-0.207,0.128-0.257,0.256
				c-0.05,0.103-0.101,0.23-0.101,0.384v3.302c0,0.153,0.05,0.282,0.101,0.409C209.216,81.354,209.292,81.431,209.421,81.509z"/>
		</g>
	</g>
	<g id="g3113">
		<g id="g3111">
			<path id="path3109" inkscape:connector-curvature="0" fill="#FE9929" d="M213.773,80.125l0.922-0.665l-0.922-0.666v-1.049
				l2.202,1.716l-2.202,1.716V80.125z"/>
		</g>
	</g>
	<g id="g3119">
		<g id="g3117">
			<path id="path3115" inkscape:connector-curvature="0" fill="#FE9929" d="M216.129,80.125l0.896-0.665l-0.896-0.666v-1.049
				l2.201,1.716l-2.201,1.716V80.125z"/>
		</g>
	</g>
</g>
<g id="g3137" transform="matrix(0.93564838,0,0,0.89986325,7.7032573,4.0635082)" enable-background="new    ">
	<path id="path3123" inkscape:connector-curvature="0" fill="#FCFCFC" d="M153.176,69.098l3.601-6.605
		c0.209-0.379,0.369-0.771,0.486-1.179c0.116-0.408,0.173-0.786,0.173-1.138v-0.018c0-0.566-0.12-1.006-0.362-1.319
		c-0.241-0.313-0.584-0.47-1.03-0.47c-0.422,0-0.762,0.171-1.022,0.514c-0.261,0.342-0.419,0.825-0.476,1.45v0.01h-1.5v-0.01
		c0.087-0.814,0.26-1.511,0.522-2.086c0.263-0.575,0.601-1.017,1.019-1.317c0.417-0.304,0.898-0.456,1.442-0.456
		c0.616,0,1.141,0.147,1.576,0.435c0.436,0.29,0.767,0.711,0.994,1.266c0.228,0.552,0.341,1.221,0.341,2.002v0.011
		c0,0.501-0.076,1.026-0.228,1.573c-0.151,0.548-0.362,1.075-0.631,1.584l-2.989,5.587h3.905v1.896h-5.822v-1.731H153.176z"/>
	<path id="path3125" inkscape:connector-curvature="0" fill="#FCFCFC" d="M161.873,70.52c-0.381-0.322-0.671-0.792-0.869-1.413
		c-0.198-0.619-0.299-1.36-0.299-2.226v-2.237c0-0.875,0.097-1.619,0.291-2.239c0.194-0.619,0.477-1.09,0.849-1.412
		c0.372-0.322,0.818-0.484,1.339-0.484c0.434,0,0.835,0.156,1.197,0.47c0.361,0.314,0.653,0.752,0.877,1.319l-0.149,2.071
		c0-0.429-0.058-0.797-0.171-1.104c-0.114-0.306-0.278-0.539-0.494-0.699c-0.215-0.158-0.477-0.239-0.784-0.239
		c-0.479,0-0.849,0.205-1.111,0.615c-0.264,0.411-0.396,0.988-0.396,1.73v2.208c0,0.737,0.133,1.304,0.396,1.705
		c0.262,0.4,0.632,0.601,1.111,0.601c0.308,0,0.57-0.084,0.784-0.25c0.216-0.166,0.381-0.406,0.494-0.717
		c0.114-0.313,0.171-0.687,0.171-1.123l0.099,2.14c-0.147,0.501-0.387,0.92-0.721,1.26c-0.334,0.339-0.744,0.508-1.232,0.508
		C162.715,71.004,162.253,70.843,161.873,70.52z M165.108,56.621h1.449v14.207h-1.449V56.621z"/>
	<path id="path3127" inkscape:connector-curvature="0" fill="#FCFCFC" d="M169.943,70.457c-0.454-0.346-0.802-0.849-1.04-1.511
		c-0.24-0.66-0.359-1.456-0.359-2.388v-1.651c0-0.918,0.12-1.705,0.359-2.36c0.238-0.654,0.584-1.153,1.04-1.494
		c0.455-0.342,1.002-0.513,1.641-0.513c0.64,0,1.186,0.171,1.641,0.513c0.455,0.342,0.802,0.84,1.041,1.494
		c0.239,0.655,0.358,1.442,0.358,2.36v1.681c0,0.925-0.119,1.715-0.358,2.369c-0.239,0.654-0.586,1.154-1.041,1.5
		c-0.455,0.346-1.002,0.518-1.641,0.518C170.945,70.975,170.398,70.802,169.943,70.457z M172.759,68.424
		c0.278-0.437,0.415-1.049,0.415-1.837v-1.681c0-0.788-0.138-1.397-0.415-1.828c-0.278-0.43-0.669-0.645-1.175-0.645
		c-0.506,0-0.899,0.215-1.175,0.645c-0.278,0.431-0.415,1.04-0.415,1.828v1.681c0,0.788,0.138,1.4,0.415,1.837
		c0.277,0.436,0.669,0.654,1.175,0.654C172.09,69.079,172.482,68.86,172.759,68.424z"/>
	<path id="path3129" inkscape:connector-curvature="0" fill="#FCFCFC" d="M180.731,56.621h1.449v14.207h-1.449V56.621z
		 M181.476,63.421h3.301c0.313,0,0.588-0.101,0.825-0.303c0.236-0.202,0.419-0.488,0.55-0.858c0.132-0.372,0.195-0.799,0.195-1.282
		c0-0.488-0.065-0.918-0.195-1.289c-0.13-0.371-0.313-0.659-0.55-0.865c-0.237-0.205-0.512-0.308-0.825-0.308h-3.301v-1.895h3.252
		c0.616,0,1.157,0.18,1.626,0.543c0.468,0.361,0.831,0.87,1.09,1.529c0.258,0.657,0.387,1.419,0.387,2.286s-0.129,1.627-0.387,2.281
		c-0.259,0.655-0.622,1.162-1.09,1.519c-0.469,0.358-1.011,0.538-1.626,0.538h-3.252V63.421z"/>
	<path id="path3131" inkscape:connector-curvature="0" fill="#FCFCFC" d="M191.092,70.828h-1.45V56.621h1.45V70.828z"/>
	<path id="path3133" inkscape:connector-curvature="0" fill="#FCFCFC" d="M196.006,70.975c0,0-0.222-0.065-0.667-0.195
		c-0.447-0.129-0.861-0.326-1.247-0.586c-0.385-0.259-0.747-0.586-1.083-0.977l0.902-1.524c0.393,0.469,0.826,0.82,1.299,1.055
		c0.474,0.234,0.986,0.352,1.542,0.352c0.748,0,1.328-0.191,1.74-0.572c0.413-0.381,0.618-0.919,0.618-1.617v-0.009
		c0-0.495-0.093-0.888-0.281-1.177c-0.187-0.29-0.429-0.507-0.724-0.646c-0.296-0.14-0.678-0.269-1.147-0.386
		c-0.015-0.007-0.03-0.009-0.047-0.009s-0.031-0.004-0.047-0.01l-0.106-0.029c-0.691-0.164-1.252-0.347-1.687-0.551
		c-0.432-0.206-0.804-0.581-1.111-1.124c-0.309-0.544-0.461-1.317-0.461-2.319v-0.011c0-0.879,0.142-1.63,0.429-2.252
		c0.285-0.621,0.705-1.096,1.254-1.422c0.55-0.326,1.21-0.488,1.981-0.488c0.369,0,0.733,0.055,1.091,0.167
		c0.356,0.111,0.711,0.275,1.057,0.493c0.349,0.218,0.69,0.493,1.027,0.826l-0.824,1.582c-0.395-0.396-0.785-0.695-1.176-0.893
		c-0.39-0.199-0.783-0.297-1.175-0.297c-0.706,0-1.254,0.193-1.645,0.582c-0.39,0.386-0.584,0.937-0.584,1.645v0.011
		c0,0.488,0.099,0.874,0.302,1.153c0.2,0.281,0.451,0.486,0.751,0.621c0.302,0.132,0.719,0.272,1.254,0.415
		c0.019,0.008,0.037,0.012,0.053,0.015c0.017,0.004,0.033,0.009,0.053,0.015c0.023,0.008,0.05,0.014,0.077,0.02
		c0.029,0.008,0.054,0.013,0.079,0.02c0.624,0.176,1.147,0.384,1.566,0.624c0.419,0.242,0.769,0.631,1.051,1.168
		c0.281,0.537,0.423,1.272,0.423,2.203v0.021c0,0.866-0.15,1.607-0.449,2.221c-0.297,0.616-0.73,1.084-1.296,1.408
		c-0.566,0.322-1.248,0.484-2.048,0.484C196.253,70.975,196.006,70.975,196.006,70.975z"/>
	<path id="path3135" inkscape:connector-curvature="0" fill="#FCFCFC" d="M203.83,70.324c-0.549-0.433-0.973-1.046-1.274-1.837
		c-0.301-0.791-0.45-1.707-0.45-2.75v-4.026c0-1.042,0.15-1.958,0.45-2.75c0.301-0.792,0.724-1.403,1.274-1.836
		c0.55-0.434,1.184-0.65,1.904-0.65c0.719,0,1.354,0.216,1.904,0.65c0.548,0.433,0.974,1.045,1.273,1.836
		c0.302,0.791,0.452,1.708,0.452,2.75v4.026c0,1.043-0.15,1.959-0.452,2.75c-0.3,0.792-0.725,1.404-1.273,1.837
		c-0.55,0.434-1.184,0.65-1.904,0.65C205.015,70.975,204.38,70.757,203.83,70.324z M206.859,68.616
		c0.325-0.265,0.575-0.639,0.754-1.124c0.177-0.485,0.266-1.047,0.266-1.684v-4.163c0-0.638-0.089-1.2-0.266-1.685
		c-0.178-0.485-0.429-0.86-0.754-1.123c-0.324-0.264-0.699-0.396-1.125-0.396s-0.802,0.132-1.125,0.396
		c-0.324,0.264-0.576,0.638-0.754,1.123s-0.266,1.047-0.266,1.685v4.161c0,0.64,0.089,1.201,0.266,1.686
		c0.178,0.484,0.43,0.86,0.754,1.123c0.324,0.264,0.699,0.395,1.125,0.395C206.16,69.011,206.536,68.88,206.859,68.616z"/>
</g>
</svg>
