<?xml version="1.0" encoding="utf-8"?>
<!-- Generator: Adobe Illustrator 16.0.2, SVG Export Plug-In . SVG Version: 6.00 Build 0)  -->
<!DOCTYPE svg PUBLIC "-//W3C//DTD SVG 1.1//EN" "http://www.w3.org/Graphics/SVG/1.1/DTD/svg11.dtd">
<svg version="1.1"
	 id="svg815" xmlns:rdf="http://www.w3.org/1999/02/22-rdf-syntax-ns#" xmlns:cc="http://creativecommons.org/ns#" xmlns:sodipodi="http://sodipodi.sourceforge.net/DTD/sodipodi-0.dtd" xmlns:inkscape="http://www.inkscape.org/namespaces/inkscape" xmlns:dc="http://purl.org/dc/elements/1.1/" xmlns:svg="http://www.w3.org/2000/svg" inkscape:version="1.2.2 (732a01da63, 2022-12-09)" sodipodi:docname="coffee013a.svg"
	 xmlns="http://www.w3.org/2000/svg" xmlns:xlink="http://www.w3.org/1999/xlink" x="0px" y="0px" width="256px" height="87.36px"
	 viewBox="72 24.57 256 87.36" enable-background="new 72 24.57 256 87.36" xml:space="preserve">
<g enable-background="new    ">
	<text transform="matrix(0.7268 0 0 1 215.2578 46.5894)" fill="#FE9929" font-family="'Bahnschrift'" font-size="19.2">&gt;&gt; PASILLOS &gt;&gt;</text>
</g>
<text transform="matrix(0.7268 0 0 1 92.96 46.5894)" fill="#FE9929" font-family="'Bahnschrift'" font-size="19.2">&gt;&gt; SIGUIENTE</text>
<line fill="none" x1="72" y1="111.93" x2="328" y2="24.57"/>
<sodipodi:namedview  id="namedview817" inkscape:cx="-83.038984" borderopacity="1" inkscape:zoom="0.51782907" inkscape:cy="505.95846" pagecolor="#ffffff" showgrid="false" bordercolor="#666666" inkscape:window-maximized="1" inkscape:pagecheckerboard="0" inkscape:window-width="1366" inkscape:showpageshadow="2" inkscape:pageopacity="0" inkscape:deskcolor="#d1d1d1" inkscape:window-x="-8" inkscape:window-y="-8" inkscape:window-height="705" inkscape:current-layer="layer1" fit-margin-left="0" objecttolerance="10" showguides="true" fit-margin-top="0" guidetolerance="10" gridtolerance="10" fit-margin-bottom="0" inkscape:snap-page="false" inkscape:pageshadow="2" fit-margin-right="0">
	</sodipodi:namedview>
<g>
	<g>
		<path fill="#FF3300" d="M75.226,88.621V47.866c0-2.509,0.461-4.864,1.382-7.117c0.921-2.15,2.253-4.096,3.942-5.785
			c3.533-3.533,7.783-5.274,12.851-5.274H306.65c2.46,0,4.761,0.461,7.064,1.435c2.15,0.87,4.096,2.201,5.787,3.84
			c3.533,3.583,5.272,7.833,5.272,12.902v40.754c0,2.51-0.46,4.864-1.433,7.117c-0.92,2.15-2.2,4.096-3.84,5.734
			c-1.691,1.69-3.637,3.021-5.786,3.892c-2.305,0.972-4.605,1.434-7.065,1.434H93.401c-2.508,0-4.813-0.465-7.117-1.434
			c-2.15-0.871-4.096-2.201-5.733-3.892c-1.689-1.639-3.021-3.584-3.942-5.734C75.687,93.485,75.226,91.13,75.226,88.621z"/>
	</g>
	<g>
		
			<path fill="none" stroke="#999999" stroke-width="0.5" stroke-linecap="round" stroke-linejoin="round" stroke-miterlimit="10" d="
			M75.226,88.621c0,2.51,0.461,4.864,1.382,7.117c0.921,2.15,2.253,4.096,3.942,5.734c1.638,1.69,3.584,3.021,5.734,3.892
			c2.304,0.972,4.608,1.434,7.117,1.434h213.248c2.458,0,4.763-0.465,7.065-1.434c2.151-0.871,4.097-2.201,5.787-3.892
			c1.641-1.639,2.92-3.584,3.84-5.734c0.974-2.253,1.433-4.608,1.433-7.117V47.866c0-5.069-1.74-9.318-5.272-12.902
			c-1.69-1.639-3.636-2.97-5.787-3.84c-2.303-0.974-4.607-1.435-7.064-1.435H93.401c-5.068,0-9.318,1.741-12.851,5.274
			c-1.689,1.689-3.021,3.635-3.942,5.785c-0.921,2.252-1.382,4.607-1.382,7.117V88.621"/>
	</g>
</g>
<g>
	<g>
		
			<path fill="none" stroke="#999999" stroke-width="0.4" stroke-linecap="round" stroke-linejoin="round" stroke-miterlimit="10" d="
			M255.347,84.577c0,4.044,1.435,7.423,4.253,10.239c2.813,2.869,6.246,4.302,10.291,4.302h32.666c3.988,0,7.422-1.43,10.29-4.302
			c2.814-2.816,4.198-6.195,4.198-10.239V51.911c0-4.045-1.382-7.424-4.198-10.292c-2.868-2.816-6.302-4.25-10.29-4.25h-32.669
			c-4.046,0-7.476,1.435-10.291,4.25c-2.815,2.866-4.25,6.246-4.25,10.292V84.577"/>
	</g>
	<g>
		<path fill="#F2F2F2" d="M255.347,84.577V51.911c0-4.045,1.435-7.424,4.253-10.292c2.813-2.816,6.246-4.25,10.291-4.25h32.666
			c3.988,0,7.422,1.435,10.29,4.25c2.814,2.866,4.198,6.246,4.198,10.292v32.666c0,4.046-1.382,7.424-4.198,10.241
			c-2.868,2.867-6.302,4.3-10.29,4.3h-32.669c-4.046,0-7.476-1.43-10.291-4.3C256.781,92,255.347,88.621,255.347,84.577z"/>
	</g>
</g>
<path fill="#FF0000" d="M311.719,66.197c0-0.512-0.1-1.024-0.307-1.483c-0.153-0.461-0.461-0.922-0.871-1.332l-18.483-18.535
	c-0.41-0.307-0.868-0.665-1.331-0.819c-0.461-0.205-0.973-0.307-1.482-0.307c-0.516,0-0.975,0.102-1.484,0.307
	c-0.512,0.154-0.922,0.513-1.281,0.819l-1.434,1.434c-0.356,0.357-0.613,0.819-0.816,1.28c-0.203,0.461-0.307,0.973-0.307,1.485
	s0.102,1.023,0.307,1.484c0.203,0.46,0.463,0.921,0.816,1.332l10.066,10.035h-1.207h-14.442h-11.777
	c-0.563,0-1.075,0.102-1.533,0.306c-0.464,0.155-0.921,0.462-1.229,0.819c-0.359,0.359-0.664,0.769-0.869,1.229
	c-0.206,0.512-0.308,1.023-0.308,1.536v1.997c0,0.563,0.102,1.074,0.308,1.535c0.205,0.461,0.512,0.871,0.869,1.23
	c0.307,0.356,0.766,0.664,1.229,0.868c0.461,0.155,0.974,0.256,1.533,0.256h11.777H293.9h0.87L284.686,81.76
	c-0.414,0.41-0.667,0.818-0.872,1.331c-0.205,0.461-0.307,0.973-0.307,1.481c0,0.516,0.101,0.973,0.307,1.484
	c0.205,0.513,0.461,0.922,0.872,1.281l1.379,1.383c0.359,0.409,0.768,0.662,1.279,0.868c0.516,0.203,0.975,0.307,1.485,0.307
	s0.974-0.102,1.484-0.307c0.512-0.206,0.919-0.462,1.28-0.868l18.534-18.538c0.41-0.357,0.666-0.816,0.868-1.279
	c0.119-0.296,0.201-0.573,0.25-0.854c0.064-0.122,0.119-0.25,0.162-0.375C311.617,67.221,311.719,66.708,311.719,66.197z"/>
<g>
	<g>
		<g>
			<path fill="#FE9929" d="M100.109,92l1.792-1.33l-1.792-1.332V87.24l4.403,3.431l-4.403,3.43V92z"/>
		</g>
	</g>
	<g>
		<g>
			<path fill="#FE9929" d="M104.768,92l1.843-1.33l-1.843-1.332v-2.1l4.403,3.431l-4.403,3.431V92z"/>
		</g>
	</g>
	<g>
		<g>
			<path fill="#FE9929" d="M116.698,91.54h-1.587v-1.533h1.639c0.205,0,0.41-0.051,0.563-0.154c0.205-0.102,0.307-0.253,0.41-0.459
				c0.051-0.153,0.102-0.413,0.102-0.718v-1.896c0-0.308-0.051-0.513-0.102-0.718c-0.103-0.204-0.205-0.358-0.41-0.461
				c-0.153-0.102-0.358-0.151-0.563-0.151h-1.639v-1.587h1.586c0.563,0,1.024,0.152,1.536,0.359
				c0.358,0.254,0.717,0.563,0.973,1.024c0.154,0.359,0.308,0.869,0.308,1.534v1.948c0,0.613-0.153,1.124-0.358,1.533
				c-0.205,0.411-0.513,0.716-0.922,0.919C117.824,91.437,117.312,91.54,116.698,91.54z"/>
			<path fill="#FE9929" d="M113.472,96.405V83.861h0.922v1.587h0.717v4.557h-0.717v1.535h0.717v4.865H113.472L113.472,96.405z"/>
		</g>
	</g>
	<g>
		<g>
			<path fill="#FE9929" d="M124.173,86.42l-1.075,5.734h-0.666v1.535h0.409l-0.512,2.715h-1.792l2.918-12.544h1.484l2.919,12.544
				h-1.792l-0.513-2.715h0.563v-1.535h-0.871L124.173,86.42z"/>
			<path fill="#FE9929" d="M125.555,93.69h-2.714l0.256-1.535h2.15L125.555,93.69z"/>
		</g>
	</g>
	<g>
		<g>
			<path fill="#FE9929" d="M132.519,89.389l1.331,0.666c0.307,0.205,0.563,0.563,0.768,0.87c0.205,0.359,0.256,0.868,0.256,1.533
				v1.126c0,0.666-0.051,1.181-0.306,1.641c-0.205,0.411-0.563,0.768-1.024,0.921c-0.461,0.255-1.024,0.412-1.639,0.412
				c-0.615,0-1.177-0.153-1.638-0.412c-0.461-0.151-0.819-0.513-1.024-0.921c-0.256-0.512-0.359-1.026-0.359-1.641V92.97h1.639
				v0.515c0,0.514,0.103,0.817,0.358,1.076c0.256,0.252,0.614,0.41,1.024,0.41s0.768-0.153,1.024-0.41
				c0.256-0.256,0.358-0.563,0.358-1.076v-1.026c0-0.307-0.103-0.563-0.205-0.769c-0.153-0.202-0.359-0.41-0.563-0.563l-0.973-0.463
				l0,0h-0.051l-0.102-0.05l-1.28-0.717c-0.41-0.252-0.666-0.563-0.87-0.974c-0.256-0.461-0.359-0.974-0.359-1.535v-0.767
				c0-0.564,0.103-1.077,0.359-1.536c0.205-0.461,0.563-0.768,1.024-1.024c0.461-0.202,1.023-0.307,1.638-0.307
				c0.614,0,1.126,0.103,1.587,0.307c0.46,0.254,0.768,0.563,1.024,1.024c0.205,0.464,0.358,1.026,0.358,1.587v0.665h-1.638v-0.56
				c0-0.461-0.153-0.769-0.358-1.077c-0.205-0.203-0.563-0.359-0.973-0.359c-0.46,0-0.819,0.152-1.024,0.359
				c-0.256,0.203-0.358,0.564-0.358,0.974v0.769c0,0.307,0.051,0.614,0.205,0.816c0.205,0.203,0.357,0.359,0.562,0.513l0.922,0.463
				c0.051,0,0.102,0,0.102,0.051c0.051,0.05,0.103,0.05,0.103,0.05L132.519,89.389z"/>
		</g>
	</g>
	<g>
		<g>
			<path fill="#FE9929" d="M138.15,83.861v12.548h-1.638V83.861H138.15z"/>
		</g>
	</g>
	<g>
		<g>
			<path fill="#FE9929" d="M140.71,94.816v1.589h-0.871V83.861h1.639v10.955H140.71z"/>
			<path fill="#FE9929" d="M141.479,94.816h3.584v1.589h-3.584V94.816z"/>
		</g>
	</g>
	<g>
		<g>
			<path fill="#FE9929" d="M147.162,94.816v1.589h-0.819V83.861h1.586v10.955H147.162z"/>
			<path fill="#FE9929" d="M147.93,94.816h3.584v1.589h-3.584V94.816z"/>
		</g>
	</g>
	<g>
		<g>
			<path fill="#FE9929" d="M157.555,96.149c-0.46,0.256-1.024,0.409-1.689,0.409c-0.615,0-1.178-0.149-1.638-0.409
				c-0.512-0.256-0.871-0.616-1.076-1.076s-0.358-1.025-0.358-1.689V86.88c0-0.666,0.153-1.229,0.358-1.692
				c0.205-0.461,0.563-0.815,1.076-1.075c0.512-0.252,1.075-0.36,1.638-0.36c0.666,0,1.229,0.103,1.689,0.36
				c0.41,0.202,0.818,0.614,1.075,1.075c0.256,0.515,0.358,1.079,0.358,1.692v6.503c0,0.615-0.103,1.178-0.358,1.689
				C158.374,95.534,158.016,95.893,157.555,96.149z M155.098,94.765c0.256,0.104,0.512,0.206,0.768,0.206s0.512-0.103,0.819-0.206
				c0.205-0.101,0.41-0.252,0.512-0.512c0.103-0.255,0.154-0.513,0.154-0.817v-6.605c0-0.309-0.051-0.563-0.154-0.77
				c-0.102-0.256-0.307-0.461-0.512-0.512c-0.307-0.152-0.563-0.205-0.819-0.205s-0.512,0.052-0.768,0.205
				c-0.205,0.051-0.358,0.255-0.512,0.512c-0.102,0.206-0.153,0.461-0.153,0.77v6.604c0,0.307,0.051,0.564,0.153,0.818
				C154.739,94.51,154.893,94.665,155.098,94.765z"/>
		</g>
	</g>
	<g>
		<g>
			<path fill="#FE9929" d="M163.802,92l1.792-1.33l-1.792-1.332V87.24l4.403,3.431l-4.403,3.43V92z"/>
		</g>
	</g>
	<g>
		<g>
			<path fill="#FE9929" d="M168.513,92l1.844-1.33l-1.844-1.332V87.24l4.403,3.431l-4.403,3.43V92z"/>
		</g>
	</g>
	<g>
		<g>
			<path fill="#FE9929" d="M180.441,91.54h-1.587v-1.533h1.587c0.256,0,0.461-0.051,0.615-0.154
				c0.152-0.102,0.307-0.253,0.357-0.459c0.052-0.153,0.104-0.413,0.104-0.718v-1.896c0-0.308-0.052-0.513-0.104-0.718
				c-0.051-0.204-0.205-0.358-0.357-0.461c-0.154-0.102-0.359-0.151-0.615-0.151h-1.587v-1.587h1.587
				c0.563,0,1.076,0.152,1.537,0.359c0.357,0.254,0.716,0.563,0.921,1.024c0.255,0.413,0.358,0.922,0.358,1.536v1.946
				c0,0.563-0.102,1.024-0.358,1.533c-0.256,0.413-0.615,0.769-0.973,0.921C181.518,91.437,181.005,91.54,180.441,91.54z"/>
			<path fill="#FE9929" d="M177.216,96.405V83.861h0.922v1.587h0.717v4.557h-0.717v1.535h0.717v4.865H177.216L177.216,96.405z"/>
		</g>
	</g>
	<g>
		<g>
			<path fill="#FE9929" d="M187.917,86.42l-1.075,5.734h-0.717v1.535h0.461l-0.564,2.715h-1.74l2.867-12.544h1.485l2.918,12.544
				h-1.741l-0.512-2.715h0.563v-1.535h-0.87L187.917,86.42z"/>
			<path fill="#FE9929" d="M189.299,93.69h-2.713l0.256-1.535h2.15L189.299,93.69z"/>
		</g>
	</g>
	<g>
		<g>
			<path fill="#FE9929" d="M196.058,89.288l0.205,0.102c0.052,0,0.052,0,0.052,0l1.228,0.666c0.307,0.205,0.563,0.461,0.768,0.87
				c0.256,0.41,0.306,0.921,0.306,1.533v1.126c0,0.615-0.102,1.13-0.306,1.641c-0.257,0.411-0.614,0.768-1.023,0.921
				c-0.461,0.255-1.024,0.412-1.69,0.412c-0.614,0-1.126-0.153-1.638-0.412c-0.461-0.151-0.769-0.513-1.024-0.921
				c-0.205-0.512-0.358-1.026-0.358-1.641V92.97h1.639v0.515c0,0.514,0.102,0.817,0.358,1.076c0.256,0.252,0.613,0.41,1.023,0.41
				c0.461,0,0.82-0.153,1.024-0.41c0.257-0.256,0.409-0.563,0.409-1.076v-1.026c0-0.307-0.102-0.563-0.256-0.769
				c-0.153-0.202-0.307-0.41-0.563-0.563l-0.922-0.463c0,0,0,0-0.052,0l0,0l-0.153-0.05l-1.28-0.717
				c-0.307-0.252-0.614-0.563-0.87-0.974c-0.205-0.359-0.307-0.869-0.307-1.535v-0.767c0-0.564,0.102-1.077,0.307-1.536
				c0.256-0.461,0.563-0.768,1.024-1.024c0.512-0.202,1.075-0.307,1.638-0.307c0.615,0,1.178,0.103,1.639,0.307
				c0.409,0.254,0.768,0.563,1.024,1.024c0.204,0.464,0.307,1.026,0.307,1.587v0.665h-1.638v-0.56c0-0.461-0.103-0.87-0.359-1.077
				c-0.205-0.203-0.512-0.359-0.973-0.359c-0.41,0-0.769,0.152-1.024,0.359c-0.256,0.203-0.308,0.564-0.308,0.974v0.769
				c0,0.357,0.052,0.614,0.205,0.816c0.153,0.203,0.307,0.359,0.563,0.513l0.922,0.463
				C196.006,89.236,196.006,89.236,196.058,89.288z"/>
		</g>
	</g>
	<g>
		<g>
			<path fill="#FE9929" d="M201.895,83.861v12.548h-1.689V83.861H201.895z"/>
		</g>
	</g>
	<g>
		<g>
			<path fill="#FE9929" d="M204.455,94.816v1.589h-0.922V83.861h1.692v10.955H204.455z"/>
			<path fill="#FE9929" d="M205.222,94.816h3.533v1.589h-3.533V94.816z"/>
		</g>
	</g>
	<g>
		<g>
			<path fill="#FE9929" d="M210.905,94.816v1.589h-0.87V83.861h1.642v10.955H210.905z"/>
			<path fill="#FE9929" d="M211.674,94.816h3.584v1.589h-3.584V94.816z"/>
		</g>
	</g>
	<g>
		<g>
			<path fill="#FE9929" d="M221.299,96.149c-0.46,0.256-1.023,0.409-1.689,0.409c-0.614,0-1.229-0.149-1.642-0.409
				c-0.517-0.256-0.866-0.616-1.129-1.076c-0.202-0.513-0.306-1.075-0.306-1.689V86.88c0-0.614,0.102-1.179,0.306-1.692
				c0.257-0.461,0.614-0.815,1.129-1.075c0.461-0.252,1.027-0.36,1.642-0.36c0.666,0,1.177,0.103,1.689,0.36
				c0.512,0.253,0.82,0.614,1.024,1.075c0.255,0.464,0.41,1.079,0.41,1.692v6.503c0,0.664-0.153,1.229-0.41,1.689
				C222.119,95.534,221.811,95.893,221.299,96.149z M218.842,94.765c0.253,0.104,0.513,0.206,0.768,0.206
				c0.307,0,0.563-0.103,0.816-0.206c0.201-0.101,0.36-0.252,0.516-0.512c0.099-0.255,0.15-0.513,0.15-0.817v-6.605
				c0-0.257-0.051-0.513-0.15-0.77c-0.155-0.256-0.308-0.461-0.516-0.512c-0.253-0.152-0.512-0.205-0.816-0.205
				c-0.255,0-0.515,0.052-0.768,0.205c-0.256,0.103-0.413,0.255-0.513,0.512c-0.103,0.206-0.204,0.461-0.204,0.77v6.604
				c0,0.307,0.102,0.564,0.204,0.818C218.432,94.458,218.586,94.613,218.842,94.765z"/>
		</g>
	</g>
	<g>
		<g>
			<path fill="#FE9929" d="M227.545,92l1.844-1.33l-1.844-1.332V87.24l4.403,3.431l-4.403,3.43V92z"/>
		</g>
	</g>
	<g>
		<g>
			<path fill="#FE9929" d="M232.256,92l1.793-1.33l-1.793-1.332V87.24l4.402,3.431l-4.402,3.43V92z"/>
		</g>
	</g>
</g>
<g enable-background="new    ">
	<path fill="#FAFCFA" d="M92.96,46.59h2.318v22.731H92.96V46.59z M94.153,57.471h5.283c0.5,0,0.938-0.161,1.318-0.484
		c0.378-0.323,0.672-0.781,0.881-1.375c0.209-0.595,0.313-1.277,0.313-2.048c0-0.783-0.105-1.471-0.313-2.064
		c-0.208-0.594-0.502-1.054-0.881-1.383c-0.379-0.329-0.818-0.493-1.318-0.493h-5.283v-3.033h5.204c0.984,0,1.853,0.29,2.602,0.868
		c0.75,0.578,1.332,1.394,1.744,2.447c0.414,1.053,0.619,2.273,0.619,3.659c0,1.385-0.206,2.603-0.619,3.65
		c-0.413,1.048-0.993,1.858-1.744,2.43c-0.75,0.573-1.617,0.861-2.602,0.861h-5.204V57.471z"/>
	<path fill="#FAFCFA" d="M107.219,46.59h2.317v22.731h-2.317V46.59z M108.378,66.288h9.454v3.033h-9.454V66.288z"/>
	<path fill="#FAFCFA" d="M125.285,46.59h1.977l6.09,22.731h-2.5l-4.58-18.337l-4.578,18.337h-2.5L125.285,46.59z M122.001,61.3
		h8.692v3.033h-8.692V61.3z"/>
	<path fill="#FAFCFA" d="M135.853,46.59h2.102l8.079,17.573l-0.272,0.406V46.59h2.295v22.715h-2.125L137.875,52l0.273-0.406v17.712
		h-2.296L135.853,46.59L135.853,46.59z"/>
	<path fill="#FAFCFA" d="M150.783,46.59h11.657v3.033h-11.657V46.59L150.783,46.59z M155.452,48.451h2.317v20.87h-2.317V48.451z"/>
	<path fill="#FAFCFA" d="M168.189,46.59h1.977l6.09,22.731h-2.5l-4.579-18.337l-4.578,18.337h-2.5L168.189,46.59z M164.905,61.3
		h8.693v3.033h-8.693V61.3z"/>
	<path fill="#FAFCFA" d="M185.006,46.59h2.305v22.731h-2.305V46.59z M186.369,66.366h4.477c1.173,0,2.031-0.306,2.568-0.922
		c0.536-0.614,0.805-1.48,0.805-2.595v-0.047c0-0.771-0.096-1.433-0.288-1.986c-0.194-0.552-0.499-0.977-0.915-1.273
		c-0.417-0.297-0.951-0.446-1.602-0.446h-5.045v-2.877h5.045c0.855,0,1.5-0.276,1.936-0.828c0.437-0.552,0.654-1.37,0.654-2.454
		c0-1.136-0.242-1.984-0.728-2.549c-0.485-0.563-1.212-0.844-2.181-0.844h-4.728V46.59h5.147c1.067,0,1.961,0.25,2.682,0.75
		c0.719,0.5,1.256,1.209,1.613,2.126c0.355,0.917,0.533,2.012,0.533,3.283c0,0.781-0.11,1.514-0.33,2.196
		c-0.219,0.683-0.555,1.266-1.004,1.751c-0.451,0.484-1.01,0.812-1.677,0.977c0.667,0.137,1.242,0.462,1.727,0.978
		c0.485,0.516,0.856,1.16,1.114,1.931c0.257,0.772,0.387,1.604,0.387,2.502v0.047c0,1.229-0.198,2.313-0.592,3.251
		s-0.958,1.663-1.692,2.174c-0.735,0.511-1.592,0.766-2.568,0.766h-5.34L186.369,66.366L186.369,66.366z"/>
	<path fill="#FAFCFA" d="M204.185,46.59h1.978l6.09,22.731h-2.5l-4.578-18.337l-4.579,18.337h-2.5L204.185,46.59z M200.9,61.3h8.691
		v3.033H200.9V61.3z"/>
	<path fill="#FAFCFA" d="M215.069,68.821c-0.734-0.489-1.333-1.178-1.795-2.064l1.897-1.876c0.213,0.513,0.519,0.907,0.92,1.188
		c0.402,0.281,0.866,0.422,1.397,0.422c0.899,0,1.6-0.386,2.095-1.157c0.497-0.771,0.746-1.854,0.746-3.252V46.59h2.318v15.509
		c0,1.573-0.201,2.919-0.604,4.033c-0.401,1.115-0.987,1.964-1.762,2.548c-0.771,0.584-1.703,0.877-2.794,0.877
		C216.611,69.555,215.804,69.311,215.069,68.821z"/>
	<path fill="#FAFCFA" d="M230.67,46.59h1.977l6.091,22.731h-2.499l-4.579-18.337l-4.579,18.337h-2.5L230.67,46.59z M227.386,61.3
		h8.692v3.033h-8.692V61.3L227.386,61.3z"/>
</g>
</svg>
