<?xml version="1.0" encoding="utf-8"?>
<!-- Generator: Adobe Illustrator 16.0.2, SVG Export Plug-In . SVG Version: 6.00 Build 0)  -->
<!DOCTYPE svg PUBLIC "-//W3C//DTD SVG 1.1//EN" "http://www.w3.org/Graphics/SVG/1.1/DTD/svg11.dtd">
<svg version="1.1"
	 id="svg815" xmlns:rdf="http://www.w3.org/1999/02/22-rdf-syntax-ns#" xmlns:cc="http://creativecommons.org/ns#" xmlns:sodipodi="http://sodipodi.sourceforge.net/DTD/sodipodi-0.dtd" xmlns:inkscape="http://www.inkscape.org/namespaces/inkscape" xmlns:dc="http://purl.org/dc/elements/1.1/" xmlns:svg="http://www.w3.org/2000/svg" inkscape:version="1.2.2 (732a01da63, 2022-12-09)" sodipodi:docname="coffee013a.svg"
	 xmlns="http://www.w3.org/2000/svg" xmlns:xlink="http://www.w3.org/1999/xlink" x="0px" y="0px" width="256px" height="87.36px"
	 viewBox="72 24.57 256 87.36" enable-background="new 72 24.57 256 87.36" xml:space="preserve">
<text transform="matrix(0.7268 0 0 1 83.8042 71.6567)" fill="#FE9929" font-family="'Bahnschrift'" font-size="19.2">&gt;&gt; SIGUIENTE</text>
<g enable-background="new    ">
	<text transform="matrix(0.7268 0 0 1 173.9639 71.6567)" fill="#FE9929" font-family="'Bahnschrift'" font-size="19.2">&gt;&gt; PASILLOS &gt;&gt;</text>
</g>
<line fill="none" x1="72" y1="111.93" x2="328" y2="24.57"/>
<sodipodi:namedview  id="namedview817" inkscape:cx="-83.038984" borderopacity="1" inkscape:zoom="0.51782907" inkscape:cy="505.95846" pagecolor="#ffffff" showgrid="false" bordercolor="#666666" inkscape:window-maximized="1" inkscape:pagecheckerboard="0" inkscape:window-width="1366" inkscape:showpageshadow="2" inkscape:pageopacity="0" inkscape:deskcolor="#d1d1d1" inkscape:window-x="-8" inkscape:window-y="-8" inkscape:window-height="705" inkscape:current-layer="layer1" fit-margin-left="0" objecttolerance="10" showguides="true" fit-margin-top="0" guidetolerance="10" gridtolerance="10" fit-margin-bottom="0" inkscape:snap-page="false" inkscape:pageshadow="2" fit-margin-right="0">
	</sodipodi:namedview>
<g>
	<g>
		<path fill="#FF3300" d="M75.226,88.621V47.866c0-2.509,0.461-4.864,1.382-7.117c0.921-2.15,2.253-4.096,3.942-5.785
			c3.533-3.533,7.783-5.274,12.851-5.274H306.65c2.46,0,4.761,0.461,7.064,1.435c2.15,0.87,4.096,2.201,5.787,3.84
			c3.533,3.583,5.272,7.833,5.272,12.902v40.754c0,2.51-0.46,4.864-1.433,7.116c-0.919,2.151-2.2,4.096-3.84,5.734
			c-1.691,1.69-3.637,3.02-5.786,3.892c-2.305,0.972-4.605,1.434-7.065,1.434H93.401c-2.508,0-4.813-0.465-7.117-1.434
			c-2.15-0.872-4.096-2.201-5.733-3.892c-1.689-1.639-3.021-3.583-3.942-5.734C75.687,93.485,75.226,91.13,75.226,88.621z"/>
	</g>
	<g>
		
			<path fill="none" stroke="#999999" stroke-width="0.5" stroke-linecap="round" stroke-linejoin="round" stroke-miterlimit="10" d="
			M75.226,88.621c0,2.51,0.461,4.864,1.382,7.116c0.921,2.151,2.253,4.096,3.942,5.734c1.638,1.69,3.584,3.02,5.734,3.892
			c2.304,0.972,4.608,1.434,7.117,1.434h213.248c2.458,0,4.763-0.465,7.065-1.434c2.151-0.872,4.097-2.201,5.787-3.892
			c1.641-1.639,2.92-3.583,3.84-5.734c0.974-2.252,1.433-4.608,1.433-7.116V47.866c0-5.069-1.74-9.318-5.272-12.902
			c-1.69-1.639-3.636-2.97-5.787-3.84c-2.303-0.974-4.607-1.435-7.064-1.435H93.401c-5.068,0-9.318,1.741-12.851,5.274
			c-1.689,1.689-3.021,3.635-3.942,5.785c-0.921,2.252-1.382,4.607-1.382,7.117V88.621"/>
	</g>
</g>
<g>
	<g>
		
			<path fill="none" stroke="#999999" stroke-width="0.4" stroke-linecap="round" stroke-linejoin="round" stroke-miterlimit="10" d="
			M255.347,84.577c0,4.044,1.435,7.423,4.253,10.239c2.813,2.869,6.246,4.302,10.291,4.302h32.666c3.988,0,7.422-1.43,10.289-4.302
			c2.815-2.816,4.198-6.195,4.198-10.239V51.911c0-4.045-1.382-7.424-4.198-10.292c-2.867-2.816-6.301-4.25-10.289-4.25h-32.669
			c-4.046,0-7.476,1.435-10.291,4.25c-2.815,2.866-4.25,6.246-4.25,10.292V84.577"/>
	</g>
	<g>
		<path fill="#F2F2F2" d="M255.347,84.577V51.911c0-4.045,1.435-7.424,4.253-10.292c2.813-2.816,6.246-4.25,10.291-4.25h32.666
			c3.988,0,7.422,1.435,10.289,4.25c2.815,2.866,4.198,6.246,4.198,10.292v32.666c0,4.046-1.382,7.424-4.198,10.241
			c-2.867,2.867-6.301,4.3-10.289,4.3h-32.669c-4.046,0-7.476-1.43-10.291-4.3C256.781,92,255.347,88.621,255.347,84.577z"/>
	</g>
</g>
<path fill="#FF0000" d="M311.719,66.197c0-0.512-0.1-1.024-0.308-1.483c-0.152-0.461-0.46-0.922-0.87-1.332l-18.483-18.534
	c-0.411-0.307-0.868-0.665-1.331-0.819c-0.461-0.205-0.973-0.307-1.483-0.307c-0.515,0-0.975,0.102-1.483,0.307
	c-0.513,0.154-0.922,0.513-1.281,0.819l-1.434,1.434c-0.356,0.357-0.614,0.819-0.816,1.28c-0.204,0.46-0.308,0.973-0.308,1.485
	c0,0.512,0.102,1.023,0.308,1.484c0.203,0.46,0.462,0.921,0.816,1.332l10.066,10.036h-1.208h-14.442h-11.778
	c-0.563,0-1.075,0.102-1.532,0.306c-0.465,0.154-0.921,0.462-1.23,0.818c-0.358,0.359-0.663,0.769-0.868,1.229
	c-0.206,0.513-0.308,1.023-0.308,1.536v1.997c0,0.563,0.102,1.074,0.308,1.535c0.205,0.461,0.513,0.871,0.868,1.23
	c0.309,0.356,0.766,0.664,1.23,0.868c0.461,0.155,0.974,0.256,1.532,0.256h11.778H293.9h0.869L284.686,81.76
	c-0.415,0.41-0.667,0.818-0.873,1.331c-0.205,0.461-0.307,0.973-0.307,1.481c0,0.516,0.101,0.973,0.307,1.484
	c0.206,0.513,0.461,0.922,0.873,1.281l1.379,1.383c0.359,0.41,0.768,0.662,1.279,0.868c0.517,0.203,0.975,0.308,1.485,0.308
	c0.51,0,0.974-0.102,1.483-0.308c0.513-0.206,0.92-0.462,1.281-0.868l18.534-18.538c0.41-0.357,0.666-0.816,0.868-1.279
	c0.119-0.296,0.201-0.573,0.25-0.854c0.064-0.122,0.119-0.25,0.162-0.375C311.617,67.221,311.719,66.708,311.719,66.197z"/>
<g>
	<g>
		<g>
			<path fill="#FE9929" d="M100.109,92l1.792-1.33l-1.792-1.332V87.24l4.403,3.431l-4.403,3.43V92z"/>
		</g>
	</g>
	<g>
		<g>
			<path fill="#FE9929" d="M104.768,92l1.843-1.33l-1.843-1.332v-2.1l4.403,3.431l-4.403,3.431V92z"/>
		</g>
	</g>
	<g>
		<g>
			<path fill="#FE9929" d="M116.698,91.54h-1.587v-1.533h1.639c0.205,0,0.41-0.051,0.563-0.154c0.205-0.102,0.307-0.252,0.41-0.459
				c0.051-0.152,0.102-0.413,0.102-0.716V86.78c0-0.309-0.051-0.513-0.102-0.717c-0.103-0.205-0.205-0.358-0.41-0.461
				c-0.153-0.102-0.358-0.151-0.563-0.151h-1.639v-1.587h1.586c0.563,0,1.024,0.152,1.536,0.358
				c0.358,0.255,0.717,0.564,0.973,1.025c0.154,0.359,0.308,0.868,0.308,1.534v1.948c0,0.614-0.153,1.124-0.358,1.534
				c-0.205,0.411-0.513,0.716-0.922,0.918C117.824,91.437,117.312,91.54,116.698,91.54z"/>
			<path fill="#FE9929" d="M113.472,96.405V83.861h0.922v1.587h0.717v4.556h-0.717v1.535h0.717v4.865L113.472,96.405L113.472,96.405
				z"/>
		</g>
	</g>
	<g>
		<g>
			<path fill="#FE9929" d="M124.173,86.42l-1.075,5.734h-0.666v1.535h0.409l-0.512,2.715h-1.792l2.918-12.544h1.484l2.919,12.544
				h-1.792l-0.513-2.715h0.563v-1.535h-0.871L124.173,86.42z"/>
			<path fill="#FE9929" d="M125.555,93.69h-2.714l0.256-1.535h2.15L125.555,93.69z"/>
		</g>
	</g>
	<g>
		<g>
			<path fill="#FE9929" d="M132.519,89.389l1.331,0.666c0.307,0.205,0.563,0.563,0.768,0.87c0.205,0.359,0.256,0.868,0.256,1.533
				v1.126c0,0.666-0.051,1.181-0.306,1.641c-0.205,0.411-0.563,0.768-1.024,0.921c-0.461,0.255-1.024,0.412-1.639,0.412
				c-0.615,0-1.177-0.153-1.638-0.412c-0.461-0.151-0.819-0.514-1.024-0.921c-0.256-0.512-0.359-1.026-0.359-1.641V92.97h1.639
				v0.515c0,0.514,0.103,0.817,0.358,1.076c0.256,0.252,0.614,0.41,1.024,0.41s0.768-0.152,1.024-0.41
				c0.256-0.255,0.358-0.563,0.358-1.076v-1.026c0-0.307-0.103-0.563-0.205-0.769c-0.153-0.202-0.359-0.41-0.563-0.563l-0.973-0.463
				l0,0h-0.051l-0.102-0.05l-1.28-0.718c-0.41-0.251-0.666-0.563-0.87-0.975c-0.256-0.46-0.359-0.974-0.359-1.534v-0.768
				c0-0.563,0.103-1.076,0.359-1.536c0.205-0.461,0.563-0.767,1.024-1.023c0.461-0.203,1.023-0.308,1.638-0.308
				c0.614,0,1.126,0.104,1.587,0.308c0.46,0.254,0.768,0.563,1.024,1.023c0.205,0.465,0.358,1.027,0.358,1.587v0.665h-1.638v-0.56
				c0-0.461-0.153-0.769-0.358-1.076c-0.205-0.204-0.563-0.359-0.973-0.359c-0.46,0-0.819,0.152-1.024,0.359
				c-0.256,0.202-0.358,0.563-0.358,0.974v0.769c0,0.306,0.051,0.614,0.205,0.817c0.205,0.203,0.357,0.357,0.562,0.512l0.922,0.463
				c0.051,0,0.102,0,0.102,0.05c0.051,0.051,0.103,0.051,0.103,0.051L132.519,89.389z"/>
		</g>
	</g>
	<g>
		<g>
			<path fill="#FE9929" d="M138.15,83.861v12.548h-1.638V83.861H138.15z"/>
		</g>
	</g>
	<g>
		<g>
			<path fill="#FE9929" d="M140.71,94.816v1.589h-0.871V83.861h1.639v10.955H140.71L140.71,94.816z"/>
			<path fill="#FE9929" d="M141.479,94.816h3.584v1.589h-3.584V94.816z"/>
		</g>
	</g>
	<g>
		<g>
			<path fill="#FE9929" d="M147.162,94.816v1.589h-0.819V83.861h1.586v10.955H147.162L147.162,94.816z"/>
			<path fill="#FE9929" d="M147.93,94.816h3.584v1.589h-3.584V94.816z"/>
		</g>
	</g>
	<g>
		<g>
			<path fill="#FE9929" d="M157.555,96.149c-0.46,0.256-1.024,0.409-1.689,0.409c-0.615,0-1.178-0.149-1.638-0.409
				c-0.512-0.256-0.871-0.616-1.076-1.076s-0.358-1.025-0.358-1.689V86.88c0-0.666,0.153-1.229,0.358-1.692
				c0.205-0.46,0.563-0.815,1.076-1.075c0.512-0.251,1.075-0.36,1.638-0.36c0.666,0,1.229,0.103,1.689,0.36
				c0.41,0.202,0.818,0.615,1.075,1.075c0.256,0.516,0.358,1.08,0.358,1.692v6.503c0,0.615-0.103,1.178-0.358,1.689
				C158.374,95.534,158.016,95.893,157.555,96.149z M155.098,94.765c0.256,0.104,0.512,0.206,0.768,0.206s0.512-0.103,0.819-0.206
				c0.205-0.101,0.41-0.252,0.512-0.512c0.103-0.255,0.154-0.513,0.154-0.817v-6.605c0-0.309-0.051-0.563-0.154-0.77
				c-0.102-0.256-0.307-0.461-0.512-0.512c-0.307-0.152-0.563-0.205-0.819-0.205s-0.512,0.051-0.768,0.205
				c-0.205,0.05-0.358,0.254-0.512,0.512c-0.102,0.206-0.153,0.461-0.153,0.77v6.604c0,0.307,0.051,0.564,0.153,0.818
				C154.739,94.51,154.893,94.665,155.098,94.765z"/>
		</g>
	</g>
	<g>
		<g>
			<path fill="#FE9929" d="M163.802,92l1.792-1.33l-1.792-1.332V87.24l4.403,3.431l-4.403,3.43V92z"/>
		</g>
	</g>
	<g>
		<g>
			<path fill="#FE9929" d="M168.513,92l1.844-1.33l-1.844-1.332V87.24l4.403,3.431l-4.403,3.43V92z"/>
		</g>
	</g>
	<g>
		<g>
			<path fill="#FE9929" d="M180.441,91.54h-1.587v-1.533h1.587c0.256,0,0.461-0.051,0.615-0.154
				c0.152-0.102,0.308-0.252,0.357-0.459c0.052-0.152,0.104-0.413,0.104-0.716V86.78c0-0.309-0.051-0.513-0.104-0.717
				c-0.05-0.205-0.205-0.358-0.357-0.461c-0.153-0.102-0.358-0.151-0.615-0.151h-1.587v-1.587h1.587
				c0.563,0,1.076,0.152,1.537,0.358c0.357,0.255,0.717,0.564,0.921,1.025c0.255,0.413,0.358,0.922,0.358,1.536v1.946
				c0,0.563-0.102,1.023-0.358,1.534c-0.256,0.413-0.615,0.768-0.973,0.919C181.518,91.437,181.005,91.54,180.441,91.54z"/>
			<path fill="#FE9929" d="M177.216,96.405V83.861h0.922v1.587h0.717v4.556h-0.717v1.535h0.717v4.865L177.216,96.405L177.216,96.405
				z"/>
		</g>
	</g>
	<g>
		<g>
			<path fill="#FE9929" d="M187.917,86.42l-1.076,5.734h-0.718v1.535h0.461l-0.563,2.715h-1.741l2.867-12.544h1.485l2.918,12.544
				h-1.74l-0.513-2.715h0.563v-1.535h-0.871L187.917,86.42z"/>
			<path fill="#FE9929" d="M189.299,93.69h-2.713l0.255-1.535h2.149L189.299,93.69z"/>
		</g>
	</g>
	<g>
		<g>
			<path fill="#FE9929" d="M196.058,89.288l0.205,0.102c0.052,0,0.052,0,0.052,0l1.227,0.666c0.308,0.205,0.563,0.461,0.769,0.87
				c0.255,0.41,0.306,0.921,0.306,1.533v1.126c0,0.615-0.102,1.13-0.306,1.641c-0.257,0.411-0.615,0.768-1.023,0.921
				c-0.461,0.255-1.024,0.412-1.69,0.412c-0.614,0-1.126-0.153-1.638-0.412c-0.461-0.151-0.769-0.514-1.024-0.921
				c-0.205-0.512-0.358-1.026-0.358-1.641V92.97h1.639v0.515c0,0.514,0.102,0.817,0.358,1.076c0.256,0.252,0.613,0.41,1.023,0.41
				c0.461,0,0.82-0.152,1.024-0.41c0.257-0.255,0.409-0.563,0.409-1.076v-1.026c0-0.307-0.102-0.563-0.256-0.769
				c-0.153-0.202-0.307-0.41-0.563-0.563l-0.922-0.463c0,0,0,0-0.051,0l0,0l-0.152-0.05l-1.281-0.718
				c-0.307-0.251-0.615-0.563-0.87-0.975c-0.205-0.358-0.308-0.869-0.308-1.534v-0.768c0-0.563,0.103-1.076,0.308-1.536
				c0.255-0.461,0.563-0.767,1.024-1.023c0.512-0.203,1.074-0.308,1.638-0.308c0.616,0,1.178,0.104,1.639,0.308
				c0.41,0.254,0.768,0.563,1.024,1.023c0.204,0.465,0.307,1.027,0.307,1.587v0.665h-1.639v-0.56c0-0.461-0.102-0.87-0.359-1.076
				c-0.204-0.204-0.512-0.359-0.973-0.359c-0.41,0-0.768,0.152-1.023,0.359c-0.255,0.203-0.308,0.563-0.308,0.974v0.769
				c0,0.356,0.051,0.614,0.205,0.817c0.152,0.203,0.307,0.357,0.563,0.512l0.921,0.463
				C196.006,89.236,196.006,89.236,196.058,89.288z"/>
		</g>
	</g>
	<g>
		<g>
			<path fill="#FE9929" d="M201.895,83.861v12.548h-1.689V83.861H201.895z"/>
		</g>
	</g>
	<g>
		<g>
			<path fill="#FE9929" d="M204.455,94.816v1.589h-0.922V83.861h1.692v10.955H204.455L204.455,94.816z"/>
			<path fill="#FE9929" d="M205.222,94.816h3.533v1.589h-3.533V94.816z"/>
		</g>
	</g>
	<g>
		<g>
			<path fill="#FE9929" d="M210.905,94.816v1.589h-0.87V83.861h1.642v10.955H210.905L210.905,94.816z"/>
			<path fill="#FE9929" d="M211.674,94.816h3.584v1.589h-3.584V94.816z"/>
		</g>
	</g>
	<g>
		<g>
			<path fill="#FE9929" d="M221.299,96.149c-0.46,0.256-1.023,0.409-1.689,0.409c-0.614,0-1.229-0.149-1.642-0.409
				c-0.517-0.256-0.866-0.616-1.129-1.076c-0.202-0.513-0.306-1.075-0.306-1.689V86.88c0-0.614,0.102-1.179,0.306-1.692
				c0.257-0.46,0.614-0.815,1.129-1.075c0.461-0.251,1.027-0.36,1.642-0.36c0.666,0,1.177,0.103,1.689,0.36
				c0.512,0.253,0.82,0.615,1.024,1.075c0.255,0.464,0.41,1.08,0.41,1.692v6.503c0,0.664-0.153,1.229-0.41,1.689
				C222.119,95.534,221.811,95.893,221.299,96.149z M218.842,94.765c0.253,0.104,0.513,0.206,0.768,0.206
				c0.307,0,0.563-0.103,0.817-0.206c0.201-0.101,0.359-0.252,0.516-0.512c0.099-0.255,0.15-0.513,0.15-0.817v-6.605
				c0-0.257-0.051-0.513-0.15-0.77c-0.155-0.256-0.308-0.461-0.516-0.512c-0.253-0.152-0.513-0.205-0.817-0.205
				c-0.255,0-0.515,0.051-0.768,0.205c-0.256,0.103-0.413,0.254-0.513,0.512c-0.103,0.206-0.204,0.461-0.204,0.77v6.604
				c0,0.307,0.102,0.564,0.204,0.818C218.432,94.458,218.586,94.613,218.842,94.765z"/>
		</g>
	</g>
	<g>
		<g>
			<path fill="#FE9929" d="M227.545,92l1.844-1.33l-1.844-1.332V87.24l4.403,3.431l-4.403,3.43V92z"/>
		</g>
	</g>
	<g>
		<g>
			<path fill="#FE9929" d="M232.256,92l1.793-1.33l-1.793-1.332V87.24l4.402,3.431l-4.402,3.43V92z"/>
		</g>
	</g>
</g>
<text transform="matrix(0.7268 0 0 1 106.0977 77.9351)" fill="#FAFCFA" font-family="'Bahnschrift'" font-size="40.021">3er PISO</text>
</svg>
