<?xml version="1.0" encoding="utf-8"?>
<!-- Generator: Adobe Illustrator 16.0.2, SVG Export Plug-In . SVG Version: 6.00 Build 0)  -->
<!DOCTYPE svg PUBLIC "-//W3C//DTD SVG 1.1//EN" "http://www.w3.org/Graphics/SVG/1.1/DTD/svg11.dtd">
<svg version="1.1"
	 id="svg815" xmlns:rdf="http://www.w3.org/1999/02/22-rdf-syntax-ns#" xmlns:cc="http://creativecommons.org/ns#" xmlns:sodipodi="http://sodipodi.sourceforge.net/DTD/sodipodi-0.dtd" xmlns:inkscape="http://www.inkscape.org/namespaces/inkscape" xmlns:dc="http://purl.org/dc/elements/1.1/" xmlns:svg="http://www.w3.org/2000/svg" inkscape:version="0.92.3 (2405546, 2018-03-11)" sodipodi:docname="menu_1er.svg"
	 xmlns="http://www.w3.org/2000/svg" xmlns:xlink="http://www.w3.org/1999/xlink" x="0px" y="0px" width="118.4px" height="40px"
	 viewBox="134.8 45.95 118.4 40" enable-background="new 134.8 45.95 118.4 40" xml:space="preserve">
<line id="line2592" fill="none" x1="134.8" y1="85.95" x2="253.2" y2="45.95"/>
<sodipodi:namedview  id="namedview817" inkscape:cx="69.490762" borderopacity="1" inkscape:zoom="5.6077099" inkscape:cy="13.952328" pagecolor="#ffffff" showgrid="false" bordercolor="#666666" inkscape:window-maximized="1" inkscape:pagecheckerboard="0" inkscape:window-width="1920" inkscape:showpageshadow="2" inkscape:pageopacity="0" inkscape:deskcolor="#d1d1d1" inkscape:window-x="-8" inkscape:window-y="-8" inkscape:window-height="1057" inkscape:current-layer="svg815" fit-margin-left="0" objecttolerance="10" showguides="true" fit-margin-top="0" guidetolerance="10" gridtolerance="10" fit-margin-bottom="0" inkscape:snap-page="false" inkscape:pageshadow="2" fit-margin-right="0">
	</sodipodi:namedview>
<g id="g2603" transform="matrix(0.92499992,0,0,0.91575107,9.0000009,3.4499863)">
	<g id="g2597">
		<path id="path2595" inkscape:connector-curvature="0" fill="#FF3300" d="M137.613,78.435V58.058c0-1.254,0.23-2.431,0.692-3.558
			c0.46-1.075,1.126-2.049,1.971-2.892c1.766-1.766,3.89-2.637,6.425-2.637h106.624c1.23,0,2.382,0.23,3.534,0.717
			c1.075,0.435,2.047,1.101,2.892,1.92c1.767,1.792,2.637,3.917,2.637,6.451v20.377c0,1.255-0.23,2.432-0.717,3.559
			c-0.459,1.075-1.099,2.048-1.918,2.868c-0.847,0.846-1.818,1.511-2.894,1.946c-1.152,0.484-2.303,0.717-3.533,0.717H146.701
			c-1.253,0-2.405-0.234-3.557-0.717c-1.077-0.435-2.049-1.101-2.867-1.946c-0.845-0.82-1.51-1.793-1.971-2.868
			C137.843,80.867,137.613,79.69,137.613,78.435L137.613,78.435z"/>
	</g>
	<g id="g2601">
		
			<path id="path2599" inkscape:connector-curvature="0" fill="none" stroke="#999999" stroke-width="0.5" stroke-linecap="round" stroke-linejoin="round" stroke-miterlimit="10" d="
			M137.613,78.435c0,1.254,0.23,2.431,0.692,3.559c0.46,1.076,1.126,2.049,1.971,2.868c0.819,0.846,1.792,1.51,2.866,1.945
			c1.152,0.486,2.304,0.717,3.559,0.717h106.624c1.23,0,2.382-0.232,3.534-0.717c1.076-0.435,2.048-1.099,2.892-1.945
			c0.821-0.819,1.461-1.792,1.92-2.868c0.487-1.127,0.717-2.305,0.717-3.559V58.058c0-2.534-0.87-4.658-2.637-6.45
			c-0.845-0.819-1.816-1.484-2.892-1.921c-1.152-0.486-2.304-0.717-3.533-0.717H146.701c-2.534,0-4.659,0.871-6.424,2.637
			c-0.846,0.845-1.512,1.817-1.972,2.892c-0.46,1.126-0.692,2.305-0.692,3.559V78.435"/>
	</g>
</g>
<g id="g2613" transform="matrix(0.92499992,0,0,0.91575107,9.0000009,3.4499863)">
	<g id="g2607">
		
			<path id="path2605" inkscape:connector-curvature="0" fill="none" stroke="#999999" stroke-width="0.4" stroke-linecap="round" stroke-linejoin="round" stroke-miterlimit="10" d="
			M227.674,76.414c0,2.022,0.716,3.713,2.125,5.12c1.406,1.434,3.123,2.151,5.147,2.151h16.332c1.994,0,3.711-0.716,5.146-2.151
			c1.407-1.409,2.098-3.098,2.098-5.12V60.082c0-2.023-0.69-3.713-2.098-5.146c-1.435-1.408-3.15-2.125-5.146-2.125h-16.334
			c-2.023,0-3.738,0.718-5.145,2.125c-1.409,1.433-2.125,3.122-2.125,5.146V76.414"/>
	</g>
	<g id="g2611">
		<path id="path2609" inkscape:connector-curvature="0" fill="#F2F2F2" d="M227.674,76.414V60.082c0-2.023,0.716-3.713,2.125-5.146
			c1.406-1.408,3.123-2.125,5.147-2.125h16.332c1.994,0,3.711,0.718,5.146,2.125c1.407,1.433,2.098,3.122,2.098,5.146v16.332
			c0,2.023-0.69,3.713-2.098,5.121c-1.435,1.433-3.15,2.15-5.146,2.15h-16.334c-2.023,0-3.738-0.716-5.145-2.15
			C228.39,80.125,227.674,78.435,227.674,76.414L227.674,76.414z"/>
	</g>
</g>
<path id="path2615" inkscape:connector-curvature="0" fill="#FF0000" d="M245.67,65.011c0-0.234-0.047-0.471-0.142-0.68
	c-0.07-0.211-0.213-0.422-0.403-0.609l-8.549-8.488c-0.19-0.141-0.401-0.305-0.615-0.375c-0.213-0.094-0.45-0.141-0.686-0.141
	c-0.238,0-0.451,0.047-0.688,0.141c-0.236,0.07-0.426,0.234-0.593,0.375l-0.662,0.656c-0.166,0.164-0.284,0.375-0.378,0.586
	c-0.095,0.211-0.143,0.445-0.143,0.68c0,0.236,0.047,0.469,0.143,0.68c0.094,0.211,0.214,0.422,0.378,0.609l4.656,4.596h-0.561
	h-6.678h-5.448c-0.26,0-0.496,0.046-0.708,0.14c-0.215,0.071-0.426,0.212-0.569,0.376c-0.166,0.164-0.307,0.352-0.402,0.563
	c-0.095,0.234-0.142,0.469-0.142,0.703v0.915c0,0.259,0.047,0.492,0.142,0.703c0.096,0.211,0.238,0.399,0.402,0.563
	c0.142,0.164,0.354,0.305,0.569,0.398c0.213,0.07,0.45,0.115,0.708,0.115h5.448h6.677h0.402l-4.664,4.619
	c-0.191,0.188-0.309,0.375-0.403,0.609c-0.095,0.211-0.143,0.445-0.143,0.68c0,0.235,0.047,0.445,0.143,0.68
	c0.095,0.234,0.213,0.422,0.403,0.586l0.637,0.633c0.168,0.188,0.355,0.304,0.593,0.398c0.238,0.094,0.45,0.141,0.687,0.141
	s0.451-0.047,0.687-0.141c0.237-0.095,0.425-0.212,0.593-0.398l8.572-8.488c0.189-0.164,0.308-0.373,0.401-0.586
	c0.056-0.135,0.093-0.262,0.116-0.391c0.028-0.055,0.055-0.113,0.074-0.171C245.623,65.479,245.67,65.245,245.67,65.011
	L245.67,65.011z"/>
<g id="g2753" transform="matrix(0.92499992,0,0,0.91575107,9.0000009,3.4499863)">
	<g id="g2621">
		<g id="g2619">
			<path id="path2617" inkscape:connector-curvature="0" fill="#FE9929" d="M150.054,80.125l0.896-0.665l-0.896-0.665v-1.049
				l2.202,1.715l-2.202,1.717V80.125z"/>
		</g>
	</g>
	<g id="g2627">
		<g id="g2625">
			<path id="path2623" inkscape:connector-curvature="0" fill="#FE9929" d="M152.384,80.125l0.922-0.665l-0.922-0.665v-1.05
				l2.202,1.716l-2.202,1.717V80.125z"/>
		</g>
	</g>
	<g id="g2635">
		<g id="g2633">
			<path id="path2629" inkscape:connector-curvature="0" fill="#FE9929" d="M158.349,79.894h-0.793v-0.766h0.817
				c0.103,0,0.206-0.026,0.282-0.078c0.103-0.05,0.154-0.126,0.206-0.229c0.026-0.077,0.051-0.207,0.051-0.358v-0.949
				c0-0.154-0.026-0.256-0.051-0.358c-0.052-0.102-0.102-0.179-0.206-0.23c-0.076-0.051-0.178-0.077-0.282-0.077h-0.817v-0.793
				h0.792c0.282,0,0.512,0.077,0.769,0.18c0.179,0.127,0.358,0.283,0.486,0.513c0.077,0.18,0.154,0.435,0.154,0.768v0.974
				c0,0.307-0.077,0.562-0.181,0.767c-0.102,0.206-0.255,0.357-0.46,0.459C158.913,79.845,158.655,79.894,158.349,79.894z"/>
			<path id="path2631" inkscape:connector-curvature="0" fill="#FE9929" d="M156.737,82.327v-6.272h0.46v0.793h0.359v2.278h-0.359
				v0.768h0.359v2.432H156.737z"/>
		</g>
	</g>
	<g id="g2643">
		<g id="g2641">
			<path id="path2637" inkscape:connector-curvature="0" fill="#FE9929" d="M162.086,77.335l-0.537,2.869h-0.333v0.767h0.205
				l-0.257,1.358h-0.896l1.46-6.273h0.742l1.459,6.273h-0.895l-0.258-1.358h0.283v-0.767h-0.435L162.086,77.335z"/>
			<path id="path2639" inkscape:connector-curvature="0" fill="#FE9929" d="M162.777,80.97h-1.356l0.128-0.767h1.076L162.777,80.97z
				"/>
		</g>
	</g>
	<g id="g2649">
		<g id="g2647">
			<path id="path2645" inkscape:connector-curvature="0" fill="#FE9929" d="M166.259,78.819l0.665,0.333
				c0.153,0.102,0.282,0.282,0.383,0.435c0.102,0.181,0.128,0.435,0.128,0.767v0.563c0,0.333-0.025,0.591-0.152,0.82
				c-0.102,0.206-0.282,0.383-0.512,0.46c-0.231,0.128-0.513,0.207-0.819,0.207c-0.307,0-0.589-0.077-0.819-0.207
				c-0.231-0.076-0.41-0.256-0.512-0.46c-0.128-0.256-0.179-0.513-0.179-0.82V80.61h0.818v0.257c0,0.257,0.051,0.41,0.181,0.539
				c0.128,0.126,0.306,0.206,0.512,0.206c0.205,0,0.384-0.077,0.512-0.206c0.128-0.127,0.179-0.282,0.179-0.539v-0.513
				c0-0.152-0.052-0.282-0.103-0.384c-0.076-0.101-0.179-0.205-0.282-0.282l-0.486-0.23l0,0h-0.026l-0.051-0.026l-0.64-0.358
				c-0.205-0.126-0.333-0.282-0.435-0.486c-0.128-0.23-0.179-0.486-0.179-0.768v-0.383c0-0.283,0.05-0.539,0.179-0.768
				c0.102-0.23,0.281-0.384,0.512-0.512c0.23-0.102,0.512-0.154,0.819-0.154s0.563,0.051,0.794,0.154
				c0.23,0.127,0.384,0.282,0.511,0.512c0.102,0.232,0.179,0.514,0.179,0.792v0.333h-0.819v-0.28c0-0.23-0.077-0.384-0.179-0.537
				c-0.101-0.102-0.283-0.18-0.486-0.18c-0.231,0-0.41,0.077-0.512,0.18c-0.128,0.101-0.181,0.282-0.181,0.486v0.384
				c0,0.152,0.025,0.307,0.102,0.408c0.102,0.101,0.178,0.179,0.282,0.256l0.46,0.23c0.025,0,0.051,0,0.051,0.026
				c0.025,0.026,0.051,0.026,0.051,0.026L166.259,78.819z"/>
		</g>
	</g>
	<g id="g2655">
		<g id="g2653">
			<path id="path2651" inkscape:connector-curvature="0" fill="#FE9929" d="M169.075,76.055v6.274h-0.818v-6.274H169.075z"/>
		</g>
	</g>
	<g id="g2663">
		<g id="g2661">
			<path id="path2657" inkscape:connector-curvature="0" fill="#FE9929" d="M170.355,81.533v0.793h-0.435v-6.272h0.818v5.478
				H170.355z"/>
			<path id="path2659" inkscape:connector-curvature="0" fill="#FE9929" d="M170.739,81.533h1.793v0.793h-1.793V81.533z"/>
		</g>
	</g>
	<g id="g2671">
		<g id="g2669">
			<path id="path2665" inkscape:connector-curvature="0" fill="#FE9929" d="M173.581,81.533v0.793h-0.411v-6.272h0.794v5.478
				H173.581z"/>
			<path id="path2667" inkscape:connector-curvature="0" fill="#FE9929" d="M173.964,81.533h1.793v0.793h-1.793V81.533z"/>
		</g>
	</g>
	<g id="g2677">
		<g id="g2675">
			<path id="path2673" inkscape:connector-curvature="0" fill="#FE9929" d="M178.777,82.2c-0.23,0.127-0.512,0.205-0.845,0.205
				c-0.308,0-0.588-0.076-0.818-0.205c-0.257-0.128-0.436-0.309-0.538-0.539c-0.103-0.229-0.179-0.513-0.179-0.846v-3.25
				c0-0.333,0.076-0.614,0.179-0.846c0.102-0.23,0.282-0.408,0.538-0.537c0.255-0.127,0.537-0.181,0.818-0.181
				c0.333,0,0.614,0.051,0.845,0.181c0.206,0.1,0.41,0.307,0.538,0.537c0.127,0.257,0.179,0.539,0.179,0.846v3.25
				c0,0.308-0.051,0.589-0.179,0.846C179.187,81.892,179.009,82.072,178.777,82.2z M177.549,81.509
				c0.129,0.051,0.257,0.102,0.384,0.102s0.257-0.05,0.41-0.102c0.101-0.05,0.205-0.127,0.255-0.256
				c0.052-0.128,0.078-0.256,0.078-0.41V77.54c0-0.154-0.025-0.282-0.078-0.384c-0.051-0.128-0.154-0.23-0.255-0.256
				c-0.153-0.075-0.282-0.102-0.41-0.102s-0.255,0.026-0.384,0.102c-0.101,0.026-0.178,0.128-0.254,0.256
				c-0.052,0.102-0.078,0.23-0.078,0.384v3.304c0,0.152,0.025,0.282,0.078,0.408C177.37,81.381,177.447,81.458,177.549,81.509z"/>
		</g>
	</g>
	<g id="g2683">
		<g id="g2681">
			<path id="path2679" inkscape:connector-curvature="0" fill="#FE9929" d="M181.9,80.125l0.897-0.665l-0.897-0.665v-1.049
				l2.202,1.715l-2.202,1.717V80.125z"/>
		</g>
	</g>
	<g id="g2689">
		<g id="g2687">
			<path id="path2685" inkscape:connector-curvature="0" fill="#FE9929" d="M184.256,80.125l0.922-0.665l-0.922-0.665v-1.049
				l2.202,1.715l-2.202,1.717V80.125z"/>
		</g>
	</g>
	<g id="g2697">
		<g id="g2695">
			<path id="path2691" inkscape:connector-curvature="0" fill="#FE9929" d="M190.22,79.894h-0.792v-0.766h0.792
				c0.129,0,0.231-0.026,0.308-0.078c0.077-0.05,0.153-0.126,0.179-0.229c0.025-0.077,0.051-0.207,0.051-0.358v-0.949
				c0-0.154-0.025-0.256-0.051-0.358c-0.025-0.102-0.102-0.179-0.179-0.23c-0.077-0.051-0.179-0.077-0.308-0.077h-0.792v-0.793
				h0.792c0.283,0,0.538,0.077,0.769,0.18c0.179,0.127,0.358,0.283,0.461,0.513c0.128,0.206,0.178,0.461,0.178,0.768v0.974
				c0,0.282-0.05,0.512-0.178,0.767c-0.128,0.206-0.307,0.383-0.487,0.461C190.758,79.845,190.503,79.894,190.22,79.894z"/>
			<path id="path2693" inkscape:connector-curvature="0" fill="#FE9929" d="M188.609,82.327v-6.272h0.46v0.793h0.359v2.278h-0.359
				v0.768h0.359v2.432H188.609z"/>
		</g>
	</g>
	<g id="g2705">
		<g id="g2703">
			<path id="path2699" inkscape:connector-curvature="0" fill="#FE9929" d="M193.958,77.335l-0.538,2.869h-0.357v0.767h0.229
				l-0.282,1.358h-0.87l1.434-6.273h0.743l1.458,6.273h-0.87l-0.255-1.358h0.281v-0.767h-0.435L193.958,77.335z"/>
			<path id="path2701" inkscape:connector-curvature="0" fill="#FE9929" d="M194.651,80.97h-1.357l0.127-0.767h1.076L194.651,80.97z
				"/>
		</g>
	</g>
	<g id="g2711">
		<g id="g2709">
			<path id="path2707" inkscape:connector-curvature="0" fill="#FE9929" d="M198.029,78.769l0.102,0.05c0.025,0,0.025,0,0.025,0
				l0.614,0.333c0.153,0.102,0.283,0.23,0.383,0.435c0.128,0.205,0.153,0.461,0.153,0.767v0.563c0,0.308-0.051,0.565-0.153,0.82
				c-0.128,0.206-0.307,0.383-0.512,0.46c-0.23,0.128-0.512,0.207-0.845,0.207c-0.308,0-0.565-0.077-0.819-0.207
				c-0.23-0.076-0.384-0.256-0.512-0.46c-0.103-0.256-0.181-0.513-0.181-0.82V80.61h0.819v0.257c0,0.257,0.051,0.41,0.179,0.539
				c0.128,0.126,0.307,0.206,0.513,0.206c0.229,0,0.41-0.077,0.511-0.206c0.129-0.127,0.206-0.282,0.206-0.539v-0.513
				c0-0.152-0.05-0.282-0.128-0.384c-0.078-0.101-0.154-0.205-0.282-0.282l-0.461-0.23c0,0,0,0-0.025,0l0,0l-0.077-0.026
				l-0.641-0.358c-0.152-0.126-0.306-0.282-0.434-0.486c-0.103-0.18-0.154-0.435-0.154-0.768v-0.383
				c0-0.283,0.051-0.539,0.154-0.768c0.128-0.23,0.282-0.384,0.512-0.512c0.254-0.102,0.537-0.154,0.819-0.154
				c0.307,0,0.587,0.051,0.819,0.154c0.204,0.127,0.383,0.282,0.511,0.512c0.102,0.232,0.154,0.514,0.154,0.792v0.333h-0.819v-0.28
				c0-0.23-0.051-0.435-0.179-0.537c-0.103-0.102-0.257-0.18-0.486-0.18c-0.206,0-0.384,0.077-0.513,0.18
				c-0.128,0.101-0.153,0.282-0.153,0.486v0.384c0,0.178,0.025,0.307,0.101,0.408c0.078,0.101,0.154,0.179,0.282,0.256l0.461,0.23
				C198.004,78.743,198.004,78.743,198.029,78.769L198.029,78.769z"/>
		</g>
	</g>
	<g id="g2717">
		<g id="g2715">
			<path id="path2713" inkscape:connector-curvature="0" fill="#FE9929" d="M200.948,76.055v6.274h-0.846v-6.274H200.948z"/>
		</g>
	</g>
	<g id="g2725">
		<g id="g2723">
			<path id="path2719" inkscape:connector-curvature="0" fill="#FE9929" d="M202.228,81.533v0.793h-0.46v-6.272h0.846v5.478H202.228
				z"/>
			<path id="path2721" inkscape:connector-curvature="0" fill="#FE9929" d="M202.612,81.533h1.765v0.793h-1.765V81.533z"/>
		</g>
	</g>
	<g id="g2733">
		<g id="g2731">
			<path id="path2727" inkscape:connector-curvature="0" fill="#FE9929" d="M205.453,81.533v0.793h-0.436v-6.272h0.821v5.478
				H205.453z"/>
			<path id="path2729" inkscape:connector-curvature="0" fill="#FE9929" d="M205.837,81.533h1.792v0.793h-1.792V81.533z"/>
		</g>
	</g>
	<g id="g2739">
		<g id="g2737">
			<path id="path2735" inkscape:connector-curvature="0" fill="#FE9929" d="M210.649,82.2c-0.229,0.127-0.512,0.205-0.845,0.205
				c-0.307,0-0.613-0.076-0.82-0.205c-0.258-0.128-0.434-0.309-0.564-0.539c-0.101-0.256-0.154-0.537-0.154-0.846v-3.25
				c0-0.307,0.051-0.589,0.154-0.846c0.128-0.23,0.306-0.408,0.564-0.537c0.23-0.127,0.514-0.181,0.82-0.181
				c0.333,0,0.588,0.051,0.845,0.181c0.257,0.126,0.411,0.307,0.513,0.537c0.128,0.231,0.206,0.539,0.206,0.846v3.25
				c0,0.333-0.078,0.616-0.206,0.846C211.059,81.892,210.906,82.072,210.649,82.2z M209.419,81.509
				c0.127,0.051,0.258,0.102,0.384,0.102c0.153,0,0.283-0.05,0.409-0.102c0.102-0.05,0.181-0.127,0.258-0.256
				c0.051-0.128,0.076-0.256,0.076-0.41V77.54c0-0.128-0.025-0.256-0.076-0.384c-0.078-0.128-0.153-0.23-0.258-0.256
				c-0.126-0.075-0.255-0.102-0.409-0.102c-0.127,0-0.258,0.026-0.384,0.102c-0.127,0.051-0.206,0.128-0.255,0.256
				c-0.051,0.102-0.101,0.23-0.101,0.384v3.304c0,0.152,0.051,0.282,0.101,0.408C209.217,81.354,209.293,81.432,209.419,81.509z"/>
		</g>
	</g>
	<g id="g2745">
		<g id="g2743">
			<path id="path2741" inkscape:connector-curvature="0" fill="#FE9929" d="M213.773,80.125l0.921-0.665l-0.921-0.665v-1.049
				l2.201,1.715l-2.201,1.717V80.125z"/>
		</g>
	</g>
	<g id="g2751">
		<g id="g2749">
			<path id="path2747" inkscape:connector-curvature="0" fill="#FE9929" d="M216.129,80.125l0.895-0.665l-0.895-0.665v-1.049
				l2.201,1.715l-2.201,1.717V80.125z"/>
		</g>
	</g>
</g>
<g id="g2769" transform="matrix(0.92499992,0,0,0.91575107,9.0000009,3.4499863)" enable-background="new    ">
	<path id="path2755" inkscape:connector-curvature="0" fill="#FDFFFD" d="M155.967,70.338h-1.448V58.301l-1.471,1.24v-2.06
		l1.471-1.349h1.448V70.338z"/>
	<path id="path2757" inkscape:connector-curvature="0" fill="#FDFFFD" d="M160.378,70.484c0,0-0.242-0.177-0.725-0.528
		c-0.482-0.351-0.851-0.868-1.103-1.548c-0.253-0.68-0.381-1.504-0.381-2.468v-1.143c0-1.002,0.121-1.86,0.365-2.569
		c0.245-0.711,0.599-1.251,1.063-1.622c0.463-0.371,1.022-0.557,1.677-0.557c0.615,0,1.14,0.211,1.575,0.636
		c0.435,0.422,0.769,1.034,0.999,1.836c0.229,0.8,0.345,1.763,0.345,2.881v0.665h-4.971v-1.602h3.594
		c-0.042-0.828-0.198-1.471-0.465-1.93c-0.267-0.459-0.626-0.689-1.077-0.689c-0.549,0-0.973,0.248-1.274,0.742
		c-0.3,0.496-0.45,1.197-0.45,2.101v1.289c0,0.841,0.16,1.486,0.482,1.936c0.323,0.449,0.779,0.674,1.37,0.674
		c0.294,0,0.585-0.081,0.873-0.244c0.288-0.163,0.546-0.391,0.774-0.685l0.952,1.31c-0.365,0.483-0.775,0.854-1.229,1.119
		c-0.455,0.263-0.912,0.395-1.37,0.395C160.718,70.484,160.378,70.484,160.378,70.484L160.378,70.484z"/>
	<path id="path2759" inkscape:connector-curvature="0" fill="#FDFFFD" d="M166.18,60.196h1.448v10.143h-1.448V60.196z
		 M169.752,62.112c-0.195-0.111-0.42-0.167-0.676-0.167c-0.459,0-0.816,0.175-1.069,0.524c-0.252,0.348-0.38,0.832-0.38,1.45
		l-0.15-1.954c0.228-0.607,0.52-1.077,0.882-1.413c0.36-0.335,0.758-0.502,1.192-0.502c0.337,0,0.641,0.066,0.914,0.199
		c0.272,0.133,0.51,0.332,0.713,0.592l-0.944,1.757C170.108,62.385,169.946,62.222,169.752,62.112L169.752,62.112z"/>
	<path id="path2761" inkscape:connector-curvature="0" fill="#FDFFFD" d="M176.434,56.13h1.45v14.208h-1.45V56.13z M177.18,62.932
		h3.301c0.313,0,0.588-0.101,0.825-0.303c0.235-0.203,0.419-0.488,0.55-0.861c0.131-0.371,0.194-0.798,0.194-1.28
		c0-0.488-0.064-0.917-0.194-1.289c-0.131-0.371-0.314-0.659-0.55-0.865c-0.236-0.205-0.512-0.307-0.825-0.307h-3.301v-1.896h3.253
		c0.614,0,1.157,0.181,1.625,0.543c0.469,0.362,0.833,0.871,1.091,1.528s0.385,1.42,0.385,2.286c0,0.867-0.128,1.626-0.385,2.282
		c-0.258,0.655-0.622,1.16-1.091,1.519c-0.468,0.358-1.011,0.537-1.625,0.537h-3.253V62.932z"/>
	<path id="path2763" inkscape:connector-curvature="0" fill="#FDFFFD" d="M186.794,70.338h-1.45V56.13h1.45V70.338z"/>
	<path id="path2765" inkscape:connector-curvature="0" fill="#FDFFFD" d="M191.708,70.484c0,0-0.222-0.065-0.667-0.195
		c-0.447-0.13-0.859-0.325-1.247-0.587c-0.385-0.26-0.746-0.584-1.083-0.977l0.903-1.524c0.392,0.469,0.825,0.82,1.299,1.055
		c0.473,0.235,0.986,0.352,1.541,0.352c0.747,0,1.327-0.191,1.74-0.573c0.413-0.381,0.618-0.918,0.618-1.616V66.41
		c0-0.495-0.093-0.886-0.281-1.177c-0.186-0.29-0.428-0.503-0.723-0.644c-0.297-0.141-0.679-0.269-1.149-0.386
		c-0.015-0.006-0.029-0.011-0.045-0.011s-0.034-0.002-0.048-0.009l-0.106-0.03c-0.691-0.162-1.254-0.347-1.687-0.551
		c-0.433-0.207-0.804-0.58-1.113-1.125c-0.307-0.542-0.46-1.317-0.46-2.319v-0.01c0-0.88,0.144-1.631,0.431-2.252
		c0.285-0.622,0.703-1.095,1.251-1.42c0.549-0.327,1.211-0.491,1.983-0.491c0.368,0,0.732,0.055,1.09,0.167
		c0.357,0.111,0.711,0.275,1.058,0.493c0.348,0.219,0.689,0.494,1.025,0.825l-0.822,1.583c-0.394-0.398-0.783-0.695-1.175-0.894
		c-0.392-0.198-0.783-0.299-1.176-0.299c-0.706,0-1.253,0.194-1.644,0.581c-0.39,0.388-0.586,0.937-0.586,1.648V60.1
		c0,0.487,0.099,0.872,0.302,1.153c0.201,0.279,0.452,0.486,0.752,0.619c0.301,0.134,0.718,0.273,1.254,0.417
		c0.018,0.006,0.037,0.012,0.052,0.015c0.017,0.003,0.035,0.009,0.054,0.016c0.024,0.005,0.05,0.013,0.078,0.018
		c0.029,0.007,0.054,0.014,0.078,0.019c0.625,0.176,1.148,0.384,1.567,0.626c0.418,0.241,0.769,0.63,1.05,1.167
		c0.282,0.537,0.422,1.272,0.422,2.203v0.019c0,0.866-0.15,1.608-0.449,2.223c-0.298,0.615-0.73,1.085-1.294,1.407
		c-0.567,0.323-1.25,0.484-2.05,0.484C191.957,70.484,191.708,70.484,191.708,70.484L191.708,70.484z"/>
	<path id="path2767" inkscape:connector-curvature="0" fill="#FDFFFD" d="M199.533,69.835c-0.549-0.434-0.973-1.045-1.274-1.836
		c-0.3-0.791-0.45-1.709-0.45-2.75v-4.026c0-1.043,0.15-1.958,0.45-2.751c0.301-0.79,0.725-1.403,1.274-1.836
		c0.551-0.433,1.185-0.651,1.905-0.651c0.719,0,1.355,0.218,1.904,0.651c0.549,0.433,0.974,1.046,1.275,1.836
		c0.299,0.791,0.451,1.709,0.451,2.751v4.024c0,1.043-0.152,1.96-0.451,2.75c-0.301,0.792-0.726,1.404-1.275,1.838
		c-0.549,0.432-1.182,0.648-1.904,0.648C200.718,70.484,200.082,70.268,199.533,69.835z M202.563,68.124
		c0.323-0.263,0.575-0.638,0.753-1.123s0.267-1.047,0.267-1.686v-4.161c0-0.639-0.09-1.201-0.267-1.685
		c-0.177-0.486-0.43-0.861-0.753-1.124c-0.324-0.263-0.699-0.397-1.125-0.397c-0.427,0-0.802,0.133-1.125,0.397
		c-0.324,0.263-0.576,0.638-0.754,1.124c-0.177,0.484-0.266,1.047-0.266,1.685v4.162c0,0.638,0.089,1.2,0.266,1.685
		c0.179,0.485,0.43,0.86,0.754,1.123c0.323,0.264,0.699,0.397,1.125,0.397C201.864,68.521,202.24,68.389,202.563,68.124z"/>
</g>
</svg>
