<?xml version="1.0" encoding="utf-8"?>
<!-- Generator: Adobe Illustrator 16.0.2, SVG Export Plug-In . SVG Version: 6.00 Build 0)  -->
<!DOCTYPE svg PUBLIC "-//W3C//DTD SVG 1.1//EN" "http://www.w3.org/Graphics/SVG/1.1/DTD/svg11.dtd">
<svg version="1.1"
	 id="svg815" xmlns:rdf="http://www.w3.org/1999/02/22-rdf-syntax-ns#" xmlns:cc="http://creativecommons.org/ns#" xmlns:sodipodi="http://sodipodi.sourceforge.net/DTD/sodipodi-0.dtd" xmlns:inkscape="http://www.inkscape.org/namespaces/inkscape" xmlns:dc="http://purl.org/dc/elements/1.1/" xmlns:svg="http://www.w3.org/2000/svg" inkscape:version="1.2.2 (732a01da63, 2022-12-09)" sodipodi:docname="coffee013a.svg"
	 xmlns="http://www.w3.org/2000/svg" xmlns:xlink="http://www.w3.org/1999/xlink" x="0px" y="0px" width="256px" height="87.361px"
	 viewBox="72 24.57 256 87.361" enable-background="new 72 24.57 256 87.361" xml:space="preserve">
<text transform="matrix(0.7268 0 0 1 101.2627 49.2568)" fill="#FE9929" font-family="'Bahnschrift'" font-size="19.2">&gt;&gt; SIGUIENTE</text>
<g enable-background="new    ">
	<text transform="matrix(0.7268 0 0 1 191.4229 49.2568)" fill="#FE9929" font-family="'Bahnschrift'" font-size="19.2">&gt;&gt; PASILLOS &gt;&gt;</text>
</g>
<line fill="none" x1="72" y1="111.931" x2="328" y2="24.57"/>
<sodipodi:namedview  id="namedview817" inkscape:cx="-83.038984" borderopacity="1" inkscape:zoom="0.51782907" inkscape:cy="505.95846" pagecolor="#ffffff" showgrid="false" bordercolor="#666666" inkscape:window-maximized="1" inkscape:pagecheckerboard="0" inkscape:window-width="1366" inkscape:showpageshadow="2" inkscape:pageopacity="0" inkscape:deskcolor="#d1d1d1" inkscape:window-x="-8" inkscape:window-y="-8" inkscape:window-height="705" inkscape:current-layer="layer1" fit-margin-left="0" objecttolerance="10" showguides="true" fit-margin-top="0" guidetolerance="10" gridtolerance="10" fit-margin-bottom="0" inkscape:snap-page="false" inkscape:pageshadow="2" fit-margin-right="0">
	</sodipodi:namedview>
<g>
	<g>
		<path fill="#FF3300" d="M75.226,88.621V47.866c0-2.509,0.461-4.864,1.382-7.117c0.921-2.15,2.253-4.096,3.942-5.785
			c3.533-3.534,7.783-5.274,12.851-5.274H306.65c2.46,0,4.761,0.461,7.064,1.434c2.15,0.87,4.096,2.201,5.787,3.84
			c3.533,3.583,5.272,7.833,5.272,12.902v40.755c0,2.51-0.46,4.864-1.433,7.117c-0.919,2.149-2.2,4.096-3.84,5.734
			c-1.691,1.689-3.637,3.019-5.786,3.891c-2.305,0.972-4.605,1.435-7.065,1.435H93.401c-2.508,0-4.813-0.466-7.117-1.435
			c-2.15-0.872-4.096-2.201-5.733-3.891c-1.689-1.639-3.021-3.585-3.942-5.734C75.687,93.485,75.226,91.131,75.226,88.621z"/>
	</g>
	<g>
		
			<path fill="none" stroke="#999999" stroke-width="0.5" stroke-linecap="round" stroke-linejoin="round" stroke-miterlimit="10" d="
			M75.226,88.621c0,2.51,0.461,4.864,1.382,7.117c0.921,2.149,2.253,4.096,3.942,5.734c1.638,1.689,3.584,3.019,5.734,3.891
			c2.304,0.972,4.608,1.435,7.117,1.435h213.248c2.458,0,4.763-0.466,7.065-1.435c2.151-0.872,4.097-2.201,5.787-3.891
			c1.641-1.639,2.92-3.585,3.84-5.734c0.974-2.253,1.433-4.609,1.433-7.117V47.866c0-5.069-1.74-9.318-5.272-12.902
			c-1.69-1.639-3.636-2.97-5.787-3.84c-2.303-0.973-4.607-1.434-7.064-1.434H93.401c-5.068,0-9.318,1.741-12.851,5.274
			c-1.689,1.689-3.021,3.634-3.942,5.785c-0.921,2.253-1.382,4.608-1.382,7.117V88.621"/>
	</g>
</g>
<g>
	<g>
		
			<path fill="none" stroke="#999999" stroke-width="0.4" stroke-linecap="round" stroke-linejoin="round" stroke-miterlimit="10" d="
			M255.347,84.576c0,4.045,1.435,7.423,4.253,10.24c2.813,2.868,6.246,4.301,10.291,4.301h32.666c3.988,0,7.422-1.43,10.289-4.301
			c2.815-2.817,4.198-6.195,4.198-10.24V51.911c0-4.045-1.382-7.424-4.198-10.292c-2.867-2.816-6.301-4.25-10.289-4.25h-32.669
			c-4.046,0-7.476,1.435-10.291,4.25c-2.815,2.866-4.25,6.246-4.25,10.292V84.576"/>
	</g>
	<g>
		<path fill="#F2F2F2" d="M255.347,84.576V51.911c0-4.045,1.435-7.424,4.253-10.292c2.813-2.816,6.246-4.25,10.291-4.25h32.666
			c3.988,0,7.422,1.435,10.289,4.25c2.815,2.866,4.198,6.246,4.198,10.292v32.666c0,4.045-1.382,7.424-4.198,10.24
			c-2.867,2.868-6.301,4.301-10.289,4.301h-32.669c-4.046,0-7.476-1.43-10.291-4.301C256.781,92.001,255.347,88.621,255.347,84.576z
			"/>
	</g>
</g>
<path fill="#FF0000" d="M311.719,66.196c0-0.512-0.1-1.023-0.308-1.483c-0.152-0.461-0.46-0.922-0.87-1.331l-18.483-18.535
	c-0.411-0.307-0.868-0.665-1.331-0.819c-0.461-0.205-0.973-0.307-1.483-0.307c-0.515,0-0.975,0.102-1.483,0.307
	c-0.513,0.154-0.922,0.512-1.281,0.819l-1.434,1.434c-0.356,0.357-0.614,0.819-0.816,1.28c-0.204,0.46-0.308,0.973-0.308,1.485
	c0,0.512,0.102,1.023,0.308,1.484c0.203,0.46,0.462,0.921,0.816,1.332l10.066,10.035h-1.208h-14.442h-11.778
	c-0.563,0-1.075,0.102-1.532,0.306c-0.465,0.154-0.921,0.461-1.23,0.819c-0.358,0.359-0.663,0.768-0.868,1.229
	c-0.206,0.512-0.308,1.024-0.308,1.536v1.997c0,0.563,0.102,1.075,0.308,1.536c0.205,0.46,0.513,0.87,0.868,1.229
	c0.309,0.356,0.766,0.664,1.23,0.869c0.461,0.154,0.974,0.255,1.532,0.255h11.778H293.9h0.869l-10.084,10.086
	c-0.415,0.411-0.667,0.819-0.873,1.332c-0.205,0.46-0.307,0.973-0.307,1.481c0,0.516,0.101,0.974,0.307,1.484
	c0.206,0.513,0.461,0.921,0.873,1.281l1.379,1.383c0.359,0.41,0.768,0.663,1.279,0.868c0.517,0.204,0.975,0.308,1.485,0.308
	c0.51,0,0.974-0.102,1.483-0.308c0.513-0.205,0.92-0.462,1.281-0.868l18.534-18.537c0.41-0.358,0.666-0.817,0.868-1.279
	c0.119-0.296,0.201-0.574,0.25-0.854c0.064-0.123,0.119-0.25,0.162-0.376C311.617,67.221,311.719,66.709,311.719,66.196z"/>
<g>
	<g>
		<g>
			<path fill="#FE9929" d="M100.109,92.001l1.792-1.331l-1.792-1.332V87.24l4.403,3.43l-4.403,3.431V92.001z"/>
		</g>
	</g>
	<g>
		<g>
			<path fill="#FE9929" d="M104.768,92.001l1.843-1.331l-1.843-1.332v-2.1l4.403,3.432l-4.403,3.43V92.001z"/>
		</g>
	</g>
	<g>
		<g>
			<path fill="#FE9929" d="M116.698,91.54h-1.587v-1.533h1.639c0.205,0,0.41-0.052,0.563-0.154c0.205-0.102,0.307-0.253,0.41-0.46
				c0.051-0.152,0.102-0.413,0.102-0.717v-1.897c0-0.308-0.051-0.512-0.102-0.717c-0.103-0.206-0.205-0.359-0.41-0.461
				c-0.153-0.102-0.358-0.152-0.563-0.152h-1.639v-1.587h1.586c0.563,0,1.024,0.152,1.536,0.359
				c0.358,0.255,0.717,0.563,0.973,1.025c0.154,0.359,0.308,0.869,0.308,1.534v1.947c0,0.614-0.153,1.125-0.358,1.534
				c-0.205,0.411-0.513,0.716-0.922,0.919C117.824,91.437,117.312,91.54,116.698,91.54z"/>
			<path fill="#FE9929" d="M113.472,96.404V83.86h0.922v1.587h0.717v4.555h-0.717v1.536h0.717v4.864h-1.639V96.404z"/>
		</g>
	</g>
	<g>
		<g>
			<path fill="#FE9929" d="M124.173,86.42l-1.075,5.734h-0.666v1.535h0.409l-0.512,2.716h-1.792l2.918-12.545h1.484l2.919,12.545
				h-1.792l-0.513-2.716h0.563v-1.535h-0.871L124.173,86.42z"/>
			<path fill="#FE9929" d="M125.555,93.689h-2.714l0.256-1.535h2.15L125.555,93.689z"/>
		</g>
	</g>
	<g>
		<g>
			<path fill="#FE9929" d="M132.519,89.389l1.331,0.666c0.307,0.205,0.563,0.563,0.768,0.87c0.205,0.359,0.256,0.868,0.256,1.533
				v1.127c0,0.665-0.051,1.18-0.306,1.64c-0.205,0.412-0.563,0.768-1.024,0.921c-0.461,0.255-1.024,0.412-1.639,0.412
				c-0.615,0-1.177-0.152-1.638-0.412c-0.461-0.151-0.819-0.512-1.024-0.921c-0.256-0.512-0.359-1.025-0.359-1.64V92.97h1.639v0.516
				c0,0.513,0.103,0.817,0.358,1.075c0.256,0.253,0.614,0.41,1.024,0.41s0.768-0.152,1.024-0.41
				c0.256-0.255,0.358-0.563,0.358-1.075v-1.027c0-0.307-0.103-0.562-0.205-0.769c-0.153-0.202-0.359-0.41-0.563-0.563l-0.973-0.462
				l0,0h-0.051l-0.102-0.05l-1.28-0.718c-0.41-0.251-0.666-0.563-0.87-0.974c-0.256-0.461-0.359-0.973-0.359-1.534v-0.768
				c0-0.563,0.103-1.077,0.359-1.535c0.205-0.461,0.563-0.768,1.024-1.025c0.461-0.201,1.023-0.306,1.638-0.306
				c0.614,0,1.126,0.102,1.587,0.306c0.46,0.254,0.768,0.564,1.024,1.025c0.205,0.463,0.358,1.026,0.358,1.586v0.665h-1.638v-0.56
				c0-0.461-0.153-0.769-0.358-1.076c-0.205-0.204-0.563-0.36-0.973-0.36c-0.46,0-0.819,0.152-1.024,0.36
				c-0.256,0.202-0.358,0.564-0.358,0.974v0.768c0,0.307,0.051,0.614,0.205,0.816c0.205,0.203,0.357,0.359,0.562,0.513l0.922,0.463
				c0.051,0,0.102,0,0.102,0.051c0.051,0.051,0.103,0.051,0.103,0.051L132.519,89.389z"/>
		</g>
	</g>
	<g>
		<g>
			<path fill="#FE9929" d="M138.15,83.86v12.548h-1.638V83.86H138.15z"/>
		</g>
	</g>
	<g>
		<g>
			<path fill="#FE9929" d="M140.71,94.816v1.588h-0.871V83.86h1.639v10.955L140.71,94.816L140.71,94.816z"/>
			<path fill="#FE9929" d="M141.479,94.816h3.584v1.588h-3.584V94.816z"/>
		</g>
	</g>
	<g>
		<g>
			<path fill="#FE9929" d="M147.162,94.816v1.588h-0.819V83.86h1.586v10.955L147.162,94.816L147.162,94.816z"/>
			<path fill="#FE9929" d="M147.93,94.816h3.584v1.588h-3.584V94.816z"/>
		</g>
	</g>
	<g>
		<g>
			<path fill="#FE9929" d="M157.555,96.148c-0.46,0.256-1.024,0.409-1.689,0.409c-0.615,0-1.178-0.149-1.638-0.409
				c-0.512-0.256-0.871-0.616-1.076-1.076s-0.358-1.024-0.358-1.689V86.88c0-0.665,0.153-1.228,0.358-1.691
				c0.205-0.461,0.563-0.815,1.076-1.075c0.512-0.253,1.075-0.361,1.638-0.361c0.666,0,1.229,0.103,1.689,0.361
				c0.41,0.201,0.818,0.614,1.075,1.075c0.256,0.514,0.358,1.078,0.358,1.691v6.503c0,0.615-0.103,1.178-0.358,1.689
				C158.374,95.533,158.016,95.893,157.555,96.148z M155.098,94.765c0.256,0.104,0.512,0.206,0.768,0.206s0.512-0.103,0.819-0.206
				c0.205-0.1,0.41-0.251,0.512-0.512c0.103-0.255,0.154-0.512,0.154-0.817V86.83c0-0.308-0.051-0.563-0.154-0.769
				c-0.102-0.256-0.307-0.461-0.512-0.513c-0.307-0.152-0.563-0.204-0.819-0.204s-0.512,0.052-0.768,0.204
				c-0.205,0.051-0.358,0.255-0.512,0.513c-0.102,0.205-0.153,0.461-0.153,0.769v6.604c0,0.309,0.051,0.564,0.153,0.818
				C154.739,94.51,154.893,94.665,155.098,94.765z"/>
		</g>
	</g>
	<g>
		<g>
			<path fill="#FE9929" d="M163.802,92.001l1.792-1.331l-1.792-1.332V87.24l4.403,3.43l-4.403,3.431V92.001z"/>
		</g>
	</g>
	<g>
		<g>
			<path fill="#FE9929" d="M168.513,92.001l1.844-1.331l-1.844-1.332V87.24l4.403,3.43l-4.403,3.431V92.001z"/>
		</g>
	</g>
	<g>
		<g>
			<path fill="#FE9929" d="M180.441,91.54h-1.587v-1.533h1.587c0.256,0,0.461-0.052,0.615-0.154c0.152-0.102,0.308-0.253,0.357-0.46
				c0.052-0.152,0.104-0.413,0.104-0.717v-1.897c0-0.308-0.051-0.512-0.104-0.717c-0.05-0.206-0.205-0.359-0.357-0.461
				c-0.153-0.102-0.358-0.152-0.615-0.152h-1.587v-1.587h1.587c0.563,0,1.076,0.152,1.537,0.359
				c0.357,0.255,0.717,0.563,0.921,1.025c0.255,0.412,0.358,0.922,0.358,1.535v1.946c0,0.563-0.102,1.024-0.358,1.534
				c-0.256,0.413-0.615,0.768-0.973,0.92C181.518,91.437,181.005,91.54,180.441,91.54z"/>
			<path fill="#FE9929" d="M177.216,96.404V83.86h0.922v1.587h0.717v4.555h-0.717v1.536h0.717v4.864h-1.639V96.404z"/>
		</g>
	</g>
	<g>
		<g>
			<path fill="#FE9929" d="M187.917,86.42l-1.076,5.734h-0.718v1.535h0.461l-0.563,2.716h-1.741l2.867-12.545h1.485l2.918,12.545
				h-1.74l-0.513-2.716h0.563v-1.535h-0.871L187.917,86.42z"/>
			<path fill="#FE9929" d="M189.299,93.689h-2.713l0.255-1.535h2.149L189.299,93.689z"/>
		</g>
	</g>
	<g>
		<g>
			<path fill="#FE9929" d="M196.058,89.287l0.205,0.102c0.052,0,0.052,0,0.052,0l1.227,0.666c0.308,0.205,0.563,0.462,0.769,0.87
				c0.255,0.41,0.306,0.921,0.306,1.533v1.127c0,0.614-0.102,1.129-0.306,1.64c-0.257,0.412-0.615,0.768-1.023,0.921
				c-0.461,0.255-1.024,0.412-1.69,0.412c-0.614,0-1.126-0.152-1.638-0.412c-0.461-0.151-0.769-0.512-1.024-0.921
				c-0.205-0.512-0.358-1.025-0.358-1.64V92.97h1.639v0.516c0,0.513,0.102,0.817,0.358,1.075c0.256,0.253,0.613,0.41,1.023,0.41
				c0.461,0,0.82-0.152,1.024-0.41c0.257-0.255,0.409-0.563,0.409-1.075v-1.027c0-0.307-0.102-0.562-0.256-0.769
				c-0.153-0.202-0.307-0.41-0.563-0.563l-0.922-0.462c0,0,0,0-0.051,0l0,0l-0.152-0.05l-1.281-0.718
				c-0.307-0.251-0.615-0.563-0.87-0.974c-0.205-0.359-0.308-0.868-0.308-1.534v-0.768c0-0.563,0.103-1.077,0.308-1.535
				c0.255-0.461,0.563-0.768,1.024-1.025c0.512-0.201,1.074-0.306,1.638-0.306c0.616,0,1.178,0.102,1.639,0.306
				c0.41,0.254,0.768,0.564,1.024,1.025c0.204,0.463,0.307,1.026,0.307,1.586v0.665h-1.639v-0.56c0-0.461-0.102-0.87-0.359-1.076
				c-0.204-0.204-0.512-0.36-0.973-0.36c-0.41,0-0.768,0.152-1.023,0.36c-0.255,0.203-0.308,0.564-0.308,0.974v0.768
				c0,0.357,0.051,0.614,0.205,0.816c0.152,0.203,0.307,0.359,0.563,0.513l0.921,0.463
				C196.006,89.235,196.006,89.235,196.058,89.287z"/>
		</g>
	</g>
	<g>
		<g>
			<path fill="#FE9929" d="M201.895,83.86v12.548h-1.689V83.86H201.895z"/>
		</g>
	</g>
	<g>
		<g>
			<path fill="#FE9929" d="M204.455,94.816v1.588h-0.922V83.86h1.692v10.955L204.455,94.816L204.455,94.816z"/>
			<path fill="#FE9929" d="M205.222,94.816h3.533v1.588h-3.533V94.816z"/>
		</g>
	</g>
	<g>
		<g>
			<path fill="#FE9929" d="M210.905,94.816v1.588h-0.87V83.86h1.642v10.955L210.905,94.816L210.905,94.816z"/>
			<path fill="#FE9929" d="M211.674,94.816h3.584v1.588h-3.584V94.816z"/>
		</g>
	</g>
	<g>
		<g>
			<path fill="#FE9929" d="M221.299,96.148c-0.46,0.256-1.023,0.409-1.689,0.409c-0.614,0-1.229-0.149-1.642-0.409
				c-0.517-0.256-0.866-0.616-1.129-1.076c-0.202-0.512-0.306-1.074-0.306-1.689V86.88c0-0.613,0.102-1.178,0.306-1.691
				c0.257-0.461,0.614-0.815,1.129-1.075c0.461-0.253,1.027-0.361,1.642-0.361c0.666,0,1.177,0.103,1.689,0.361
				c0.512,0.253,0.82,0.614,1.024,1.075c0.255,0.464,0.41,1.078,0.41,1.691v6.503c0,0.665-0.153,1.229-0.41,1.689
				C222.119,95.533,221.811,95.893,221.299,96.148z M218.842,94.765c0.253,0.104,0.513,0.206,0.768,0.206
				c0.307,0,0.563-0.103,0.817-0.206c0.201-0.1,0.359-0.251,0.516-0.512c0.099-0.255,0.15-0.512,0.15-0.817V86.83
				c0-0.255-0.051-0.513-0.15-0.769c-0.155-0.256-0.308-0.461-0.516-0.513c-0.253-0.152-0.513-0.204-0.817-0.204
				c-0.255,0-0.515,0.052-0.768,0.204c-0.256,0.104-0.413,0.255-0.513,0.513c-0.103,0.205-0.204,0.461-0.204,0.769v6.604
				c0,0.309,0.102,0.564,0.204,0.818C218.432,94.458,218.586,94.612,218.842,94.765z"/>
		</g>
	</g>
	<g>
		<g>
			<path fill="#FE9929" d="M227.545,92.001l1.844-1.331l-1.844-1.332V87.24l4.403,3.43l-4.403,3.431V92.001z"/>
		</g>
	</g>
	<g>
		<g>
			<path fill="#FE9929" d="M232.256,92.001l1.793-1.331l-1.793-1.332V87.24l4.402,3.43l-4.402,3.431V92.001z"/>
		</g>
	</g>
</g>
<g enable-background="new    ">
	<path fill="#F9F9F9" d="M113.71,44.013h2.471l7.613,28.415h-3.125l-5.723-22.923l-5.724,22.923h-3.125L113.71,44.013z
		 M109.605,62.4h10.866v3.791h-10.866V62.4z"/>
	<path fill="#F9F9F9" d="M126.919,44.013h2.898v28.415h-2.898V44.013z M128.368,68.637h11.816v3.791h-11.816V68.637z"/>
	<path fill="#F9F9F9" d="M147.641,72.719c0,0-0.542-0.436-1.626-1.309s-1.925-2.112-2.521-3.714
		c-0.596-1.604-0.895-3.46-0.895-5.569V54.33c0-2.11,0.298-3.966,0.895-5.569c0.597-1.603,1.437-2.843,2.521-3.723
		c1.084-0.879,2.34-1.319,3.77-1.319c1.184,0,2.273,0.349,3.267,1.046c0.995,0.696,1.825,1.683,2.493,2.959
		c0.667,1.278,1.119,2.756,1.356,4.437h-2.968c-0.18-0.886-0.482-1.677-0.902-2.375c-0.421-0.697-0.916-1.234-1.484-1.612
		c-0.568-0.378-1.155-0.567-1.762-0.567c-0.842,0-1.582,0.28-2.216,0.84c-0.634,0.561-1.127,1.347-1.477,2.354
		c-0.351,1.01-0.526,2.187-0.526,3.527v7.799c0,1.328,0.174,2.5,0.526,3.518c0.35,1.016,0.842,1.801,1.477,2.354
		c0.633,0.553,1.374,0.831,2.216,0.831c0.616,0,1.205-0.178,1.769-0.528c0.563-0.352,1.054-0.872,1.477-1.563
		c0.421-0.689,0.723-1.512,0.902-2.462h2.968c-0.237,1.681-0.691,3.16-1.364,4.436c-0.672,1.277-1.506,2.264-2.5,2.961
		c-0.995,0.696-2.079,1.046-3.252,1.046C148.355,72.719,147.641,72.719,147.641,72.719z"/>
	<path fill="#F9F9F9" d="M165.792,44.013h2.472l7.613,28.415h-3.125l-5.723-22.923l-5.724,22.923h-3.125L165.792,44.013z
		 M161.688,62.4h10.865v3.791h-10.865V62.4z"/>
	<path fill="#F9F9F9" d="M179,44.013h2.897v28.415H179V44.013z M180.45,68.637h11.817v3.791H180.45V68.637z"/>
	<path fill="#F9F9F9" d="M195.675,44.013h2.897v28.415h-2.897V44.013z M197.635,68.637h4.672c1.523,0,2.706-0.546,3.545-1.635
		c0.838-1.086,1.256-2.62,1.256-4.6v-8.364c0-1.981-0.418-3.516-1.256-4.603c-0.841-1.087-2.02-1.631-3.545-1.631h-4.672v-3.791
		h4.587c1.656,0,3.073,0.398,4.247,1.192c1.174,0.794,2.068,1.955,2.683,3.479c0.617,1.525,0.925,3.362,0.925,5.511v8.05
		c0,2.149-0.308,3.987-0.925,5.511c-0.614,1.523-1.512,2.683-2.688,3.479c-1.18,0.795-2.598,1.192-4.252,1.192h-4.574v-3.791
		H197.635L197.635,68.637z"/>
	<path fill="#F9F9F9" d="M217.377,72.428h-2.897V44.013h2.897V72.428L217.377,72.428z"/>
	<path fill="#F9F9F9" d="M227.83,44.013h2.472l7.612,28.415h-3.125l-5.723-22.923l-5.723,22.923h-3.125L227.83,44.013z
		 M223.725,62.4h10.864v3.791h-10.864V62.4z"/>
</g>
</svg>
