<?xml version="1.0" encoding="utf-8"?>
<!-- Generator: Adobe Illustrator 16.0.2, SVG Export Plug-In . SVG Version: 6.00 Build 0)  -->
<!DOCTYPE svg PUBLIC "-//W3C//DTD SVG 1.1//EN" "http://www.w3.org/Graphics/SVG/1.1/DTD/svg11.dtd">
<svg version="1.1"
	 id="svg9" xmlns:inkscape="http://www.inkscape.org/namespaces/inkscape" xmlns:dc="http://purl.org/dc/elements/1.1/" xmlns:svg="http://www.w3.org/2000/svg" xmlns:rdf="http://www.w3.org/1999/02/22-rdf-syntax-ns#" xmlns:cc="http://creativecommons.org/ns#" xmlns:sodipodi="http://sodipodi.sourceforge.net/DTD/sodipodi-0.dtd" inkscape:version="0.92.3 (2405546, 2018-03-11)" sodipodi:docname="aeo_bros.svg"
	 xmlns="http://www.w3.org/2000/svg" xmlns:xlink="http://www.w3.org/1999/xlink" x="0px" y="0px" width="82.964px"
	 height="25.877px" viewBox="0 0 82.964 25.877" enable-background="new 0 0 82.964 25.877" xml:space="preserve">
<sodipodi:namedview  id="namedview11" inkscape:cx="67.005972" borderopacity="1" inkscape:zoom="24.741656" inkscape:cy="9.8880222" pagecolor="#ffffff" showgrid="false" bordercolor="#111111" inkscape:window-maximized="1" inkscape:pagecheckerboard="1" inkscape:window-width="1920" inkscape:showpageshadow="0" inkscape:pageopacity="0" inkscape:deskcolor="#d1d1d1" inkscape:window-x="-8" inkscape:window-y="-8" inkscape:window-height="1057" inkscape:current-layer="svg9" inkscape:lockguides="true">
	<inkscape:page  x="0" width="552.47662" y="0" height="504.95132" id="page15"></inkscape:page>
</sodipodi:namedview>
<path id="path13047" fill="#898888" d="M13.619,1.137C7,1.137,1.635,6.502,1.635,13.12v0.001c0,6.618,5.365,11.983,11.983,11.983
	c0,0,0,0,0.001,0c0.26,0,0.52-0.012,0.779-0.028v0.01h53.697v-0.047c0.412,0.044,0.828,0.065,1.242,0.065
	c6.619,0,11.98-5.365,11.98-11.983S75.957,1.138,69.337,1.137c-0.414,0.004-0.83,0.031-1.242,0.078V1.139H14.398v0.037
	C14.139,1.154,13.879,1.141,13.619,1.137z"/>
<circle id="path13047_2_" fill="#FFFFFF" cx="69.337" cy="13.122" r="9.587"/>
<g id="g3210" enable-background="new    ">
	<text id="text3208" transform="matrix(1 0 0 1 12.0474 18.0801)" fill="#F7F9F9" font-family="'Bahnschrift'" font-size="14">1er2_</text>
</g>
<g id="g17_1_" transform="matrix(1.3333333,0,0,-1.3333333,-138.36684,1585.994)" inkscape:groupmode="layer" inkscape:label="Page 1">
</g>
<g>
	<path fill="#FF3300" d="M73.765,14.397h-8.857c-0.828,0-1.5-0.672-1.5-1.5c0-0.828,0.672-1.5,1.5-1.5h8.857
		c0.828,0,1.5,0.672,1.5,1.5C75.265,13.725,74.593,14.397,73.765,14.397z"/>
</g>
<g>
	<path fill="#FF3300" d="M69.58,18.368c-0.828,0-1.5-0.672-1.5-1.5v-7.86c0-0.828,0.672-1.5,1.5-1.5s1.5,0.672,1.5,1.5v7.86
		C71.08,17.696,70.41,18.368,69.58,18.368z"/>
</g>
</svg>
