<?xml version="1.0" encoding="utf-8"?>
<!-- Generator: Adobe Illustrator 16.0.2, SVG Export Plug-In . SVG Version: 6.00 Build 0)  -->
<!DOCTYPE svg PUBLIC "-//W3C//DTD SVG 1.1//EN" "http://www.w3.org/Graphics/SVG/1.1/DTD/svg11.dtd">
<svg version="1.1"
	 id="svg9" xmlns:dc="http://purl.org/dc/elements/1.1/" xmlns:svg="http://www.w3.org/2000/svg" xmlns:rdf="http://www.w3.org/1999/02/22-rdf-syntax-ns#" xmlns:cc="http://creativecommons.org/ns#" xmlns:sodipodi="http://sodipodi.sourceforge.net/DTD/sodipodi-0.dtd" xmlns:inkscape="http://www.inkscape.org/namespaces/inkscape" sodipodi:docname="aeo_burguers.svg" inkscape:version="0.92.3 (2405546, 2018-03-11)"
	 xmlns="http://www.w3.org/2000/svg" xmlns:xlink="http://www.w3.org/1999/xlink" x="0px" y="0px" width="113.336px"
	 height="26.428px" viewBox="0 0 113.336 26.428" enable-background="new 0 0 113.336 26.428" xml:space="preserve">
<sodipodi:namedview  id="namedview11" inkscape:zoom="15.408416" borderopacity="1" inkscape:cx="91.48766" bordercolor="#111111" showgrid="false" pagecolor="#ffffff" inkscape:cy="11.966119" inkscape:pagecheckerboard="1" inkscape:window-maximized="1" inkscape:current-layer="g772" inkscape:window-height="1057" inkscape:window-y="-8" inkscape:window-x="-8" inkscape:deskcolor="#d1d1d1" inkscape:pageopacity="0" inkscape:showpageshadow="0" inkscape:window-width="1920" inkscape:snap-nodes="false">
	<inkscape:page  height="504.95132" y="0" width="552.47662" x="0" id="page15"></inkscape:page>
</sodipodi:namedview>
<path id="path13047" fill="#898888" d="M13.619,1.137C7,1.137,1.635,6.502,1.635,13.12v0.001c0,6.618,5.365,11.983,11.983,11.983
	c0,0,0,0,0.001,0c0.26,0,0.52-0.011,0.779-0.028v0.01h84.551c0.129,0.009,0.258,0.015,0.387,0.021
	c0.178-0.004,0.354-0.01,0.529-0.021c6.404-0.282,11.451-5.555,11.455-11.965c-0.008-6.407-5.055-11.674-11.455-11.957V1.139h-0.49
	c-0.014,0-0.025-0.001-0.039-0.002c-0.018,0-0.035,0.001-0.053,0.002H14.398v0.037C14.139,1.154,13.879,1.141,13.619,1.137z"/>
<circle id="path13047_2_" fill="#F9F7F7" cx="99.336" cy="13.122" r="9.587"/>
<g id="g3433" enable-background="new    ">
	<text id="text3431" transform="matrix(1 0 0 1 12.0474 18.0801)" fill="#FDFFFF" font-family="'Bahnschrift'" font-size="14">anex5_</text>
</g>
<g>
	<g>
		<path fill="#FF3300" d="M103.765,14.673h-8.857c-0.827,0-1.5-0.672-1.5-1.501c0-0.828,0.673-1.5,1.5-1.5h8.857
			c0.828,0,1.5,0.672,1.5,1.5C105.265,14.001,104.593,14.673,103.765,14.673z"/>
	</g>
	<g>
		<path fill="#FF3300" d="M99.579,18.644c-0.828,0-1.5-0.672-1.5-1.5V9.284c0-0.828,0.672-1.5,1.5-1.5c0.827,0,1.5,0.672,1.5,1.5
			v7.859C101.079,17.972,100.409,18.644,99.579,18.644z"/>
	</g>
</g>
</svg>
