<?xml version="1.0" encoding="utf-8"?>
<!-- Generator: Adobe Illustrator 16.0.2, SVG Export Plug-In . SVG Version: 6.00 Build 0)  -->
<!DOCTYPE svg PUBLIC "-//W3C//DTD SVG 1.1//EN" "http://www.w3.org/Graphics/SVG/1.1/DTD/svg11.dtd">
<svg version="1.1"
	 id="svg9" xmlns:sodipodi="http://sodipodi.sourceforge.net/DTD/sodipodi-0.dtd" xmlns:inkscape="http://www.inkscape.org/namespaces/inkscape" xmlns:dc="http://purl.org/dc/elements/1.1/" xmlns:svg="http://www.w3.org/2000/svg" xmlns:rdf="http://www.w3.org/1999/02/22-rdf-syntax-ns#" xmlns:cc="http://creativecommons.org/ns#" sodipodi:docname="aqui_mzz.svg" inkscape:version="0.92.3 (2405546, 2018-03-11)"
	 xmlns="http://www.w3.org/2000/svg" xmlns:xlink="http://www.w3.org/1999/xlink" x="0px" y="0px" width="143.932px"
	 height="25.326px" viewBox="0 0 143.932 25.326" enable-background="new 0 0 143.932 25.326" xml:space="preserve">
<sodipodi:namedview  id="namedview11" borderopacity="1" inkscape:cx="128.20237" bordercolor="#111111" showgrid="false" pagecolor="#ffffff" inkscape:cy="2.6829886" inkscape:zoom="3.8946755" inkscape:pagecheckerboard="1" inkscape:window-maximized="1" inkscape:current-layer="layer6" inkscape:window-height="1057" inkscape:window-y="-8" inkscape:window-x="-8" inkscape:deskcolor="#d1d1d1" inkscape:pageopacity="0" inkscape:showpageshadow="0" inkscape:window-width="1920">
	<inkscape:page  height="504.95132" y="0" width="552.47662" x="0" id="page15"></inkscape:page>
</sodipodi:namedview>
<g id="g17" transform="matrix(1.3333333,0,0,-1.3333333,-138.36684,1585.994)" inkscape:groupmode="layer" inkscape:label="Page 1">
	<path id="path13047" fill="#C1C6C5" d="M114.447,1189.056c-4.964-0.001-8.987-4.025-8.987-8.988c0-4.963,4.023-8.988,8.987-8.988
		c0.097,0.004,0.193,0.007,0.29,0.015h87.7c0.1-0.007,0.199-0.012,0.299-0.015c4.964-0.001,8.988,4.022,8.988,8.988c0,0,0,0,0,0.001
		c-0.007,4.805-3.791,8.756-8.591,8.968v0.019h-88.644C114.475,1189.055,114.461,1189.056,114.447,1189.056z"/>
</g>
<g id="layer6" inkscape:groupmode="layer" inkscape:label="Page 2">
	<circle id="path13047_2_" fill="#F9F7F7" cx="131.947" cy="12.571" r="9.587"/>
	
		<linearGradient id="path883_1_" gradientUnits="userSpaceOnUse" x1="56575.3477" y1="119.7099" x2="57182.7266" y2="120.7177" gradientTransform="matrix(0.0036 0 0 0.0037 -316.6285 -742.7325)">
		<stop  offset="0" style="stop-color:#CCCCCC"/>
		<stop  offset="1" style="stop-color:#CCCCCC;stop-opacity:0"/>
	</linearGradient>
	<path id="path883" inkscape:connector-curvature="0" fill="url(#path883_1_)" d="M117.847,24.22c-0.638,0-1.155-0.527-1.155-1.178
		V1.655c0-0.65,0.518-1.176,1.155-1.176h23.252c0.638,0,1.154,0.526,1.154,1.176v21.387c0,0.65-0.517,1.178-1.154,1.178H117.847z"/>
</g>
<text id="text11299" transform="matrix(1 0 0 1 14.6589 17.5292)" fill="#5D5D5D" font-family="'Bahnschrift'" font-size="14">&gt;&gt;MEZZANINA&gt;&gt;</text>
<g>
	<g>
		<path fill="#FF3300" d="M136.855,13.559h-8.857c-0.827,0-1.5-0.672-1.5-1.502c0-0.827,0.673-1.5,1.5-1.5h8.857
			c0.828,0,1.5,0.673,1.5,1.5C138.355,12.887,137.683,13.559,136.855,13.559z"/>
	</g>
	<g>
		<path fill="#FF3300" d="M132.668,17.529c-0.828,0-1.5-0.672-1.5-1.5V8.17c0-0.828,0.672-1.5,1.5-1.5c0.827,0,1.5,0.672,1.5,1.5
			v7.859C134.168,16.857,133.498,17.529,132.668,17.529z"/>
	</g>
</g>
</svg>
