<?xml version="1.0" encoding="utf-8"?>
<!-- Generator: Adobe Illustrator 16.0.2, SVG Export Plug-In . SVG Version: 6.00 Build 0)  -->
<!DOCTYPE svg PUBLIC "-//W3C//DTD SVG 1.1//EN" "http://www.w3.org/Graphics/SVG/1.1/DTD/svg11.dtd">
<svg version="1.1"
	 id="svg9" xmlns:dc="http://purl.org/dc/elements/1.1/" xmlns:svg="http://www.w3.org/2000/svg" xmlns:rdf="http://www.w3.org/1999/02/22-rdf-syntax-ns#" xmlns:cc="http://creativecommons.org/ns#" xmlns:sodipodi="http://sodipodi.sourceforge.net/DTD/sodipodi-0.dtd" xmlns:inkscape="http://www.inkscape.org/namespaces/inkscape" sodipodi:docname="aeo_gaby.svg" inkscape:version="0.92.3 (2405546, 2018-03-11)"
	 xmlns="http://www.w3.org/2000/svg" xmlns:xlink="http://www.w3.org/1999/xlink" x="0px" y="0px" width="82.964px"
	 height="25.877px" viewBox="0 0 82.964 25.877" enable-background="new 0 0 82.964 25.877" xml:space="preserve">
<sodipodi:namedview  id="namedview11" inkscape:zoom="4.0256705" borderopacity="1" inkscape:cx="6.0641752" bordercolor="#111111" showgrid="false" pagecolor="#ffffff" inkscape:cy="26.478089" inkscape:pagecheckerboard="1" inkscape:window-maximized="1" inkscape:current-layer="svg9" inkscape:window-height="1057" inkscape:window-y="-8" inkscape:window-x="-8" inkscape:deskcolor="#d1d1d1" inkscape:pageopacity="0" inkscape:showpageshadow="0" inkscape:window-width="1920">
	<inkscape:page  height="504.95132" y="0" width="552.47662" x="0" id="page15"></inkscape:page>
</sodipodi:namedview>
<path id="path13047" fill="#898888" d="M13.619,1.137C7,1.137,1.635,6.502,1.635,13.12v0.001c0,6.618,5.365,11.983,11.983,11.983
	c0,0,0,0,0.001,0c0.26,0,0.52-0.011,0.779-0.028v0.01h53.697v-0.047c0.412,0.044,0.828,0.065,1.242,0.065
	c6.619,0,11.981-5.365,11.981-11.983S75.957,1.138,69.337,1.137c-0.414,0.004-0.83,0.031-1.242,0.078V1.139H14.398v0.037
	C14.139,1.154,13.879,1.141,13.619,1.137z"/>
<circle id="path13047_2_" fill="#F9F7F7" cx="69.337" cy="13.122" r="9.587"/>
<g id="g3210" enable-background="new    ">
	<text id="text3208" transform="matrix(1 0 0 1 12.0474 18.0801)" fill="#F2F7F7" font-family="'Bahnschrift'" font-size="14">mzz6_</text>
</g>
<g id="g17_1_" transform="matrix(1.3333333,0,0,-1.3333333,-138.36684,1585.994)" inkscape:groupmode="layer" inkscape:label="Page 1">
</g>
<g>
	<g>
		<path fill="#FF3300" d="M73.765,14.58h-8.857c-0.827,0-1.5-0.672-1.5-1.502c0-0.827,0.673-1.5,1.5-1.5h8.857
			c0.828,0,1.5,0.673,1.5,1.5C75.265,13.908,74.593,14.58,73.765,14.58z"/>
	</g>
	<g>
		<path fill="#FF3300" d="M69.58,18.551c-0.828,0-1.5-0.672-1.5-1.5v-7.86c0-0.828,0.672-1.5,1.5-1.5c0.827,0,1.5,0.672,1.5,1.5
			v7.86C71.08,17.879,70.41,18.551,69.58,18.551z"/>
	</g>
</g>
</svg>
