<?xml version="1.0" encoding="utf-8"?>
<!-- Generator: Adobe Illustrator 16.0.2, SVG Export Plug-In . SVG Version: 6.00 Build 0)  -->
<!DOCTYPE svg PUBLIC "-//W3C//DTD SVG 1.1//EN" "http://www.w3.org/Graphics/SVG/1.1/DTD/svg11.dtd">
<svg version="1.1"
	 id="svg9" xmlns:inkscape="http://www.inkscape.org/namespaces/inkscape" xmlns:dc="http://purl.org/dc/elements/1.1/" xmlns:svg="http://www.w3.org/2000/svg" xmlns:rdf="http://www.w3.org/1999/02/22-rdf-syntax-ns#" xmlns:cc="http://creativecommons.org/ns#" xmlns:sodipodi="http://sodipodi.sourceforge.net/DTD/sodipodi-0.dtd" inkscape:version="0.92.3 (2405546, 2018-03-11)" sodipodi:docname="aeo_nagua.svg"
	 xmlns="http://www.w3.org/2000/svg" xmlns:xlink="http://www.w3.org/1999/xlink" x="0px" y="0px" width="92.201px"
	 height="25.326px" viewBox="0 0 92.201 25.326" enable-background="new 0 0 92.201 25.326" xml:space="preserve">
<sodipodi:namedview  id="namedview11" inkscape:cx="96.163047" borderopacity="1" inkscape:zoom="5.158185" inkscape:cy="0" pagecolor="#ffffff" showgrid="false" bordercolor="#111111" inkscape:window-maximized="1" inkscape:pagecheckerboard="1" inkscape:window-width="1920" inkscape:showpageshadow="0" inkscape:pageopacity="0" inkscape:deskcolor="#d1d1d1" inkscape:window-x="-8" inkscape:window-y="-8" inkscape:window-height="1057" inkscape:current-layer="g3104">
	<inkscape:page  x="0" width="552.47662" y="0" height="504.95132" id="page15"></inkscape:page>
</sodipodi:namedview>
<path id="path13047" fill="#898888" d="M13.619,0.586C7,0.586,1.635,5.951,1.635,12.569v0.001c0,6.619,5.365,11.984,11.983,11.984
	c0,0,0,0,0.001,0c0.26-0.001,0.52-0.011,0.779-0.029v0.012h62.541c0.133,0.009,0.268,0.015,0.398,0.021
	c0.188-0.004,0.376-0.011,0.564-0.021h0.244v-0.01c6.289-0.426,11.174-5.651,11.174-11.957C89.312,6.271,84.429,1.052,78.146,0.627
	V0.588h-0.81H14.398v0.037C14.139,0.604,13.879,0.59,13.619,0.586z"/>
<circle id="path13047_2_" fill="#F9F7F7" cx="77.337" cy="12.571" r="9.587"/>
<g id="g3104" enable-background="new    ">
	<text id="text3102" transform="matrix(1 0 0 1 12.0474 17.5293)" fill="#F2F4F4" font-family="'Bahnschrift'" font-size="14">alc3_</text>
</g>
<g>
	<g>
		<path fill="#FF3300" d="M81.766,13.559h-8.857c-0.827,0-1.5-0.672-1.5-1.502c0-0.827,0.673-1.5,1.5-1.5h8.857
			c0.828,0,1.5,0.673,1.5,1.5C83.266,12.887,82.594,13.559,81.766,13.559z"/>
	</g>
	<g>
		<path fill="#FF3300" d="M77.58,17.529c-0.828,0-1.5-0.672-1.5-1.5V8.17c0-0.828,0.672-1.5,1.5-1.5c0.827,0,1.5,0.672,1.5,1.5
			v7.859C79.08,16.857,78.41,17.529,77.58,17.529z"/>
	</g>
</g>
</svg>
