<?xml version="1.0" encoding="utf-8"?>
<!-- Generator: Adobe Illustrator 16.0.2, SVG Export Plug-In . SVG Version: 6.00 Build 0)  -->
<!DOCTYPE svg PUBLIC "-//W3C//DTD SVG 1.1//EN" "http://www.w3.org/Graphics/SVG/1.1/DTD/svg11.dtd">
<svg version="1.1"
	 id="svg9" xmlns:inkscape="http://www.inkscape.org/namespaces/inkscape" xmlns:dc="http://purl.org/dc/elements/1.1/" xmlns:svg="http://www.w3.org/2000/svg" xmlns:rdf="http://www.w3.org/1999/02/22-rdf-syntax-ns#" xmlns:cc="http://creativecommons.org/ns#" xmlns:sodipodi="http://sodipodi.sourceforge.net/DTD/sodipodi-0.dtd" inkscape:version="0.92.3 (2405546, 2018-03-11)" sodipodi:docname="aeo_nagua.svg"
	 xmlns="http://www.w3.org/2000/svg" xmlns:xlink="http://www.w3.org/1999/xlink" x="0px" y="0px" width="92.201px"
	 height="25.326px" viewBox="0 0 92.201 25.326" enable-background="new 0 0 92.201 25.326" xml:space="preserve">
<path id="path993" inkscape:connector-curvature="0" fill="#FFFFFF" d="M21.156,80.736l14.865,8.61l-0.627,3.216l-14.238-8.74
	V80.736z"/>
<path id="path995" inkscape:connector-curvature="0" fill="#FFFFFF" d="M50.789,80.091l-15.022,9.074l-0.419,3.368l15.441-9.243
	V80.091z"/>
<path id="path7757" inkscape:connector-curvature="0" sodipodi:nodetypes="cccccsccsccssccccc" fill="#FFFFFF" d="M37.051,72.283
	c-0.195,0.006-0.395,0.021-0.596,0.045c-0.81,0.095-1.674,0.35-2.457,0.759l-12.3,6.578c-0.782,0.407-0.202,0.133-0.503,0.735
	c-0.15,0.304-0.226,0.666-0.131,1.023c0.094,0.357,0.354,0.656,0.667,0.842l11.37,6.773c0.625,0.373,1.381,0.406,2.191,0.313
	c0.809-0.096,1.673-0.35,2.455-0.76l11.145-5.828c0.781-0.408,1.359-0.883,1.66-1.486c0.15-0.303,0.369-0.606,0.275-0.965
	c-0.094-0.357-0.008-0.686-0.32-0.871l-11.861-6.803l0,0C38.177,72.361,37.635,72.273,37.051,72.283z"/>
<g id="path999">
	<path fill="#999999" d="M21.453,83.826h-0.75l-0.001-2.966c-0.011-0.904,0.094-1.249,1.388-1.864
		c1.26-0.603,4.298-2.457,4.329-2.476l0.391,0.641c-0.126,0.077-3.101,1.893-4.396,2.512c-0.969,0.462-0.969,0.529-0.961,1.179
		L21.453,83.826z"/>
</g>
<g id="path1001">
	<path fill="#999999" d="M51.063,82.928h-0.75v-2.176c0-0.129,0.005-0.25,0.009-0.363c0.024-0.646,0.033-0.863-0.939-1.294
		c-1.4-0.619-6.492-3.687-6.708-3.816l0.388-0.643c0.052,0.032,5.266,3.173,6.624,3.773c1.342,0.594,1.418,1.154,1.387,2.008
		c-0.004,0.104-0.009,0.216-0.009,0.335V82.928z"/>
</g>
<path fill="#99FFFF" d="M49.332,80.551l-0.276-0.164c-0.069-0.078-0.16-0.133-0.269-0.161l-10.826-6.448
	c-0.132-0.078-0.468-0.154-0.896-0.158c-0.143,0-0.296,0.009-0.455,0.027c-0.637,0.074-1.369,0.291-1.991,0.616l-11.144,5.829
	c-0.621,0.324-0.789,0.336-0.883,0.525c0,0.004,0,0.007-0.001,0.012c-0.071,0.084-0.12,0.185-0.12,0.3
	c0,0.144,0.067,0.271,0.172,0.361c0.119,0.261,0.34,0.275,0.351,0.155l10.791,6.457c0.178,0.104,1.179,0.637,1.815,0.563
	c0.636-0.074,0.649-0.045,1.271-0.371l11.4-6.504c0.197-0.104,0.314-0.246,0.393-0.396c0.289-0.012,0.521-0.228,0.521-0.496
	c0-0.104-0.043-0.194-0.102-0.274C49.258,80.508,49.454,80.64,49.332,80.551z"/>
<sodipodi:namedview  id="namedview11" inkscape:cx="96.163047" borderopacity="1" inkscape:zoom="5.158185" inkscape:cy="0" pagecolor="#ffffff" showgrid="false" bordercolor="#111111" inkscape:window-maximized="1" inkscape:pagecheckerboard="1" inkscape:window-width="1920" inkscape:showpageshadow="0" inkscape:pageopacity="0" inkscape:deskcolor="#d1d1d1" inkscape:window-x="-8" inkscape:window-y="-8" inkscape:window-height="1057" inkscape:current-layer="g3104">
	<inkscape:page  x="0" width="552.47662" y="0" height="504.95132" id="page15"></inkscape:page>
</sodipodi:namedview>
<path id="path13047" fill="#898888" d="M13.619,0.586C7,0.586,1.635,5.951,1.635,12.569v0.001c0,6.619,5.365,11.984,11.983,11.984
	c0,0,0,0,0.001,0c0.26-0.001,0.52-0.011,0.779-0.029v0.011h62.541c0.133,0.009,0.267,0.015,0.398,0.021
	c0.188-0.003,0.376-0.01,0.564-0.021h0.244v-0.009c6.289-0.426,11.174-5.652,11.174-11.957C89.312,6.271,84.429,1.052,78.146,0.627
	V0.588h-0.81H14.398v0.037C14.139,0.604,13.879,0.59,13.619,0.586z"/>
<circle id="path13047_2_" fill="#F9F7F7" cx="77.337" cy="12.571" r="9.587"/>
<g id="g3104" enable-background="new    ">
	<text id="text3102" transform="matrix(1 0 0 1 12.0474 17.5293)" fill="#F2F4F4" font-family="'Bahnschrift'" font-size="14">NAGUA</text>
</g>
<path id="path7761" inkscape:connector-curvature="0" fill="none" stroke="#000000" stroke-width="10.1572" d="M66.14,49.501
	l12.426-7.145"/>
<path id="path7763" inkscape:connector-curvature="0" fill="none" stroke="#000000" stroke-width="10.1572" d="M70.165,48.612
	L57.739,41.47"/>
<path id="path945" inkscape:connector-curvature="0" fill="none" stroke="#666666" stroke-width="10.1572" stroke-miterlimit="3.8636" d="
	M63.952,45.569l17.217,10.52"/>
<path id="path947_1_" inkscape:connector-curvature="0" fill="none" stroke="#666666" stroke-width="10.1572" stroke-miterlimit="3.8636" d="
	M69.278,54.182h3.074"/>
<path id="path949" inkscape:connector-curvature="0" fill="none" stroke="#666666" stroke-width="10.1572" stroke-miterlimit="3.8636" d="
	M70.165,46.655L56.14,54.182"/>
<path id="path951" inkscape:connector-curvature="0" fill="none" stroke="#666666" stroke-width="10.1572" stroke-miterlimit="3.8636" d="
	M75.724,45.929l-14.024,7.527"/>
<path id="path955" inkscape:connector-curvature="0" fill="none" stroke="#999999" stroke-width="10.1572" stroke-miterlimit="3.8636" d="
	M58.823,40.583l18.416,11.251"/>
<path id="path957" inkscape:connector-curvature="0" fill="none" stroke="#666666" stroke-width="10.1572" stroke-miterlimit="3.8636" d="
	M74.812,43.54l-13.561,8.186"/>
<path id="path963" inkscape:connector-curvature="0" fill="none" stroke="#666666" stroke-width="10.1572" stroke-miterlimit="3.8636" d="
	M74.679,43.95l-13.785,8.129"/>
<path id="path7697" inkscape:connector-curvature="0" fill="#FFFFFF" d="M26.623,72.175v6.541h2.129h0.051h1.814v-0.785v-5.756
	h-2.121h-0.047H26.623z"/>
<path id="path7699" inkscape:connector-curvature="0" fill="#FFFFFF" d="M31.024,72.175l-1.416,6.541h2.273l0.055-0.292l0.055,0.292
	h2.282l-0.207-0.951l-1.218-5.59H31.024z"/>
<path id="path7701" inkscape:connector-curvature="0" fill="#FFFFFF" d="M35.201,72.089c-0.307,0-0.611,0.051-0.895,0.175
	c-0.286,0.124-0.543,0.328-0.727,0.577c-0.161,0.218-0.283,0.465-0.355,0.726l-0.002,0.004v0.004
	c-0.084,0.313-0.104,0.63-0.128,1.123c-0.023,0.474-0.036,0.744-0.036,0.908c0,0.983,0.043,1.682,0.41,2.289l0.001,0.002
	l0.001,0.002c0.334,0.547,0.999,0.864,1.637,0.864c0.662,0,1.354-0.276,1.707-0.844v-0.002l0.001-0.001
	c0.306-0.497,0.41-1.084,0.41-1.745v-1.624h-0.309l0.3-0.109l-0.045-0.593c-0.037-0.485-0.276-0.976-0.656-1.289
	C36.153,72.253,35.673,72.089,35.201,72.089L35.201,72.089z"/>
<path id="path7703" inkscape:connector-curvature="0" fill="#FFFFFF" d="M36.464,72.183v4.582c0,0.541,0.146,1.087,0.534,1.479
	c0.39,0.393,0.939,0.543,1.482,0.543c0.52,0,1.066-0.172,1.427-0.572c0.36-0.402,0.48-0.926,0.48-1.458v-4.573h-1.683h-0.56
	L36.464,72.183L36.464,72.183z"/>
<path id="path7705" inkscape:connector-curvature="0" fill="#FFFFFF" d="M40.665,72.175l-1.415,6.541h2.273l0.055-0.292l0.055,0.292
	h2.281l-0.207-0.951l-1.218-5.59H40.665z"/>
<path id="path7708" inkscape:connector-curvature="0" fill="#FFFFFF" d="M26.848,77.999v6.542h2.129h0.051h1.814v-0.785v-5.757
	h-2.121h-0.047H26.848z"/>
<path id="path7710" inkscape:connector-curvature="0" fill="#FFFFFF" d="M31.248,77.999l-1.416,6.542h2.273l0.055-0.292l0.055,0.292
	h2.283l-0.208-0.952l-1.218-5.59H31.248z"/>
<path id="path7712" inkscape:connector-curvature="0" fill="#FFFFFF" d="M35.426,77.913c-0.307,0-0.611,0.051-0.895,0.176
	c-0.287,0.123-0.543,0.328-0.727,0.578c-0.162,0.217-0.283,0.464-0.355,0.725l-0.001,0.005L33.447,79.4
	c-0.084,0.311-0.104,0.629-0.127,1.121c-0.023,0.475-0.037,0.743-0.037,0.909c0,0.984,0.043,1.681,0.41,2.289l0.002,0.002l0,0
	c0.334,0.548,1,0.866,1.637,0.866c0.663,0,1.354-0.277,1.707-0.846l0,0l0.002-0.002c0.306-0.496,0.409-1.084,0.409-1.744v-1.624
	h-0.308l0.3-0.109l-0.046-0.593c-0.036-0.486-0.276-0.975-0.656-1.289C36.377,78.076,35.899,77.913,35.426,77.913L35.426,77.913z"/>
<path id="path7714" inkscape:connector-curvature="0" fill="#FFFFFF" d="M36.689,78.007v4.582c0,0.542,0.146,1.088,0.534,1.479
	c0.391,0.393,0.94,0.543,1.482,0.543c0.52,0,1.066-0.172,1.427-0.573c0.36-0.4,0.481-0.925,0.481-1.457v-4.574h-1.682h-0.56H36.689z
	"/>
<path id="path7716" inkscape:connector-curvature="0" fill="#FFFFFF" d="M40.89,77.999l-1.415,6.542h2.273l0.055-0.292l0.055,0.292
	h2.282l-0.208-0.952l-1.218-5.59H40.89z"/>
<path id="path973" inkscape:connector-curvature="0" fill="#999999" d="M29.897,78.088h-0.529l-1.272-3.407l-0.016-0.002v3.409
	h-0.601v-4.971h0.534l1.276,3.404l0.016,0.008v-3.412h0.592V78.088L29.897,78.088z"/>
<path id="path975" inkscape:connector-curvature="0" fill="#999999" d="M33.37,78.088h-0.64l-0.184-0.991h-1.059L31.3,78.088h-0.64
	l1.074-4.971h0.551L33.37,78.088z M32.459,76.602l-0.442-2.38H32l-0.417,2.38H32.459z"/>
<path id="path977" inkscape:connector-curvature="0" fill="#999999" d="M36.523,76.333c0,0.573-0.097,1.019-0.292,1.336
	c-0.195,0.315-0.539,0.476-1.033,0.476c-0.441,0-0.761-0.164-0.958-0.49c-0.197-0.328-0.296-0.959-0.296-1.892
	c0-0.108,0.012-0.399,0.035-0.875c0.023-0.475,0.058-0.795,0.104-0.963c0.045-0.169,0.121-0.326,0.228-0.471
	c0.107-0.146,0.242-0.253,0.405-0.324c0.164-0.072,0.357-0.108,0.578-0.108c0.312,0,0.58,0.096,0.807,0.283
	c0.227,0.188,0.352,0.438,0.375,0.747l-0.633,0.231c-0.052-0.479-0.234-0.719-0.549-0.719c-0.24,0-0.408,0.125-0.503,0.375
	c-0.095,0.25-0.142,0.664-0.142,1.242v0.256c0,0.334,0.01,0.654,0.03,0.959s0.04,0.528,0.058,0.67s0.056,0.254,0.111,0.338
	c0.057,0.084,0.117,0.14,0.18,0.168c0.063,0.029,0.137,0.043,0.222,0.043c0.159,0,0.282-0.049,0.37-0.148
	c0.087-0.102,0.146-0.243,0.18-0.434c0.034-0.188,0.051-0.508,0.051-0.959H35.25V75.49h1.273V76.333z"/>
<path id="path979" inkscape:connector-curvature="0" fill="#999999" d="M39.692,76.913c0,0.831-0.373,1.247-1.119,1.247
	c-0.818,0-1.229-0.413-1.229-1.239v-3.804h0.673v3.517c0,0.377,0.032,0.638,0.097,0.782c0.065,0.144,0.203,0.217,0.42,0.217
	c0.215,0,0.35-0.076,0.404-0.229c0.054-0.152,0.08-0.422,0.08-0.811v-3.477h0.674V76.913z"/>
<path id="path981" inkscape:connector-curvature="0" fill="#999999" d="M43.035,78.088h-0.639l-0.184-0.991h-1.06l-0.187,0.991
	h-0.639l1.074-4.971h0.551L43.035,78.088z M42.125,76.602l-0.443-2.38h-0.016l-0.417,2.38H42.125z"/>
<path id="path983" inkscape:connector-curvature="0" fill="#999999" d="M29.897,83.913h-0.529l-1.272-3.407l-0.016-0.003v3.41
	h-0.601v-4.972h0.534l1.276,3.406l0.016,0.008v-3.414h0.592V83.913L29.897,83.913z"/>
<path id="path985" inkscape:connector-curvature="0" fill="#999999" d="M33.37,83.913h-0.64l-0.184-0.99h-1.059l-0.187,0.99h-0.64
	l1.074-4.972h0.551L33.37,83.913z M32.459,82.427l-0.442-2.381H32l-0.417,2.381H32.459z"/>
<path id="path987" inkscape:connector-curvature="0" fill="#999999" d="M36.523,82.156c0,0.574-0.097,1.021-0.292,1.336
	c-0.195,0.318-0.539,0.478-1.033,0.478c-0.441,0-0.761-0.164-0.958-0.491c-0.197-0.328-0.296-0.957-0.296-1.89
	c0-0.11,0.012-0.401,0.035-0.876c0.023-0.475,0.058-0.795,0.104-0.964c0.045-0.168,0.121-0.324,0.228-0.47
	c0.106-0.146,0.242-0.254,0.405-0.325c0.164-0.071,0.357-0.107,0.578-0.107c0.312,0,0.58,0.095,0.807,0.283
	c0.227,0.188,0.352,0.438,0.375,0.747l-0.633,0.232c-0.052-0.479-0.234-0.721-0.549-0.721c-0.24,0-0.408,0.125-0.503,0.375
	c-0.095,0.25-0.142,0.664-0.142,1.243v0.255c0,0.336,0.01,0.655,0.03,0.96c0.021,0.306,0.04,0.528,0.058,0.669
	c0.018,0.143,0.056,0.254,0.111,0.338c0.057,0.084,0.117,0.141,0.18,0.17c0.063,0.027,0.137,0.043,0.222,0.043
	c0.159,0,0.282-0.051,0.37-0.149c0.087-0.101,0.146-0.244,0.18-0.433c0.034-0.188,0.051-0.508,0.051-0.961H35.25v-0.584h1.273
	V82.156z"/>
<path id="path989" inkscape:connector-curvature="0" fill="#999999" d="M39.692,82.738c0,0.83-0.373,1.246-1.119,1.246
	c-0.818,0-1.229-0.412-1.229-1.238v-3.805h0.673v3.517c0,0.378,0.032,0.639,0.097,0.782c0.065,0.145,0.203,0.218,0.42,0.218
	c0.215,0,0.35-0.076,0.404-0.229c0.054-0.152,0.08-0.422,0.08-0.81v-3.478h0.674V82.738z"/>
<path id="path991" inkscape:connector-curvature="0" fill="#999999" d="M43.035,83.913h-0.639l-0.184-0.99h-1.06l-0.187,0.99h-0.639
	l1.074-4.972h0.551L43.035,83.913z M42.125,82.427l-0.443-2.381h-0.016l-0.417,2.381H42.125z"/>
<path id="path7765" inkscape:connector-curvature="0" fill="#5FBCD3" stroke="#80E5FF" stroke-width="0.75" d="M36.553,88.238
	l12.426-7.144"/>
<g id="path7767">
	
		<rect x="21.696" y="84.505" transform="matrix(0.867 0.4984 -0.4984 0.867 46.1425 -3.0916)" fill="#80E5FF" width="14.332" height="0.75"/>
</g>
<g>
	<path fill="#80E5FF" d="M38.743,86.649l-2.633,1.385c-0.571,0.309-0.549,0.213-1.49-0.303c-0.325-0.178-0.74-0.429-1.182-0.705
		l-0.486,0.518c0.45,0.288,0.877,0.563,1.219,0.787c1.199,0.785,1.5,0.793,2.296,0.362l2.625-1.38L38.743,86.649z"/>
</g>
<path id="path953" inkscape:connector-curvature="0" fill="none" stroke="#666666" stroke-width="10.1572" stroke-miterlimit="3.8636" d="
	M82.748,48.612h3.075"/>
</svg>
