<?xml version="1.0" encoding="utf-8"?>
<!-- Generator: Adobe Illustrator 16.0.2, SVG Export Plug-In . SVG Version: 6.00 Build 0)  -->
<!DOCTYPE svg PUBLIC "-//W3C//DTD SVG 1.1//EN" "http://www.w3.org/Graphics/SVG/1.1/DTD/svg11.dtd">
<svg version="1.1"
	 id="svg9" xmlns:inkscape="http://www.inkscape.org/namespaces/inkscape" xmlns:dc="http://purl.org/dc/elements/1.1/" xmlns:svg="http://www.w3.org/2000/svg" xmlns:rdf="http://www.w3.org/1999/02/22-rdf-syntax-ns#" xmlns:cc="http://creativecommons.org/ns#" xmlns:sodipodi="http://sodipodi.sourceforge.net/DTD/sodipodi-0.dtd" inkscape:version="0.92.3 (2405546, 2018-03-11)" sodipodi:docname="btn1.svg"
	 xmlns="http://www.w3.org/2000/svg" xmlns:xlink="http://www.w3.org/1999/xlink" x="0px" y="0px" width="113.336px"
	 height="26.428px" viewBox="0 0 113.336 26.428" enable-background="new 0 0 113.336 26.428" xml:space="preserve">
<sodipodi:namedview  id="namedview11" inkscape:cx="-0.019405042" borderopacity="1" inkscape:zoom="1.3192231" inkscape:cy="-164.53891" pagecolor="#ffffff" showgrid="false" bordercolor="#111111" inkscape:window-maximized="1" inkscape:pagecheckerboard="1" inkscape:window-width="1920" inkscape:showpageshadow="0" inkscape:pageopacity="0" inkscape:deskcolor="#d1d1d1" inkscape:window-x="-8" inkscape:window-y="-8" inkscape:window-height="1057" inkscape:current-layer="g17">
	<inkscape:page  x="0" width="552.47662" y="0" height="504.95132" id="page15"></inkscape:page>
</sodipodi:namedview>
<path id="path21" inkscape:connector-curvature="0" inkscape:label="bg13" fill="#898888" d="M-19.144-50.516h32.952v23.968h-32.952
	V-50.516L-19.144-50.516z"/>
<circle id="path13047" fill="#898888" cx="13.619" cy="13.121" r="11.984"/>
<rect x="14.399" y="1.138" fill="#898888" width="85.467" height="23.948"/>
<circle id="path13047_1_" fill="#898888" cx="99.336" cy="13.121" r="11.984"/>
<circle id="path13047_2_" fill="#F9F7F7" cx="99.336" cy="13.122" r="9.587"/>
<g enable-background="new    ">
	<text transform="matrix(1 0 0 1 12.0474 18.0801)" fill="#FAFCFA" font-family="'Bahnschrift'" font-size="14">SEGUNDOS</text>
</g>
<circle id="path13047_3_" fill="#898888" cx="12.047" cy="-38.532" r="11.984"/>
<g enable-background="new    ">
	<text transform="matrix(1 0 0 1 28.9673 -32.5537)" fill="#61A372" font-family="'Bahnschrift'" font-size="14">898888</text>
</g>
<path id="path13047_5_" fill="#37ABC8" d="M-92.016,1.229C-98.634,1.229-104,6.594-104,13.212v0.001
	c0,6.618,5.365,11.985,11.983,11.985c0,0,0,0,0.001,0c0.26-0.002,0.52-0.012,0.779-0.029v0.01h53.696v-0.047
	c0.414,0.043,0.828,0.064,1.242,0.066c6.619-0.002,11.982-5.367,11.982-11.985S-29.68,1.23-36.299,1.229
	c-0.414,0.004-0.828,0.031-1.242,0.078V1.231h-53.696v0.037C-91.496,1.247-91.755,1.233-92.016,1.229z"/>
<circle id="path13047_4_" fill="#F9F7F7" cx="-36.298" cy="13.215" r="9.587"/>
<g id="g3210" enable-background="new    ">
	<text id="text3208" transform="matrix(1 0 0 1 -93.5874 18.1729)" fill="#00FFFF" font-family="'Bahnschrift'" font-size="14">GABY</text>
</g>
</svg>
