<?xml version="1.0" encoding="utf-8"?>
<!-- Generator: Adobe Illustrator 16.0.2, SVG Export Plug-In . SVG Version: 6.00 Build 0)  -->
<!DOCTYPE svg PUBLIC "-//W3C//DTD SVG 1.1//EN" "http://www.w3.org/Graphics/SVG/1.1/DTD/svg11.dtd">
<svg version="1.1"
	 id="svg9" xmlns:inkscape="http://www.inkscape.org/namespaces/inkscape" xmlns:dc="http://purl.org/dc/elements/1.1/" xmlns:svg="http://www.w3.org/2000/svg" xmlns:rdf="http://www.w3.org/1999/02/22-rdf-syntax-ns#" xmlns:cc="http://creativecommons.org/ns#" xmlns:sodipodi="http://sodipodi.sourceforge.net/DTD/sodipodi-0.dtd" inkscape:version="0.92.3 (2405546, 2018-03-11)" sodipodi:docname="aeo_bros.svg"
	 xmlns="http://www.w3.org/2000/svg" xmlns:xlink="http://www.w3.org/1999/xlink" x="0px" y="0px" width="82.964px"
	 height="25.877px" viewBox="0 0 82.964 25.877" enable-background="new 0 0 82.964 25.877" xml:space="preserve">
<sodipodi:namedview  id="namedview11" inkscape:cx="67.005972" borderopacity="1" inkscape:zoom="24.741656" inkscape:cy="9.8880222" pagecolor="#ffffff" showgrid="false" bordercolor="#111111" inkscape:window-maximized="1" inkscape:pagecheckerboard="1" inkscape:window-width="1920" inkscape:showpageshadow="0" inkscape:pageopacity="0" inkscape:deskcolor="#d1d1d1" inkscape:window-x="-8" inkscape:window-y="-8" inkscape:window-height="1057" inkscape:current-layer="svg9" inkscape:lockguides="true">
	<inkscape:page  x="0" width="552.47662" y="0" height="504.95132" id="page15"></inkscape:page>
</sodipodi:namedview>
<path id="path13047" fill="#898888" d="M13.619,1.137C7,1.137,1.635,6.502,1.635,13.12c0,0,0,0.001,0,0.001
	c0,6.618,5.365,11.984,11.983,11.984c0,0,0,0,0.001,0c0.26-0.001,0.52-0.011,0.779-0.029v0.01h53.697v-0.047
	c0.413,0.044,0.828,0.065,1.242,0.066c6.619-0.001,11.982-5.366,11.982-11.984S75.957,1.138,69.337,1.137
	c-0.414,0.004-0.829,0.031-1.242,0.078V1.139H14.398v0.037C14.139,1.154,13.879,1.141,13.619,1.137z"/>
<circle id="path13047_2_" fill="#FFFFFF" cx="69.337" cy="13.122" r="9.587"/>
<g id="g3210" enable-background="new    ">
	<text id="text3208" transform="matrix(1 0 0 1 12.0474 18.0801)" fill="#F7F9F9" font-family="'Bahnschrift'" font-size="14">BROS</text>
</g>
<g id="g17_1_" transform="matrix(1.3333333,0,0,-1.3333333,-138.36684,1585.994)" inkscape:groupmode="layer" inkscape:label="Page 1">
</g>
<g id="g3747" transform="matrix(0.2,0,0,0.2,81.014294,17.047731)">
	<path id="rect3729" fill="#FFFFFF" d="M-96.783-69.16h45c15.352,0,27.798,12.446,27.798,27.8V3.643
		c0,15.352-12.446,27.798-27.798,27.798h-45c-15.356,0-27.803-12.446-27.803-27.798V-41.36
		C-124.586-56.714-112.139-69.16-96.783-69.16z"/>
	<path id="rect3717" fill="#EB879F" d="M-94.468-63.899h40.503c13.818,0,25.02,11.201,25.02,25.02v40.5
		c0,13.818-11.201,25.02-25.02,25.02h-40.503c-13.818,0-25.02-11.201-25.02-25.02v-40.5
		C-119.488-52.698-108.287-63.899-94.468-63.899z"/>
	
		<path id="path2596" inkscape:connector-curvature="0" sodipodi:nodetypes="cscccsssssccccccccccccscscc" fill="#FFFFFF" stroke="#FFFFFF" stroke-width="0.25" stroke-linecap="round" stroke-linejoin="round" d="
		M-69.498-58.467c-6.826-0.537-17.187,2.036-20.977,4.954c-4.824,3.708-5.474,5.334-9.048,9.446s-6.05,9.468-6.548,17.998
		l0.996,0.059c0.493-8.364-7.041,26.167-3.594,22.207c3.438-3.96,4.063,19.512,8.926,15.767c4.634-3.56,3.696-1.533,12.642,0.82
		c8.945,2.363,3.794,2.891,6.597,12.998c2.832,10.225,17.588-4.194,15.669,1.05s27.373-2.593,25.601-0.19
		c-1.768,2.397-12.529-27.178-12.734-26.172c-0.107,0.508-0.098,0.879-0.039,1.143c0.024,0.137,0.059,0.244,0.098,0.322
		c0.01,0.024,0.02,0.029,0.029,0.049l7.451,17.383l0.918-0.391l-7.476-17.451l-0.02-0.024c-0.005-0.01-0.015-0.034-0.024-0.088
		c-0.024-0.112-0.044-0.342,0.039-0.737c0.166-0.791,0.742-2.236,2.461-4.561c1.699-2.31,4.873-5.737,6.865-11.177
		c1.992-5.437,2.798-12.891-0.078-23.281c-2.915-10.51-11.66-16.528-20.85-18.95C-64.888-57.9-67.217-58.286-69.498-58.467z"/>
	
		<path id="path3687" inkscape:connector-curvature="0" sodipodi:nodetypes="ccsc" fill="none" stroke="#FFFFFF" stroke-width="0.5" stroke-linecap="round" stroke-linejoin="round" d="
		M-81.48,20.659c0,0-3.223-4.966-3.721-5.962c-0.498-0.996,0-2.48-3.975-2.48s-12.671,3.477-15.654-3.73
		c0,0-0.991-9.438-1.484-10.928c-0.498-1.494-1.992-1.494-3.481-1.494s-3.477,0.254-1.738-4.219s7.456-17.798,6.46-17.856"/>
	
		<ellipse id="path3707" transform="matrix(-0.3737 -0.9275 0.9275 -0.3737 -78.5242 -118.7413)" fill="#EB879F" stroke="#EB879F" stroke-width="1.8" stroke-linecap="round" stroke-linejoin="round" cx="-79.349" cy="-32.861" rx="9.518" ry="16.291"/>
	<path id="ellipse3709" fill="#EB879F" stroke="#EB879F" stroke-width="1.716" stroke-linecap="round" stroke-linejoin="round" d="
		M-66.216-44.953c7.764,2.722,12.954,8.677,11.587,13.298c-1.372,4.624-8.774,6.165-16.548,3.442
		c-7.764-2.72-12.949-8.674-11.582-13.298C-81.392-46.133-73.985-47.673-66.216-44.953z"/>
	<path id="ellipse3711" fill="#EB879F" stroke="#EB879F" stroke-width="1.4145" stroke-linecap="round" stroke-linejoin="round" d="
		M-63.345-34.963c7.139,2.307,11.67,7.068,10.107,10.635c-1.553,3.567-8.604,4.59-15.747,2.283
		c-7.144-2.305-11.67-7.068-10.112-10.635C-77.545-36.247-70.494-37.27-63.345-34.963z"/>
	<g id="g3727">
		
			<path id="path3691" inkscape:connector-curvature="0" sodipodi:nodetypes="ccc" fill="none" stroke="#800000" stroke-width="1.8" stroke-linecap="round" stroke-linejoin="round" d="
			M-82.823-32.402c-1.978-3.84-3.218-8.77,3.257-12.356c5.693-2.273,9.78-1.045,10.601,3.591"/>
		
			<path id="path3699" inkscape:connector-curvature="0" sodipodi:nodetypes="cc" fill="none" stroke="#800000" stroke-width="1.8" stroke-linecap="round" stroke-linejoin="round" d="
			M-91.09-32.068c-0.884-4.534,0.415-8.154,7.178-7.847"/>
		
			<path id="path3693" inkscape:connector-curvature="0" sodipodi:nodetypes="ccc" fill="none" stroke="#800000" stroke-width="1.8" stroke-linecap="round" stroke-linejoin="round" d="
			M-88.082-32.651c-6.592,0.679-5.454,3.674-5.679,6.262c1.694,3.757,5.01,4.304,8.853,3.005"/>
		
			<path id="path3701" inkscape:connector-curvature="0" sodipodi:nodetypes="cc" fill="none" stroke="#800000" stroke-width="1.8" d="
			M-69.966-43.84c3.125-1.926,7.959-3.079,9.854,2.756"/>
		
			<path id="path3697" inkscape:connector-curvature="0" sodipodi:nodetypes="ccc" fill="none" stroke="#800000" stroke-width="1.8" stroke-linecap="round" stroke-linejoin="round" d="
			M-84.908-27.893c-0.635,5.173,3.086,6.038,6.675,5.093c2.993-1.418,5.288-5.466,1.919-9.016"/>
		
			<path id="path3695" inkscape:connector-curvature="0" sodipodi:nodetypes="cccccc" fill="none" stroke="#800000" stroke-width="1.8" stroke-linecap="round" stroke-linejoin="round" d="
			M-69.049-34.99c2.93-2.771,5.493-6.072,10.771-5.425c2.051,1.765,4.932,1.875,3.174,11.27c1.875,1.465,4.697,1.465,2.588,6.763
			c-2.471,1.909-5.073,1.533-9.102-1.67c-2.939-3.254-3.008-6.15,1.172-8.516"/>
		
			<path id="path3703" inkscape:connector-curvature="0" sodipodi:nodetypes="ccc" fill="none" stroke="#800000" stroke-width="1.8" stroke-linecap="round" stroke-linejoin="round" d="
			M-76.148-24.636c3.535,3.679,6.743,4.058,9.604,0.835c2.036,2.039,4.199,2.954,6.68,1.001"/>
		
			<path id="path3689" inkscape:connector-curvature="0" sodipodi:nodetypes="ccc" fill="none" stroke="#800000" stroke-width="1.8" stroke-linecap="round" stroke-linejoin="round" d="
			M-79.317-37.409c0,0,3.34-2.339,7.432-0.085c0,0,3.257,0.752,3.843,5.679"/>
	</g>
</g>
<g id="g3919" transform="matrix(0.2,0,0,0.2,108.99375,62.007821)">
	<path id="rect3887" fill="#FFFFFF" d="M-96.787-69.156h45c15.356,0,27.803,12.441,27.803,27.798v45
		c0,15.352-12.446,27.798-27.803,27.798h-45c-15.352,0-27.798-12.446-27.798-27.798v-45
		C-124.585-56.715-112.139-69.156-96.787-69.156z"/>
	<path id="rect3889" fill="#F5EEDB" d="M-94.463-63.902h40.498c13.818,0,25.02,11.206,25.02,25.024V1.62
		c0,13.818-11.201,25.024-25.02,25.024h-40.498c-13.818,0-25.02-11.206-25.02-25.024v-40.498
		C-119.483-52.696-108.282-63.902-94.463-63.902z"/>
	
		<path id="path3891" inkscape:connector-curvature="0" sodipodi:nodetypes="cscccsssssccccccccccccscscc" fill="#C87137" stroke="#483737" stroke-width="0.75" stroke-linecap="round" stroke-linejoin="round" d="
		M-69.492-58.467c-6.836-0.537-17.188,2.036-20.986,4.956c-4.819,3.706-5.469,5.332-9.043,9.443s-6.045,9.468-6.548,17.998
		l0.996,0.059c0.493-8.359,2.861-13.438,6.304-17.402c3.447-3.96,5.278-6.558,10.146-10.303c4.629-3.56,16.826-4.971,25.771-2.612
		s17.339,8.14,20.142,18.252c2.832,10.225,2.026,17.427,0.103,22.671c-1.919,5.244-4.956,8.521-6.729,10.928
		c-1.768,2.393-2.427,3.936-2.637,4.946c-0.103,0.503-0.088,0.879-0.039,1.147c0.029,0.132,0.068,0.234,0.103,0.317
		c0.015,0.024,0.015,0.029,0.034,0.054l7.446,17.378l0.923-0.391l-7.48-17.451l-0.02-0.024c-0.005-0.01-0.015-0.029-0.024-0.088
		c-0.024-0.112-0.044-0.342,0.039-0.737c0.161-0.796,0.747-2.231,2.456-4.556c1.709-2.314,4.878-5.742,6.87-11.182
		c1.987-5.435,2.798-12.891-0.083-23.281c-2.91-10.508-11.66-16.523-20.845-18.95C-64.893-57.901-67.217-58.287-69.492-58.467z"/>
	
		<path id="path3893" inkscape:connector-curvature="0" sodipodi:nodetypes="ccsc" fill="none" stroke="#483737" stroke-width="0.75" stroke-linecap="round" stroke-linejoin="round" d="
		M-81.475,20.658c0,0-3.232-4.966-3.73-5.957c-0.498-0.996,0-2.49-3.975-2.49s-12.666,3.481-15.645-3.721
		c0,0-0.996-9.443-1.494-10.933s-1.982-1.489-3.477-1.489c-1.489,0-3.477,0.244-1.738-4.224c1.738-4.473,7.461-17.798,6.46-17.856"
		/>
	
		<ellipse id="ellipse3895" transform="matrix(-0.374 -0.9274 0.9274 -0.374 -78.5467 -118.7446)" fill="#EB879F" stroke="#EB879F" stroke-linecap="round" stroke-linejoin="round" cx="-79.351" cy="-32.862" rx="9.519" ry="16.293"/>
	<path id="ellipse3897" fill="#EB879F" stroke="#EB879F" stroke-width="1.7138" stroke-linecap="round" stroke-linejoin="round" d="
		M-66.221-44.952c7.773,2.72,12.959,8.677,11.592,13.296c-1.367,4.624-8.779,6.162-16.543,3.442
		c-7.773-2.72-12.959-8.677-11.592-13.296C-81.392-46.133-73.985-47.672-66.221-44.952z"/>
	<path id="ellipse3899" fill="#EB879F" stroke="#EB879F" stroke-width="2" stroke-linecap="round" stroke-linejoin="round" d="
		M-63.35-34.967c7.144,2.31,11.67,7.07,10.117,10.64c-1.558,3.569-8.608,4.59-15.752,2.28c-7.139-2.305-11.67-7.065-10.117-10.635
		C-77.539-36.246-70.489-37.271-63.35-34.967z"/>
	<g id="g3917">
		
			<path id="path3901" inkscape:connector-curvature="0" sodipodi:nodetypes="ccc" fill="none" stroke="#483737" stroke-width="0.5" stroke-linecap="round" stroke-linejoin="round" d="
			M-82.823-32.398c-1.973-3.843-3.213-8.774,3.252-12.358c5.698-2.275,9.785-1.05,10.605,3.589"/>
		
			<path id="path3903" inkscape:connector-curvature="0" sodipodi:nodetypes="cc" fill="none" stroke="#483737" stroke-width="0.5" stroke-linecap="round" stroke-linejoin="round" d="
			M-91.089-32.066c-0.884-4.536,0.415-8.154,7.183-7.852"/>
		
			<path id="path3905" inkscape:connector-curvature="0" sodipodi:nodetypes="ccc" fill="none" stroke="#483737" stroke-width="0.5" stroke-linecap="round" stroke-linejoin="round" d="
			M-88.086-32.652c-6.582,0.679-5.449,3.672-5.674,6.26c1.699,3.76,5.01,4.307,8.848,3.008"/>
		
			<path id="path3907" inkscape:connector-curvature="0" sodipodi:nodetypes="cc" fill="none" stroke="#483737" stroke-width="0.5" d="
			M-69.966-43.839c3.12-1.929,7.964-3.081,9.849,2.754"/>
		
			<path id="path3909" inkscape:connector-curvature="0" sodipodi:nodetypes="ccc" fill="none" stroke="#483737" stroke-width="0.5" stroke-linecap="round" stroke-linejoin="round" d="
			M-84.912-27.891c-0.63,5.171,3.091,6.04,6.68,5.093c2.998-1.421,5.288-5.469,1.924-9.019"/>
		
			<path id="path3911" inkscape:connector-curvature="0" sodipodi:nodetypes="cccccc" fill="none" stroke="#483737" stroke-width="0.5" stroke-linecap="round" stroke-linejoin="round" d="
			M-69.048-34.986c2.925-2.773,5.493-6.074,10.771-5.43c2.056,1.768,4.937,1.875,3.169,11.27c1.875,1.465,4.697,1.465,2.588,6.768
			c-2.471,1.904-5.068,1.528-9.097-1.67c-2.939-3.257-3.013-6.152,1.167-8.521"/>
		
			<path id="path3913" inkscape:connector-curvature="0" sodipodi:nodetypes="ccc" fill="none" stroke="#483737" stroke-width="0.5" stroke-linecap="round" stroke-linejoin="round" d="
			M-76.143-24.634c3.525,3.677,6.738,4.053,9.6,0.83c2.041,2.041,4.199,2.959,6.68,1.006"/>
		
			<path id="path3915" inkscape:connector-curvature="0" sodipodi:nodetypes="ccc" fill="none" stroke="#483737" stroke-width="0.5" stroke-linecap="round" stroke-linejoin="round" d="
			M-79.317-37.408c0,0,3.34-2.344,7.432-0.088c0,0,3.252,0.752,3.838,5.679"/>
	</g>
</g>
</svg>
