<?xml version="1.0" encoding="utf-8"?>
<!-- Generator: Adobe Illustrator 16.0.2, SVG Export Plug-In . SVG Version: 6.00 Build 0)  -->
<!DOCTYPE svg PUBLIC "-//W3C//DTD SVG 1.1//EN" "http://www.w3.org/Graphics/SVG/1.1/DTD/svg11.dtd">
<svg version="1.1"
	 id="svg9" xmlns:inkscape="http://www.inkscape.org/namespaces/inkscape" xmlns:dc="http://purl.org/dc/elements/1.1/" xmlns:svg="http://www.w3.org/2000/svg" xmlns:rdf="http://www.w3.org/1999/02/22-rdf-syntax-ns#" xmlns:cc="http://creativecommons.org/ns#" xmlns:sodipodi="http://sodipodi.sourceforge.net/DTD/sodipodi-0.dtd" inkscape:version="0.92.3 (2405546, 2018-03-11)" sodipodi:docname="btn1.svg"
	 xmlns="http://www.w3.org/2000/svg" xmlns:xlink="http://www.w3.org/1999/xlink" x="0px" y="0px" width="92.201px"
	 height="25.326px" viewBox="0 0 92.201 25.326" enable-background="new 0 0 92.201 25.326" xml:space="preserve">
<sodipodi:namedview  id="namedview11" inkscape:cx="-0.019405042" borderopacity="1" inkscape:zoom="1.3192231" inkscape:cy="-164.53891" pagecolor="#ffffff" showgrid="false" bordercolor="#111111" inkscape:window-maximized="1" inkscape:pagecheckerboard="1" inkscape:window-width="1920" inkscape:showpageshadow="0" inkscape:pageopacity="0" inkscape:deskcolor="#d1d1d1" inkscape:window-x="-8" inkscape:window-y="-8" inkscape:window-height="1057" inkscape:current-layer="g17">
	<inkscape:page  x="0" width="552.47662" y="0" height="504.95132" id="page15"></inkscape:page>
</sodipodi:namedview>
<g id="g17" transform="matrix(1.3333333,0,0,-1.3333333,-138.36684,1585.994)" inkscape:groupmode="layer" inkscape:label="Page 1">
	<path id="path21" inkscape:connector-curvature="0" inkscape:label="bg13" fill="#F0F0FA" d="M103.775,1189.496h20.712v-18.995
		h-20.712V1189.496L103.775,1189.496z"/>
	<circle id="path13047" fill="#898888" cx="113.989" cy="1180.068" r="8.988"/>
</g>
<rect x="14.399" y="0.587" fill="#898888" width="63.747" height="23.948"/>
<circle id="path13047_1_" fill="#7C7B7B" cx="77.337" cy="12.571" r="11.984"/>
<circle id="path13047_2_" fill="#F9F7F7" cx="77.337" cy="12.571" r="9.587"/>
<text transform="matrix(1 0 0 1 12.0474 17.5292)" fill="#FFFFFF" font-family="'Bahnschrift'" font-size="14">TOURS</text>
<path id="path13047_4_" fill="#37ABC8" d="M-110.016,0.576c-6.619,0-11.984,5.365-11.984,11.983v0.001
	c0,6.618,5.365,11.984,11.983,11.984c0,0,0,0,0.001,0c0.26-0.001,0.52-0.011,0.779-0.029v0.01h53.696v-0.047
	c0.414,0.045,0.828,0.065,1.242,0.066c6.619-0.001,11.982-5.366,11.982-11.984c0-6.618-5.362-11.983-11.981-11.984
	c-0.414,0.004-0.828,0.031-1.242,0.078V0.578h-53.696v0.037C-109.496,0.594-109.755,0.58-110.016,0.576z"/>
<circle id="path13047_3_" fill="#F9F7F7" cx="-54.298" cy="12.561" r="9.587"/>
<g id="g3210" enable-background="new    ">
	<text id="text3208" transform="matrix(1 0 0 1 -111.5874 17.5194)" fill="#00FFFF" font-family="'Bahnschrift'" font-size="14">GABY</text>
</g>
</svg>
