<?xml version="1.0" encoding="utf-8"?>
<!-- Generator: Adobe Illustrator 16.0.2, SVG Export Plug-In . SVG Version: 6.00 Build 0)  -->
<!DOCTYPE svg PUBLIC "-//W3C//DTD SVG 1.1//EN" "http://www.w3.org/Graphics/SVG/1.1/DTD/svg11.dtd">
<svg version="1.1"
	 id="svg9" xmlns:inkscape="http://www.inkscape.org/namespaces/inkscape" xmlns:dc="http://purl.org/dc/elements/1.1/" xmlns:svg="http://www.w3.org/2000/svg" xmlns:rdf="http://www.w3.org/1999/02/22-rdf-syntax-ns#" xmlns:cc="http://creativecommons.org/ns#" xmlns:sodipodi="http://sodipodi.sourceforge.net/DTD/sodipodi-0.dtd" inkscape:version="0.92.3 (2405546, 2018-03-11)" sodipodi:docname="aeo_omni.svg"
	 xmlns="http://www.w3.org/2000/svg" xmlns:xlink="http://www.w3.org/1999/xlink" x="0px" y="0px" width="113.336px"
	 height="26.428px" viewBox="0 0 113.336 26.428" enable-background="new 0 0 113.336 26.428" xml:space="preserve">
<sodipodi:namedview  id="namedview11" inkscape:cx="57.988675" borderopacity="1" inkscape:zoom="5.8282095" inkscape:cy="-21.603624" pagecolor="#ffffff" showgrid="false" bordercolor="#111111" inkscape:window-maximized="1" inkscape:pagecheckerboard="1" inkscape:window-width="1920" inkscape:showpageshadow="0" inkscape:pageopacity="0" inkscape:deskcolor="#d1d1d1" inkscape:window-x="-8" inkscape:window-y="-8" inkscape:window-height="1057" inkscape:current-layer="svg9">
	<inkscape:page  x="0" width="552.47662" y="0" height="504.95132" id="page15"></inkscape:page>
</sodipodi:namedview>
<path id="path13047" fill="#898888" d="M13.619,1.137C7,1.137,1.635,6.502,1.635,13.12c0,0,0,0.001,0,0.001
	c0,6.618,5.365,11.984,11.983,11.984c0,0,0,0,0.001,0c0.26-0.001,0.52-0.011,0.779-0.029v0.01h84.551
	c0.129,0.009,0.258,0.015,0.387,0.02c0.177-0.003,0.354-0.009,0.529-0.02c6.404-0.282,11.451-5.555,11.455-11.965
	c-0.008-6.407-5.055-11.674-11.455-11.957V1.139h-0.49c-0.014,0-0.025-0.001-0.039-0.002c-0.018,0-0.035,0.001-0.053,0.002H14.398
	v0.037C14.139,1.154,13.879,1.141,13.619,1.137z"/>
<circle id="path13047_2_" fill="#F9F7F7" cx="99.336" cy="13.122" r="9.587"/>
<g id="g3433" enable-background="new    ">
	<text id="text3431" transform="matrix(1 0 0 1 12.0474 18.0801)" fill="#F4F9F9" font-family="'Bahnschrift'" font-size="14">OMNI</text>
</g>
<g id="g5450" transform="matrix(0.13333334,0,0,-0.13333334,69.780585,91.236169)">
	
		<path id="path1369" inkscape:connector-curvature="0" fill="#FFFFFF" stroke="#FFFFFF" stroke-width="0.2895" stroke-miterlimit="3.8637" d="
		M108.235,591.585c0,41.36,33.523,74.887,74.89,74.887c41.36,0,74.883-33.527,74.883-74.887s-33.523-74.89-74.883-74.89
		C141.758,516.694,108.235,550.225,108.235,591.585z"/>
	<g id="g5443">
		
			<path id="path1371" inkscape:connector-curvature="0" sodipodi:nodetypes="sssccsccccccccccsccsccccccscccccccccccccccs" fill="#000033" d="
			M113.399,587.014c0,38.467,31.179,74.151,69.646,74.151s69.646-31.183,69.646-69.65c0-11.422-2.747-22.203-7.617-31.718
			c-1.436,4.189-3.23,8.628-4.922,13.506c-2.813,8.042-3.552,10.997-11.792,16.611c-8.247,5.618-8.408,4.651-13.462,8.599
			c-5.449,4.252-5.405,5.925-1.86,17.142c3.545,11.213,7.097,27.382-3.237,37.046c-9.727,9.097-18.032,8.075-27.407,2.179
			c-11.426-7.192-8.533-29.586-7.939-31.762c0.586-2.179,1.567-15.908,13.044-27.125c0,0,5.486-1.077,9.338,1.293
			c4.951,3.047,5.01,2.164,3.252-0.623c-1.37-2.168-5.515-4.087-6.423-4.208c-6.13-0.809-5.955,1.095-5.955,1.095
			s-9.712-4.061-15.615-6.859s-16.201-28.008-16.201-28.008l34.468,0.615c0,0,7.961,19.307,10.313,20.552
			c2.358,1.245-0.088-3.245-2.168-8.84c-2.073-5.603-4.614-11.711-4.614-11.711l17.673,1.875l-2.058-5.933l12.378-9.331
			c0,0-0.293,20.859,0.879,21.475c1.179,0.63,1.179-0.308,1.179-3.413c0-3.113,1.003-20.984,1.003-20.984l10.203,4.504
			c0,0-8.782-7.441-9.543-8.906c-2.966,2.725-9.316,8.145-17.571,15.103l-3.237-12.444c0,0,5.12,2.285,8.958-10.796
			c0.132-0.439,0.271-0.857,0.417-1.252c-0.732-0.366-1.472-0.725-2.219-1.069c-0.718,2.271-1.919,4.614-3.032,6.878
			c-3.237,6.533-4.717,3.735-6.182-2.175c-1.216-4.863-2.417-8.167-7.083-8.709c-5.427-0.63-22.39,0.315-26.213,4.358
			c-3.823,4.043-14.729,18.984-14.729,18.984s-1.956,2.9-2.651,1.245c-3.237-7.734-3.406-13.945-2.82-18.105
			C127.857,542.498,113.399,560.816,113.399,587.014z"/>
		
			<path id="path1373" inkscape:connector-curvature="0" fill="#FFFFFF" stroke="#999999" stroke-width="0.5684" stroke-miterlimit="3.8636" d="
			M207.149,557.132c0,0-6.753-25.855-8.24-28.652c-1.487-2.805-11.887-2.937-21.599-0.762c-9.712,2.175-7.961,4.512-15.908,14.773
			c-7.947,10.261-9.631,13.059-9.631,13.059L207.149,557.132z"/>
		
			<path id="path1423" inkscape:connector-curvature="0" sodipodi:nodetypes="cccssscc" fill="#000033" stroke="#000033" stroke-width="0.5293" stroke-miterlimit="3.8637" d="
			M252.134,630.905v-31.904c-47.022,100.536-87.613,57.224-138.97-10.499v42.4c0,18.149,14.509,34.365,32.402,34.365h74.173
			c17.893,0,32.395-16.216,32.395-34.365V630.905z"/>
	</g>
</g>
</svg>
