<?xml version="1.0" encoding="utf-8"?>
<!-- Generator: Adobe Illustrator 16.0.2, SVG Export Plug-In . SVG Version: 6.00 Build 0)  -->
<!DOCTYPE svg PUBLIC "-//W3C//DTD SVG 1.1//EN" "http://www.w3.org/Graphics/SVG/1.1/DTD/svg11.dtd">
<svg version="1.1"
	 id="svg9" xmlns:inkscape="http://www.inkscape.org/namespaces/inkscape" xmlns:dc="http://purl.org/dc/elements/1.1/" xmlns:svg="http://www.w3.org/2000/svg" xmlns:rdf="http://www.w3.org/1999/02/22-rdf-syntax-ns#" xmlns:cc="http://creativecommons.org/ns#" xmlns:sodipodi="http://sodipodi.sourceforge.net/DTD/sodipodi-0.dtd" inkscape:version="0.92.3 (2405546, 2018-03-11)" sodipodi:docname="aeo_aplicaciones.svg"
	 xmlns="http://www.w3.org/2000/svg" xmlns:xlink="http://www.w3.org/1999/xlink" x="0px" y="0px" width="143.932px"
	 height="25.326px" viewBox="0 0 143.932 25.326" enable-background="new 0 0 143.932 25.326" xml:space="preserve">
<sodipodi:namedview  id="namedview11" inkscape:cx="128.20237" borderopacity="1" inkscape:zoom="15.578702" inkscape:cy="2.6829886" pagecolor="#ffffff" showgrid="false" bordercolor="#111111" inkscape:window-maximized="1" inkscape:pagecheckerboard="1" inkscape:window-width="1920" inkscape:showpageshadow="0" inkscape:pageopacity="0" inkscape:deskcolor="#d1d1d1" inkscape:window-x="-8" inkscape:window-y="-8" inkscape:window-height="1057" inkscape:current-layer="layer6">
	<inkscape:page  x="0" width="552.47662" y="0" height="504.95132" id="page15"></inkscape:page>
</sodipodi:namedview>
<g id="g17" transform="matrix(1.3333333,0,0,-1.3333333,-138.36684,1585.994)" inkscape:groupmode="layer" inkscape:label="Page 1">
	<path id="path13047" fill="#898888" d="M114.447,1189.056c-4.964-0.001-8.987-4.025-8.987-8.988s4.023-8.988,8.987-8.988
		c0.097,0.004,0.193,0.008,0.29,0.015h87.7c0.1-0.007,0.199-0.012,0.299-0.015c4.964-0.001,8.988,4.023,8.988,8.988c0,0,0,0,0,0.001
		c-0.007,4.805-3.791,8.756-8.591,8.968v0.019h-88.644C114.475,1189.055,114.461,1189.056,114.447,1189.056z"/>
</g>
<g id="layer6" inkscape:groupmode="layer" inkscape:label="Page 2">
	<circle id="path13047_2_" fill="#F9F7F7" cx="131.947" cy="12.571" r="9.587"/>
	<g id="g11348" transform="matrix(0.06666666,0,0,-0.06666666,126.62335,94.511898)">
		
			<linearGradient id="path883_1_" gradientUnits="userSpaceOnUse" x1="56426.1719" y1="-93989.7109" x2="57033.5391" y2="-93990.7188" gradientTransform="matrix(0.0542 0 0 0.0552 -3283.5271 6419.124)">
			<stop  offset="0" style="stop-color:#CCCCCC"/>
			<stop  offset="1" style="stop-color:#CCCCCC;stop-opacity:0"/>
		</linearGradient>
		<path id="path883" inkscape:connector-curvature="0" fill="url(#path883_1_)" d="M-131.646,1054.393
			c-9.565,0-17.329,7.896-17.329,17.651v320.806c0,9.749,7.764,17.644,17.329,17.644h348.778c9.565,0,17.314-7.896,17.314-17.644
			v-320.806c0-9.756-7.749-17.651-17.314-17.651H-131.646z"/>
		<path id="path1023" inkscape:connector-curvature="0" fill="#FFFFFF" d="M-51.329,1329.036c0,42.597,35.317,76.633,78.237,76.633
			c37.221,0,64.731-24.91,72.451-58.821c1.89-0.11,3.823-0.242,4.717-0.242c42.934,0,78.252-34.028,78.252-76.633
			c0-21.255-11.733-58.33-39.565-66.665l-87.011-134.369l-109.804,91.259c-35.815,6.855-63.178,37.72-63.178,75.212
			c0,39.155,29.839,71.074,67.983,75.981C-50.611,1317.061-51.329,1322.971-51.329,1329.036z"/>
		
			<path id="path1025" inkscape:connector-curvature="0" fill="#999999" stroke="#999999" stroke-width="2.5" stroke-miterlimit="3.8637" d="
			M110.756,1337.407c60.366-12.832,69.433-92.285,18.779-121.12l-55.254-85.415l-27.978,100.993
			C8.422,1278.418,49.027,1350.525,110.756,1337.407z"/>
		
			<path id="path1027" inkscape:connector-curvature="0" fill="#999999" stroke="#999999" stroke-width="2.5" stroke-miterlimit="3.8637" d="
			M31.786,1385.256c36.211,0,65.566-29.348,65.566-65.559c0-19.49-8.525-37.002-22.016-48.999l-36.284-95.046l-48.384,92.973
			c-14.897,12.004-24.448,30.425-24.448,51.072C-33.78,1355.908-4.425,1385.256,31.786,1385.256z"/>
		
			<path id="path1029" inkscape:connector-curvature="0" fill="#999999" stroke="#999999" stroke-width="2.5" stroke-miterlimit="3.8637" d="
			M-43.653,1300.64c57.202,23.115,109.16-37.683,83.291-89.904l1.963-101.718l-79.687,68.086
			C-95.523,1194.505-102.173,1276.997-43.653,1300.64z"/>
		
			<path id="path1031" inkscape:connector-curvature="0" fill="#999999" stroke="#999999" stroke-width="2.5" stroke-miterlimit="3.8637" d="
			M51.84,1280.505c36.211,0,65.566-29.355,65.566-65.551c0-19.57-8.584-37.148-22.163-49.16l-38.159-83.803l-46.26,81.811
			c-14.956,12.012-24.536,30.454-24.536,51.152C-13.712,1251.15,15.644,1280.505,51.84,1280.505z"/>
		
			<path id="path1033" inkscape:connector-curvature="0" fill="#00CCFF" stroke="#00CCFF" stroke-width="2.5" stroke-miterlimit="3.8637" d="
			M108.163,1325.176c-51.782,11.008-82.88-49.306-50.552-87.348l21.284-76.809l41.88,64.731
			c42.934,23.035,38.364,88.593-12.612,99.433V1325.176z"/>
		
			<path id="path1035" inkscape:connector-curvature="0" fill="#FF9900" stroke="#FF9900" stroke-width="2.5" stroke-miterlimit="3.8637" d="
			M31.786,1372.761c-29.311,0-53.056-23.76-53.056-53.064c0-17.498,8.13-32.358,21.782-42.891l36.782-70.7l27.495,72.019
			c12.671,10.708,20.054,24.734,20.054,41.572C84.843,1349.001,61.083,1372.761,31.786,1372.761z"/>
		
			<path id="path1037" inkscape:connector-curvature="0" fill="#000066" stroke="#666666" stroke-width="2.5" stroke-miterlimit="3.8637" d="
			M-38.98,1289.053c-49.087-19.834-41.133-87.224,6.943-100.686l60.6-51.782l-1.479,77.08
			C49.789,1256.79,9.345,1308.572-38.98,1289.053z"/>
		
			<path id="path1039" inkscape:connector-curvature="0" fill="#FF00FF" stroke="#FF00FF" stroke-width="2.5" stroke-miterlimit="3.8637" d="
			M51.84,1268.003c-29.297,0-53.056-23.752-53.056-53.049c0-17.432,8.086-32.344,21.694-42.832l35.405-62.607l29.136,63.984
			c12.539,10.605,19.892,24.785,19.892,41.455C104.911,1244.251,81.151,1268.003,51.84,1268.003z"/>
	</g>
</g>
<text id="text11299" transform="matrix(1 0 0 1 18.6585 17.5292)" fill="#F7F9F7" font-family="'Bahnschrift'" font-size="14">APLICACIONES</text>
</svg>
