<?xml version="1.0" encoding="utf-8"?>
<!-- Generator: Adobe Illustrator 16.0.2, SVG Export Plug-In . SVG Version: 6.00 Build 0)  -->
<!DOCTYPE svg PUBLIC "-//W3C//DTD SVG 1.1//EN" "http://www.w3.org/Graphics/SVG/1.1/DTD/svg11.dtd">
<svg version="1.1"
	 id="svg9" xmlns:inkscape="http://www.inkscape.org/namespaces/inkscape" xmlns:dc="http://purl.org/dc/elements/1.1/" xmlns:svg="http://www.w3.org/2000/svg" xmlns:rdf="http://www.w3.org/1999/02/22-rdf-syntax-ns#" xmlns:cc="http://creativecommons.org/ns#" xmlns:sodipodi="http://sodipodi.sourceforge.net/DTD/sodipodi-0.dtd" inkscape:version="0.92.3 (2405546, 2018-03-11)" sodipodi:docname="aeo_oportuno.svg"
	 xmlns="http://www.w3.org/2000/svg" xmlns:xlink="http://www.w3.org/1999/xlink" x="0px" y="0px" width="113.336px"
	 height="26.428px" viewBox="0 0 113.336 26.428" enable-background="new 0 0 113.336 26.428" xml:space="preserve">
<sodipodi:namedview  id="namedview11" inkscape:cx="6.4311615" borderopacity="1" inkscape:zoom="4.9966283" inkscape:cy="-14.382145" pagecolor="#ffffff" showgrid="false" bordercolor="#111111" inkscape:window-maximized="1" inkscape:pagecheckerboard="1" inkscape:window-width="1920" inkscape:showpageshadow="0" inkscape:pageopacity="0" inkscape:deskcolor="#d1d1d1" inkscape:window-x="-8" inkscape:window-y="-8" inkscape:window-height="1057" inkscape:current-layer="g3373">
	<inkscape:page  x="0" width="552.47662" y="0" height="504.95132" id="page15"></inkscape:page>
</sodipodi:namedview>
<g id="g17" transform="matrix(1.3333333,0,0,-1.3333333,-138.36684,1585.994)" inkscape:groupmode="layer" inkscape:label="Page 1">
	<path id="path13047" fill="#898888" d="M113.99,1189.056c-4.964,0-8.988-4.024-8.988-8.988v0c0-4.964,4.024-8.988,8.988-8.988
		c0,0,0,0,0.001,0c0.195,0.004,0.39,0.013,0.584,0.029v-0.015h63.404c0.1-0.007,0.199-0.012,0.299-0.015
		c4.964-0.001,8.988,4.023,8.988,8.988c0,0,0,0,0,0.001c-0.006,4.805-3.791,8.756-8.591,8.968v0.019h-64.1v-0.019
		C114.38,1189.049,114.184,1189.056,113.99,1189.056z"/>
</g>
<circle id="path13047_2_" fill="#F9F7F7" cx="99.336" cy="12.571" r="9.587"/>
<g id="g3373" enable-background="new    ">
	<text id="text3371" transform="matrix(1 0 0 1 12.0474 17.5292)" fill="#F7F9F9" font-family="'Bahnschrift'" font-size="14">OPORTUNO</text>
	<g id="g9632" transform="matrix(0.81637798,0,0,0.81637798,-219.8241,-124.26202)">
		<g id="g16481" transform="matrix(0.11288889,0,0,-0.11288889,-1100.7449,674.59044)">
			<g>
				<defs>
					<path id="SVGID_1_" d="M13219.531,4620.991c1.579,0,7.884-1.324,11.147-2.087c11.677-2.67,27.212-10.745,37.925-23.905
						c4.376-5.394,8.381-12.149,10.967-18.475c2.204-5.489,4.843-16.515,4.843-18.152v-94.387c0-1.642-2.289-10.278-3.889-15.237
						c-10.936-32.457-42.704-47.959-66.651-47.959h-78.54c-21.172,0-48.871,11.603-63.25,39.842
						c-0.71,1.441-7.301,20.091-7.301,23.778v93.54c0,0.89,0.529,2.94,1.06,5.007c0.551,2.141,1.208,4.588,1.589,6.517
						c5.563,28.107,39.673,51.52,62.243,51.52H13219.531z"/>
				</defs>
				<clipPath id="SVGID_2_">
					<use xlink:href="#SVGID_1_"  overflow="visible"/>
				</clipPath>
				<g id="g16483" clip-path="url(#SVGID_2_)">
					<g id="g16489" transform="matrix(224,0,0,224,13062.571,4399.6789)">
						
							<image overflow="visible" enable-background="new    " width="224" height="224" id="image16491" xlink:href="F4F298A1.png"  transform="matrix(0.0045 0 0 -0.0045 -6.364848e-005 1)">
						</image>
					</g>
				</g>
			</g>
		</g>
		
			<path id="path16493" inkscape:connector-curvature="0" fill="none" stroke="#FDFFFF" stroke-width="0.1195" stroke-miterlimit="3.8637" d="
			M374.369,160.805c0-4.362,3.536-7.897,7.897-7.897h8.743c4.361,0,7.897,3.535,7.897,7.897v8.744c0,4.361-3.536,7.896-7.897,7.896
			h-8.743c-4.361,0-7.897-3.535-7.897-7.896V160.805z"/>
		
			<path id="path16495" inkscape:connector-curvature="0" fill="#6C6753" stroke="#CCCCCC" stroke-width="0.0941" stroke-miterlimit="3.8636" d="
			M375.427,160.932c0-3.769,3.056-6.825,6.826-6.825h8.816c3.768,0,6.824,3.056,6.824,6.825v8.815c0,3.77-3.056,6.826-6.824,6.826
			h-8.816c-3.769,0-6.826-3.055-6.826-6.826V160.932z"/>
		<path id="path16497" inkscape:connector-curvature="0" fill="#FFFFFF" d="M382.822,173.713c-0.057-1.664,2.413-3.101,5.519-3.208
			c3.105-0.109,5.67,1.152,5.729,2.816c0.059,1.664-2.413,3.101-5.518,3.208C385.445,176.638,382.88,175.377,382.822,173.713z"/>
		<path id="path16499" inkscape:connector-curvature="0" fill="#CCCCCC" d="M383.973,173.672c-0.048-1.323,1.919-2.467,4.39-2.553
			c2.471-0.086,4.511,0.917,4.558,2.242c0.045,1.323-1.92,2.467-4.39,2.553C386.059,176,384.018,174.997,383.973,173.672z"/>
		<path id="path16501" inkscape:connector-curvature="0" fill="#FFFFFF" d="M385.581,173.617c-0.03-0.848,1.229-1.579,2.811-1.635
			c1.583-0.055,2.889,0.587,2.918,1.434c0.03,0.848-1.228,1.58-2.811,1.635C386.918,175.107,385.611,174.464,385.581,173.617z"/>
		<g id="g16503" transform="matrix(0.11288889,0,0,-0.11288889,-1100.7449,674.59044)">
			<g>
				<defs>
					<path id="SVGID_3_" d="M13134.433,4536.835c0,0-10.777-10.559-9.441-15.974c0.857-3.465,74.916-16.207,96.512,19.678
						l1.632,2.644c0,0,3.168,1.415-7.63,4.546c-11.847,3.438-17.537,4.275-17.537,4.275s-2.395-17.584-17.24-22.586
						c-12.736-4.292-22.443-3.481-27.783-2.607C13147.604,4527.686,13134.433,4536.835,13134.433,4536.835L13134.433,4536.835z"/>
				</defs>
				<clipPath id="SVGID_4_">
					<use xlink:href="#SVGID_3_"  overflow="visible"/>
				</clipPath>
				<g id="g16505" clip-path="url(#SVGID_4_)">
					<path id="path16511" inkscape:connector-curvature="0" fill="#F8F8F7" d="M13134.433,4536.835c0,0-10.777-10.559-9.441-15.974
						c0.857-3.465,74.916-16.207,96.512,19.678l1.632,2.644c0,0,3.168,1.415-7.63,4.546c-11.847,3.438-17.537,4.275-17.537,4.275
						s-2.395-17.584-17.24-22.586c-12.736-4.292-22.443-3.481-27.783-2.607
						C13147.604,4527.686,13134.433,4536.835,13134.433,4536.835L13134.433,4536.835z"/>
				</g>
			</g>
		</g>
		<path id="path16513" inkscape:connector-curvature="0" fill="#FFFFFF" d="M390.547,170.565c-0.007-0.238,0.139-0.435,0.329-0.443
			c0.19-0.006,0.35,0.181,0.358,0.419c0.008,0.238-0.139,0.437-0.328,0.443C390.717,170.991,390.557,170.803,390.547,170.565z"/>
		<path id="path16515" inkscape:connector-curvature="0" fill="#000066" d="M389.449,158.638c0.057,0.376,0.108,0.766,0.084,1.147
			c0.526,0.181,2.633,0.772,3.196,1.2c0.294,0.224,0.557,0.587,0.538,1.132c-0.017,0.51-0.19,6.022-0.19,6.022s0,0.113-0.068,0.278
			c-0.306,0.764-0.675,0.395-0.882,1.465c-0.272,1.402-0.428,3.273-1.52,4.347c-0.614,0.603-2.215,0.483-3.023,0.486
			c-2.291,0.011-1.507-2.873-2.817-3.598c-0.559-0.307-1.041-0.483-1.392-1.09c-0.426-0.731-2.641-3.865-3.12-4.607
			c-1.038-1.609,0.133-2.314,0.938-3.602c-0.553-1.267-0.739-2.711-0.268-4.042c0.455-1.285,1.055-2.446,2.353-2.949
			c2.365-0.918,4.847-0.424,5.783,2.038C389.201,157.329,389.358,158.022,389.449,158.638z"/>
		<path id="path16517" inkscape:connector-curvature="0" fill="#FFFFFF" d="M380.776,164.789c-0.043-0.056-0.079-0.118-0.105-0.185
			c-0.115-0.234-0.16-0.501-0.006-0.76c0.19-0.313,1.179-1.845,1.179-1.845s0.542,0.635,1.307,1.157c0.768,0.521,2,0.225,2,0.225
			s-0.292,0.073-0.932-0.182c-1.569-0.316-2.776-1.676-2.834-3.346c-0.005-0.116-0.002-0.231,0.005-0.345
			c-0.016-0.118-0.026-0.237-0.03-0.358c-0.066-1.871,1.303-3.461,3.12-3.709c0.523-0.159,1.024-0.195,1.407-0.048
			c0.846,0.323,1.506,0.613,1.958,1.429c0.443,0.577,0.718,1.293,0.744,2.076c0.014,0.395-0.091,1.038-0.179,1.496
			c-0.213,0.947-0.694,1.802-0.694,1.802s0.603,0.032,0.845-0.283c0.243-0.315,0.444-1.472,0.444-1.472s2.077,0.541,2.79,0.705
			c0.042,0.01,0.081,0.021,0.118,0.035c0.364,0.099,0.638,0.426,0.651,0.822c0.035,0.185,0.038,0.349,0.026,0.477
			c-0.039,0.403-0.212,5.419-0.256,5.674c-0.044,0.255-0.861,0.979-1.158,1.285c-0.295,0.304-0.693,0.077-0.711-0.419
			c-0.016-0.462,0.084-2.339,0.06-3.9l0.017-0.627c0.01-0.025,0.014-0.051,0.013-0.08c-0.004-0.107-0.095-0.191-0.202-0.188
			c-0.105,0.003-0.187,0.09-0.187,0.195l0.078,5.504c0,0-0.211,3.718-0.31,3.921c-0.099,0.205-1.333,0.34-1.412-0.053
			c-0.09-0.44-0.127-0.904-0.127-0.904s-0.222-2.184-0.153-2.895c0.01-0.108,0.01-0.189,0.002-0.245
			c0.054-0.102,0.081-0.218,0.078-0.341c0-0.026-0.004-0.051-0.006-0.077c-0.115,0.196-0.323,0.33-0.566,0.339
			c-0.35,0.012-0.65-0.243-0.7-0.583c-0.062,0.108-0.097,0.234-0.092,0.368c0.008,0.225,0.124,0.421,0.298,0.541l0.096,0.135
			c0.323,0.444,0.677,2.3,0.809,3.035c0.127,0.712,0.251,0.773-0.062,0.883c-0.516,0.181-0.944,0.093-1.147,0.007
			c-0.185-0.081-0.986-2.297-0.986-2.297c-0.068-0.158-0.157-0.349-0.257-0.538c-0.8-1.672-1.364-2.832-1.781-3.672l0.097,0.178
			l-1.091-2.687c-0.024-0.086-0.103-0.147-0.196-0.144c-0.108,0.004-0.191,0.094-0.187,0.202c0,0.037,0.012,0.071,0.031,0.1
			c0.051,0.173,0.22,0.562,0.476,1.063c0.33,0.644,1.335,2.715,2.048,4.192c-0.505-0.289-0.763-0.151-1.026-0.435
			c-0.255-0.278-2.967-4.683-3.304-5.226V164.789z"/>
		<path id="path16519" inkscape:connector-curvature="0" fill="#FFFFFF" d="M390.567,170.516l0.177-0.362l0.891-0.75
			c0,0-0.443,2.288-0.584,2.896c-0.126,0.541-0.83,1.467-0.83,1.467L390.567,170.516z"/>
	</g>
</g>
</svg>
