<?xml version="1.0" encoding="utf-8"?>
<!-- Generator: Adobe Illustrator 16.0.2, SVG Export Plug-In . SVG Version: 6.00 Build 0)  -->
<!DOCTYPE svg PUBLIC "-//W3C//DTD SVG 1.1//EN" "http://www.w3.org/Graphics/SVG/1.1/DTD/svg11.dtd">
<svg version="1.1"
	 id="svg9" xmlns:inkscape="http://www.inkscape.org/namespaces/inkscape" xmlns:dc="http://purl.org/dc/elements/1.1/" xmlns:svg="http://www.w3.org/2000/svg" xmlns:rdf="http://www.w3.org/1999/02/22-rdf-syntax-ns#" xmlns:cc="http://creativecommons.org/ns#" xmlns:sodipodi="http://sodipodi.sourceforge.net/DTD/sodipodi-0.dtd" inkscape:version="0.92.3 (2405546, 2018-03-11)" sodipodi:docname="aeo_quinto.svg"
	 xmlns="http://www.w3.org/2000/svg" xmlns:xlink="http://www.w3.org/1999/xlink" x="0px" y="0px" width="113.336px"
	 height="26.428px" viewBox="0 0 113.336 26.428" enable-background="new 0 0 113.336 26.428" xml:space="preserve">
<sodipodi:namedview  id="namedview11" inkscape:cx="40.554172" borderopacity="1" inkscape:zoom="4.9966283" inkscape:cy="-14.382145" pagecolor="#ffffff" showgrid="false" bordercolor="#111111" inkscape:window-maximized="1" inkscape:pagecheckerboard="1" inkscape:window-width="1920" inkscape:showpageshadow="0" inkscape:pageopacity="0" inkscape:deskcolor="#d1d1d1" inkscape:window-x="-8" inkscape:window-y="-8" inkscape:window-height="1057" inkscape:current-layer="svg9">
	<inkscape:page  x="0" width="552.47662" y="0" height="504.95132" id="page15"></inkscape:page>
</sodipodi:namedview>
<g id="g17" transform="matrix(1.3333333,0,0,-1.3333333,-138.36684,1585.994)" inkscape:groupmode="layer" inkscape:label="Page 1">
	<path id="path13047" fill="#898888" d="M113.99,1189.056c-4.964,0-8.988-4.024-8.988-8.988v0c0-4.964,4.024-8.988,8.988-8.988
		c0,0,0,0,0.001,0c0.195,0.004,0.39,0.013,0.584,0.029v-0.015h63.404c0.1-0.007,0.199-0.012,0.299-0.015
		c4.964-0.001,8.988,4.023,8.988,8.988c0,0,0,0,0,0.001c-0.006,4.805-3.791,8.756-8.591,8.968v0.019h-64.1v-0.019
		C114.38,1189.049,114.184,1189.056,113.99,1189.056z"/>
</g>
<circle id="path13047_2_" fill="#F9F7F7" cx="99.336" cy="12.571" r="9.587"/>
<g id="g3373" enable-background="new    ">
	<text id="text3371" transform="matrix(1 0 0 1 12.0474 17.5292)" fill="#FAFCFC" font-family="'Bahnschrift'" font-size="14">QUINTO</text>
</g>
</svg>
