<?xml version="1.0" encoding="utf-8"?>
<!-- Generator: Adobe Illustrator 16.0.2, SVG Export Plug-In . SVG Version: 6.00 Build 0)  -->
<!DOCTYPE svg PUBLIC "-//W3C//DTD SVG 1.1//EN" "http://www.w3.org/Graphics/SVG/1.1/DTD/svg11.dtd">
<svg version="1.1"
	 id="svg9" xmlns:rdf="http://www.w3.org/1999/02/22-rdf-syntax-ns#" xmlns:cc="http://creativecommons.org/ns#" xmlns:sodipodi="http://sodipodi.sourceforge.net/DTD/sodipodi-0.dtd" xmlns:inkscape="http://www.inkscape.org/namespaces/inkscape" xmlns:dc="http://purl.org/dc/elements/1.1/" xmlns:svg="http://www.w3.org/2000/svg" inkscape:version="0.92.3 (2405546, 2018-03-11)" sodipodi:docname="btn1.svg"
	 xmlns="http://www.w3.org/2000/svg" xmlns:xlink="http://www.w3.org/1999/xlink" x="0px" y="0px" width="182.884px"
	 height="26.428px" viewBox="-69.548 0 182.884 26.428" enable-background="new -69.548 0 182.884 26.428" xml:space="preserve">
<circle id="path13047_3_" fill="#5F85B2" cx="-54.718" cy="13.112" r="11.984"/>
<path id="path21" inkscape:connector-curvature="0" inkscape:label="bg13" fill="#5F85B2" d="M35.835,25.097h-92.313V1.128h92.313
	V25.097L35.835,25.097z"/>
<sodipodi:namedview  id="namedview11" inkscape:cx="-0.019405042" borderopacity="1" inkscape:zoom="1.3192231" inkscape:cy="-164.53891" pagecolor="#ffffff" showgrid="false" bordercolor="#111111" inkscape:window-maximized="1" inkscape:pagecheckerboard="1" inkscape:window-width="1920" inkscape:showpageshadow="0" inkscape:pageopacity="0" inkscape:deskcolor="#d1d1d1" inkscape:window-x="-8" inkscape:window-y="-8" inkscape:window-height="1057" inkscape:current-layer="g17">
	<inkscape:page  x="0" width="552.47662" y="0" height="504.95132" id="page15"></inkscape:page>
</sodipodi:namedview>
<circle id="path13047" fill="#898888" cx="13.619" cy="13.121" r="11.984"/>
<rect x="14.399" y="1.138" fill="#898888" width="85.467" height="23.948"/>
<circle id="path13047_1_" fill="#898888" cx="99.336" cy="13.121" r="11.984"/>
<circle id="path13047_2_" fill="#F9F7F7" cx="99.336" cy="13.122" r="9.587"/>
<g enable-background="new    ">
	<text transform="matrix(1 0 0 1 12.0474 18.0801)" fill="#FAFCFA" font-family="'Bahnschrift'" font-size="14">REUNION</text>
</g>
<g enable-background="new    ">
	<text transform="matrix(1 0 0 1 28.9673 -32.5537)" fill="#61A372" font-family="'Bahnschrift'" font-size="14">898888</text>
</g>
<g id="g13773" transform="matrix(0.5,0,0,0.5,15.438368,-114.61954)">
	<path id="path13771" inkscape:connector-curvature="0" fill="#FF3300" d="M-389.141-20.96V-40.86c0-1.229,0.229-2.375,0.68-3.479
		c0.445-1.05,1.101-2,1.925-2.825c1.725-1.725,3.8-2.57,6.271-2.57h104.126c1.199,0,2.324,0.226,3.45,0.695
		c1.049,0.43,1.999,1.075,2.824,1.875c1.727,1.75,2.576,3.825,2.576,6.305v19.896c0,1.229-0.229,2.375-0.701,3.479
		c-0.449,1.049-1.074,2-1.875,2.8c-0.825,0.825-1.775,1.475-2.824,1.896c-1.126,0.479-2.251,0.7-3.45,0.7h-104.126
		c-1.225,0-2.35-0.226-3.475-0.7c-1.05-0.425-2-1.07-2.8-1.896c-0.825-0.8-1.479-1.75-1.925-2.8
		C-388.916-18.585-389.141-19.735-389.141-20.96z"/>
</g>
<g id="g13777" transform="matrix(0.5,0,0,0.5,20.595592,12.842386)">
	
		<path id="path13775" inkscape:connector-curvature="0" sodipodi:nodetypes="ccccssscscscsscsscscsssccsc" fill="#FF3300" stroke="#999999" stroke-width="0.5" stroke-linecap="round" stroke-linejoin="round" stroke-miterlimit="10" d="
		M-530.191-218.808c0,1.225,0.229,2.375,0.678,3.475c0.447,1.051,1.103,2,1.927,2.801c0.8,0.824,1.75,1.477,2.799,1.898
		c1.125,0.477,2.25,0.701,3.476,0.701h264.124c0.604,0,1.186-0.057,1.756-0.172c0.569-0.115,1.137-0.291,1.695-0.529
		c0.524-0.211,1.024-0.48,1.496-0.799s0.916-0.689,1.328-1.1c0.398-0.4,0.757-0.84,1.067-1.309c0.313-0.469,0.581-0.969,0.808-1.492
		c0.238-0.551,0.414-1.113,0.529-1.691c0.111-0.578,0.766-1.637,0.172-1.783v-9.951v-9.949c0-1.238-0.214-2.375-0.646-3.422
		c-0.429-1.047-1.069-2.002-1.935-2.879c-0.412-0.398-0.856-0.762-1.328-1.078c-0.472-0.313-0.972-0.582-1.496-0.797
		c-0.563-0.234-1.126-0.41-1.696-0.527c-0.569-0.113-1.15-0.172-1.754-0.172h-264.126c-2.475,0-4.55,0.852-6.271,2.574
		c-0.825,0.826-1.479,1.777-1.927,2.826c-0.448,1.1-0.678,2.25-0.678,3.475L-530.191-218.808"/>
</g>
<path fill="#79CDD1" d="M-183.373-139.084c-1.162-1.141-2.553-1.722-4.167-1.722h-35.702h-1.199h-22.031
	c-1.639,0-3.026,0.582-4.167,1.722c-1.141,1.16-1.722,2.529-1.722,4.168v13.228c0,1.64,0.581,3.008,1.722,4.147
	c1.141,1.153,2.529,1.735,4.167,1.735h22.031h1.199h35.702c1.616,0,3.006-0.573,4.167-1.735c1.14-1.146,1.699-2.515,1.699-4.147
	v-13.228C-181.672-136.556-182.232-137.924-183.373-139.084z"/>
<path fill="#79CDD1" d="M-2.829-139.083c-1.162-1.142-2.553-1.723-4.166-1.723h-35.703h-1.198h-22.031
	c-1.64,0-3.026,0.582-4.166,1.723c-1.142,1.159-1.724,2.528-1.724,4.168v13.228c0,1.64,0.582,3.008,1.724,4.146
	c1.142,1.153,2.528,1.735,4.166,1.735h22.031h1.198h35.703c1.613,0,3.006-0.573,4.166-1.735c1.141-1.146,1.697-2.516,1.697-4.146
	v-13.228C-1.13-136.556-1.69-137.924-2.829-139.083z"/>
<path fill="#63A5A5" d="M-59.321-139.083c-1.162-1.142-2.551-1.723-4.166-1.723H-85.52h-1.199h-22.03
	c-1.64,0-3.027,0.582-4.168,1.723c-1.141,1.159-1.722,2.528-1.722,4.168v13.228c0,1.64,0.581,3.008,1.722,4.146
	c1.141,1.153,2.529,1.735,4.167,1.735h22.031h1.199h22.03c1.617,0,3.006-0.573,4.168-1.735c1.141-1.146,1.699-2.516,1.699-4.146
	v-13.228C-57.622-136.556-58.181-137.924-59.321-139.083z"/>
<g>
	<path fill="#CCCCCC" d="M108.345-141.93c-1.162-1.141-2.553-1.722-4.166-1.722H68.476h-1.199H45.245
		c-1.639,0-3.021,0.582-4.166,1.722c-1.141,1.16-1.723,2.529-1.723,4.167v13.228c0,1.64,0.582,3.008,1.723,4.147
		c1.146,1.153,2.529,1.735,4.166,1.735h22.031h1.199h35.703c1.615,0,3.006-0.573,4.166-1.735c1.141-1.146,1.699-2.516,1.699-4.147
		v-13.228C110.044-139.402,109.485-140.771,108.345-141.93z"/>
	<path fill="#CCCCCC" d="M122.345-141.93c-1.162-1.141-2.553-1.722-4.166-1.722H82.476h-1.199h-22.03
		c-1.64,0-3.021,0.582-4.166,1.722c-1.142,1.16-1.724,2.529-1.724,4.167v13.228c0,1.64,0.582,3.008,1.724,4.147
		c1.145,1.153,2.528,1.735,4.166,1.735h22.03h1.199h35.703c1.615,0,3.006-0.573,4.166-1.735c1.141-1.146,1.699-2.516,1.699-4.147
		v-13.228C124.044-139.402,123.485-140.771,122.345-141.93z"/>
	<text transform="matrix(0.9103 0 0 1 45.8535 -124.0293)" fill="#DEDEE0" font-family="'Bahnschrift'" font-size="19.5648"> DUPLEX </text>
</g>
</svg>
