<?xml version="1.0" encoding="UTF-8" standalone="no"?>
<!-- Generator: Adobe Illustrator 16.0.2, SVG Export Plug-In . SVG Version: 6.00 Build 0)  -->

<svg
   xmlns:dc="http://purl.org/dc/elements/1.1/"
   xmlns:cc="http://creativecommons.org/ns#"
   xmlns:rdf="http://www.w3.org/1999/02/22-rdf-syntax-ns#"
   xmlns:svg="http://www.w3.org/2000/svg"
   xmlns="http://www.w3.org/2000/svg"
   xmlns:xlink="http://www.w3.org/1999/xlink"
   xmlns:sodipodi="http://sodipodi.sourceforge.net/DTD/sodipodi-0.dtd"
   xmlns:inkscape="http://www.inkscape.org/namespaces/inkscape"
   version="1.1"
   id="Ñëîé_1"
   x="0px"
   y="0px"
   width="552.30383"
   height="506.50946"
   viewBox="0 0 552.30383 506.50946"
   enable-background="new 0 0 450 400"
   xml:space="preserve"
   sodipodi:docname="coffee512.svg"
   inkscape:version="0.92.3 (2405546, 2018-03-11)"><metadata
   id="metadata1904"><rdf:RDF><cc:Work
       rdf:about=""><dc:format>image/svg+xml</dc:format><dc:type
         rdf:resource="http://purl.org/dc/dcmitype/StillImage" /></cc:Work></rdf:RDF></metadata><defs
   id="defs1902" /><sodipodi:namedview
   pagecolor="#ffffff"
   bordercolor="#666666"
   borderopacity="1"
   objecttolerance="10"
   gridtolerance="10"
   guidetolerance="10"
   inkscape:pageopacity="0"
   inkscape:pageshadow="2"
   inkscape:window-width="1920"
   inkscape:window-height="1057"
   id="namedview1900"
   showgrid="false"
   inkscape:zoom="0.59"
   inkscape:cx="627.2009"
   inkscape:cy="211.104"
   inkscape:window-x="-8"
   inkscape:window-y="-8"
   inkscape:window-maximized="1"
   inkscape:current-layer="Ñëîé_1"
   inkscape:snap-page="true"
   inkscape:snap-grids="true" />
<path
   id="path71"
   clip-path="none"
   style="display:inline;vector-effect:none;fill:#ff00ff;fill-opacity:1;stroke:#cccccc;stroke-width:1.04949999;stroke-linecap:butt;stroke-linejoin:miter;stroke-miterlimit:3.86360002;stroke-dasharray:none;stroke-dashoffset:0;stroke-opacity:1"
   inkscape:label="path111"
   d="m 122.75792,99.82973 c -1.23681,0 -2.24024,1.028 -2.24024,2.29493 v 239.34773 c 0,1.26827 1.00343,2.29493 2.24024,2.29493 h 297.08399 c 1.23681,0 2.23828,-1.02666 2.23828,-2.29493 V 102.12466 c 0,-1.26693 -1.00147,-2.29493 -2.23828,-2.29493 z"
   inkscape:connector-curvature="0" /><text
   xml:space="preserve"
   transform="scale(0.98791065,1.0122373)"
   style="font-variant:normal;font-weight:normal;font-size:94.46679688px;font-family:'Arial Rounded MT Bold';-inkscape-font-specification:ArialRoundedMTBold;writing-mode:lr-tb;display:inline;fill:#aaccff;fill-opacity:1;fill-rule:nonzero;stroke:none;stroke-width:1.31203866"
   id="text197"
   x="135.09496"
   y="191.23778"
   inkscape:label="text111"><tspan
     x="135.09496"
     sodipodi:role="line"
     id="tspan195"
     y="191.23778"
     style="fill:#aaccff;fill-opacity:1;stroke-width:1.31203866">511.</tspan></text>
<text
   xml:space="preserve"
   transform="scale(0.98791065,1.0122373)"
   style="font-variant:normal;font-weight:normal;font-size:94.46679688px;line-height:0.28;font-family:'Arial Rounded MT Bold';-inkscape-font-specification:ArialRoundedMTBold;writing-mode:lr-tb;display:inline;fill:#aaccff;fill-opacity:1;fill-rule:nonzero;stroke:none;stroke-width:1.31203878"
   id="text197-4"
   x="140.84373"
   y="231.09062"
   inkscape:label="text111"><tspan
     x="140.84373"
     sodipodi:role="line"
     id="tspan195-5"
     y="231.09062"
     style="font-size:42.66667175px;line-height:0.28;fill:#aaccff;stroke-width:1.31203878">CONCEPTO </tspan><tspan
     x="140.84373"
     sodipodi:role="line"
     y="264.59436"
     style="font-size:42.66667175px;line-height:0.28;fill:#aaccff;stroke-width:1.31203878"
     id="tspan917">LA GRANJA</tspan></text>

<path
   d="M 0,0 H 552.30385 V 506.50945 H 0 Z"
   style="display:inline;fill:#f0f0fa;fill-opacity:1;fill-rule:evenodd;stroke:none;stroke-width:0.48054135"
   id="path21"
   inkscape:label="bg13"
   inkscape:connector-curvature="0" /><g
   id="g1897"
   transform="translate(52.2009,46.252908)">
	<defs
   id="defs1722"><rect
     id="SVGID_1_"
     width="450"
     height="400"
     x="0"
     y="0" /></defs>
	<use
   xlink:href="#SVGID_1_"
   overflow="visible"
   id="use1724"
   style="overflow:visible;fill:#fbf2d3"
   x="0"
   y="0"
   width="100%"
   height="100%" />
	<clipPath
   id="SVGID_2_">
		<use
   xlink:href="#SVGID_1_"
   overflow="visible"
   id="use1726"
   style="overflow:visible"
   x="0"
   y="0"
   width="100%"
   height="100%" />
	</clipPath>
	<g
   clip-path="url(#SVGID_2_)"
   id="g1893">
		<g
   id="g1735">
			<path
   d="m 55.396,194.91 67.28,-46.317 c 6.645,-4.609 14.809,-4.3 18.286,0.661 3.478,5.005 0.922,12.772 -5.735,17.392 l -2.295,1.607 -44.224,30.735 c 0.562,0.615 1.137,1.322 1.692,1.955 l 30.349,-21.703 23.458,-4.832 c 11.343,-1.293 15.494,-3.478 18.949,1.495 3.485,4.988 0.247,11.939 -6.405,16.556 l -25.584,6.309 -27.201,19.519 c 0.133,0.184 0.246,0.335 0.372,0.508 0.288,0.397 0.5,0.76 0.785,1.166 l 46.847,-22.268 c 9.623,-2.352 14.857,-3.071 17.297,2.474 1.866,4.249 1.702,9.142 -4.917,13.753 l -47.476,24.634 c 0.262,0.483 0.549,0.971 0.815,1.45 l 33.722,-12.213 c 5.777,-1.619 7.565,-1.7 10.37,1.838 3.781,4.774 2.91,11.371 -1.237,14.271 L 120.9,264.871 97.525,281.356 c -0.258,0.179 -20.677,16.412 -20.94,16.558 -12.639,6.373 -22.5,8.514 -22.5,8.514 C 46.907,308.075 39.178,296.63 23.82,275.954 9.509,256.652 4.519,250.841 6.643,244.347 c 0,0 3.158,-6.258 7.719,-16.528 17.204,-18.306 22.011,-20.988 41.034,-32.909 z"
   id="path1729"
   inkscape:connector-curvature="0"
   style="fill:#edc9a9" />
			<polygon
   points="-9.132,247.513 46.678,320.575 56.887,312.756 1.103,239.709 "
   id="polygon1731"
   style="fill:#ffffff" />
			<polygon
   points="-60.914,411.104 53.283,324.679 -8.475,243.765 -60.914,282.687 "
   id="polygon1733"
   style="fill:#48474a" />
		</g>
		<g
   id="g1749">
			<path
   d="m 358.203,85.069 c 4.598,-0.001 8.353,4.379 8.349,9.73 l -0.128,179.738 c -0.006,5.354 -3.77,9.74 -8.366,9.74 L 93.039,284.31 c -4.596,-0.002 -8.354,-4.38 -8.35,-9.733 L 84.82,94.843 c 0.004,-5.356 3.766,-9.735 8.361,-9.742 z"
   id="path1737"
   inkscape:connector-curvature="0"
   style="fill:#48474a" />
			<polygon
   points="340.515,97.13 340.386,272.221 111.514,272.252 111.641,97.162 "
   id="polygon1739"
   style="fill:#ffffff" />
			<polygon
   points="340.515,97.13 340.386,272.221 110.566,272.252 110.695,97.161 "
   id="polygon1741"
   style="fill:#ffffff" />
			<path
   d="m 99.425,153.582 c 1.035,0.001 1.877,0.637 1.878,1.411 l -0.063,59.471 c 0,0.775 -0.846,1.411 -1.875,1.411 -1.036,-0.002 -1.878,-0.639 -1.878,-1.407 L 97.55,154.99 c 0.001,-0.772 0.844,-1.408 1.875,-1.408 z"
   id="path1743"
   inkscape:connector-curvature="0"
   style="opacity:0.41999996;fill:#fafdff" />
			<path
   d="m 355.741,178.753 c 0.831,0 1.499,0.638 1.501,1.422 l -0.01,8.953 c 0,0.781 -0.672,1.421 -1.496,1.422 l -6.113,-0.002 c -0.824,0.003 -1.501,-0.635 -1.504,-1.42 l 0.011,-8.955 c -10e-4,-0.786 0.677,-1.421 1.501,-1.422 z"
   id="path1745"
   inkscape:connector-curvature="0"
   style="opacity:0.41999996;fill:#fafdff" />
			<path
   d="m 99.1,112.031 c 1.838,-0.001 3.326,1.734 3.322,3.872 0,2.139 -1.493,3.871 -3.326,3.871 -1.839,0 -3.324,-1.729 -3.324,-3.867 0,-2.142 1.492,-3.874 3.328,-3.876 z"
   id="path1747"
   inkscape:connector-curvature="0"
   style="opacity:0.41999996;fill:#fafdff" />
		</g>
		<g
   id="g1829">
			<rect
   x="114.667"
   y="101.668"
   width="221.448"
   height="24.562"
   id="rect1751"
   style="fill:#74a3d0" />
			<rect
   x="278.49399"
   y="110.359"
   width="9.6400003"
   height="7.5229998"
   id="rect1753"
   style="fill:#a9c1e4" />
			<rect
   x="183.69701"
   y="110.625"
   width="15.421"
   height="7.5229998"
   id="rect1755"
   style="fill:#ffffff" />
			<rect
   x="142.74899"
   y="110.625"
   width="15.422"
   height="7.5229998"
   id="rect1757"
   style="fill:#a9c1e4" />
			<rect
   x="175.408"
   y="110.706"
   width="78.601997"
   height="7.5229998"
   id="rect1759"
   style="fill:#ffffff" />
			<rect
   x="245.92799"
   y="110.706"
   width="8.0819998"
   height="7.5229998"
   id="rect1761"
   style="fill:#c8dced" />
			<rect
   x="119.999"
   y="107.957"
   width="15.057"
   height="13.021"
   id="rect1763"
   style="fill:#a9c1e4" />
			<rect
   x="115.785"
   y="132.96201"
   width="48.726002"
   height="56.360001"
   id="rect1765"
   style="fill:#a8c2e1" />
			<rect
   x="116.179"
   y="192.78101"
   width="48.727001"
   height="7.5279999"
   id="rect1767"
   style="fill:#cfdbf0" />
			<rect
   x="116.179"
   y="205.063"
   width="48.727001"
   height="7.527"
   id="rect1769"
   style="fill:#cfdbf0" />
			<rect
   x="116.179"
   y="217.343"
   width="48.727001"
   height="7.5279999"
   id="rect1771"
   style="fill:#cfdbf0" />
			<rect
   x="116.179"
   y="229.62199"
   width="48.727001"
   height="7.5279999"
   id="rect1773"
   style="fill:#cfdbf0" />
			<polygon
   points="164.906,241.903 164.906,262.107 134.007,262.107 122.122,268.842 122.519,262.107 116.179,262.107 116.179,241.903 "
   id="polygon1775"
   style="fill:#d2e1f2" />
			<rect
   x="169.66"
   y="144.119"
   width="116.468"
   height="7.388"
   id="rect1777"
   style="fill:#a8c2e1" />
			<rect
   x="169.439"
   y="157.715"
   width="116.468"
   height="60.785"
   id="rect1779"
   style="fill:#b6cde7" />
			<rect
   x="169.439"
   y="239.14301"
   width="116.468"
   height="22.957001"
   id="rect1781"
   style="fill:#b6cde7" />
			<rect
   x="169.48"
   y="222.563"
   width="114.457"
   height="3.9809999"
   id="rect1783"
   style="fill:#d2e1f2" />
			<rect
   x="169.48"
   y="230.903"
   width="114.457"
   height="3.9820001"
   id="rect1785"
   style="fill:#d2e1f2" />
			<g
   id="g1797">
				<rect
   x="289.76401"
   y="132.96201"
   width="7.8660002"
   height="7.132"
   id="rect1787"
   style="fill:#a8c2e1" />
				<rect
   x="289.76401"
   y="144.84801"
   width="7.8660002"
   height="7.131"
   id="rect1789"
   style="fill:#a8c2e1" />
				<rect
   x="289.76401"
   y="156.73199"
   width="7.8660002"
   height="7.132"
   id="rect1791"
   style="fill:#a8c2e1" />
				<rect
   x="289.76401"
   y="168.618"
   width="7.8660002"
   height="7.131"
   id="rect1793"
   style="fill:#a8c2e1" />
				<rect
   x="289.76401"
   y="180.504"
   width="7.8660002"
   height="7.1300001"
   id="rect1795"
   style="fill:#a8c2e1" />
			</g>
			<rect
   x="289.36801"
   y="193.849"
   width="46.348999"
   height="30.5"
   id="rect1799"
   style="fill:#a8c2e1" />
			<rect
   x="289.76099"
   y="229.50301"
   width="46.348999"
   height="32.02"
   id="rect1801"
   style="fill:#d5e2f0" />
			<path
   d="m 267.011,117.288 -3.577,-2.425 c 0.097,-0.328 0.165,-0.666 0.165,-1.023 0,-1.992 -1.614,-3.606 -3.605,-3.606 -1.991,0 -3.605,1.615 -3.605,3.606 0,1.988 1.614,3.604 3.605,3.604 1.083,0 2.043,-0.489 2.704,-1.247 l 3.462,2.348 c 0.131,0.088 0.279,0.131 0.425,0.131 0.242,0 0.483,-0.118 0.629,-0.334 0.233,-0.348 0.143,-0.819 -0.203,-1.054 z m -7.018,-0.677 c -1.531,0 -2.771,-1.241 -2.771,-2.771 0,-1.533 1.24,-2.773 2.771,-2.773 1.53,0 2.771,1.24 2.771,2.773 0,0.25 -0.042,0.491 -0.107,0.724 -0.216,0.021 -0.419,0.126 -0.549,0.318 -0.16,0.238 -0.155,0.531 -0.034,0.771 -0.509,0.58 -1.248,0.958 -2.081,0.958 z"
   id="path1803"
   inkscape:connector-curvature="0"
   style="fill:#c8dced" />
			<g
   id="g1827">
				<g
   id="g1825">
					<path
   d="m 175.713,139.614 c 0,0.066 -0.003,0.123 -0.011,0.167 -0.007,0.045 -0.017,0.083 -0.032,0.115 -0.015,0.032 -0.033,0.054 -0.056,0.069 -0.022,0.015 -0.046,0.023 -0.077,0.023 h -2.854 c -0.076,0 -0.149,-0.025 -0.216,-0.075 -0.069,-0.054 -0.102,-0.145 -0.102,-0.274 v -5.979 c 0,-0.028 0.005,-0.05 0.019,-0.07 0.014,-0.019 0.038,-0.035 0.07,-0.046 0.034,-0.013 0.079,-0.021 0.134,-0.031 0.058,-0.007 0.126,-0.013 0.207,-0.013 0.082,0 0.151,0.005 0.205,0.013 0.055,0.01 0.1,0.018 0.134,0.031 0.032,0.012 0.056,0.028 0.069,0.046 0.014,0.021 0.02,0.042 0.02,0.07 v 5.584 h 2.316 c 0.03,0 0.055,0.007 0.077,0.022 0.022,0.015 0.041,0.037 0.056,0.066 0.015,0.029 0.025,0.065 0.032,0.111 0.005,0.048 0.009,0.105 0.009,0.171 z"
   id="path1805"
   inkscape:connector-curvature="0"
   style="fill:#74a3d0" />
					<path
   d="m 180.742,137.568 c 0,0.366 -0.049,0.702 -0.145,1.011 -0.097,0.308 -0.239,0.574 -0.431,0.796 -0.19,0.222 -0.43,0.397 -0.718,0.521 -0.289,0.125 -0.622,0.187 -1.001,0.187 -0.368,0 -0.69,-0.054 -0.965,-0.165 -0.274,-0.111 -0.504,-0.268 -0.686,-0.479 -0.184,-0.209 -0.32,-0.463 -0.41,-0.765 -0.089,-0.297 -0.135,-0.638 -0.135,-1.017 0,-0.365 0.048,-0.703 0.144,-1.01 0.095,-0.309 0.237,-0.574 0.428,-0.797 0.191,-0.222 0.43,-0.396 0.718,-0.517 0.285,-0.125 0.62,-0.185 1.002,-0.185 0.369,0 0.691,0.054 0.966,0.165 0.273,0.109 0.503,0.27 0.685,0.479 0.184,0.209 0.32,0.463 0.412,0.764 0.091,0.298 0.136,0.636 0.136,1.012 z m -0.853,0.055 c 0,-0.244 -0.023,-0.474 -0.067,-0.689 -0.046,-0.215 -0.121,-0.406 -0.224,-0.568 -0.106,-0.163 -0.247,-0.292 -0.423,-0.388 -0.178,-0.094 -0.4,-0.142 -0.666,-0.142 -0.243,0 -0.455,0.043 -0.632,0.13 -0.175,0.086 -0.321,0.209 -0.436,0.368 -0.113,0.158 -0.198,0.344 -0.253,0.561 -0.056,0.215 -0.083,0.453 -0.083,0.709 0,0.245 0.023,0.478 0.068,0.694 0.044,0.215 0.12,0.404 0.227,0.565 0.105,0.161 0.247,0.29 0.424,0.384 0.178,0.095 0.4,0.144 0.666,0.144 0.241,0 0.45,-0.044 0.629,-0.13 0.178,-0.087 0.323,-0.209 0.436,-0.366 0.115,-0.154 0.2,-0.341 0.252,-0.558 0.056,-0.218 0.082,-0.455 0.082,-0.714 z"
   id="path1807"
   inkscape:connector-curvature="0"
   style="fill:#74a3d0" />
					<path
   d="m 184.58,135.666 c 0,0.074 -0.001,0.135 -0.004,0.185 -0.006,0.051 -0.01,0.091 -0.021,0.12 -0.01,0.027 -0.022,0.048 -0.037,0.064 -0.014,0.015 -0.036,0.022 -0.062,0.022 -0.026,0 -0.06,-0.007 -0.098,-0.022 -0.038,-0.016 -0.082,-0.03 -0.128,-0.044 -0.049,-0.016 -0.104,-0.03 -0.163,-0.043 -0.059,-0.013 -0.124,-0.02 -0.194,-0.02 -0.084,0 -0.167,0.019 -0.245,0.051 -0.08,0.033 -0.164,0.086 -0.252,0.163 -0.087,0.079 -0.182,0.18 -0.278,0.305 -0.095,0.126 -0.202,0.282 -0.318,0.464 v 2.955 c 0,0.027 -0.007,0.05 -0.021,0.067 -0.013,0.018 -0.034,0.035 -0.065,0.047 -0.029,0.013 -0.07,0.023 -0.124,0.031 -0.053,0.005 -0.121,0.009 -0.205,0.009 -0.08,0 -0.146,-0.004 -0.2,-0.009 -0.053,-0.007 -0.095,-0.018 -0.126,-0.031 -0.032,-0.013 -0.054,-0.029 -0.065,-0.047 -0.011,-0.018 -0.017,-0.041 -0.017,-0.067 v -4.491 c 0,-0.024 0.003,-0.048 0.016,-0.065 0.01,-0.021 0.029,-0.037 0.059,-0.052 0.031,-0.016 0.067,-0.026 0.116,-0.031 0.046,-0.005 0.108,-0.006 0.184,-0.006 0.073,0 0.135,0.001 0.182,0.006 0.049,0.005 0.086,0.015 0.113,0.031 0.026,0.015 0.045,0.031 0.057,0.052 0.012,0.017 0.018,0.041 0.018,0.065 v 0.653 c 0.123,-0.178 0.238,-0.324 0.347,-0.438 0.107,-0.113 0.21,-0.202 0.306,-0.267 0.097,-0.065 0.193,-0.11 0.288,-0.136 0.096,-0.023 0.191,-0.036 0.288,-0.036 0.042,0 0.092,0.002 0.147,0.007 0.054,0.006 0.112,0.014 0.171,0.028 0.061,0.013 0.114,0.029 0.163,0.044 0.047,0.019 0.081,0.034 0.103,0.051 0.018,0.015 0.032,0.032 0.04,0.047 0.005,0.014 0.011,0.034 0.018,0.057 0.005,0.023 0.007,0.057 0.008,0.103 -0.002,0.042 -10e-4,0.101 -10e-4,0.178 z"
   id="path1809"
   inkscape:connector-curvature="0"
   style="fill:#74a3d0" />
					<path
   d="m 189.216,137.423 c 0,0.13 -0.033,0.222 -0.099,0.277 -0.064,0.054 -0.139,0.082 -0.223,0.082 h -2.958 c 0,0.25 0.025,0.473 0.075,0.672 0.051,0.201 0.134,0.373 0.251,0.515 0.118,0.145 0.27,0.253 0.457,0.33 0.188,0.077 0.416,0.115 0.687,0.115 0.214,0 0.405,-0.018 0.572,-0.053 0.167,-0.035 0.312,-0.073 0.434,-0.117 0.123,-0.042 0.222,-0.082 0.301,-0.116 0.077,-0.037 0.137,-0.053 0.178,-0.053 0.023,0 0.044,0.004 0.063,0.016 0.017,0.012 0.032,0.03 0.042,0.053 0.009,0.023 0.016,0.057 0.023,0.097 0.003,0.042 0.006,0.092 0.006,0.153 0,0.043 -0.002,0.082 -0.004,0.112 -0.004,0.03 -0.007,0.061 -0.013,0.084 -0.004,0.024 -0.014,0.047 -0.025,0.067 -0.012,0.02 -0.027,0.039 -0.045,0.056 -0.017,0.017 -0.072,0.049 -0.163,0.09 -0.088,0.042 -0.205,0.083 -0.348,0.122 -0.143,0.042 -0.309,0.076 -0.497,0.108 -0.188,0.031 -0.388,0.047 -0.602,0.047 -0.369,0 -0.691,-0.051 -0.971,-0.155 -0.278,-0.102 -0.51,-0.255 -0.7,-0.46 -0.19,-0.201 -0.333,-0.455 -0.429,-0.762 -0.097,-0.306 -0.146,-0.662 -0.146,-1.068 0,-0.386 0.051,-0.732 0.15,-1.04 0.101,-0.307 0.244,-0.569 0.432,-0.784 0.188,-0.213 0.414,-0.377 0.681,-0.493 0.266,-0.114 0.563,-0.172 0.894,-0.172 0.353,0 0.651,0.057 0.899,0.167 0.248,0.115 0.453,0.268 0.613,0.458 0.158,0.189 0.276,0.417 0.35,0.675 0.077,0.257 0.113,0.532 0.113,0.825 v 0.152 z m -0.829,-0.245 c 0.009,-0.431 -0.087,-0.77 -0.289,-1.017 -0.203,-0.247 -0.503,-0.369 -0.902,-0.369 -0.205,0 -0.383,0.037 -0.537,0.114 -0.154,0.076 -0.283,0.178 -0.387,0.306 -0.104,0.125 -0.184,0.272 -0.24,0.441 -0.058,0.168 -0.088,0.343 -0.096,0.525 z"
   id="path1811"
   inkscape:connector-curvature="0"
   style="fill:#74a3d0" />
					<path
   d="m 197.129,139.863 c 0,0.027 -0.006,0.05 -0.02,0.067 -0.013,0.018 -0.033,0.035 -0.063,0.047 -0.031,0.013 -0.073,0.023 -0.126,0.031 -0.053,0.005 -0.118,0.009 -0.197,0.009 -0.085,0 -0.153,-0.004 -0.207,-0.009 -0.052,-0.007 -0.097,-0.018 -0.127,-0.031 -0.033,-0.013 -0.054,-0.029 -0.067,-0.047 -0.013,-0.018 -0.02,-0.041 -0.02,-0.067 v -2.729 c 0,-0.19 -0.017,-0.363 -0.051,-0.52 -0.033,-0.156 -0.086,-0.291 -0.159,-0.403 -0.073,-0.115 -0.167,-0.201 -0.278,-0.261 -0.113,-0.061 -0.247,-0.089 -0.399,-0.089 -0.19,0 -0.381,0.072 -0.572,0.219 -0.191,0.145 -0.401,0.36 -0.631,0.644 v 3.139 c 0,0.027 -0.008,0.05 -0.021,0.067 -0.014,0.018 -0.035,0.035 -0.067,0.047 -0.032,0.013 -0.074,0.023 -0.127,0.031 -0.054,0.005 -0.121,0.009 -0.2,0.009 -0.077,0 -0.143,-0.004 -0.196,-0.009 -0.057,-0.007 -0.099,-0.018 -0.131,-0.031 -0.032,-0.013 -0.052,-0.029 -0.064,-0.047 -0.011,-0.018 -0.018,-0.041 -0.018,-0.067 v -2.729 c 0,-0.19 -0.02,-0.363 -0.055,-0.52 -0.038,-0.156 -0.091,-0.291 -0.164,-0.403 -0.076,-0.115 -0.167,-0.201 -0.277,-0.261 -0.112,-0.061 -0.245,-0.089 -0.397,-0.089 -0.19,0 -0.38,0.072 -0.575,0.219 -0.193,0.145 -0.404,0.36 -0.628,0.644 v 3.139 c 0,0.027 -0.007,0.05 -0.021,0.067 -0.013,0.018 -0.034,0.035 -0.064,0.047 -0.03,0.013 -0.071,0.023 -0.125,0.031 -0.053,0.005 -0.121,0.009 -0.204,0.009 -0.08,0 -0.146,-0.004 -0.201,-0.009 -0.052,-0.007 -0.094,-0.018 -0.126,-0.031 -0.031,-0.013 -0.054,-0.029 -0.065,-0.047 -0.012,-0.018 -0.017,-0.041 -0.017,-0.067 v -4.491 c 0,-0.024 0.004,-0.048 0.015,-0.065 0.01,-0.021 0.03,-0.037 0.06,-0.052 0.029,-0.016 0.066,-0.026 0.114,-0.031 0.046,-0.005 0.109,-0.006 0.183,-0.006 0.075,0 0.136,0.001 0.183,0.006 0.049,0.005 0.086,0.015 0.113,0.031 0.026,0.015 0.045,0.031 0.058,0.052 0.012,0.017 0.018,0.041 0.018,0.065 v 0.594 c 0.252,-0.282 0.497,-0.489 0.735,-0.622 0.237,-0.13 0.479,-0.196 0.722,-0.196 0.185,0 0.352,0.021 0.502,0.064 0.147,0.042 0.277,0.103 0.391,0.183 0.113,0.077 0.209,0.171 0.288,0.278 0.082,0.11 0.148,0.229 0.201,0.362 0.148,-0.163 0.292,-0.302 0.427,-0.413 0.135,-0.114 0.266,-0.207 0.391,-0.275 0.125,-0.069 0.245,-0.121 0.363,-0.152 0.12,-0.031 0.237,-0.047 0.356,-0.047 0.289,0 0.533,0.05 0.729,0.152 0.196,0.101 0.355,0.237 0.476,0.405 0.122,0.17 0.208,0.37 0.26,0.598 0.052,0.227 0.077,0.468 0.077,0.719 v 2.841 z"
   id="path1813"
   inkscape:connector-curvature="0"
   style="fill:#74a3d0" />
					<path
   d="m 201.896,139.858 c 0,0.027 -0.007,0.049 -0.021,0.069 -0.014,0.02 -0.036,0.035 -0.068,0.048 -0.033,0.011 -0.078,0.021 -0.133,0.03 -0.054,0.008 -0.125,0.012 -0.208,0.012 -0.079,0 -0.147,-0.004 -0.204,-0.012 -0.056,-0.009 -0.103,-0.019 -0.136,-0.03 -0.033,-0.013 -0.056,-0.028 -0.068,-0.048 -0.013,-0.02 -0.021,-0.042 -0.021,-0.069 v -6.198 c 0,-0.028 0.007,-0.05 0.021,-0.07 0.017,-0.019 0.041,-0.035 0.077,-0.046 0.036,-0.013 0.08,-0.021 0.135,-0.031 0.054,-0.007 0.119,-0.013 0.196,-0.013 0.083,0 0.153,0.005 0.208,0.013 0.055,0.01 0.1,0.018 0.133,0.031 0.033,0.012 0.055,0.028 0.068,0.046 0.014,0.021 0.021,0.042 0.021,0.07 z"
   id="path1815"
   inkscape:connector-curvature="0"
   style="fill:#74a3d0" />
					<path
   d="m 207.65,137.548 c 0,0.393 -0.043,0.745 -0.129,1.059 -0.085,0.312 -0.209,0.576 -0.375,0.794 -0.163,0.217 -0.369,0.386 -0.61,0.504 -0.245,0.119 -0.521,0.178 -0.833,0.178 -0.134,0 -0.257,-0.013 -0.37,-0.04 -0.113,-0.026 -0.225,-0.068 -0.333,-0.125 -0.108,-0.057 -0.215,-0.129 -0.322,-0.215 -0.106,-0.085 -0.219,-0.187 -0.339,-0.303 v 2.245 c 0,0.027 -0.008,0.051 -0.021,0.07 -0.013,0.021 -0.035,0.036 -0.064,0.051 -0.03,0.014 -0.072,0.022 -0.125,0.029 -0.054,0.007 -0.122,0.009 -0.205,0.009 -0.08,0 -0.146,-0.002 -0.201,-0.009 -0.053,-0.007 -0.094,-0.015 -0.126,-0.029 -0.031,-0.015 -0.054,-0.03 -0.063,-0.051 -0.012,-0.019 -0.019,-0.043 -0.019,-0.07 v -6.272 c 0,-0.03 0.004,-0.053 0.014,-0.071 0.012,-0.019 0.03,-0.036 0.06,-0.049 0.031,-0.012 0.068,-0.022 0.116,-0.027 0.046,-0.005 0.102,-0.006 0.169,-0.006 0.071,0 0.126,0.001 0.174,0.006 0.044,0.005 0.082,0.015 0.11,0.027 0.031,0.013 0.053,0.03 0.064,0.049 0.01,0.019 0.017,0.041 0.017,0.071 v 0.605 c 0.136,-0.141 0.268,-0.263 0.395,-0.365 0.126,-0.103 0.253,-0.188 0.38,-0.257 0.129,-0.068 0.259,-0.12 0.394,-0.155 0.135,-0.034 0.278,-0.051 0.428,-0.051 0.326,0 0.604,0.063 0.832,0.189 0.23,0.127 0.418,0.301 0.562,0.521 0.146,0.218 0.25,0.474 0.317,0.765 0.067,0.288 0.103,0.596 0.103,0.923 z m -0.855,0.094 c 0,-0.23 -0.018,-0.452 -0.052,-0.666 -0.036,-0.215 -0.097,-0.405 -0.181,-0.57 -0.086,-0.167 -0.2,-0.301 -0.343,-0.401 -0.146,-0.099 -0.325,-0.147 -0.538,-0.147 -0.106,0 -0.213,0.015 -0.316,0.045 -0.103,0.032 -0.209,0.082 -0.315,0.149 -0.109,0.07 -0.219,0.159 -0.337,0.27 -0.119,0.112 -0.242,0.249 -0.372,0.411 v 1.789 c 0.226,0.275 0.442,0.486 0.647,0.632 0.204,0.147 0.418,0.221 0.644,0.221 0.206,0 0.384,-0.049 0.534,-0.15 0.148,-0.101 0.269,-0.233 0.36,-0.398 0.091,-0.167 0.16,-0.354 0.203,-0.56 0.045,-0.207 0.066,-0.414 0.066,-0.625 z"
   id="path1817"
   inkscape:connector-curvature="0"
   style="fill:#74a3d0" />
					<path
   d="m 211.655,138.642 c 0,0.229 -0.042,0.433 -0.126,0.611 -0.085,0.181 -0.205,0.332 -0.362,0.456 -0.157,0.122 -0.342,0.216 -0.56,0.278 -0.215,0.063 -0.455,0.095 -0.714,0.095 -0.16,0 -0.313,-0.013 -0.456,-0.038 -0.146,-0.023 -0.275,-0.057 -0.389,-0.095 -0.115,-0.037 -0.212,-0.078 -0.293,-0.12 -0.08,-0.041 -0.138,-0.078 -0.173,-0.112 -0.038,-0.032 -0.064,-0.079 -0.08,-0.139 -0.016,-0.059 -0.025,-0.141 -0.025,-0.244 0,-0.062 0.001,-0.115 0.01,-0.159 0.005,-0.044 0.015,-0.08 0.024,-0.104 0.01,-0.028 0.023,-0.047 0.042,-0.058 0.019,-0.011 0.04,-0.019 0.063,-0.019 0.036,0 0.092,0.022 0.162,0.068 0.071,0.044 0.16,0.095 0.265,0.148 0.104,0.052 0.229,0.102 0.372,0.146 0.143,0.044 0.308,0.068 0.494,0.068 0.14,0 0.268,-0.015 0.379,-0.046 0.114,-0.031 0.211,-0.074 0.295,-0.133 0.082,-0.057 0.146,-0.131 0.191,-0.223 0.045,-0.089 0.067,-0.195 0.067,-0.318 0,-0.126 -0.033,-0.233 -0.096,-0.318 -0.066,-0.087 -0.151,-0.164 -0.258,-0.229 -0.106,-0.066 -0.227,-0.126 -0.36,-0.178 -0.131,-0.052 -0.269,-0.105 -0.412,-0.162 -0.14,-0.057 -0.279,-0.122 -0.412,-0.193 -0.137,-0.07 -0.257,-0.159 -0.362,-0.262 -0.106,-0.103 -0.193,-0.226 -0.258,-0.369 -0.066,-0.143 -0.096,-0.313 -0.096,-0.514 0,-0.176 0.033,-0.345 0.102,-0.506 0.066,-0.161 0.169,-0.303 0.308,-0.423 0.136,-0.122 0.307,-0.221 0.511,-0.293 0.204,-0.074 0.443,-0.109 0.715,-0.109 0.12,0 0.239,0.01 0.361,0.03 0.12,0.019 0.228,0.044 0.324,0.073 0.097,0.031 0.178,0.063 0.247,0.098 0.069,0.035 0.12,0.065 0.154,0.093 0.036,0.027 0.06,0.05 0.07,0.071 0.012,0.018 0.02,0.042 0.025,0.066 0.005,0.025 0.011,0.056 0.015,0.093 0.006,0.035 0.007,0.081 0.007,0.134 0,0.056 -10e-4,0.107 -0.007,0.147 -0.004,0.042 -0.014,0.078 -0.024,0.103 -0.011,0.026 -0.027,0.046 -0.043,0.057 -0.018,0.012 -0.036,0.019 -0.055,0.019 -0.029,0 -0.074,-0.02 -0.129,-0.056 -0.059,-0.037 -0.13,-0.076 -0.22,-0.117 -0.091,-0.042 -0.195,-0.081 -0.316,-0.117 -0.122,-0.036 -0.262,-0.055 -0.417,-0.055 -0.14,0 -0.263,0.014 -0.371,0.046 -0.105,0.031 -0.192,0.076 -0.263,0.136 -0.067,0.059 -0.117,0.126 -0.152,0.206 -0.036,0.079 -0.053,0.166 -0.053,0.261 0,0.128 0.032,0.237 0.1,0.325 0.065,0.087 0.153,0.167 0.258,0.232 0.107,0.067 0.229,0.127 0.365,0.179 0.136,0.053 0.275,0.108 0.417,0.166 0.142,0.056 0.28,0.119 0.419,0.188 0.137,0.07 0.26,0.156 0.366,0.255 0.105,0.1 0.192,0.22 0.257,0.36 0.066,0.139 0.097,0.307 0.097,0.501 z"
   id="path1819"
   inkscape:connector-curvature="0"
   style="fill:#74a3d0" />
					<path
   d="m 216.683,139.863 c 0,0.027 -0.009,0.05 -0.018,0.067 -0.013,0.018 -0.035,0.035 -0.063,0.047 -0.029,0.013 -0.07,0.023 -0.119,0.031 -0.046,0.005 -0.107,0.009 -0.175,0.009 -0.077,0 -0.141,-0.004 -0.187,-0.009 -0.047,-0.007 -0.087,-0.018 -0.116,-0.031 -0.029,-0.013 -0.048,-0.029 -0.058,-0.047 -0.008,-0.018 -0.015,-0.041 -0.015,-0.067 v -0.594 c -0.256,0.284 -0.51,0.49 -0.76,0.62 -0.248,0.129 -0.501,0.194 -0.756,0.194 -0.301,0 -0.551,-0.05 -0.757,-0.15 -0.205,-0.1 -0.371,-0.234 -0.496,-0.406 -0.128,-0.172 -0.216,-0.372 -0.271,-0.599 -0.057,-0.228 -0.083,-0.505 -0.083,-0.833 v -2.724 c 0,-0.024 0.007,-0.048 0.019,-0.065 0.012,-0.021 0.032,-0.037 0.065,-0.052 0.035,-0.016 0.079,-0.026 0.131,-0.031 0.053,-0.005 0.12,-0.006 0.2,-0.006 0.078,0 0.146,10e-4 0.198,0.006 0.054,0.005 0.098,0.015 0.128,0.031 0.032,0.015 0.055,0.031 0.067,0.052 0.014,0.017 0.018,0.041 0.018,0.065 v 2.615 c 0,0.263 0.021,0.475 0.059,0.632 0.038,0.158 0.097,0.294 0.175,0.403 0.078,0.113 0.178,0.2 0.296,0.26 0.119,0.062 0.261,0.093 0.418,0.093 0.207,0 0.412,-0.073 0.619,-0.221 0.205,-0.146 0.421,-0.36 0.649,-0.643 v -3.139 c 0,-0.024 0.005,-0.048 0.02,-0.065 0.009,-0.021 0.032,-0.037 0.068,-0.052 0.03,-0.016 0.075,-0.026 0.125,-0.031 0.051,-0.005 0.119,-0.006 0.201,-0.006 0.083,0 0.148,10e-4 0.203,0.006 0.054,0.005 0.093,0.015 0.124,0.031 0.03,0.015 0.051,0.031 0.067,0.052 0.015,0.017 0.024,0.041 0.024,0.065 z"
   id="path1821"
   inkscape:connector-curvature="0"
   style="fill:#74a3d0" />
					<path
   d="m 224.866,139.863 c 0,0.027 -0.01,0.05 -0.021,0.067 -0.015,0.018 -0.036,0.035 -0.064,0.047 -0.031,0.013 -0.074,0.023 -0.125,0.031 -0.055,0.005 -0.119,0.009 -0.2,0.009 -0.083,0 -0.15,-0.004 -0.204,-0.009 -0.051,-0.007 -0.096,-0.018 -0.127,-0.031 -0.032,-0.013 -0.054,-0.029 -0.068,-0.047 -0.013,-0.018 -0.021,-0.041 -0.021,-0.067 v -2.729 c 0,-0.19 -0.017,-0.363 -0.049,-0.52 -0.035,-0.156 -0.086,-0.291 -0.159,-0.403 -0.074,-0.115 -0.167,-0.201 -0.28,-0.261 -0.114,-0.061 -0.247,-0.089 -0.399,-0.089 -0.191,0 -0.382,0.072 -0.572,0.219 -0.191,0.145 -0.403,0.36 -0.631,0.644 v 3.139 c 0,0.027 -0.009,0.05 -0.021,0.067 -0.014,0.018 -0.038,0.035 -0.067,0.047 -0.032,0.013 -0.074,0.023 -0.126,0.031 -0.054,0.005 -0.121,0.009 -0.201,0.009 -0.077,0 -0.142,-0.004 -0.197,-0.009 -0.055,-0.007 -0.099,-0.018 -0.13,-0.031 -0.03,-0.013 -0.052,-0.029 -0.065,-0.047 -0.012,-0.018 -0.016,-0.041 -0.016,-0.067 v -2.729 c 0,-0.19 -0.021,-0.363 -0.056,-0.52 -0.036,-0.156 -0.09,-0.291 -0.165,-0.403 -0.073,-0.115 -0.165,-0.201 -0.277,-0.261 -0.114,-0.061 -0.244,-0.089 -0.395,-0.089 -0.192,0 -0.382,0.072 -0.577,0.219 -0.19,0.145 -0.403,0.36 -0.628,0.644 v 3.139 c 0,0.027 -0.008,0.05 -0.02,0.067 -0.013,0.018 -0.033,0.035 -0.064,0.047 -0.029,0.013 -0.071,0.023 -0.125,0.031 -0.054,0.005 -0.122,0.009 -0.205,0.009 -0.082,0 -0.147,-0.004 -0.201,-0.009 -0.054,-0.007 -0.093,-0.018 -0.127,-0.031 -0.03,-0.013 -0.052,-0.029 -0.063,-0.047 -0.011,-0.018 -0.018,-0.041 -0.018,-0.067 v -4.491 c 0,-0.024 0.005,-0.048 0.016,-0.065 0.008,-0.021 0.029,-0.037 0.058,-0.052 0.031,-0.016 0.07,-0.026 0.117,-0.031 0.046,-0.005 0.106,-0.006 0.185,-0.006 0.074,0 0.134,0.001 0.181,0.006 0.047,0.005 0.085,0.015 0.111,0.031 0.029,0.015 0.047,0.031 0.059,0.052 0.012,0.017 0.018,0.041 0.018,0.065 v 0.594 c 0.251,-0.282 0.497,-0.489 0.736,-0.622 0.235,-0.13 0.479,-0.196 0.721,-0.196 0.185,0 0.353,0.021 0.5,0.064 0.149,0.042 0.28,0.103 0.393,0.183 0.112,0.077 0.209,0.171 0.288,0.278 0.082,0.11 0.149,0.229 0.2,0.362 0.149,-0.163 0.293,-0.302 0.427,-0.413 0.136,-0.114 0.266,-0.207 0.389,-0.275 0.125,-0.069 0.246,-0.121 0.366,-0.152 0.118,-0.031 0.237,-0.047 0.356,-0.047 0.288,0 0.533,0.05 0.727,0.152 0.198,0.101 0.356,0.237 0.476,0.405 0.124,0.17 0.209,0.37 0.263,0.598 0.05,0.227 0.078,0.468 0.078,0.719 v 2.841 z"
   id="path1823"
   inkscape:connector-curvature="0"
   style="fill:#74a3d0" />
				</g>
			</g>
		</g>
		<rect
   x="286.63599"
   y="110.359"
   width="15.419"
   height="7.5229998"
   id="rect1831"
   style="fill:#d8e3f4" />
		<rect
   x="307.10901"
   y="110.359"
   width="15.42"
   height="7.5229998"
   id="rect1833"
   style="fill:#d8e3f4" />
		<rect
   x="290.927"
   y="135.82899"
   width="36.084999"
   height="1.739"
   id="rect1835"
   style="fill:#d8e3f4" />
		<rect
   x="290.979"
   y="138.259"
   width="16.271"
   height="1.74"
   id="rect1837"
   style="fill:#d8e3f4" />
		<rect
   x="292.16901"
   y="185.84"
   width="17.976"
   height="1.739"
   id="rect1839"
   style="fill:#d8e3f4" />
		<rect
   x="291.07401"
   y="150.01401"
   width="24.99"
   height="1.74"
   id="rect1841"
   style="fill:#d8e3f4" />
		<rect
   x="291.979"
   y="162.05"
   width="21.485001"
   height="1.7410001"
   id="rect1843"
   style="fill:#d8e3f4" />
		<rect
   x="291.979"
   y="174.08701"
   width="21.485001"
   height="1.739"
   id="rect1845"
   style="fill:#d8e3f4" />
		<rect
   x="290.927"
   y="147.53"
   width="36.084999"
   height="1.739"
   id="rect1847"
   style="fill:#d8e3f4" />
		<rect
   x="291.927"
   y="159.575"
   width="36.084999"
   height="1.739"
   id="rect1849"
   style="fill:#d8e3f4" />
		<rect
   x="292.021"
   y="171.603"
   width="36.085999"
   height="1.739"
   id="rect1851"
   style="fill:#d8e3f4" />
		<rect
   x="291.927"
   y="183.321"
   width="36.084999"
   height="1.739"
   id="rect1853"
   style="fill:#d8e3f4" />
		<rect
   x="290.06201"
   y="199.022"
   width="33.757"
   height="1.613"
   id="rect1855"
   style="fill:#ffffff" />
		<rect
   x="289.94"
   y="205.935"
   width="33.757"
   height="1.614"
   id="rect1857"
   style="fill:#ffffff" />
		<rect
   x="290.186"
   y="212.60001"
   width="33.757999"
   height="1.614"
   id="rect1859"
   style="fill:#ffffff" />
		<rect
   x="290.186"
   y="219.146"
   width="33.757999"
   height="1.613"
   id="rect1861"
   style="fill:#ffffff" />
		<g
   id="g1881">
			<g
   id="g1871">
				<g
   id="g1867">
					<path
   d="m 340.521,312.286 c -10.559,-0.595 -21.924,-14.403 -29.119,-20.739 -8.081,-7.101 -9.439,-17.479 -17.923,-24.373 -6.671,-5.406 -8.325,-11.95 1.283,-14.459 7.42,-1.954 15.962,5.026 21.724,8.896 6.954,4.66 15.75,22.692 24.181,25.294 8.381,2.597 18.563,-4.012 26.421,-5.996 11.593,-2.913 21.93,7.35 27.132,15.782 6.57,10.584 -2.479,20.867 -4.516,22.462 -8.361,6.638 -40.531,-6.388 -49.183,-6.867 z"
   id="path1863"
   inkscape:connector-curvature="0"
   style="fill:#edc6a4" />
					<path
   d="m 293.143,267.083 c 1.378,1.13 2.589,2.345 3.936,3.503 0.376,-0.438 0.898,-0.807 1.144,-1.366 1.99,-4.367 -1.385,-9.848 -7.537,-12.212 -0.719,-0.262 -1.407,-0.467 -2.121,-0.636 -0.079,0.002 -0.132,0.037 -0.212,0.043 -1.731,3.059 0.386,7.087 4.79,10.668 z"
   id="path1865"
   inkscape:connector-curvature="0"
   style="opacity:0.54000005;fill:#ffd8c7" />
				</g>
				<path
   d="m 288.132,257.598 c 1.085,-0.854 2.523,-1.597 4.572,-2.127 7.418,-1.956 15.957,5.018 21.721,8.89 6.955,4.66 15.744,22.695 24.179,25.292 8.387,2.603 18.565,-4.01 26.428,-5.992 11.596,-2.912 34.345,21.644 29.057,13.12 -5.212,-8.437 -15.531,-18.696 -27.13,-15.794 -7.858,1.988 -18.039,8.595 -26.432,6.002 -8.427,-2.597 -17.214,-20.628 -24.178,-25.299 -5.749,-3.867 -14.301,-10.845 -21.726,-8.891 -3.943,1.033 -5.921,2.765 -6.491,4.799 z"
   id="path1869"
   inkscape:connector-curvature="0"
   style="opacity:0.16000001;fill:#eec29d" />
			</g>
			<path
   d="m 321.267,278.949 -57.522,-68.063 c -9.762,-11.147 -9.988,-18.296 -5.372,-22.187 4.649,-3.885 7.981,-5.559 18.729,4.89 l 5.239,5.373 39.845,46.801 c 0.559,-0.611 1.206,-1.249 1.798,-1.851 l -16.865,-25.043 -5.351,-7.634 c -2.357,-11.05 13.894,-16.229 19.118,-10.105 l 5.771,7.09 13.304,20.726 c 0.166,-0.157 0.307,-0.282 0.481,-0.421 0.364,-0.316 0.704,-0.561 1.082,-0.886 l -14.666,-25.178 c -3.242,-9.26 12.896,-15.38 18.118,-9.281 l 13.952,21.157 c 0.448,-0.297 0.911,-0.628 1.357,-0.941 l -9.614,-19.483 c -2.166,-5.542 11.155,-12.182 15.985,-7.237 l 18.086,21.235 18.614,21.483 c 0.203,0.238 14.461,19.933 14.628,20.178 7.54,11.857 10.601,21.361 10.601,21.361 2.317,6.908 -4.516,14.498 -23.655,31.558 -17.856,15.892 -23.181,21.337 -29.832,19.864 0,0 -6.538,-2.529 -17.198,-6.066 -19.843,-15.227 -22.972,-19.717 -36.633,-37.34 z"
   id="path1873"
   inkscape:connector-curvature="0"
   style="fill:#f2d2b5" />
			<polygon
   points="379.726,337.586 447.197,275.81 438.445,266.482 370.995,328.229 "
   id="polygon1875"
   style="fill:#ffffff" />
			<polygon
   points="479.148,299.224 450.659,268.926 375.925,337.294 479.143,442.413 "
   id="polygon1877"
   style="fill:#48474a" />
			<path
   d="m 267.322,187.439 c -3.006,-0.521 -5.992,0.138 -8.144,2.142 -2.358,2.199 -3.076,5.481 -2.42,8.773 0.336,0.536 0.73,1.059 1.168,1.579 3.808,4.403 9.568,5.683 12.857,2.841 3.306,-2.843 2.888,-8.695 -0.909,-13.086 -0.78,-0.895 -1.637,-1.616 -2.552,-2.249 z"
   id="path1879"
   inkscape:connector-curvature="0"
   style="opacity:0.54000005;fill:#fcecdc" />
		</g>
		<g
   id="g1891">
			<g
   id="g1887">
				<path
   d="m 49.856,204.838 c 6.373,-8.465 24.33,-10.3 33.67,-12.793 10.474,-2.813 19.998,1.809 30.525,-1.452 8.268,-2.569 14.712,-0.338 11.494,9.064 -2.468,7.269 -13.098,10.533 -19.562,13.194 -7.798,3.216 -27.899,0.561 -34.773,6.152 -6.85,5.557 -6.909,17.705 -9.596,25.343 -3.976,11.279 -18.368,14.215 -28.383,13.888 -12.575,-0.389 -16.242,-13.619 -16.458,-16.191 -0.96,-10.649 27.883,-30.253 33.083,-37.205 z"
   id="path1883"
   inkscape:connector-curvature="0"
   style="fill:#f3d1b5" />
				<path
   d="m 114.317,190.352 c -1.726,0.534 -3.428,0.866 -5.151,1.346 0.165,0.56 0.187,1.208 0.526,1.708 2.574,4.083 9.071,4.298 14.49,0.481 0.624,-0.453 1.174,-0.91 1.718,-1.421 0.036,-0.063 0.049,-0.126 0.079,-0.195 -1.623,-3.142 -6.206,-3.597 -11.662,-1.919 z"
   id="path1885"
   inkscape:connector-curvature="0"
   style="opacity:0.54000005;fill:#fcecdc" />
			</g>
			<path
   d="m 125.106,191.436 c 0.108,1.373 -0.06,2.979 -0.739,4.978 -2.468,7.27 -13.099,10.533 -19.566,13.195 -7.794,3.215 -27.901,0.559 -34.771,6.152 -6.846,5.559 -6.91,17.7 -9.597,25.344 -3.979,11.278 -37.331,16.655 -27.197,16.964 10.014,0.333 24.405,-2.599 28.384,-13.879 2.684,-7.64 2.743,-19.79 9.597,-25.347 6.868,-5.584 26.966,-2.937 34.77,-6.147 6.46,-2.663 17.091,-5.927 19.563,-13.198 1.325,-3.859 0.954,-6.459 -0.444,-8.062 z"
   id="path1889"
   inkscape:connector-curvature="0"
   style="opacity:0.25;fill:#f9a673" />
		</g>
	</g>
	<circle
   clip-path="url(#SVGID_2_)"
   cx="324.17099"
   cy="110.358"
   r="3.2019999"
   id="circle1895"
   style="fill:#ff5536" />
</g></svg>