<?xml version="1.0" encoding="UTF-8" standalone="no"?>
<!-- Created with Inkscape (http://www.inkscape.org/) -->

<svg
   xmlns:dc="http://purl.org/dc/elements/1.1/"
   xmlns:cc="http://creativecommons.org/ns#"
   xmlns:rdf="http://www.w3.org/1999/02/22-rdf-syntax-ns#"
   xmlns:svg="http://www.w3.org/2000/svg"
   xmlns="http://www.w3.org/2000/svg"
   xmlns:sodipodi="http://sodipodi.sourceforge.net/DTD/sodipodi-0.dtd"
   xmlns:inkscape="http://www.inkscape.org/namespaces/inkscape"
   version="1.1"
   id="svg9"
   width="552.47662"
   height="504.95129"
   viewBox="0 0 552.47663 504.95131"
   sodipodi:docname="coffee112.svg"
   inkscape:version="0.92.3 (2405546, 2018-03-11)">
  <metadata
     id="metadata987">
    <rdf:RDF>
      <cc:Work
         rdf:about="">
        <dc:format>image/svg+xml</dc:format>
        <dc:type
           rdf:resource="http://purl.org/dc/dcmitype/StillImage" />
      </cc:Work>
    </rdf:RDF>
  </metadata>
  <defs
     id="defs13">
    <rect
       x="644.34662"
       y="688.47998"
       width="295.6933"
       height="229.49332"
       id="rect3726" />
    <clipPath
       clipPathUnits="userSpaceOnUse"
       id="clipPath69">
      <path
         d="m 334.5405,15740.398 c 0,3.993 3.2157,7.23 7.1825,7.23 h 221.6659 c 3.9668,0 7.1825,-3.237 7.1825,-7.23 v -172.383 c 0,-3.993 -3.2157,-7.23 -7.1825,-7.23 H 341.723 c -3.9668,0 -7.1825,3.237 -7.1825,7.23 z"
         id="path67" />
    </clipPath>
    <clipPath
       clipPathUnits="userSpaceOnUse"
       id="clipPath93">
      <path
         d="m 334.5405,15342.98 c 0,3.993 3.2157,7.23 7.1825,7.23 h 221.6659 c 3.9668,0 7.1825,-3.237 7.1825,-7.23 v -172.382 c 0,-3.994 -3.2157,-7.231 -7.1825,-7.231 H 341.723 c -3.9668,0 -7.1825,3.237 -7.1825,7.231 z"
         id="path91" />
    </clipPath>
    <clipPath
       clipPathUnits="userSpaceOnUse"
       id="clipPath105">
      <path
         d="m 334.5405,15148.271 c 0,3.993 3.2157,7.23 7.1825,7.23 h 221.6659 c 3.9668,0 7.1825,-3.237 7.1825,-7.23 v -172.383 c 0,-3.993 -3.2157,-7.23 -7.1825,-7.23 H 341.723 c -3.9668,0 -7.1825,3.237 -7.1825,7.23 z"
         id="path103" />
    </clipPath>
    <clipPath
       clipPathUnits="userSpaceOnUse"
       id="clipPath117">
      <path
         d="m 783.1297,14746.853 c 0,3.993 3.2156,7.231 7.1825,7.231 h 221.6658 c 3.9669,0 7.1826,-3.238 7.1826,-7.231 v -172.382 c 0,-3.993 -3.2157,-7.23 -7.1826,-7.23 H 790.3122 c -3.9669,0 -7.1825,3.237 -7.1825,7.23 z"
         id="path115" />
    </clipPath>
    <clipPath
       clipPathUnits="userSpaceOnUse"
       id="clipPath129">
      <path
         d="m 783.1297,15541.689 c 0,3.993 3.2156,7.23 7.1825,7.23 h 221.6658 c 3.9669,0 7.1826,-3.237 7.1826,-7.23 v -172.383 c 0,-3.993 -3.2157,-7.23 -7.1826,-7.23 H 790.3122 c -3.9669,0 -7.1825,3.237 -7.1825,7.23 z"
         id="path127" />
    </clipPath>
    <clipPath
       clipPathUnits="userSpaceOnUse"
       id="clipPath141">
      <path
         d="m 783.1297,15342.98 c 0,3.993 3.2156,7.23 7.1825,7.23 h 221.6658 c 3.9669,0 7.1826,-3.237 7.1826,-7.23 v -172.382 c 0,-3.994 -3.2157,-7.231 -7.1826,-7.231 H 790.3122 c -3.9669,0 -7.1825,3.237 -7.1825,7.231 z"
         id="path139" />
    </clipPath>
    <clipPath
       clipPathUnits="userSpaceOnUse"
       id="clipPath153">
      <path
         d="m 783.1297,15148.271 c 0,3.993 3.2156,7.23 7.1825,7.23 h 221.6658 c 3.9669,0 7.1826,-3.237 7.1826,-7.23 v -172.383 c 0,-3.993 -3.2157,-7.23 -7.1826,-7.23 H 790.3122 c -3.9669,0 -7.1825,3.237 -7.1825,7.23 z"
         id="path151" />
    </clipPath>
    <clipPath
       clipPathUnits="userSpaceOnUse"
       id="clipPath165">
      <path
         d="m 783.1297,14945.562 c 0,3.993 3.2156,7.231 7.1825,7.231 h 221.6658 c 3.9669,0 7.1826,-3.238 7.1826,-7.231 v -172.382 c 0,-3.993 -3.2157,-7.23 -7.1826,-7.23 H 790.3122 c -3.9669,0 -7.1825,3.237 -7.1825,7.23 z"
         id="path163" />
    </clipPath>
    <clipPath
       clipPathUnits="userSpaceOnUse"
       id="clipPath177">
      <path
         d="m 334.5405,14746.853 c 0,3.993 3.2157,7.231 7.1825,7.231 h 221.6659 c 3.9668,0 7.1825,-3.238 7.1825,-7.231 v -172.382 c 0,-3.993 -3.2157,-7.23 -7.1825,-7.23 H 341.723 c -3.9668,0 -7.1825,3.237 -7.1825,7.23 z"
         id="path175" />
    </clipPath>
    <clipPath
       clipPathUnits="userSpaceOnUse"
       id="clipPath189">
      <path
         d="m 334.5405,14945.562 c 0,3.993 3.2157,7.231 7.1825,7.231 h 221.6659 c 3.9668,0 7.1825,-3.238 7.1825,-7.231 v -172.382 c 0,-3.993 -3.2157,-7.23 -7.1825,-7.23 H 341.723 c -3.9668,0 -7.1825,3.237 -7.1825,7.23 z"
         id="path187" />
    </clipPath>
    <clipPath
       clipPathUnits="userSpaceOnUse"
       id="clipPath1987-1">
      <g
         id="g1991-2">
        <path
           d="m 89.53632,1235.433 c 0,3.993 3.2157,7.23 7.1825,7.23 h 221.6659 c 3.9668,0 7.1825,-3.237 7.1825,-7.23 V 1063.05 c 0,-3.993 -3.2157,-7.23 -7.1825,-7.23 H 96.71882 c -3.9668,0 -7.1825,3.237 -7.1825,7.23 z"
           id="path1989-5" />
      </g>
    </clipPath>
  </defs>
  <sodipodi:namedview
     id="namedview11"
     pagecolor="#ffffff"
     bordercolor="#111111"
     borderopacity="1"
     inkscape:showpageshadow="0"
     inkscape:pageopacity="0"
     inkscape:pagecheckerboard="1"
     inkscape:deskcolor="#d1d1d1"
     showgrid="false"
     inkscape:zoom="0.40111513"
     inkscape:cx="29.916594"
     inkscape:cy="633.23465"
     inkscape:window-width="1920"
     inkscape:window-height="1057"
     inkscape:window-x="-8"
     inkscape:window-y="-8"
     inkscape:window-maximized="1"
     inkscape:current-layer="g17">
    <inkscape:page
       x="0"
       y="0"
       id="page15"
       width="552.47662"
       height="504.95132" />
  </sodipodi:namedview>
  <g
     id="g17"
     inkscape:groupmode="layer"
     inkscape:label="Page 1"
     transform="matrix(1.3333333,0,0,-1.3333333,0,1755.54)"
     style="display:inline">
    <path
       d="M -7.9830307e-5,1316.895 H 414.22782 V 937.0129 H -7.9830307e-5 Z"
       style="fill:#f0f0fa;fill-opacity:1;fill-rule:evenodd;stroke:none;stroke-width:0.36040601"
       id="path21"
       inkscape:label="bg13"
       inkscape:connector-curvature="0" />
    <path
       id="path71"
       clip-path="none"
       style="vector-effect:none;fill:#a2c1f9;fill-opacity:1;stroke:#cccccc;stroke-width:1.22988284;stroke-linecap:butt;stroke-linejoin:miter;stroke-miterlimit:3.86360002;stroke-dasharray:none;stroke-dashoffset:0;stroke-opacity:1"
       inkscape:label="path111"
       d="m 31.272406,994.52549 c -1.449388,0 -2.625278,1.2046 -2.625278,2.6892 v 280.48561 c 0,1.4864 1.17589,2.6894 2.625278,2.6894 H 379.41772 c 1.44939,0 2.62299,-1.203 2.62299,-2.6894 V 997.21469 c 0,-1.4846 -1.1736,-2.6892 -2.62299,-2.6892 z"
       inkscape:connector-curvature="0" />
    <text
       xml:space="preserve"
       transform="scale(0.98791065,-1.0122373)"
       style="font-variant:normal;font-weight:normal;font-size:110.70327759px;font-family:'Arial Rounded MT Bold';-inkscape-font-specification:ArialRoundedMTBold;writing-mode:lr-tb;fill:#ffffff;fill-opacity:0.99607843;fill-rule:nonzero;stroke:none;stroke-width:1.53754532;"
       id="text197"
       x="44.352135"
       y="-1161.0084"
       inkscape:label="text111"><tspan
         x="44.352135"
         sodipodi:role="line"
         id="tspan195"
         y="-1161.0084"
         style="fill:#ffffff;fill-opacity:0.99607843;stroke-width:1.53754532;">312.</tspan></text>
    <text
       xml:space="preserve"
       transform="scale(0.98791065,-1.0122373)"
       style="font-variant:normal;font-weight:normal;font-size:70.85009766px;line-height:0.28;font-family:'Arial Rounded MT Bold';-inkscape-font-specification:ArialRoundedMTBold;writing-mode:lr-tb;display:inline;opacity:1;vector-effect:none;fill:#ffffff;fill-opacity:0.99607843;fill-rule:nonzero;stroke:none;stroke-width:0.98402905;stroke-linecap:butt;stroke-linejoin:miter;stroke-miterlimit:4;stroke-dasharray:none;stroke-dashoffset:0;stroke-opacity:1;"
       id="text197-4"
       x="65.051826"
       y="-1129.2563"
       inkscape:label="text111"><tspan
         x="65.051826"
         sodipodi:role="line"
         id="tspan195-5"
         y="-1129.2563"
         style="font-size:32.00000381px;line-height:0.28;vector-effect:none;fill:#ffffff;fill-opacity:0.99607843;stroke:none;stroke-width:0.98402905;stroke-linecap:butt;stroke-linejoin:miter;stroke-miterlimit:4;stroke-dasharray:none;stroke-dashoffset:0;stroke-opacity:1;">CENTRO</tspan><tspan
         x="65.051826"
         sodipodi:role="line"
         y="-1104.1285"
         style="font-size:32.00000381px;line-height:0.28;vector-effect:none;fill:#ffffff;fill-opacity:0.99607843;stroke:none;stroke-width:0.98402905;stroke-linecap:butt;stroke-linejoin:miter;stroke-miterlimit:4;stroke-dasharray:none;stroke-dashoffset:0;stroke-opacity:1;"
         id="tspan3974">COMERCIAL</tspan><tspan
         x="65.051826"
         sodipodi:role="line"
         y="-1079.0007"
         style="font-size:32.00000381px;line-height:0.28;vector-effect:none;fill:#ffffff;fill-opacity:0.99607843;stroke:none;stroke-width:0.98402905;stroke-linecap:butt;stroke-linejoin:miter;stroke-miterlimit:4;stroke-dasharray:none;stroke-dashoffset:0;stroke-opacity:1;"
         id="tspan917">LA GRANJA</tspan></text>
    <path
       inkscape:connector-curvature="0"
       d="m -772.73618,1031.9212 c -1.44939,0 -2.62528,1.2046 -2.62528,2.6892 v 280.4856 c 0,1.4864 1.17589,2.6894 2.62528,2.6894 h 348.14532 c 1.44939,0 2.62299,-1.203 2.62299,-2.6894 v -280.4856 c 0,-1.4846 -1.1736,-2.6892 -2.62299,-2.6892 z"
       inkscape:label="path111"
       style="vector-effect:none;fill:#000081;fill-opacity:0.9372549;stroke:#cccccc;stroke-width:1.22988284;stroke-linecap:butt;stroke-linejoin:miter;stroke-miterlimit:3.86360002;stroke-dasharray:none;stroke-dashoffset:0;stroke-opacity:1"
       clip-path="none"
       id="path3241" />
    <text
       inkscape:label="text111"
       y="-1197.952"
       x="-769.49536"
       id="text3245"
       style="font-variant:normal;font-weight:normal;font-size:110.70327759px;font-family:'Arial Rounded MT Bold';-inkscape-font-specification:ArialRoundedMTBold;writing-mode:lr-tb;fill:#a3c2f9;fill-opacity:0.99607843;fill-rule:nonzero;stroke:none;stroke-width:1.53754532"
       transform="scale(0.98791065,-1.0122373)"
       xml:space="preserve"><tspan
         style="fill:#a3c2f9;fill-opacity:0.99607843;stroke-width:1.53754532"
         y="-1197.952"
         id="tspan3243"
         sodipodi:role="line"
         x="-769.49536">312.</tspan></text>
    <text
       inkscape:label="text111"
       y="-1166.2"
       x="-748.79565"
       id="text3253"
       style="font-variant:normal;font-weight:normal;font-size:70.85009766px;line-height:0.28;font-family:'Arial Rounded MT Bold';-inkscape-font-specification:ArialRoundedMTBold;writing-mode:lr-tb;display:inline;opacity:1;vector-effect:none;fill:#a3c2f9;fill-opacity:0.99607843;fill-rule:nonzero;stroke:none;stroke-width:0.98402905;stroke-linecap:butt;stroke-linejoin:miter;stroke-miterlimit:4;stroke-dasharray:none;stroke-dashoffset:0;stroke-opacity:1"
       transform="scale(0.98791065,-1.0122373)"
       xml:space="preserve"><tspan
         style="font-size:32.00000381px;line-height:0.28;vector-effect:none;fill:#a3c2f9;fill-opacity:0.99607843;stroke:none;stroke-width:0.98402905;stroke-linecap:butt;stroke-linejoin:miter;stroke-miterlimit:4;stroke-dasharray:none;stroke-dashoffset:0;stroke-opacity:1"
         y="-1166.2"
         id="tspan3247"
         sodipodi:role="line"
         x="-748.79565">CENTRO</tspan><tspan
         id="tspan3249"
         style="font-size:32.00000381px;line-height:0.28;vector-effect:none;fill:#a3c2f9;fill-opacity:0.99607843;stroke:none;stroke-width:0.98402905;stroke-linecap:butt;stroke-linejoin:miter;stroke-miterlimit:4;stroke-dasharray:none;stroke-dashoffset:0;stroke-opacity:1"
         y="-1141.0721"
         sodipodi:role="line"
         x="-748.79565">COMERCIAL</tspan><tspan
         id="tspan3251"
         style="font-size:32.00000381px;line-height:0.28;vector-effect:none;fill:#a3c2f9;fill-opacity:0.99607843;stroke:none;stroke-width:0.98402905;stroke-linecap:butt;stroke-linejoin:miter;stroke-miterlimit:4;stroke-dasharray:none;stroke-dashoffset:0;stroke-opacity:1"
         y="-1115.9443"
         sodipodi:role="line"
         x="-748.79565">LA GRANJA</tspan></text>
  </g>
</svg>
