<?xml version="1.0" encoding="UTF-8" standalone="no"?>
<!-- Created with Inkscape (http://www.inkscape.org/) -->

<svg
   xmlns:dc="http://purl.org/dc/elements/1.1/"
   xmlns:cc="http://creativecommons.org/ns#"
   xmlns:rdf="http://www.w3.org/1999/02/22-rdf-syntax-ns#"
   xmlns:svg="http://www.w3.org/2000/svg"
   xmlns="http://www.w3.org/2000/svg"
   xmlns:sodipodi="http://sodipodi.sourceforge.net/DTD/sodipodi-0.dtd"
   xmlns:inkscape="http://www.inkscape.org/namespaces/inkscape"
   width="125.16005mm"
   height="123.17331mm"
   viewBox="0 0 125.16005 123.17331"
   version="1.1"
   id="svg2017"
   inkscape:version="0.92.3 (2405546, 2018-03-11)"
   sodipodi:docname="gg_coffee012b.svg">
  <defs
     id="defs2011">
    <pattern
       y="0"
       x="0"
       height="6"
       width="6"
       patternUnits="userSpaceOnUse"
       id="EMFhbasepattern" />
    <pattern
       y="0"
       x="0"
       height="6"
       width="6"
       patternUnits="userSpaceOnUse"
       id="EMFhbasepattern-7" />
  </defs>
  <sodipodi:namedview
     id="base"
     pagecolor="#ffffff"
     bordercolor="#666666"
     borderopacity="1.0"
     inkscape:pageopacity="0.0"
     inkscape:pageshadow="2"
     inkscape:zoom="0.485625"
     inkscape:cx="-217.19284"
     inkscape:cy="-188.8587"
     inkscape:document-units="mm"
     inkscape:current-layer="layer1"
     showgrid="false"
     inkscape:window-width="1920"
     inkscape:window-height="1057"
     inkscape:window-x="-8"
     inkscape:window-y="-8"
     inkscape:window-maximized="1"
     fit-margin-top="0"
     fit-margin-left="0"
     fit-margin-right="0"
     fit-margin-bottom="0" />
  <metadata
     id="metadata2014">
    <rdf:RDF>
      <cc:Work
         rdf:about="">
        <dc:format>image/svg+xml</dc:format>
        <dc:type
           rdf:resource="http://purl.org/dc/dcmitype/StillImage" />
        <dc:title></dc:title>
      </cc:Work>
    </rdf:RDF>
  </metadata>
  <g
     inkscape:label="Capa 1"
     inkscape:groupmode="layer"
     id="layer1"
     style="display:inline"
     transform="translate(-39.355299,-17.864823)">
    <path
       id="path3669"
       d="m 123.78863,111.23813 -2.98,11.92 -2.98,8.94004 -1.98666,4.96664 -0.99333,0.99332 h -0.99334 l -4.96666,0.99336 h -5.96001 l -5.959995,-0.99336 -4.966672,-1.98664 -1.98666,-0.99336 -0.993332,-0.99332 -6.953336,-9.93332 -6.953332,-8.94 -0.993332,-2.98 z M 39.355299,80.444815 v -5.95998 l 0.99334,-6.95334 1.98666,-5.95998 1.986672,-5.96 2.979992,-4.966682 2.980004,-4.96668 2.98,-4.966641 3.973332,-4.96668 4.966664,-3.97332 4.966672,-2.980009 4.966664,-2.98 4.966664,-2.98 5.960004,-1.98668 5.960004,-1.98668 5.959992,-0.99332 h 6.953337 5.96 l 6.95334,0.99332 5.95999,1.98668 4.96668,1.98668 5.95999,2.98 4.96666,2.98 4.96667,2.980009 3.97332,3.97332 4.96668,4.96668 2.98004,4.966641 2.98,4.96668 2.98,4.966682 1.98668,5.96 1.98664,5.95998 0.99336,6.95334 v 5.95998 l -0.99336,7.9467 -0.99332,6.9533 -0.99332,2.98 -0.99336,3.973315 -2.98,6.95336 -3.97332,-12.913355 -1.98672,-3.97332 -1.98664,-3.97332 -0.99336,-1.98668 -1.98664,-0.99332 -3.97336,-3.97336 -6.95332,-3.97332 -4.96666,-2.98 -2.98,-2.98 -0.99334,-0.99332 v -1.98668 -1.98668 -1.98664 l 1.98666,-5.96 1.98668,-7.946683 0.99333,-4.966679 v -3.973321 -4.966679 l -0.99333,-3.97332 -0.99333,-1.986681 -0.99335,-1.986629 -0.99332,-1.986681 -1.98666,-0.99332 -2.98001,-2.98 -2.98,-1.986679 -2.98,-0.993321 h -2.98 -2.97999 l -2.98001,0.993321 -6.95333,2.979999 -0.993331,0.99332 -1.986672,1.98668 -0.993332,1.986681 -0.993328,1.986629 -1.986672,3.973361 v 4.96664 7.94668 3.97332 l 0.993328,3.973362 0.993344,5.96 1.98666,2.98 1.986672,3.97332 1.986661,3.97332 3.97333,3.97336 h 2.98001 2.98 l 1.98666,-0.99336 2.98,-1.98664 h 0.99333 v 0.99332 l -0.99333,0.99332 -0.99333,1.98668 -1.98667,0.99332 -1.98666,0.99336 h -3.97334 -0.99334 l -0.99333,-0.99336 -13.906667,5.96 -1.98666,1.98668 -2.980004,2.98 -3.973332,8.94 -3.973332,7.946675 -1.986672,3.97332 31.786677,-0.99332 2.98,-8.94 3.97333,-5.959995 1.98666,-3.97336 0.99334,0.99336 -0.99334,0.99332 -1.98666,5.96 -3.97333,10.926675 15.89333,-1.98668 -1.98666,5.96 10.92665,7.94668 v -8.94 -6.95336 l 0.99334,-2.98 h 0.99333 v 2.98 l 0.99333,18.87336 8.93999,-3.97336 -3.97332,2.98 -2.98,2.98 -1.98667,1.98668 -14.9,-13.90668 -2.98,10.92668 h 0.99334 l 0.99333,0.99332 1.98668,0.99336 0.99332,1.98668 0.99334,1.98664 1.98667,3.97332 v 0.99336 l -1.98667,0.99332 -2.98001,-5.96 -0.99333,-1.98664 -0.99333,-0.99336 h -0.99334 l -0.99333,1.98668 -0.99333,2.98 -0.99333,2.98 -0.99334,1.98664 -1.98666,1.98668 -0.99333,0.99332 h -1.98667 -4.96667 -6.95333 l -6.953335,-1.98664 -2.980004,-0.99336 -0.993328,-0.99332 -7.946668,-9.93332 -5.960004,-6.95336 -0.993328,-0.99332 v -0.99332 l -0.993332,0.99332 -1.986672,4.96668 -0.993332,3.97332 v 6.95332 l -2.98,-1.98664 -3.973332,-1.98668 -5.960004,-5.96 -4.966664,-5.96 -4.966664,-6.95332 -1.986672,-2.98 -1.98666,-3.97336 -2.98,-7.946635 -0.993332,-7.94668 -0.99334,-4.96668 z"
       style="fill:#00cd33;fill-opacity:1;fill-rule:evenodd;stroke:none;stroke-width:1.05833328"
       inkscape:connector-curvature="0" />
  </g>
</svg>
