<?xml version="1.0" encoding="UTF-8" standalone="no"?>
<!-- Generator: Gravit.io -->

<svg
   xmlns:dc="http://purl.org/dc/elements/1.1/"
   xmlns:cc="http://creativecommons.org/ns#"
   xmlns:rdf="http://www.w3.org/1999/02/22-rdf-syntax-ns#"
   xmlns:svg="http://www.w3.org/2000/svg"
   xmlns="http://www.w3.org/2000/svg"
   xmlns:xlink="http://www.w3.org/1999/xlink"
   xmlns:sodipodi="http://sodipodi.sourceforge.net/DTD/sodipodi-0.dtd"
   xmlns:inkscape="http://www.inkscape.org/namespaces/inkscape"
   style="isolation:isolate"
   viewBox="0 0 1104.607 1329.61"
   width="1104.607"
   height="1329.61"
   version="1.1"
   id="svg160"
   sodipodi:docname="coffee_120g.svg"
   inkscape:version="0.92.3 (2405546, 2018-03-11)">
  <metadata
     id="metadata164">
    <rdf:RDF>
      <cc:Work
         rdf:about="">
        <dc:format>image/svg+xml</dc:format>
        <dc:type
           rdf:resource="http://purl.org/dc/dcmitype/StillImage" />
      </cc:Work>
    </rdf:RDF>
  </metadata>
  <sodipodi:namedview
     pagecolor="#ffffff"
     bordercolor="#666666"
     borderopacity="1"
     objecttolerance="10"
     gridtolerance="10"
     guidetolerance="10"
     inkscape:pageopacity="0"
     inkscape:pageshadow="2"
     inkscape:window-width="935"
     inkscape:window-height="998"
     id="namedview162"
     showgrid="false"
     inkscape:zoom="0.47225188"
     inkscape:cx="436.24088"
     inkscape:cy="690.88659"
     inkscape:window-x="976"
     inkscape:window-y="17"
     inkscape:window-maximized="0"
     inkscape:current-layer="svg160" />
  <defs
     id="defs91">
    <clipPath
       id="_clipPath_5Khgqdta4Suk9ytSmiyhX1akXjxTdTpj">
      <rect
         width="1104.607"
         height="1329.61"
         id="rect88" />
    </clipPath>
    <clipPath
       clipPathUnits="userSpaceOnUse"
       id="clipPath183">
      <rect
         id="rect185"
         width="665.77393"
         height="665.77393"
         x="213.88989"
         y="205.13127"
         style="fill:none;stroke:#4d4d4d" />
    </clipPath>
  </defs>
  <g
     clip-path="url(#_clipPath_5Khgqdta4Suk9ytSmiyhX1akXjxTdTpj)"
     id="g158">
    <g
       id="svg8">
      <g
         id="fondo_x5F__violeta">
        <path
           d=" M 0 0 L 1104.607 0 L 1104.607 2247.305 L 0 2247.305 L 0 0 Z "
           fill="rgb(240,240,250)"
           id="path93" />
      </g>
      <g
         id="celular">
        <path
           d=" M 107.888 270.377 C 107.888 220.281 148.496 179.673 198.591 179.673 L 930.688 179.673 C 980.782 179.673 1021.389 220.281 1021.389 270.377 L 1021.389 2001.303 C 1021.389 2051.399 980.782 2092.007 930.688 2092.007 L 198.591 2092.007 C 148.497 2092.007 107.888 2051.399 107.888 2001.303 L 107.888 270.377 L 107.888 270.377 Z "
           fill="rgb(204,204,204)"
           vector-effect="non-scaling-stroke"
           stroke-width="0.706"
           stroke="rgb(204,204,204)"
           stroke-linejoin="miter"
           stroke-linecap="butt"
           stroke-miterlimit="3.8637"
           id="path96" />
        <path
           d=" M 129.165 252.364 C 129.165 216.143 158.527 186.782 194.748 186.782 L 938.953 186.782 C 975.175 186.782 1004.537 216.142 1004.537 252.364 L 1004.537 2005.111 C 1004.537 2041.333 975.175 2070.695 938.953 2070.695 L 194.748 2070.695 C 158.527 2070.695 129.165 2041.333 129.165 2005.111 L 129.165 252.364 L 129.165 252.364 Z "
           fill="rgb(255,255,255)"
           id="path98" />
      </g>
      <g
         id="layer3">
        <path
           d=" M 225.477 1772.172 C 225.477 1760.701 234.468 1751.403 245.559 1751.403 L 865.327 1751.403 C 876.418 1751.403 885.409 1760.701 885.409 1772.172 L 885.409 1990.163 C 885.409 2001.636 876.418 2010.934 865.327 2010.934 L 245.559 2010.934 C 234.468 2010.934 225.477 2001.636 225.477 1990.163 L 225.477 1772.172 Z "
           fill="rgb(55,171,200)"
           vector-effect="non-scaling-stroke"
           stroke-width="0.6"
           stroke="rgb(204,204,204)"
           stroke-linejoin="miter"
           stroke-linecap="butt"
           stroke-miterlimit="3.8636"
           id="path101" />
        <g
           transform="matrix(1,0,0,1,255.775,1758.609)"
           id="g105">
          <text
             transform="matrix(1,0,0,1,0,199.667)"
             style="font-family:&quot;Arial Rounded MT Bold&quot;;font-weight:400;font-size:211px;font-style:normal;fill:#FFFFFF;stroke:none;"
             id="text103">121.</text>
        </g>
      </g>
      <g
         id="layer4">
        <path
           d=" M 221.839 900.362 C 219.118 900.362 216.91 902.623 216.91 905.411 L 216.91 1293.977 C 216.91 1296.767 219.118 1299.026 221.839 1299.026 L 875.424 1299.026 C 878.145 1299.026 880.348 1296.767 880.348 1293.977 L 880.348 905.411 C 880.348 902.623 878.145 900.362 875.424 900.362 L 221.839 900.362 Z "
           fill="rgb(0,0,129)"
           fill-opacity="0.9347"
           vector-effect="non-scaling-stroke"
           stroke-width="0.611"
           stroke="rgb(204,204,204)"
           stroke-linejoin="miter"
           stroke-linecap="butt"
           stroke-miterlimit="3.8636"
           id="path108" />
        <g
           transform="matrix(0.976,0,0,1,245.388,894.802)"
           id="g112">
          <text
             transform="matrix(1,0,0,1,0,198.721)"
             style="font-family:&quot;Arial Rounded MT Bold&quot;;font-weight:400;font-size:210px;font-style:normal;fill:#37ABC8;stroke:none;"
             id="text110">111.</text>
        </g>
        <path
           d=" M 218.506 1334.659 C 218.506 1331.872 220.723 1329.61 223.459 1329.61 L 880.444 1329.61 C 883.179 1329.61 885.396 1331.872 885.396 1334.659 L 885.396 1723.224 C 885.396 1726.011 883.179 1728.273 880.444 1728.273 L 223.459 1728.273 C 220.724 1728.273 218.506 1726.011 218.506 1723.224 L 218.506 1334.659 L 218.506 1334.659 Z "
           fill="rgb(0,0,129)"
           fill-opacity="0.9347"
           vector-effect="non-scaling-stroke"
           stroke-width="0.611"
           stroke="rgb(204,204,204)"
           stroke-linejoin="miter"
           stroke-linecap="butt"
           stroke-miterlimit="3.8636"
           id="path114" />
        <g
           transform="matrix(1,0,0,1,259.253,1337.892)"
           id="g118">
          <text
             transform="matrix(1,0,0,1,0,195.882)"
             style="font-family:&quot;Arial Rounded MT Bold&quot;;font-weight:400;font-size:207px;font-style:normal;fill:#37ABC8;stroke:none;"
             id="text116">1</text>
        </g>
        <g
           transform="matrix(1,0,0,1,259.253,1337.892)"
           id="g122">
          <text
             transform="matrix(1,0,0,1,0,195.882)"
             style="font-family:&quot;Arial Rounded MT Bold&quot;;font-weight:400;font-size:207px;font-style:normal;fill:#37ABC8;stroke:none;"
             id="text120">1</text>
        </g>
        <g
           transform="matrix(1,0,0,1,259.253,1337.892)"
           id="g126">
          <text
             transform="matrix(1,0,0,1,0,195.882)"
             style="font-family:&quot;Arial Rounded MT Bold&quot;;font-weight:400;font-size:207px;font-style:normal;fill:#37ABC8;stroke:none;"
             id="text124">1</text>
        </g>
        <g
           transform="matrix(1,0,0,1,259.253,1337.892)"
           id="g130">
          <text
             transform="matrix(1,0,0,1,0,195.882)"
             style="font-family:&quot;Arial Rounded MT Bold&quot;;font-weight:400;font-size:207px;font-style:normal;fill:#37ABC8;stroke:none;"
             id="text128">1</text>
        </g>
        <g
           transform="matrix(1,0,0,1,259.253,1337.892)"
           id="g134">
          <text
             transform="matrix(1,0,0,1,0,195.882)"
             style="font-family:&quot;Arial Rounded MT Bold&quot;;font-weight:400;font-size:207px;font-style:normal;fill:#37ABC8;stroke:none;"
             id="text132">1</text>
        </g>
        <g
           transform="matrix(1,0,0,1,259.253,1337.892)"
           id="g138">
          <text
             transform="matrix(1,0,0,1,0,195.882)"
             style="font-family:&quot;Arial Rounded MT Bold&quot;;font-weight:400;font-size:207px;font-style:normal;fill:#37ABC8;stroke:none;"
             id="text136">1</text>
        </g>
        <g
           transform="matrix(1,0,0,1,259.253,1337.892)"
           id="g142">
          <text
             transform="matrix(1,0,0,1,0,195.882)"
             style="font-family:&quot;Arial Rounded MT Bold&quot;;font-weight:400;font-size:207px;font-style:normal;fill:#37ABC8;stroke:none;"
             id="text140">1</text>
        </g>
        <g
           transform="matrix(1,0,0,1,259.253,1337.892)"
           id="g146">
          <text
             transform="matrix(1,0,0,1,0,195.882)"
             style="font-family:&quot;Arial Rounded MT Bold&quot;;font-weight:400;font-size:207px;font-style:normal;fill:#37ABC8;stroke:none;"
             id="text144">164.</text>
        </g>
        <g
           transform="matrix(0.976,0,0,1,258.591,1092.537)"
           id="g150">
          <text
             transform="matrix(1,0,0,1,0,89.897)"
             style="font-family:&quot;Arial Rounded MT Bold&quot;;font-weight:400;font-size:95px;font-style:normal;fill:#37ABC8;stroke:none;"
             id="text148">PASEO </text>
        </g>
        <g
           transform="matrix(0.976,0,0,1,258.591,1167.146)"
           id="g154">
          <text
             transform="matrix(1,0,0,1,0,89.897)"
             style="font-family:&quot;Arial Rounded MT Bold&quot;;font-weight:400;font-size:95px;font-style:normal;fill:#37ABC8;stroke:none;"
             id="text152">LA GRANJA</text>
        </g>
      </g>
    </g>
  </g>
  <image
     sodipodi:absref="C:\Users\PUBLUCIDAD\Desktop\www_pwa_2\ww\_32mas_actualizar\images\app\ADE07096_valencia 001.png"
     xlink:href="ADE07096_valencia 001.png"
     clip-path="url(#clipPath183)"
     width="1920"
     height="1080"
     preserveAspectRatio="none"
     id="image174"
     x="213.88989"
     y="-209.09482" />
</svg>
